<svg width="243.579" height="127.343" xmlns="http://www.w3.org/2000/svg" fill="none" viewBox="0 0 243.579 127.343"><g id="ns7_Vector"><path d="M140.694 90.4119C141.435 90.3548 141.953 90.5654 141.987 91.3686C142.05 92.8873 141.987 94.4398 141.979 95.9605L141.972 105.013C144.832 102.96 147.698 101.614 151.273 102.737C153.062 103.31 154.477 104.694 155.092 106.47C156.006 109.032 155.421 116.834 155.565 119.893C155.62 120.946 155.443 122.328 155.921 123.283C156.522 124.482 158.35 123.866 159.001 125.145C159.109 125.357 159.032 125.404 158.959 125.636C158.092 126.521 155.74 125.926 154.547 125.934C151.985 125.951 149.42 125.991 146.861 126.088C146.202 126.113 145.72 125.854 145.544 125.205C145.909 124.219 147.787 124.333 148.381 123.375C148.861 120.77 148.7 109.707 148.003 107.237C147.608 106.766 147.207 106.301 146.8 105.84C145.435 105.556 145.117 105.546 143.754 105.814C140.79 109.084 142.376 117.096 141.957 121.379C141.677 124.238 143.816 123.877 144.402 125.172C144.384 125.653 144.46 125.549 144.195 125.858C143.836 126.008 143.425 126.087 143.04 126.073C141.982 126.033 140.993 125.906 139.921 125.915C137.741 125.932 135.552 126.068 133.375 126.069C132.881 126.069 131.851 125.946 131.525 125.55C131.393 125.391 131.443 125.376 131.463 125.132C132.139 124.141 133.291 124.591 134.805 123.332C135.177 119.82 134.979 113.599 134.981 109.863C134.981 106.163 135.145 99.4829 134.685 96.1053C133.681 95.2102 131.535 94.9683 131.865 93.7098C132.268 93.3009 133.444 92.9772 134.03 92.8262C136.421 92.2097 138.48 91.5213 140.694 90.4119Z" fill="white"></path><path d="M170.585 102.288C171.165 102.231 172.907 102.442 173.517 102.579C179.594 103.951 179.146 107.853 179.13 112.556L179.104 119.535C179.1 120.493 178.943 121.951 179.454 122.712C180.547 123.407 180.72 122.057 181.628 122.12C182.105 122.304 181.947 122.176 182.224 122.6C182.688 125.276 177.259 128.168 175.029 127.125C173.644 126.478 172.864 124.452 172.277 123.169C169.498 126.218 164.194 129.622 160.988 125.148C160.282 123.632 160.117 121.468 160.595 119.88C161.805 115.856 168.057 113.811 171.549 111.92C171.941 110.472 172.26 104.993 170.74 104.288C170.192 104.319 169.575 104.647 169.059 104.876C167.579 107.338 166.124 110.622 163.016 111.08C162.228 111.295 160.294 111.071 160.361 109.858C160.64 104.824 166.841 102.679 170.585 102.288ZM167.353 122.341C172.426 124.047 171.966 119.146 171.81 115.89C171.788 115.425 171.845 114.364 171.566 114.058L171.469 114.14C170.808 114.687 170.204 114.911 169.48 115.351C168.006 116.249 166.525 117.86 166.325 119.627C166.245 120.328 166.571 121.466 167.033 122.008C167.119 122.109 167.255 122.244 167.353 122.341Z" fill="white"></path><path d="M63.1252 102.402C66.123 101.976 70.4759 103.065 71.8057 106.104C72.9944 108.821 71.5756 120.95 72.5167 122.681C73.6085 123.403 74.5976 121.547 75.327 122.499C75.6893 125.425 70.8071 128.001 68.3466 127.079C66.8785 126.53 66.0186 124.477 65.3743 123.14C63.7698 125.023 62.454 125.97 60.1162 126.906C58.9612 127.348 57.4443 127.577 56.2984 126.986C55.6451 126.65 54.5927 125.927 54.3361 125.226C54.1609 124.901 54.0113 124.602 53.906 124.249C51.7989 117.766 57.6021 115.388 62.3378 113.171C65.3201 111.774 65.2444 111.37 65.1047 108.145C65.0532 106.954 65.13 104.931 63.8307 104.317C60.5184 104.476 60.4412 112.803 53.9285 110.806C52.5102 107.453 56.3071 104.771 58.9195 103.489C60.1724 102.875 61.7536 102.619 63.1252 102.402ZM59.8357 121.484C60.0627 121.74 60.3823 122.125 60.6162 122.356C66.6801 125.185 64.9575 113.914 64.8244 113.797C63.3171 115.565 59.4396 116.151 59.6811 120.4C59.7009 120.748 59.7716 121.138 59.8357 121.484Z" fill="white"></path><path d="M117.744 93.0709C119.543 92.8373 126.874 92.8951 128.234 94.8259C128.767 95.5837 129.521 100.996 128.339 101.581C126.965 101.52 125.199 96.6916 122.882 95.726C116.827 93.2029 113.209 98.4546 111.759 103.621C110.57 107.857 110.402 111.882 111.478 116.146C112.649 120.786 115.971 125.937 121.348 124.97C122.846 124.687 125.193 122.791 125.884 121.47C126.445 120.576 127.874 116.796 128.856 117.075C130.003 118.353 129.762 123.381 128.49 124.662C126.934 126.23 124.566 126.846 122.467 127.076C117.573 127.609 112.627 126.94 108.729 123.735C101.619 117.901 100.967 105.307 106.858 98.4242C109.728 95.0711 113.397 93.4866 117.744 93.0709Z" fill="white"></path><path d="M191.854 101.462L192.271 101.531C193.418 102.319 192.342 104.722 192.955 105.636C193.266 105.61 194.058 104.528 194.33 104.199C196.683 101.351 201.772 102.342 201.844 106.478C201.873 107.729 201.387 108.937 200.5 109.82C198.011 112.288 195.471 109.037 193.867 107.343C193.331 108.736 193.136 109.688 193.104 111.193C193.021 115.148 192.89 119.278 193.3 123.207C194.213 124.095 194.36 124.133 195.548 124.46C196.106 124.807 196.215 124.866 196.367 125.464C196.235 125.871 195.984 126.165 195.493 126.119C191.529 125.741 187.565 126.11 183.603 126.031C183.086 126.021 182.949 125.881 182.653 125.514C182.569 125.036 182.518 125.133 182.668 124.719C183.415 124.103 186.02 124.802 185.973 122.062C185.897 117.584 186.225 112.972 185.691 108.53C185.617 107.905 183.801 107.603 183.242 107.338C182.958 106.98 183.01 107.146 183.02 106.721C183.538 105.896 184.542 105.652 185.42 105.388C187.892 104.645 189.6 102.517 191.854 101.462Z" fill="white"></path><path d="M36.4496 123.572C37.2053 122.178 36.7256 110.94 36.4923 108.633C36.3804 107.527 34.4538 108.098 33.8095 106.956C33.97 106.485 34.4732 106.06 34.8916 105.885C36.486 105.217 37.8052 104.771 39.2912 103.82C40.3223 103.16 41.7001 101.845 42.8167 101.533C43.6763 101.839 43.5539 104.949 43.5917 105.885C44.8351 104.26 45.8808 103.061 48.0032 102.662C51.4411 102.016 53.5387 105.481 52.4366 108.334C51.545 110.643 48.5845 111.555 46.8726 109.586C46.4521 109.102 45.2294 107.748 44.8947 107.601C44.6061 107.696 44.4723 107.827 44.3398 108.11C43.812 109.236 43.7215 122.37 44.1278 123.321C44.2657 123.643 44.5231 123.875 44.85 123.996C45.4483 124.217 46.6916 124.359 47.0166 124.969C47.1354 125.191 47.1475 125.523 47.1719 125.772C46.6286 125.697 45.1856 125.711 44.5694 125.685C41.4028 125.549 38.237 125.711 35.0722 125.77C34.4751 125.782 34.3562 125.803 34.0167 125.463C34.0151 124.976 34.1831 124.891 34.5036 124.442C34.9268 124.103 35.5464 124.452 36.4496 123.572Z" fill="white"></path><path d="M81.0911 119.659C82.4789 119.253 83.9753 119.705 84.9069 120.811C85.7113 121.765 85.9719 123.065 85.5978 124.256C85.2237 125.447 84.2669 126.365 83.0612 126.687C81.1296 127.205 79.1407 126.073 78.601 124.147C78.0613 122.222 79.1716 120.22 81.0911 119.659Z" fill="white"></path><path d="M33.3218 125.235C33.6531 124.718 33.9485 124.634 34.5036 124.442C34.1831 124.891 34.0151 124.976 34.0167 125.463C34.3562 125.803 34.4751 125.782 35.0722 125.77C38.237 125.711 41.4028 125.549 44.5694 125.685C45.1856 125.711 46.6286 125.697 47.1719 125.772C46.4091 126.295 43.0805 125.975 41.9904 125.955C39.325 125.906 36.6761 126.132 34.0234 126.024C33.8255 126.017 33.436 125.404 33.3218 125.235Z" fill="white" fill-opacity="0.968627"></path><path d="M119.317 0H124.242C124.954 0.272043 126.696 0.471559 127.548 0.674837C134.336 2.29447 140.419 7.80913 142.475 14.5102C142.877 15.8224 143.216 16.3595 143.242 17.7909C152.249 18.7333 159.371 24.3286 161.726 33.1856C164.855 44.9573 154.885 56.5909 143.202 57.386C142.823 61.514 140.574 65.4881 137.784 68.4809C129.52 77.343 113.989 77.3422 105.771 68.4177C103.101 65.5186 100.556 61.4711 100.399 57.4131C97.2463 57.381 92.9371 55.467 90.2916 53.7883C85.9105 50.9763 82.8142 46.551 81.6736 41.4717C80.7259 37.236 81.4086 31.9372 83.7532 28.2189C86.0338 24.3636 88.1331 22.2148 92.1989 20.2088C95.4473 18.606 96.9757 18.4538 100.361 17.7022C100.364 17.1285 100.483 16.6322 100.595 16.0859C102.255 7.98236 109.175 1.89027 117.185 0.395862C117.856 0.2707 118.51 0.222813 119.197 0.0336734L119.317 0ZM110.179 26.8533C105.737 24.8888 102.426 24.2419 97.6331 25.8831C91.2248 28.0772 87.4644 35.4413 89.9375 41.8279C91.1303 44.9077 93.9986 47.8773 97.0741 49.0762C100.126 50.2968 104.941 50.4824 108.001 49.2067C108.715 48.9092 109.557 48.4503 110.227 48.066C109.806 49.1227 109.163 50.1926 108.822 51.2186C105.697 60.629 113.83 68.4756 123.123 67.8584C127.516 66.9048 130.81 65.3261 133.504 61.457C135.277 58.9094 135.626 55.4811 135.067 52.5062C134.756 50.9319 133.87 49.6676 133.444 48.1328C136.735 50.245 140.419 50.4455 144.208 49.7397C147.943 48.9478 150.522 46.6498 152.521 43.5287C154.301 40.7466 154.665 38.1011 153.996 34.9591C152.423 27.5611 144.431 23.6262 137.37 25.356C136.501 25.5688 134.129 26.5725 133.625 26.5899C133.637 25.7586 134.771 23.9099 134.976 22.9882C137.007 13.8232 129.255 6.51355 120.359 7.26487C113.269 8.07185 107.485 13.933 108.221 21.309C108.467 23.7803 109.244 24.7062 110.179 26.8533Z" fill="white"></path><path d="M121.762 30.058C125.897 30.0632 129.244 33.4219 129.234 37.5569C129.224 41.6919 125.861 45.0346 121.726 45.0202C117.598 45.0056 114.262 41.6496 114.272 37.5213C114.281 33.3929 117.634 30.0529 121.762 30.058ZM122.645 40.573C123.296 40.4296 124.467 39.6189 124.836 39.0255C125.213 38.4209 125.322 37.6872 125.138 36.999C124.621 35.0265 122.818 34.3777 120.966 34.5422C120.139 34.7022 119.255 35.2338 118.772 35.9244C118.33 36.5637 118.161 37.3528 118.303 38.1172C118.681 40.2216 120.729 40.9522 122.645 40.573Z" fill="white"></path><path d="M0 95.3621C2.58059 92.9966 11.2918 93.1889 14.8296 93.2164C19.539 93.253 24.5143 94.8979 27.7102 98.5534C33.5665 105.252 33.4353 115.883 26.6956 121.959C22.7501 125.538 17.5548 126.719 12.3435 126.505C10.8556 126.444 8.90654 126.171 7.37375 126.013C5.39216 125.809 1.68461 126.635 0 126.079V124.723C0.880181 124.253 3.06317 124.109 3.13698 123.184C3.37758 120.171 3.71642 97.915 2.8391 97.0337C2.09565 96.5645 0.91207 96.7693 0 96.8256V95.3621ZM18.8684 122.341C26.0067 117.954 26.0323 97.7236 16.1046 95.3679C15.3511 95.1913 14.5749 95.1311 13.8032 95.1895C13.0561 95.263 11.5605 95.2857 11.0801 95.9597C10.4818 96.7992 10.6668 117.772 10.8121 120.456C10.8531 121.213 10.9404 121.991 11.1394 122.724C11.2917 123.286 11.574 123.55 12.0686 123.837C13.1405 124.457 14.6547 124.341 15.7985 124.009C16.9475 123.676 17.9233 123.061 18.8684 122.341Z" fill="white"></path><path d="M203.93 106.028C206.574 105.233 208.374 104.594 210.433 102.581C210.793 102.229 211.268 101.863 211.764 101.74C213.019 102.088 212.138 104.97 212.585 105.629C213.144 105.524 214.012 104.427 214.577 104.048C217.363 102.175 221.402 101.733 224.213 103.792C225.011 104.376 225.318 105.209 226.362 105.672C229.032 103.263 231.726 101.765 235.509 102.601C241.171 103.851 240.817 109.63 240.753 114.209C240.726 116.446 240.719 118.684 240.734 120.922C240.77 124.158 240.604 123.857 243.579 124.519V126.19C243.103 126.287 242.296 126.214 241.799 126.14C238.352 125.63 234.055 126.361 230.753 125.914C229.524 124.15 233.028 124.492 233.269 123.563C233.664 122.046 233.687 119.992 233.629 118.417C233.499 114.912 233.939 111.203 233.121 107.786C232.85 106.669 231.857 106.118 230.925 105.64C230.296 105.667 229.613 105.726 228.98 105.768C227.563 106.993 227.294 107.401 227.218 109.383C227.044 113.979 226.958 118.766 227.253 123.351C227.316 124.33 228.969 123.964 229.396 125.366C229.294 125.888 228.878 126.169 228.349 126.112C224.658 125.704 220.953 126.135 217.273 126.127C217.053 125.922 216.942 125.717 216.919 125.411C216.796 123.735 218.739 124.662 219.456 123.778C220.237 122.817 219.914 111.772 219.769 109.979C219.668 108.756 219.533 107.16 218.521 106.331C217.628 105.602 216.584 105.658 215.511 105.749C215.144 106.033 214.758 106.327 214.433 106.658C212.793 108.324 213.395 120.419 213.429 123.315C214.307 124.269 215.946 124.413 215.926 125.551C215.5 126.147 214.339 126.264 213.754 126.094C211.864 125.545 204.364 126.472 203.227 125.843C203.073 125.498 203.084 125.439 203.115 125.059C203.628 124.02 205.785 124.491 205.937 123.405C206.559 118.969 206.077 114.24 206.23 109.76C206.31 107.404 203.515 107.854 203.12 107.097C203.285 106.685 203.627 106.36 203.93 106.028Z" fill="white"></path></g></svg>