<svg width="203.109" height="24.609" xmlns="http://www.w3.org/2000/svg" fill="none" viewBox="0 0 203.109 24.609"><g id="ns2_DUO_BRAND"><path d="M0 24.4357V0.173303H15.8052C23.0146 0.173303 27.8324 4.99112 27.8324 12.2005C27.8324 19.5486 23.1879 24.4357 16.1518 24.4357H7.27872L11.334 18.3701H15.424C19.0287 18.3701 21.2469 15.9785 21.2469 12.3738C21.2469 8.66514 19.0287 6.2389 15.424 6.2389H6.58551V24.4357H0Z" fill="white"></path><path d="M38.3628 24.4357C33.7182 24.4357 30.5988 21.3163 30.5988 16.6717V0.173303H37.1843V15.7012C37.1843 17.2956 38.2588 18.3701 39.8532 18.3701H47.6171C49.2115 18.3701 50.286 17.2956 50.286 15.7012V0.173303H56.8715V16.6717C56.8715 21.3163 53.7521 24.4357 49.1075 24.4357H38.3628Z" fill="white"></path><path d="M59.9885 12.4085C59.9885 4.88714 64.633 0 71.6691 0H78.9132C86.1226 0 90.9404 4.81782 90.9404 12.2005C90.9404 19.7219 86.2959 24.609 79.2598 24.609H72.0157C64.8063 24.609 59.9885 19.7912 59.9885 12.4085ZM72.397 6.0656C68.7923 6.0656 66.574 8.45718 66.574 12.2352C66.574 16.1172 68.7923 18.5434 72.397 18.5434H78.5319C82.1366 18.5434 84.3549 16.1518 84.3549 12.3738C84.3549 8.49184 82.1366 6.0656 78.5319 6.0656H72.397Z" fill="white"></path><path d="M100.988 24.4357V1.97565H111.352C113.085 1.97565 114.506 2.49556 115.546 3.46606C116.585 4.43655 117.14 5.68434 117.14 7.14008C117.14 8.11058 116.863 9.01175 116.308 9.8436C115.754 10.6755 115.13 11.1607 114.436 11.2993C115.823 11.5073 117.036 12.2005 118.007 13.4136C118.977 14.6268 119.497 16.0478 119.497 17.7116C119.497 19.6525 118.7 21.2469 117.175 22.5294C115.615 23.8118 113.57 24.4357 111.005 24.4357H100.988ZM102.375 23.1186H111.005C113.154 23.1186 114.852 22.6334 116.135 21.5935C117.383 20.5537 118.041 19.2713 118.041 17.7116C118.041 16.1172 117.521 14.7654 116.481 13.7256C115.442 12.6858 113.951 12.1659 111.941 12.1659H102.375V23.1186ZM102.375 10.8488H111.906C113.05 10.8488 113.951 10.5022 114.644 9.80894C115.338 9.11573 115.684 8.21456 115.684 7.14008C115.684 6.0656 115.268 5.16443 114.506 4.40189C113.709 3.67402 112.669 3.29276 111.352 3.29276H102.375V10.8488Z" fill="white"></path><path d="M121.063 24.4357V1.97565H130.005C132.847 1.97565 135.1 2.77285 136.799 4.36723C138.462 5.96162 139.329 7.90261 139.329 10.2595C139.329 12.0619 138.809 13.6216 137.804 15.008C136.799 16.3945 135.412 17.3996 133.61 17.9542L139.329 24.4357H137.457L132.154 18.3701C131.565 18.4741 130.04 18.5087 127.544 18.5087H122.449V24.4357H121.063ZM122.449 17.1916H130.283C132.466 17.1916 134.269 16.5331 135.724 15.1813C137.145 13.8642 137.873 12.2005 137.873 10.2595C137.873 8.31854 137.145 6.65483 135.724 5.30307C134.303 3.98597 132.501 3.29276 130.317 3.29276H122.449V17.1916Z" fill="white"></path><path d="M138.474 24.4357L149.635 1.97565H150.398L161.558 24.4357H160.103L157.676 19.5486H142.356L139.93 24.4357H138.474ZM142.98 18.2661H157.018L151.888 7.86795L150.016 3.84732C149.392 5.30307 148.769 6.65483 148.145 7.90261L142.98 18.2661Z" fill="white"></path><path d="M179.15 22.1481V1.97565H180.537V24.4357H179.324L163.276 4.40189V24.4357H161.889V1.97565H162.998L179.15 22.1481Z" fill="white"></path><path d="M184.704 23.1186H191.359C194.409 23.1186 196.905 22.1828 198.811 20.3111C200.683 18.4394 201.653 16.0825 201.653 13.2057C201.653 10.3635 200.683 7.97193 198.811 6.10026C196.905 4.22859 194.409 3.29276 191.359 3.29276H184.704V23.1186ZM183.318 24.4357V1.97565H191.532C194.964 1.97565 197.737 3.08479 199.886 5.23375C202.035 7.3827 203.109 10.0516 203.109 13.2057C203.109 16.3945 202.035 19.0633 199.886 21.2123C197.737 23.3612 194.964 24.4357 191.532 24.4357H183.318Z" fill="white"></path></g></svg>