<svg width="645.781" height="182.07" xmlns="http://www.w3.org/2000/svg" fill="none" viewBox="0 0 645.781 182.07"><g clip-path="url(#ns1_clip0_39_1791)" id="ns1_TEMPO_RESORT_WEAR-12_2_[Vectorized]"><path d="M410.651 1.415C421.01 1.36994 432.122 1.27355 442.502 1.51303C460.69 2.18798 482.447 4.59881 495.892 18.1601C507.616 29.9831 506.74 51.118 494.432 62.1564C478.159 76.7568 452.636 77.686 431.913 77.0411C431.232 76.9748 430.813 77.0035 430.129 77.0411C429.057 78.8031 430.813 103.044 431.188 106.994C431.97 115.201 433.969 118.23 441.629 120.939C439.825 120.797 438.053 120.746 436.243 120.767C424.617 120.906 412.95 120.614 401.327 120.846C402.875 120.394 404.502 120.06 405.953 119.335C408.494 118.06 410.446 115.942 411.339 113.213C414.646 103.124 415.381 16.4104 410.661 7.25309C409.005 4.03978 406.3 2.56195 402.992 1.52429L410.651 1.415ZM429.649 74.4646C439.942 77.297 460.22 74.8641 469.686 69.4405C470.673 68.8637 471.647 68.2667 472.609 67.6501C480.65 61.3363 483.374 55.6533 484.73 45.7341C488.094 21.1123 474.473 5.5362 450.057 3.57745C445.062 3.17692 440.796 2.50709 435.505 2.91789C432.421 3.52749 430.785 3.81657 430.532 7.39121C429.11 27.487 430.435 47.7959 429.791 67.9435C429.722 70.0814 429.643 72.3423 429.649 74.4646Z" fill="white" id="ns1_Vector"></path><path d="M365.428 1.47639C372.608 1.35309 379.791 1.36762 386.97 1.51997L386.579 2.63681C383.924 3.96021 381.32 5.63462 380.573 8.6947C378.271 18.1679 378.507 29.0275 378.346 38.5418C378.037 53.1276 378.031 67.7185 378.324 82.3046C378.517 92.7606 377.933 105.11 381.291 115.153C382.528 118.85 389.843 120.147 393.129 120.863C378.277 120.449 361.688 120.764 346.688 120.788C356.901 118.748 359.342 117.424 360.666 106.405C361.628 98.3991 361.641 90.8228 361.707 82.7956C361.896 60.389 362.252 37.8211 361.959 15.4194C358.607 21.017 354.997 28.4634 351.929 34.3699L334.258 68.3467C328.904 78.4966 323.613 88.6809 318.388 98.8986C315.682 104.199 311.729 111.518 309.7 116.982C298.641 94.3778 286.995 73.4182 275.052 51.2962L263.221 29.3717C261.513 26.1987 258.804 20.7565 256.982 17.9396C257.689 41.4117 256.259 65.2257 257.508 88.7595C257.932 96.7538 257.938 103.931 259.522 111.862C261.26 120.562 270.265 119.372 271.051 120.801L269.477 120.783C267.041 119.936 248.486 120.86 243.972 120.338L244.277 119.864C245.426 119.608 246.651 119.258 247.724 118.778C249.966 117.777 251.655 116.186 252.524 113.866C253.558 111.109 254.007 108.013 254.313 105.096C255.861 90.3489 257.451 18.8451 252.277 7.60751C251.13 5.11649 249.096 3.6144 246.587 2.67794L246.191 1.50584C251.505 1.43719 260.493 1.10588 265.513 1.55516L300.205 65.6431C305.131 74.7353 311.223 87.0085 316.373 95.5819L365.428 1.47639Z" fill="white" id="ns1_Vector_2"></path><path d="M260.402 160.104C263.818 160.379 267.117 161.605 268.135 165.251C268.646 167.077 268.405 169.033 267.464 170.68C265.87 173.447 263.713 174.005 260.911 174.736C256.933 174.434 253.108 172.367 252.635 168.048C252.425 166.224 252.951 164.391 254.097 162.956C255.887 160.747 257.757 160.361 260.402 160.104ZM261.968 172.22C264.829 170.993 266.979 168.743 265.554 165.43C264.984 164.131 263.917 163.115 262.592 162.609C261.446 162.161 260.617 162.173 259.403 162.202C252.475 164.668 254.008 172.619 261.968 172.22Z" fill="white" id="ns1_Vector_3"></path><path d="M284.256 160.359C286.915 160.329 290.364 160.103 292.953 160.6C298.453 161.657 298.766 165.689 294.112 168.546C295.199 170.025 297.65 172.277 297.848 173.75L297.463 174.137L295.449 174.097C294.068 172.226 292.778 170.491 291.302 168.694C289.736 168.714 288.206 168.649 286.643 168.59C286.653 169.989 286.899 172.605 286.285 173.731C285.38 174.244 285.734 174.122 284.601 174.064C283.819 172.934 284.221 162.497 284.256 160.359ZM286.585 166.561C288.527 166.553 292.118 166.627 293.902 166.386C294.3 165.369 294.57 164.875 294.331 163.779C292.615 161.407 289.314 162.756 286.664 162.21L286.585 166.561Z" fill="white" id="ns1_Vector_4"></path><path d="M466.457 160.349C469.055 160.451 473.902 159.82 476.087 160.665C480.735 162.463 479.918 166.505 475.989 168.566C477.083 169.677 479.783 172.423 480 173.804C479.335 174.395 478.733 174.154 477.638 174.118C477.011 173.638 474.173 169.606 473.517 168.708C471.95 168.705 470.38 168.672 468.812 168.609C468.737 170.214 469.115 172.052 468.551 173.49C467.725 174.249 468.106 174.043 466.876 174.205L466.526 173.885C466.252 169.846 466.422 164.512 466.457 160.349ZM468.667 166.558C470.619 166.552 474.28 166.631 476.068 166.36C476.424 165.394 476.774 164.751 476.462 163.762C474.696 161.401 471.427 162.802 468.819 162.191L468.667 166.558Z" fill="white" id="ns1_Vector_5"></path><path d="M166.424 160.334C169.261 160.324 172.477 160.152 175.27 160.522C178.304 160.923 179.331 163.039 178.666 165.836C178.317 167.3 177.133 167.826 175.914 168.57C176.952 169.816 179.624 172.469 179.781 173.778C179.13 174.404 178.462 174.147 177.295 174.128C176.011 172.315 174.711 170.514 173.395 168.724L168.721 168.638C168.624 170.763 169.315 172.371 168.096 173.905C167.186 174.164 167.282 174.306 166.624 173.988C166.106 171.182 166.384 163.548 166.424 160.334ZM168.654 166.541C170.609 166.542 174.028 166.624 175.84 166.4C176.23 165.304 176.546 164.736 176.19 163.626C174.749 161.607 171.029 162.615 168.718 162.255L168.654 166.541Z" fill="white" id="ns1_Vector_6"></path><path d="M375.751 171.009C376.956 168.672 378.841 161.23 380.995 160.622C382.546 161.59 384.959 169.592 385.542 171.633C386.406 168.902 388.358 161.208 390.925 160.182L391.58 160.471C391.867 161.551 391.451 161.98 390.991 163.222C389.843 165.95 388.963 168.825 387.822 171.557C387.276 172.865 386.825 174.458 385.192 174.08C383.458 172.613 381.569 166.563 380.68 164.144C379.917 166.361 377.59 174.903 374.972 174.053C373.721 172.805 370.28 162.759 369.357 160.372C370.198 160.364 370.526 160.34 371.337 160.552C373.027 161.994 374.875 168.458 375.751 171.009Z" fill="white" id="ns1_Vector_7"></path><path d="M441.651 160.261C442.537 160.268 442.77 160.274 443.618 160.498C445.371 161.907 450.313 172.033 450.779 174.015C449.638 174.339 447.323 172.488 446.349 172.056C446.1 171.946 444.498 171.992 444.132 172.005C443.205 171.986 441.647 172.02 440.787 171.959C437.384 171.72 438.412 172.689 436.555 174.233C435.71 174.397 435.606 174.399 434.843 174.007C434.833 173.154 440.78 161.776 441.651 160.261ZM439.273 169.89L443.445 169.829C444.284 169.829 445.507 169.978 446.116 169.615C445.627 168.571 443.309 163.656 442.754 163.001C441.745 165.056 440.121 167.95 439.273 169.89Z" fill="white" id="ns1_Vector_8"></path><path d="M195.65 160.336C197.902 160.437 207.205 159.762 208.227 161.182L207.951 161.789C206.505 162.978 200.392 162.406 198.277 162.231L198.08 166.455C199.647 166.435 205.807 166.105 206.615 167.589C205.237 168.462 201.514 168.253 199.836 168.216L198.678 168.288C197.991 169.227 198.094 170.856 198.036 172.111C200.737 172.234 204.677 171.984 207.406 172.294C207.984 172.359 208.207 173.01 208.391 173.469L207.974 173.925C205.303 174.366 198.68 174.174 195.607 174.157C195.566 169.55 195.58 164.943 195.65 160.336Z" fill="white" id="ns1_Vector_9"></path><path d="M230.046 160.096C231.985 160.156 235.164 160.473 236.624 161.836L236.61 162.455C234.314 164.475 230.804 160.721 227.337 162.846C226.846 163.553 226.849 163.671 226.883 164.538C228.827 167.524 235.969 165.538 236.963 169.326C237.902 172.903 234.797 173.956 232.025 174.643C229.943 174.666 224.727 174.323 223.723 172.328C225.235 169.911 233.907 174.651 234.804 170.485C233.293 167.932 224.569 168.768 224.205 164.392C223.896 160.687 227.354 160.395 230.046 160.096Z" fill="white" id="ns1_Vector_10"></path><path d="M407.318 160.359C410.298 160.403 417.778 159.627 419.584 161.331L419.505 161.975C418.254 162.762 411.496 162.393 409.718 162.334L409.595 166.489C411.417 166.462 417.368 165.962 418.367 167.347L418.08 168.037C417.062 168.295 414.627 168.234 413.467 168.241C412.373 168.191 410.976 167.986 410.052 168.474C409.431 169.196 409.573 171.111 409.56 172.163C412.521 172.159 416.57 172.1 419.424 172.407L419.717 172.839L419.54 173.461C417.819 174.641 409.964 174.171 407.312 174.15L407.318 160.359Z" fill="white" id="ns1_Vector_11"></path><path d="M312.602 160.434C315.295 160.346 324.59 159.98 327.567 160.791C327.68 160.822 327.68 161.375 327.693 161.578C326.425 162.682 322.916 162.263 321.081 162.216L321.055 169.212C321.106 170.856 321.402 172.784 320.475 174.023C319.504 174.187 319.75 174.276 318.895 173.971C318.41 171.688 318.665 164.943 318.706 162.238C317.016 162.247 312.871 162.535 311.762 161.54L311.864 160.916L312.602 160.434Z" fill="white" id="ns1_Vector_12"></path><path d="M239.296 120.8C241.056 120.397 242.509 120.142 244.277 119.864L243.972 120.338C248.486 120.86 267.041 119.936 269.477 120.783C259.556 120.848 249.192 120.995 239.296 120.8Z" fill="white" id="ns1_Vector_13"></path><path d="M246.587 2.67794C245.08 2.32709 244.44 2.41066 242.869 1.79576L242.963 1.54845C243.872 1.37361 245.233 1.47422 246.191 1.50583L246.587 2.67794Z" fill="white" id="ns1_Vector_14"></path><path d="M386.97 1.52C388.992 1.44139 390.181 1.58444 392.161 1.80588C390.732 1.98032 387.85 2.25163 386.579 2.63684L386.97 1.52Z" fill="white" id="ns1_Vector_15"></path><path d="M645.781 65.7972C645.359 67.5955 644.898 71.0716 644.419 73.3012C642.823 80.9362 639.607 88.1388 634.988 94.4211C613.114 124.42 565.739 128.675 536.626 107.319C524.293 98.4203 515.994 84.9856 513.554 69.9671C511.189 54.9342 514.925 39.5784 523.937 27.3196C547.009 -4.03913 598.801 -6.8543 627.089 18.8181C638.923 29.5564 643.463 40.8507 645.781 56.2525V65.7972ZM580.995 119.124C593.955 117.68 605.111 112.655 612.991 102.099C630.444 78.7116 634.688 32.7702 609.711 12.8931C601.27 6.17481 588.704 2.33788 578.214 2.96158C564.459 4.5959 554.325 8.72834 545.6 19.9745C534.128 34.7556 530.348 56.9089 531.902 75.1484C534.176 101.847 553.915 120.27 580.995 119.124Z" fill="white" id="ns1_Vector_16"></path><path d="M217.466 0H219.403C219.408 4.68091 219.802 28.2475 218.757 31.1721L218.46 31.3225C217.439 29.9585 217.537 26.9242 217.371 25.3097C216.006 12.038 213.001 6.20551 199.05 4.3381C191.804 3.36815 158.387 1.32451 154.004 4.03856C150.396 8.4735 152.298 52.3757 151.784 60.9753C161.246 61.0838 192.728 62.1643 200.191 58.7277C202.853 55.1462 203.57 52.0605 203.856 47.6788C204.353 48.1291 204.373 47.9565 204.425 48.6267C204.621 51.1454 204.429 53.606 205.171 56.0439C205.196 58.9264 205.421 81.2293 204.735 82.5133L204.359 82.6319C202.645 80.1691 206.441 65.168 196.52 63.7404C188.516 62.589 181.68 62.5436 173.69 62.5373L151.854 62.5477L151.857 92.7442C151.875 99.6951 151.345 107.792 152.886 114.576C153.121 115.61 153.628 116.462 154.378 117.207C157.636 120.45 172.826 119.22 177.681 119.166C187.097 119.059 212.306 118.808 218.514 112.415C224.321 106.436 225.783 95.0793 226.725 87.1366C226.93 85.4014 226.603 83.1456 227.199 81.5493C227.334 81.1867 227.687 81.2082 228.04 81.1201C229.24 82.2936 228.32 87.7955 228.133 89.603C227.031 100.231 226.504 110.924 225.381 121.549C219.921 121.396 214.377 121.042 208.963 120.947C184.386 120.517 159.737 120.918 135.19 120.778C133.773 119.637 128.933 121.482 127.421 119.717C129.84 118.132 132.071 116.734 133.061 113.863C134.194 110.576 134.554 106.819 134.847 103.373C136.06 89.1028 137.612 17.2353 132.618 7.22337C131.059 4.09968 128.213 2.59666 125.05 1.52154C155.289 0.899734 185.533 2.53969 215.732 0.321227C216.444 0.26892 216.814 0.39462 217.466 0Z" fill="white" id="ns1_Vector_17"></path><path d="M0 0H115.357C115.36 3.04843 115.709 29.9929 114.778 31.0874C110.718 24.5889 116.365 6.69344 99.2519 4.40046C89.6696 3.11649 77.6681 1.38459 68.1551 3.98494C65.6899 4.6907 65.9734 14.6349 65.904 16.9752C65.6745 24.8712 65.5811 32.7705 65.6243 40.6699C65.4683 55.7237 65.5871 70.7787 65.9807 85.8281C66.1784 92.706 66.1011 99.4184 66.972 106.269C68.0744 114.942 68.975 117.742 77.4146 120.948C73.6484 120.686 69.5369 120.662 65.7442 120.758C56.3558 120.997 46.6596 120.449 37.3172 120.881C40.881 119.832 44.9086 118.576 46.3556 114.867C49.7936 106.054 49.3969 93.0162 49.6312 83.8187C49.8992 67.7763 49.9727 51.7314 49.8519 35.6871C49.8431 30.359 50.2558 10.0175 49.1109 6.16411C48.7899 5.0838 48.181 4.27493 47.172 3.74519C42.4768 1.28001 19.5502 3.36881 14.2386 5.1323C10.2329 6.46224 6.83497 8.76554 4.90721 12.6097C3.69312 15.0307 3.0308 17.7538 2.62997 20.422C2.22275 23.1327 2.84641 29.2802 1.14814 31.1582L0 31.3748V0Z" fill="white" id="ns1_Vector_18"></path><path d="M203.856 47.6788C203.922 46.4103 203.862 41.2956 204.32 40.7299L204.651 40.8763C205.482 43.6452 205.141 52.6238 205.171 56.044C204.429 53.6061 204.622 51.1454 204.425 48.6267C204.373 47.9565 204.353 48.1291 203.856 47.6788Z" fill="white" id="ns1_Vector_19"></path><path d="M127.421 119.717C128.933 121.482 133.773 119.637 135.19 120.778C133.401 120.977 125.602 120.861 123.263 120.906C124.812 120.378 125.826 120.066 127.421 119.717Z" fill="white" id="ns1_Vector_20"></path></g><defs><clipPath id="ns1_clip0_39_1791"><rect fill="white" height="182.07" width="645.781"></rect></clipPath></defs></svg>