<svg width="212" height="26" viewBox="0 0 212 26" fill="none" xmlns="http://www.w3.org/2000/svg">
<path d="M-0.000145435 25.4883V0.181001H16.4857C24.0056 0.181001 29.0309 5.2063 29.0309 12.7262C29.0309 20.3907 24.1864 25.4883 16.8473 25.4883H7.59204L11.822 19.1615H16.0881C19.848 19.1615 22.1618 16.6669 22.1618 12.9069C22.1618 9.03855 19.848 6.50782 16.0881 6.50782H6.86897V25.4883H-0.000145435ZM40.0147 25.4883C35.1702 25.4883 31.9164 22.2345 31.9164 17.39V0.181001H38.7855V16.3777C38.7855 18.0407 39.9063 19.1615 41.5693 19.1615H49.6677C51.3307 19.1615 52.4515 18.0407 52.4515 16.3777V0.181001H59.3206V17.39C59.3206 22.2345 56.0668 25.4883 51.2222 25.4883H40.0147ZM62.5718 12.9431C62.5718 5.09784 67.4164 0.000234597 74.7555 0.000234597H82.3115C89.8314 0.000234597 94.8567 5.02554 94.8567 12.7262C94.8567 20.5714 90.0121 25.669 82.673 25.669H75.117C67.5971 25.669 62.5718 20.6437 62.5718 12.9431ZM75.5147 6.32705C71.7548 6.32705 69.4409 8.82163 69.4409 12.7623C69.4409 16.8115 71.7548 19.3422 75.5147 19.3422H81.9138C85.6738 19.3422 87.9876 16.8477 87.9876 12.9069C87.9876 8.85778 85.6738 6.32705 81.9138 6.32705H75.5147ZM105.337 25.4883V2.06097H116.147C117.955 2.06097 119.437 2.60327 120.522 3.61556C121.606 4.62785 122.185 5.92937 122.185 7.44781C122.185 8.4601 121.895 9.40008 121.317 10.2678C120.738 11.1354 120.088 11.6416 119.365 11.7862C120.811 12.0031 122.076 12.7262 123.088 13.9915C124.101 15.2569 124.643 16.7392 124.643 18.4745C124.643 20.4991 123.811 22.1622 122.221 23.4999C120.594 24.8375 118.461 25.4883 115.785 25.4883H105.337ZM106.783 24.1145H115.785C118.027 24.1145 119.798 23.6083 121.136 22.5237C122.438 21.4391 123.125 20.1014 123.125 18.4745C123.125 16.8115 122.582 15.4015 121.498 14.3169C120.413 13.2323 118.858 12.69 116.762 12.69H106.783V24.1145ZM106.783 11.3162H116.725C117.919 11.3162 118.858 10.9547 119.582 10.2316C120.305 9.50854 120.666 8.56856 120.666 7.44781C120.666 6.32705 120.232 5.38707 119.437 4.5917C118.605 3.83248 117.521 3.43479 116.147 3.43479H106.783V11.3162ZM126.276 25.4883V2.06097H135.604C138.569 2.06097 140.918 2.8925 142.69 4.55554C144.425 6.21859 145.329 8.24318 145.329 10.7016C145.329 12.5816 144.787 14.2085 143.738 15.6546C142.69 17.1007 141.244 18.1492 139.364 18.7276L145.329 25.4883H143.377L137.845 19.1615C137.231 19.2699 135.64 19.3061 133.037 19.3061H127.723V25.4883H126.276ZM127.723 17.9323H135.893C138.171 17.9323 140.051 17.2453 141.569 15.8354C143.052 14.4615 143.811 12.7262 143.811 10.7016C143.811 8.67702 143.052 6.94166 141.569 5.53168C140.087 4.15786 138.207 3.43479 135.929 3.43479H127.723V17.9323ZM144.438 25.4883L156.079 2.06097H156.875L168.516 25.4883H166.997L164.467 20.3907H148.487L145.956 25.4883H144.438ZM149.138 19.053H163.78L158.429 8.20702L156.477 4.01325C155.826 5.53168 155.175 6.94166 154.525 8.24318L149.138 19.053ZM186.865 23.1022V2.06097H188.311V25.4883H187.046L170.307 4.5917V25.4883H168.861V2.06097H170.018L186.865 23.1022ZM192.659 24.1145H199.6C202.782 24.1145 205.385 23.1383 207.373 21.186C209.325 19.2338 210.338 16.7753 210.338 13.7746C210.338 10.8101 209.325 8.31548 207.373 6.36321C205.385 4.41093 202.782 3.43479 199.6 3.43479H192.659V24.1145ZM191.212 25.4883V2.06097H199.781C203.36 2.06097 206.252 3.21787 208.494 5.45938C210.735 7.70088 211.856 10.4847 211.856 13.7746C211.856 17.1007 210.735 19.8845 208.494 22.126C206.252 24.3675 203.36 25.4883 199.781 25.4883H191.212Z" fill="white"/>
</svg>
