<svg width="1314" height="224" viewBox="0 0 1314 224" fill="none" xmlns="http://www.w3.org/2000/svg">
<path d="M96.973 135.581V129.902H101.173C103.362 129.902 104.545 129.074 105.492 127.063L105.847 126.057L92.7137 92.6327H100.818L109.574 115.645L117.797 92.6327H125.487L111.644 129.311C109.869 133.688 106.912 135.581 102.534 135.581H96.973Z" fill="#E9243E"/>
<path d="M71.5633 124.755L59.4951 92.6327H67.4815L71.7408 104.997L75.941 117.302L80.2004 104.997L84.5189 92.6327H92.1503L80.0821 124.755H71.5633Z" fill="#E9243E"/>
<path d="M42.3283 125.288C35.7026 125.288 31.5616 121.857 31.5616 116.591C31.5616 110.262 38.1872 108.132 44.9904 106.061C50.0188 104.523 52.4443 103.34 52.4443 100.974C52.4443 98.7258 50.4329 97.2469 46.7651 97.2469C42.6241 97.2469 39.9028 99.6132 39.1929 103.577H32.2123C33.1588 96.6553 38.838 91.9227 46.9426 91.9227C55.1064 91.9227 59.8982 95.7679 59.8982 102.926V124.755H52.4443V121.147C50.0188 123.809 46.4102 125.288 42.3283 125.288ZM38.9563 116.355C38.9563 118.839 41.0268 120.2 44.2805 120.2C47.3567 120.2 50.5512 118.958 52.4443 116.828V107.954C51.0836 109.078 48.954 109.788 46.5285 110.617C42.21 112.036 38.9563 113.16 38.9563 116.355Z" fill="#E9243E"/>
<path d="M0.500058 124.755V92.6323H8.07226V96.3593C10.3203 93.638 13.6331 91.9816 17.6558 91.9816C24.5181 91.9816 29.0141 96.3001 29.0141 102.867V124.755H21.5011V104.05C21.5011 99.8496 18.8981 97.6016 14.9937 97.6016C12.095 97.6016 9.5512 98.9622 8.07226 101.033V124.755H0.500058Z" fill="#E9243E"/>
<path d="M101.164 92.1324L101.286 92.454L109.558 114.198L117.326 92.4639L117.443 92.1324H126.211L112.113 129.487L112.109 129.499C111.194 131.754 109.957 133.412 108.346 134.502C106.735 135.592 104.796 136.082 102.534 136.082H96.4725V129.401H101.174L101.173 129.902H96.973V135.581H102.534L103.339 135.558C107.277 135.334 109.98 133.414 111.644 129.311L125.487 92.6327H117.797L109.574 115.645L100.818 92.6327H92.7137L105.847 126.057L105.492 127.063C104.604 128.948 103.509 129.794 101.571 129.892L101.173 129.902L101.174 129.401C102.205 129.401 102.941 129.206 103.521 128.82C104.103 128.431 104.584 127.811 105.035 126.854L105.31 126.065L92.2483 92.8155L91.9787 92.1324H101.164Z" fill="#E9243E"/>
<path d="M67.8381 92.1324L67.9539 92.4699L72.214 104.833L75.9429 115.762L79.7276 104.833L84.0457 92.4679L84.1635 92.1324H92.8734L92.6178 92.8095L80.5505 124.931L80.4287 125.257H71.2174L71.0956 124.931L58.7726 92.1324H67.8381ZM59.4951 92.6327L71.5633 124.755H80.0821L92.1503 92.6327H84.5189L80.2004 104.997L75.941 117.302L71.7408 104.997L67.4815 92.6327H59.4951Z" fill="#E9243E"/>
<path d="M51.9241 100.625C51.8332 99.8302 51.4248 99.1721 50.6998 98.6813C49.8506 98.1065 48.5414 97.7467 46.7653 97.7466C44.7923 97.7466 43.1976 98.3101 42.0158 99.3085C40.8336 100.307 40.0233 101.776 39.6851 103.664L39.6112 104.078H31.6382L31.7161 103.509C32.7014 96.3043 38.6254 91.4214 46.943 91.4214C51.0953 91.4215 54.4646 92.3987 56.8034 94.3553C59.1558 96.3236 60.3983 99.2274 60.3984 102.925V125.257H51.9441V122.341C49.4582 124.573 46.0736 125.788 42.3274 125.788C38.9338 125.788 36.1202 124.91 34.1447 123.303C32.1586 121.688 31.061 119.366 31.061 116.591C31.0613 113.204 32.8544 110.95 35.4569 109.307C38.0313 107.681 41.458 106.612 44.8439 105.582C47.3619 104.812 49.1638 104.148 50.3343 103.405C51.4771 102.679 51.944 101.932 51.9441 100.974L51.9241 100.625ZM38.9563 116.355C38.9563 113.16 42.21 112.036 46.5285 110.617C48.954 109.788 51.0836 109.078 52.4443 107.954V116.828C50.5512 118.958 47.3567 120.2 44.2805 120.2L44.2807 119.7C47.1746 119.7 50.148 118.549 51.9441 116.626V108.921C51.3823 109.269 50.7524 109.576 50.0787 109.858C49.0539 110.287 47.8962 110.678 46.6894 111.09L46.6854 111.092C44.5078 111.808 42.6804 112.426 41.3907 113.243C40.1342 114.04 39.4574 114.979 39.4574 116.355L39.4774 116.748C39.5726 117.635 39.9962 118.314 40.6857 118.799C41.4961 119.37 42.7138 119.7 44.2807 119.7L44.2805 120.2L43.6835 120.184C40.9699 120.035 39.2038 118.858 38.98 116.808L38.9563 116.355ZM52.4154 101.404C52.1308 103.489 49.7048 104.619 44.9904 106.061C38.1872 108.132 31.5616 110.262 31.5616 116.591L31.5743 117.08C31.8155 121.907 35.65 125.079 41.7143 125.279L42.3283 125.288C46.4102 125.288 50.0188 123.809 52.4443 121.147V124.755H59.8982V102.926C59.8979 95.992 55.4009 92.167 47.698 91.9347L46.9426 91.9227C38.838 91.9227 33.1588 96.6553 32.2123 103.577H39.1929L39.3495 102.852C40.2488 99.3263 42.8832 97.2469 46.7651 97.2469L47.4323 97.2633C50.6761 97.4338 52.4443 98.8661 52.4443 100.974L52.4154 101.404Z" fill="#E9243E"/>
<path d="M29.0141 102.867C29.0141 96.5055 24.7949 92.2543 18.2927 91.9946L17.6558 91.9816C13.6331 91.9816 10.3203 93.638 8.07226 96.3593V92.6323H0.500058V124.755H8.07226V101.033C9.5512 98.9622 12.095 97.6016 14.9937 97.6016C18.8981 97.6016 21.5011 99.8496 21.5011 104.05V124.755H29.0141V102.867ZM8.57213 95.0743C10.8652 92.8171 13.9829 91.4814 17.6556 91.4813C21.1924 91.4813 24.165 92.5962 26.2557 94.601C28.3479 96.6077 29.5151 99.4664 29.5151 102.868V125.257H21.0009V104.05C21.0009 102.056 20.3847 100.585 19.3652 99.612C18.342 98.6358 16.851 98.1021 14.9932 98.1021C12.3102 98.1023 9.96655 99.3361 8.57213 101.202V125.257H0V92.1324H8.57213V95.0743Z" fill="#E9243E"/>
<path d="M1276.56 166.879L1275.24 167.63C1269.8 170.819 1256.11 180.576 1250.29 185.454C1239.6 194.46 1232.28 203.278 1230.03 209.845C1229.65 211.158 1229.46 212.284 1229.46 213.222C1229.46 214.723 1230.03 215.849 1231.15 216.224C1231.9 216.599 1234.72 216.412 1236.41 215.661C1239.78 214.348 1243.91 211.533 1248.41 207.218C1258.17 198.212 1265.86 187.705 1274.12 171.757L1276.56 166.879ZM1284.63 150.368C1284.44 150.368 1281.81 152.808 1278.62 155.997C1275.24 159.374 1271.87 162.564 1271.12 163.314C1269.8 164.253 1270.18 164.065 1272.99 162.376C1274.87 161.251 1277.5 159.75 1278.81 159.187L1281.25 157.873L1282.75 154.496C1283.69 152.62 1284.44 150.744 1284.63 150.368ZM1280.12 143.989C1275.81 143.989 1270.18 147.742 1266.61 152.995C1264.93 155.81 1263.42 159.187 1263.42 160.5C1263.42 160.875 1263.42 161.063 1263.8 161.063C1263.99 161.063 1265.11 160.5 1266.05 159.75C1267.18 158.999 1271.12 155.434 1275.06 151.494C1279.75 146.804 1281.62 144.927 1281.62 144.365C1281.62 143.989 1280.87 143.989 1280.12 143.989ZM1279.37 138.736C1279.75 138.736 1280.12 138.736 1280.5 138.736C1283.12 138.923 1284.81 139.674 1286.5 141.175C1287.25 141.925 1287.82 142.301 1287.82 142.301C1287.82 142.301 1288.19 141.738 1288.38 141.363C1288.94 139.862 1290.07 139.299 1291 139.299C1292.32 139.299 1293.44 140.237 1293.44 141.738C1293.44 141.925 1293.44 142.301 1293.26 142.864C1293.07 143.426 1292.13 146.053 1291.19 148.68C1290.07 151.307 1289.32 153.37 1289.5 153.558C1289.5 153.558 1291.38 152.808 1293.63 151.682C1301.32 148.305 1307.52 145.866 1308.83 145.866C1310.89 145.866 1312.39 147.554 1311.83 149.243C1311.46 150.368 1311.08 150.744 1306.39 152.62C1301.32 154.496 1294.19 157.686 1289.13 160.125L1285.38 162.001L1283.31 166.129C1280.87 171.382 1276.18 180.2 1273.56 184.703C1265.68 198.025 1255.92 209.47 1246.16 216.599C1243.35 218.663 1238.66 221.102 1236.22 221.665C1235.28 222.04 1233.97 222.04 1232.84 222.04C1231.53 222.04 1230.22 222.04 1229.46 221.665C1226.84 220.727 1225.15 219.038 1224.21 216.412C1224.02 215.661 1223.84 214.723 1223.84 213.41C1223.84 211.533 1224.02 209.47 1224.59 208.156C1228.71 196.711 1242.22 183.015 1262.67 169.131C1264.93 167.63 1266.43 166.316 1266.43 166.316C1266.43 166.316 1266.24 166.316 1265.86 166.504C1264.74 167.067 1262.67 167.254 1261.55 167.067C1259.67 166.504 1258.17 164.815 1257.8 162.939C1257.61 162.376 1257.61 161.813 1257.61 161.251C1257.61 157.686 1259.48 152.808 1262.67 148.68C1267.36 142.488 1273.74 138.923 1279.37 138.736Z" fill="#E9243E"/>
<path d="M1240.39 171.946C1237.01 170.82 1234.76 168.006 1233.82 163.878C1233.45 162.752 1233.45 161.251 1233.45 159.375C1233.45 156.373 1233.64 152.996 1234.39 150.369C1234.39 149.806 1234.39 149.806 1233.64 149.994C1232.32 150.182 1228.76 152.245 1226.13 153.934C1222.38 156.561 1219.57 159 1213.56 165.004C1210.56 167.818 1207.74 170.445 1207.37 170.82C1205.87 171.758 1203.43 171.008 1202.87 169.131C1202.49 168.193 1202.68 167.818 1203.24 166.317C1206.43 159.563 1220.69 139.862 1222.94 138.737C1224.07 138.361 1225.57 138.737 1226.13 139.487C1226.88 140.8 1226.69 141.739 1224.63 144.365C1222.94 146.429 1219.57 150.932 1219 151.87C1219 152.058 1219.57 151.683 1220.5 151.12C1224.44 147.93 1230.07 144.741 1232.89 144.178C1233.64 143.99 1234.39 143.99 1235.14 143.99C1236.64 143.99 1237.76 144.365 1238.7 145.491C1239.64 146.429 1240.02 147.367 1240.02 149.056C1240.02 150.369 1239.83 151.87 1239.45 153.934C1239.27 155.998 1239.08 157.686 1239.08 159.187C1239.08 163.128 1240.02 165.754 1242.08 166.317C1242.27 166.505 1242.64 166.505 1243.02 166.505C1245.08 166.505 1248.08 165.191 1250.9 162.94C1256.15 158.249 1260.28 153.184 1264.59 147.18C1266.1 145.303 1267.03 144.928 1268.16 145.116C1269.85 145.491 1270.79 147.742 1269.85 149.243C1269.29 150.557 1264.59 156.373 1261.78 159.75C1259.15 163.128 1255.03 167.255 1252.59 168.756C1249.21 171.008 1245.83 172.321 1243.02 172.321C1242.08 172.321 1241.33 172.133 1240.39 171.946Z" fill="#E9243E"/>
<path d="M1190.47 171.57C1188.03 170.444 1186.72 168.38 1186.15 165.378C1185.97 164.815 1185.97 164.252 1185.97 163.502C1185.97 158.624 1189.16 152.057 1194.97 144.177C1196.66 141.925 1197.79 140.987 1198.73 140.987C1199.29 140.987 1199.66 141.175 1200.23 141.738C1200.98 142.3 1201.16 142.676 1201.16 143.426C1201.16 144.364 1200.6 145.115 1198.35 148.68C1195.54 152.807 1193.28 156.935 1192.35 159.562C1192.16 160.687 1191.78 162.376 1191.78 163.689C1191.78 165.753 1192.53 166.691 1193.85 166.691C1194.79 166.691 1196.29 166.316 1197.97 165.378C1201.91 163.314 1207.92 156.56 1214.3 148.68C1216.55 146.053 1217.68 145.115 1218.61 145.115C1218.8 145.115 1218.99 145.115 1219.18 145.115C1221.05 145.678 1221.8 147.554 1220.86 149.43C1219.55 152.244 1208.48 165.003 1204.54 168.005C1200.6 170.819 1197.04 172.32 1193.85 172.32C1192.16 172.32 1191.6 172.132 1190.47 171.57ZM1204.54 137.61C1203.6 137.235 1203.04 135.921 1203.23 134.796C1203.42 133.857 1205.1 131.794 1205.85 131.231C1206.98 130.48 1208.48 130.668 1209.23 131.418C1210.36 132.732 1210.17 133.857 1208.48 135.921C1206.98 137.797 1206.04 138.173 1204.54 137.61Z" fill="#E9243E"/>
<path d="M1168.52 143.99C1168.14 143.99 1167.77 143.99 1167.39 144.177C1162.89 144.74 1156.13 151.119 1152.94 157.874C1152.01 159.938 1151.07 162.94 1151.07 164.253C1151.07 164.628 1151.26 164.816 1151.44 164.816C1151.44 164.816 1152.57 164.065 1153.69 163.127C1156.32 161.063 1159.14 158.249 1165.14 151.307C1168.89 146.992 1169.83 145.678 1169.83 145.116C1169.83 144.365 1169.45 143.99 1168.52 143.99ZM1212.42 90.3297C1213.36 90.3297 1214.11 90.7049 1214.48 91.643C1215.05 92.7688 1214.86 93.5193 1213.73 95.0202C1210.92 98.0222 1203.23 108.717 1195.91 119.786C1185.4 135.734 1177.33 151.307 1175.27 159.562C1174.9 161.251 1174.52 162.752 1174.52 164.253C1174.52 166.317 1175.08 167.818 1175.83 167.818C1178.27 167.818 1185.59 159.75 1191.78 149.056C1192.72 147.555 1193.85 146.054 1194.22 145.678C1195.53 144.553 1197.6 144.928 1198.35 146.617C1198.54 146.992 1198.54 147.367 1198.54 147.742C1198.54 149.056 1197.41 150.932 1193.85 156.748C1187.47 166.505 1182.21 171.758 1178.27 173.259C1176.4 173.822 1174.9 173.822 1173.21 173.071C1171.52 172.321 1170.39 171.007 1169.64 168.944C1169.08 167.63 1168.89 166.88 1168.89 164.065C1168.89 160.688 1169.45 157.686 1170.77 154.684C1170.96 153.934 1171.14 153.183 1171.14 153.183C1171.14 153.183 1169.45 155.06 1167.39 157.311C1160.64 165.191 1155.01 170.069 1152.01 170.82C1151.44 170.82 1151.07 170.82 1150.69 170.82C1148.82 170.82 1147.32 169.882 1146.19 168.006C1145.81 167.255 1145.63 165.754 1145.63 164.065C1145.63 162.564 1145.81 160.688 1146.38 159.187C1147.69 154.684 1150.69 149.806 1154.44 145.866C1158.2 142.114 1161.39 140.05 1165.14 139.112C1166.27 138.736 1167.2 138.736 1168.14 138.736C1171.33 138.736 1173.96 140.05 1174.9 142.489C1175.08 143.052 1175.46 143.427 1175.46 143.239C1175.65 143.239 1176.77 140.988 1178.27 138.361C1182.59 130.106 1186.9 122.976 1193.47 113.032C1200.04 103.276 1209.23 91.4554 1210.92 90.5173C1211.29 90.3297 1211.86 90.142 1212.42 90.3297Z" fill="#E9243E"/>
<path d="M1129.72 171.946C1126.35 170.82 1124.09 168.006 1123.16 163.878C1122.78 162.752 1122.78 161.251 1122.78 159.375C1122.78 156.373 1122.97 152.996 1123.72 150.369C1123.72 149.806 1123.72 149.806 1122.97 149.994C1121.65 150.182 1118.09 152.245 1115.46 153.934C1111.71 156.561 1108.9 159 1102.89 165.004C1099.89 167.818 1097.08 170.445 1096.7 170.82C1095.2 171.758 1092.76 171.008 1092.2 169.131C1091.82 168.193 1092.01 167.818 1092.57 166.317C1095.76 159.563 1110.02 139.862 1112.27 138.737C1113.4 138.361 1114.9 138.737 1115.46 139.487C1116.21 140.8 1116.03 141.739 1113.96 144.365C1112.27 146.429 1108.9 150.932 1108.33 151.87C1108.33 152.058 1108.9 151.683 1109.83 151.12C1113.77 147.93 1119.4 144.741 1122.22 144.178C1122.97 143.99 1123.72 143.99 1124.47 143.99C1125.97 143.99 1127.1 144.365 1128.03 145.491C1128.97 146.429 1129.35 147.367 1129.35 149.056C1129.35 150.369 1129.16 151.87 1128.78 153.934C1128.6 155.998 1128.41 157.686 1128.41 159.187C1128.41 163.128 1129.35 165.754 1131.41 166.317C1131.6 166.505 1131.97 166.505 1132.35 166.505C1134.41 166.505 1137.42 165.191 1140.23 162.94C1145.48 158.249 1149.61 153.184 1153.93 147.18C1155.43 145.303 1156.37 144.928 1157.49 145.116C1159.18 145.491 1160.12 147.742 1159.18 149.243C1158.62 150.557 1153.93 156.373 1151.11 159.75C1148.48 163.128 1144.36 167.255 1141.92 168.756C1138.54 171.008 1135.16 172.321 1132.35 172.321C1131.41 172.321 1130.66 172.133 1129.72 171.946Z" fill="#E9243E"/>
<path d="M1076.17 145.302C1075.42 145.302 1074.1 145.678 1072.23 146.241C1066.97 148.304 1060.59 153.933 1057.03 159.749C1056.09 161.438 1054.97 164.065 1055.15 164.44C1055.53 164.815 1056.65 164.44 1058.53 163.127C1059.47 162.751 1061.16 161.438 1062.47 160.312C1064.91 158.436 1074.85 148.867 1076.35 146.991C1077.1 145.865 1077.1 145.302 1076.17 145.302ZM1076.73 139.861C1077.29 140.049 1077.86 140.049 1078.42 140.049C1079.92 140.612 1081.61 141.738 1081.8 143.051C1081.98 143.989 1082.17 144.177 1082.92 143.239C1083.3 142.863 1084.05 142.3 1084.8 141.925C1085.74 141.55 1086.11 141.55 1086.86 141.738C1087.99 142.113 1088.55 142.863 1088.55 144.177C1088.55 145.302 1088.17 145.678 1087.05 146.428C1085.74 147.366 1082.17 152.432 1080.48 155.809C1078.79 159.374 1078.04 161.626 1078.04 164.065C1078.04 166.879 1078.61 167.067 1081.61 165.941C1086.86 163.689 1096.62 155.997 1102.81 149.055C1105.44 146.053 1106.56 145.115 1107.69 145.115C1107.87 145.115 1108.25 145.115 1108.44 145.302C1109.75 145.678 1110.5 146.428 1110.5 147.929C1110.5 149.055 1109.75 149.993 1106.75 153.183C1099.81 160.687 1089.68 168.755 1083.48 171.382C1082.17 171.945 1080.29 172.32 1078.79 172.32C1077.67 172.32 1076.73 172.132 1076.17 171.757C1074.67 171.194 1073.73 170.069 1072.98 168.38C1072.41 167.254 1072.41 166.691 1072.41 164.252C1072.41 162.564 1072.6 160.875 1072.79 159.937L1073.35 158.248L1071.29 160.312C1066.6 164.628 1062.66 167.817 1059.47 169.318C1057.59 170.256 1057.22 170.256 1054.97 170.256C1052.9 170.256 1052.71 170.256 1051.78 169.506C1050.09 168.192 1049.52 166.879 1049.52 164.628C1049.52 157.873 1058.15 147.179 1067.35 142.488C1070.73 140.799 1073.92 139.861 1076.54 139.861H1076.73Z" fill="#E9243E"/>
<path d="M1009.16 172.133C1008.41 171.945 1007.29 170.82 1007.1 170.069C1007.1 169.694 1007.1 168.943 1007.29 168.381C1007.66 167.067 1013.66 158.812 1019.11 152.057C1020.42 150.556 1023.05 147.367 1024.92 144.928C1026.8 142.676 1028.67 140.612 1029.05 140.237C1029.99 139.487 1031.3 139.487 1032.43 140.425C1033.18 141.175 1033.37 141.363 1033.18 142.676C1033.18 144.74 1032.61 145.866 1031.3 146.241C1029.99 146.992 1029.24 147.93 1030.18 147.93C1030.93 147.93 1032.24 149.243 1032.61 150.181C1032.8 150.744 1032.99 151.87 1032.99 152.996C1033.18 155.247 1033.55 156.185 1034.87 157.311C1035.99 158.624 1037.49 159.187 1039.18 159.187C1040.31 159.187 1041.62 158.999 1043.12 158.437C1046.31 157.498 1052.69 154.121 1055.32 152.245C1057.94 150.181 1058.88 149.806 1060.01 150.181C1061.13 150.556 1061.88 151.495 1061.88 152.62C1061.88 154.872 1057.57 158.249 1050.81 161.439C1045.94 163.878 1042.37 165.003 1039.56 165.003C1034.12 165.003 1029.43 161.626 1027.92 156.748L1027.36 155.247L1024.92 157.498C1022.11 159.938 1019.29 162.752 1014.98 168.005C1013.48 169.694 1011.98 171.383 1011.6 171.57C1011.04 172.133 1009.91 172.321 1009.16 172.133Z" fill="#E9243E"/>
<path d="M979.539 174.947C976.537 174.197 975.224 172.696 975.036 170.257C975.036 168.381 975.599 167.443 977.288 166.129C979.164 164.816 980.477 164.441 986.669 164.253L992.298 164.065L994.549 161.626C999.052 156.936 1002.05 151.87 1002.05 147.367C1002.05 145.678 1001.49 144.928 999.99 144.928C999.427 144.928 998.865 144.928 998.114 145.115C995.863 145.678 992.673 147.179 989.671 149.243C983.292 153.371 973.535 163.315 968.657 170.445C967.719 171.758 966.781 172.884 966.406 173.071C964.53 173.822 962.653 172.696 962.278 170.82C962.278 169.882 962.278 169.506 963.216 168.193C963.779 167.255 966.031 163.315 968.282 159.562C980.29 139.674 983.667 134.609 996.425 115.283C1008.62 96.8964 1009.93 95.0202 1009.93 93.3315C1009.93 92.7687 1010.12 91.8306 1010.31 91.4553C1010.68 90.5172 1012.19 89.5791 1012.94 89.5791C1013.69 89.5791 1015 90.3296 1015.38 91.0801C1015.56 91.6429 1015.75 92.2058 1015.75 92.7687C1015.75 96.1459 1012 102.337 999.052 121.475C991.547 132.92 982.729 146.616 982.917 146.804C982.917 146.804 984.042 146.241 985.356 145.303C990.984 141.175 996.05 139.112 999.99 139.112C1001.12 139.112 1002.24 139.299 1003.18 139.674C1004.68 140.237 1006.37 141.926 1006.93 143.239C1007.5 144.365 1007.87 145.678 1007.87 147.367C1007.87 151.119 1006.18 155.81 1003.18 160.125C1002.62 161.063 1002.24 161.814 1002.43 161.814C1002.99 161.814 1007.31 160.125 1009.37 159C1013.12 156.748 1015.94 154.309 1020.44 149.806C1022.88 147.367 1025.13 145.303 1025.51 145.115C1026.45 144.928 1027.76 145.491 1028.32 146.241C1028.88 147.179 1028.88 148.493 1028.51 149.431C1027.38 151.495 1021.75 157.123 1017.44 160.313C1010.87 165.379 1005.62 167.443 996.988 169.131C994.924 169.506 994.362 169.694 992.673 170.82C988.733 173.634 984.605 175.135 981.416 175.135C980.665 175.135 980.102 175.135 979.539 174.947Z" fill="#E9243E"/>
<path d="M1072.85 84.4716C1072.66 84.4716 1070.59 85.4097 1068.15 86.5355C1057.08 91.9765 1052.21 94.4156 1049.77 95.9166C1046.77 97.9804 1042.64 102.108 1041.32 104.36C1040.01 106.423 1039.45 108.3 1039.45 109.801C1039.45 110.551 1039.64 111.114 1040.01 111.677C1040.95 112.427 1041.89 112.427 1044.33 111.677C1050.14 109.988 1059.15 102.296 1066.47 93.2899C1068.53 90.6632 1072.85 84.6592 1072.85 84.4716ZM1074.53 40.5679C1075.66 40.5679 1076.41 40.9431 1076.79 42.0689C1077.35 43.1946 1077.16 43.7575 1075.47 46.0089C1071.16 52.5757 1067.59 59.5178 1066.84 63.2702C1066.28 65.8969 1066.47 66.0846 1068.91 65.1465C1072.47 63.8331 1074.91 61.7692 1084.67 52.2005C1089.73 47.1347 1094.23 42.8193 1094.8 42.6317C1096.67 41.506 1098.74 42.4441 1099.49 44.5079C1099.49 44.8832 1099.49 45.0708 1099.49 45.4461C1099.49 48.0728 1097.05 53.8891 1091.23 64.7712C1090.48 66.2722 1089.92 67.5856 1089.92 67.5856C1099.3 62.7074 1107.37 55.3901 1114.87 47.3223C1115.06 46.947 1115.62 46.7594 1116 46.7594C1117.31 46.7594 1118.81 47.8852 1118.81 49.1985C1118.81 49.3861 1118.81 49.7614 1118.63 49.949C1115.44 57.4539 1095.17 72.0885 1085.23 77.5296C1083.54 78.28 1083.16 78.8429 1082.04 80.9068C1077.91 87.6612 1072.47 95.1661 1067.97 100.42C1060.65 108.863 1051.27 115.992 1045.08 117.493C1044.14 117.681 1042.83 117.868 1041.7 117.868C1040.39 117.868 1039.26 117.681 1038.51 117.493C1037.01 116.93 1035.32 115.429 1034.57 113.928C1034.01 112.99 1033.82 111.677 1033.82 109.801C1033.82 105.11 1036.07 100.795 1040.95 96.1042C1044.51 92.3518 1047.89 90.1003 1054.46 86.9107C1072.66 77.9048 1076.97 75.841 1078.1 75.0905C1079.22 74.1524 1079.79 73.5895 1082.23 69.0865C1085.42 63.6455 1089.54 55.7653 1089.36 55.7653C1089.36 55.7653 1088.23 56.7034 1087.1 58.0168C1083.73 61.5816 1078.85 65.8969 1076.03 67.7732C1072.47 70.2123 1069.28 71.338 1066.84 71.338C1065.34 71.338 1064.21 71.1504 1063.28 70.3999C1061.78 69.4618 1060.84 67.3979 1060.84 64.9588C1060.84 63.4579 1061.21 61.7692 1061.78 59.893C1063.28 55.5777 1065.15 52.2005 1069.84 45.0708C1072.47 41.3184 1073.22 40.5679 1074.53 40.5679Z" fill="#E9243E"/>
<path d="M1010.79 73.5892C1008.36 72.8387 1007.04 70.5873 1007.04 67.7729C1007.04 66.6472 1007.23 65.5215 1007.61 64.3957C1009.29 59.1423 1014.36 52.0126 1021.68 44.6953C1024.3 42.0686 1025.43 41.1305 1025.99 40.9429C1027.68 40.5676 1029.18 41.5057 1029.18 43.382C1029.18 44.3201 1028.62 45.0706 1025.99 47.8849C1019.24 54.827 1013.05 64.0205 1012.86 67.2101V68.3358L1013.8 68.1482C1016.61 67.9605 1022.24 64.771 1028.81 59.8928L1032.93 56.8908L1033.12 55.2022C1033.31 52.3879 1034.44 50.324 1037.81 46.9468C1040.81 44.1325 1043.25 42.4438 1045.32 42.0686C1045.69 42.0686 1045.88 42.0686 1046.07 42.0686C1048.13 42.0686 1049.82 43.5696 1049.82 45.6334C1049.82 47.8849 1048.32 50.1364 1044.38 54.0765L1041.38 57.0784L1042.5 57.2661C1043.07 57.2661 1043.44 57.2661 1044 57.2661C1051.13 57.2661 1057.89 54.4517 1063.7 50.5116C1067.64 47.6973 1068.96 46.9468 1069.9 46.9468C1070.27 46.9468 1070.46 46.9468 1070.65 46.9468C1072.71 47.6973 1073.27 49.9488 1071.77 51.6374C1070.83 52.5755 1065.77 56.1403 1062.77 58.0165C1056.2 61.9566 1049.82 62.8947 1045.13 62.8947C1041 62.8947 1038.19 62.3319 1038 62.1442L1036.31 61.3938L1032.93 64.0205C1023.93 70.7749 1017.36 73.9645 1013.05 73.9645C1012.11 73.9645 1011.36 73.9645 1010.79 73.5892Z" fill="#E9243E"/>
<path d="M989.135 47.1344C988.384 47.1344 987.071 47.5097 985.195 48.0725C979.941 50.1364 973.562 55.7651 969.997 61.5814C969.059 63.27 967.933 65.8967 968.121 66.2719C968.496 66.6472 969.622 66.2719 971.498 64.9586C972.436 64.5833 974.125 63.27 975.438 62.1442C977.877 60.268 987.821 50.6993 989.322 48.823C990.073 47.6973 990.073 47.1344 989.135 47.1344ZM989.697 41.6934C990.26 41.881 990.823 41.881 991.386 41.881C992.887 42.4439 994.576 43.5696 994.763 44.8829C994.951 45.8211 995.139 46.0087 995.889 45.0706C996.264 44.6953 997.015 44.1325 997.765 43.7572C998.703 43.382 999.079 43.382 999.829 43.5696C1000.95 43.9448 1001.52 44.6953 1001.52 46.0087C1001.52 47.1344 1001.14 47.5097 1000.02 48.2602C998.703 49.1983 995.139 54.2641 993.45 57.6413C991.761 61.2061 991.011 63.4576 991.011 65.8967C991.011 68.711 991.574 68.8987 994.576 67.7729C999.829 65.5215 1009.59 57.8289 1015.78 50.8869C1018.4 47.8849 1019.53 46.9468 1020.66 46.9468C1020.84 46.9468 1021.22 46.9468 1021.41 47.1344C1022.72 47.5097 1023.47 48.2602 1023.47 49.7611C1023.47 50.8869 1022.72 51.825 1019.72 55.0146C1012.78 62.5195 1002.64 70.5873 996.452 73.214C995.139 73.7769 993.262 74.1521 991.761 74.1521C990.636 74.1521 989.697 73.9645 989.135 73.5892C987.634 73.0264 986.696 71.9006 985.945 70.212C985.382 69.0863 985.382 68.5234 985.382 66.0843C985.382 64.3957 985.57 62.7071 985.757 61.769L986.32 60.0804L984.256 62.1442C979.566 66.4596 975.626 69.6492 972.436 71.1501C970.56 72.0883 970.185 72.0883 967.933 72.0883C965.869 72.0883 965.682 72.0883 964.744 71.3378C963.055 70.0244 962.492 68.711 962.492 66.4596C962.492 59.7051 971.123 49.0106 980.316 44.3201C983.694 42.6315 986.883 41.6934 989.51 41.6934H989.697Z" fill="#E9243E"/>
<path d="M950.528 73.7773C947.151 72.6516 944.9 69.8373 943.962 65.7096C943.586 64.5838 943.586 63.0828 943.586 61.2066C943.586 58.2047 943.774 54.8274 944.524 52.2007C944.524 51.6379 944.524 51.6379 943.774 51.8255C942.461 52.0131 938.896 54.0769 936.269 55.7656C932.517 58.3923 929.702 60.8314 923.698 66.8353C920.696 69.6496 917.882 72.2764 917.507 72.6516C916.006 73.5897 913.567 72.8392 913.004 70.963C912.629 70.0249 912.816 69.6496 913.379 68.1487C916.569 61.3942 930.828 41.6938 933.079 40.5681C934.205 40.1929 935.706 40.5681 936.269 41.3186C937.02 42.632 936.832 43.5701 934.768 46.1968C933.079 48.2606 929.702 52.7636 929.139 53.7017C929.139 53.8893 929.702 53.5141 930.64 52.9512C934.58 49.7616 940.209 46.572 943.023 46.0092C943.774 45.8215 944.524 45.8215 945.275 45.8215C946.776 45.8215 947.902 46.1968 948.84 47.3225C949.778 48.2606 950.153 49.1988 950.153 50.8874C950.153 52.2007 949.966 53.7017 949.59 55.7656C949.403 57.8294 949.215 59.518 949.215 61.019C949.215 64.9591 950.153 67.5858 952.217 68.1487C952.405 68.3363 952.78 68.3363 953.155 68.3363C955.219 68.3363 958.221 67.0229 961.035 64.7715C966.289 60.0809 970.416 55.0151 974.732 49.0111C976.233 47.1349 977.171 46.7597 978.297 46.9473C979.985 47.3225 980.923 49.574 979.985 51.075C979.422 52.3883 974.732 58.2047 971.917 61.5819C969.291 64.9591 965.163 69.0868 962.724 70.5878C959.347 72.8392 955.969 74.1526 953.155 74.1526C952.217 74.1526 951.466 73.965 950.528 73.7773Z" fill="#E9243E"/>
<path d="M1293.44 141.738C1293.44 140.33 1292.45 139.417 1291.25 139.309L1291 139.299C1290.07 139.299 1288.94 139.861 1288.38 141.362C1288.19 141.737 1287.82 142.301 1287.82 142.301C1287.82 142.301 1287.25 141.925 1286.5 141.174C1284.81 139.674 1283.12 138.923 1280.5 138.736H1279.37C1273.74 138.923 1267.36 142.488 1262.67 148.68L1262.09 149.463C1261.08 150.876 1260.22 152.36 1259.53 153.835C1258.57 155.014 1257.59 156.157 1256.58 157.272C1257.41 154.121 1259.1 150.706 1261.41 147.721L1261.87 147.122C1266.73 141.01 1273.29 137.351 1279.32 137.15L1279.35 137.148H1280.56L1280.61 137.152C1283.48 137.357 1285.47 138.193 1287.37 139.828C1288.26 138.391 1289.67 137.711 1291 137.711C1293.11 137.711 1295.03 139.28 1295.03 141.738C1295.03 142.009 1295.03 142.575 1294.76 143.365C1294.57 143.949 1293.62 146.603 1292.69 149.213L1292.65 149.305C1292.45 149.782 1292.26 150.238 1292.09 150.663C1292.36 150.534 1292.64 150.404 1292.92 150.262L1292.96 150.244L1292.99 150.228C1296.85 148.535 1300.35 147.07 1303.05 146.026C1304.4 145.504 1305.57 145.083 1306.5 144.787C1306.97 144.64 1307.39 144.518 1307.75 144.432C1308.08 144.353 1308.47 144.278 1308.83 144.278L1309.37 144.306C1310.62 144.434 1311.73 145.001 1312.5 145.866C1313.39 146.867 1313.82 148.293 1313.34 149.744C1313.23 150.068 1313.07 150.49 1312.77 150.913C1312.46 151.341 1312.06 151.678 1311.59 151.983C1310.71 152.552 1309.29 153.171 1306.98 154.094L1306.96 154.102L1306.94 154.108C1301.94 155.96 1294.86 159.127 1289.82 161.556L1289.81 161.554L1286.56 163.184L1284.73 166.839C1282.26 172.149 1277.57 180.977 1274.93 185.503L1274.92 185.511C1266.97 198.961 1257.08 210.588 1247.1 217.878L1247.1 217.88C1245.61 218.973 1243.66 220.142 1241.78 221.108C1239.94 222.047 1238.05 222.859 1236.64 223.195C1235.38 223.642 1233.82 223.628 1232.84 223.628C1232.2 223.628 1231.48 223.629 1230.82 223.576C1230.22 223.529 1229.51 223.424 1228.88 223.139C1225.83 222.036 1223.81 220.002 1222.72 216.945L1222.69 216.872L1222.67 216.798C1222.46 215.965 1222.25 214.891 1222.25 213.41C1222.25 211.51 1222.43 209.163 1223.13 207.531C1225.31 201.532 1229.88 195.085 1236.37 188.447C1242.71 181.975 1250.95 175.246 1260.8 168.489C1259.14 167.903 1257.75 166.659 1256.92 165.131C1257.32 164.746 1257.72 164.348 1258.11 163.941C1258.73 165.393 1260.01 166.606 1261.55 167.067C1262.67 167.254 1264.74 167.066 1265.86 166.503C1266.24 166.316 1266.43 166.316 1266.43 166.316C1266.43 166.316 1264.93 167.631 1262.67 169.132C1242.22 183.015 1228.71 196.711 1224.59 208.156C1224.02 209.469 1223.84 211.534 1223.84 213.41L1223.84 213.886C1223.88 214.955 1224.05 215.756 1224.21 216.412C1225.15 219.038 1226.84 220.727 1229.46 221.665C1230.03 221.946 1230.91 222.017 1231.86 222.034L1232.84 222.04C1233.97 222.04 1235.28 222.04 1236.22 221.665C1238.66 221.102 1243.35 218.664 1246.16 216.6C1255.31 209.916 1264.46 199.439 1272.06 187.179L1273.56 184.704C1276.18 180.201 1280.87 171.381 1283.31 166.128L1285.38 162.002L1289.13 160.124C1293.56 157.99 1299.58 155.282 1304.4 153.381L1306.39 152.621C1310.49 150.979 1311.29 150.486 1311.68 149.635L1311.83 149.243C1312.36 147.66 1311.07 146.078 1309.21 145.886L1308.83 145.866C1307.51 145.867 1301.32 148.305 1293.63 151.682C1291.38 152.807 1289.5 153.557 1289.5 153.557C1289.36 153.412 1289.75 152.218 1290.43 150.523L1291.19 148.68L1293.26 142.864C1293.44 142.301 1293.44 141.925 1293.44 141.738ZM1274.12 171.758L1272.58 174.684C1264.89 189.012 1257.56 198.776 1248.41 207.219C1243.91 211.534 1239.78 214.348 1236.41 215.661C1234.72 216.411 1231.91 216.599 1231.15 216.224C1230.17 215.896 1229.61 214.992 1229.49 213.766L1229.46 213.223C1229.46 212.519 1229.57 211.709 1229.78 210.794L1230.03 209.845C1232.14 203.689 1238.7 195.554 1248.33 187.141L1250.29 185.453C1256.11 180.575 1269.8 170.819 1275.24 167.63L1276.56 166.879L1274.12 171.758ZM1284.63 150.368C1284.44 150.743 1283.69 152.62 1282.75 154.496L1281.25 157.873L1278.81 159.187L1278.26 159.439C1276.85 160.119 1274.64 161.392 1272.99 162.377C1270.18 164.066 1269.8 164.252 1271.12 163.314C1271.68 162.751 1273.72 160.817 1276.13 158.46L1278.62 155.998C1281.81 152.808 1284.44 150.368 1284.63 150.368ZM1263.68 161.055C1263.5 161.026 1263.45 160.923 1263.43 160.747L1263.43 160.5C1263.43 159.568 1264.18 157.6 1265.22 155.53C1267.41 152.803 1269.49 150.09 1269.85 149.243C1269.88 149.187 1269.91 149.126 1269.94 149.067C1273.17 145.972 1276.99 143.989 1280.12 143.988C1280.87 143.988 1281.62 143.989 1281.62 144.364L1281.6 144.486C1281.38 145.173 1279.45 147.096 1275.06 151.494L1273.59 152.95C1270.18 156.281 1267.04 159.091 1266.05 159.749C1265.11 160.498 1263.99 161.061 1263.8 161.063L1263.68 161.055ZM1278.48 145.778C1277.1 146.096 1275.55 146.79 1273.97 147.843C1271.76 149.315 1269.62 151.405 1267.95 153.849C1267.16 155.172 1266.41 156.621 1265.87 157.887C1266.47 157.395 1267.35 156.633 1268.43 155.646C1270.03 154.186 1271.98 152.325 1273.93 150.372C1275.97 148.341 1277.45 146.855 1278.48 145.778ZM1231.07 213.612C1231.11 213.967 1231.19 214.22 1231.28 214.385C1231.36 214.53 1231.45 214.617 1231.55 214.673L1231.66 214.719L1231.76 214.755L1231.81 214.778C1231.78 214.764 1231.87 214.798 1232.15 214.814C1232.44 214.832 1232.84 214.826 1233.28 214.784C1234.19 214.7 1235.13 214.492 1235.76 214.211L1235.8 214.195L1235.83 214.181C1238.94 212.973 1242.89 210.312 1247.32 206.073L1247.33 206.063L1247.34 206.053C1256.9 197.223 1264.48 186.903 1272.65 171.131C1266.26 175.317 1256.08 182.667 1251.31 186.669C1246.02 191.126 1241.59 195.515 1238.21 199.578C1234.84 203.645 1232.58 207.309 1231.54 210.329C1231.2 211.536 1231.05 212.492 1231.05 213.223L1231.07 213.612Z" fill="#E9243E"/>
<path d="M1231.86 159.375C1231.86 157.098 1231.96 154.517 1232.36 152.165C1231.99 152.346 1231.57 152.557 1231.13 152.796C1229.8 153.52 1228.29 154.431 1227 155.258C1223.38 157.798 1220.64 160.169 1214.68 166.125L1214.65 166.161C1211.62 168.999 1208.84 171.59 1208.49 171.941L1208.36 172.069L1208.21 172.165C1206.98 172.936 1205.47 172.962 1204.24 172.529C1203.1 172.127 1202 171.265 1201.48 169.962C1201.94 169.705 1202.4 169.429 1202.87 169.131C1203.4 170.889 1205.57 171.658 1207.08 170.975L1207.37 170.819C1207.56 170.631 1208.35 169.881 1209.48 168.826L1213.56 165.003C1219.56 158.999 1222.38 156.559 1226.13 153.932C1228.76 152.244 1232.32 150.182 1233.64 149.994C1234.39 149.806 1234.39 149.805 1234.39 150.367C1233.64 152.994 1233.45 156.373 1233.45 159.375L1233.45 160.711C1233.47 161.977 1233.54 163.032 1233.82 163.877C1234.76 168.004 1237.01 170.82 1240.39 171.945C1241.21 172.11 1241.89 172.272 1242.67 172.311L1243.02 172.321C1245.83 172.321 1249.21 171.007 1252.59 168.756C1254.05 167.855 1256.12 166.004 1258.11 163.941C1258.32 164.44 1258.62 164.907 1258.97 165.329C1258.72 165.583 1258.48 165.84 1258.23 166.085C1256.54 167.749 1254.79 169.259 1253.42 170.106C1249.93 172.423 1246.26 173.907 1243.02 173.907C1241.88 173.907 1240.94 173.672 1240.08 173.501L1239.98 173.481L1239.89 173.451C1235.87 172.111 1233.31 168.767 1232.28 164.242C1231.85 162.837 1231.86 161.091 1231.86 159.375ZM1267.72 143.485C1265.91 144.919 1264.2 146.66 1262.67 148.68C1261.41 150.322 1260.35 152.085 1259.53 153.835C1256.87 157.092 1254.09 160.085 1250.9 162.938L1250.37 163.349C1247.71 165.349 1244.95 166.503 1243.02 166.503C1242.64 166.503 1242.27 166.503 1242.08 166.315C1240.14 165.787 1239.2 163.446 1239.09 159.91L1239.08 159.187C1239.08 157.686 1239.26 155.996 1239.45 153.932C1239.78 152.126 1239.97 150.752 1240.01 149.556L1240.02 149.055C1240.02 147.366 1239.64 146.428 1238.7 145.49C1237.88 144.505 1236.92 144.095 1235.68 144.008L1235.14 143.988C1234.39 143.988 1233.64 143.988 1232.89 144.176C1230.07 144.739 1224.44 147.929 1220.5 151.118C1219.95 151.45 1219.53 151.715 1219.27 151.839C1220.06 150.785 1220.62 149.944 1220.86 149.431C1220.93 149.291 1220.99 149.15 1221.04 149.011C1221.98 147.759 1223.05 146.344 1223.93 145.24L1224.63 144.364C1226.69 141.737 1226.88 140.8 1226.13 139.486C1225.57 138.736 1224.07 138.36 1222.94 138.735C1222.08 139.168 1219.45 142.327 1216.36 146.439C1215.79 146.984 1215.12 147.719 1214.3 148.68C1211.48 152.155 1208.74 155.411 1206.22 158.142C1208.02 155.367 1210.11 152.331 1212.15 149.488C1214.29 146.518 1216.4 143.714 1218.13 141.573C1218.99 140.505 1219.77 139.585 1220.41 138.887C1220.74 138.539 1221.04 138.23 1221.32 137.98C1221.57 137.756 1221.89 137.488 1222.23 137.315L1222.33 137.265L1222.44 137.229C1223.33 136.932 1224.3 136.948 1225.12 137.146C1225.81 137.312 1226.59 137.654 1227.17 138.258L1227.4 138.534L1227.46 138.612L1227.51 138.697L1227.69 139.043C1228.09 139.862 1228.28 140.774 1227.96 141.875C1227.65 142.929 1226.91 144.036 1225.88 145.344L1225.87 145.358L1225.86 145.37C1225.77 145.478 1225.68 145.592 1225.58 145.712C1225.83 145.563 1226.09 145.419 1226.34 145.278C1228.58 144.017 1230.84 142.985 1232.5 142.636C1233.47 142.393 1234.42 142.402 1235.14 142.402C1236.95 142.402 1238.57 142.881 1239.88 144.429C1240.44 145.004 1240.9 145.639 1241.2 146.433C1241.5 147.236 1241.6 148.1 1241.6 149.055L1241.59 149.608C1241.55 150.9 1241.35 152.336 1241.03 154.124C1240.84 156.221 1240.66 157.79 1240.66 159.187L1240.67 159.866C1240.72 161.404 1240.94 162.59 1241.28 163.423C1241.6 164.232 1241.98 164.582 1242.34 164.731L1242.5 164.785L1242.9 164.895L1242.92 164.913C1242.95 164.913 1242.98 164.915 1243.02 164.915C1244.55 164.915 1247.19 163.864 1249.88 161.722C1254.99 157.148 1259.03 152.194 1263.31 146.251L1263.33 146.219L1263.36 146.187C1264.15 145.19 1264.92 144.431 1265.76 143.976C1266.43 143.613 1267.08 143.477 1267.72 143.485ZM1271.78 147.473C1271.86 148.322 1271.71 149.221 1271.22 150.034C1270.97 150.539 1270.52 151.218 1270.03 151.889C1269.45 152.697 1268.71 153.672 1267.91 154.699C1266.46 156.548 1264.79 158.599 1263.44 160.228C1263.56 159.218 1264.27 157.417 1265.22 155.53C1267.41 152.803 1269.49 150.09 1269.85 149.243C1269.88 149.187 1269.91 149.126 1269.94 149.067C1270.54 148.496 1271.15 147.963 1271.78 147.473Z" fill="#E9243E"/>
<path d="M1186.46 166.657C1187.14 168.974 1188.39 170.612 1190.47 171.57C1191.46 172.063 1192.01 172.268 1193.26 172.311L1193.85 172.321C1196.58 172.321 1199.58 171.216 1202.87 169.131C1203.03 169.669 1203.35 170.11 1203.75 170.45C1200.31 172.639 1197 173.907 1193.85 173.907C1192.96 173.907 1192.25 173.86 1191.58 173.701C1190.9 173.54 1190.35 173.284 1189.76 172.99V172.986C1187.5 171.929 1186.07 170.209 1185.24 168.001C1185.64 167.579 1186.04 167.129 1186.46 166.657ZM1191.78 163.689C1191.78 163.033 1191.88 162.283 1191.99 161.556L1192.35 159.563C1192.5 159.119 1192.71 158.634 1192.93 158.113C1193.23 157.667 1193.54 157.213 1193.85 156.747C1196.71 152.076 1198 149.946 1198.39 148.608C1200.33 145.544 1201 144.589 1201.14 143.775L1201.17 143.427C1201.17 142.677 1200.98 142.3 1200.23 141.737C1199.66 141.175 1199.29 140.987 1198.72 140.987C1197.79 140.987 1196.66 141.926 1194.97 144.176C1192.44 147.616 1190.4 150.805 1188.9 153.713C1187.59 155.721 1186.27 157.584 1184.99 159.253C1185.41 157.672 1186.04 156.012 1186.85 154.288C1188.44 150.928 1190.75 147.224 1193.7 143.233L1193.7 143.223C1194.57 142.065 1195.36 141.156 1196.1 140.525C1196.84 139.906 1197.71 139.399 1198.72 139.399C1199.21 139.399 1199.69 139.485 1200.19 139.732C1200.61 139.942 1200.96 140.234 1201.27 140.537C1201.68 140.853 1202.09 141.233 1202.37 141.751C1202.69 142.338 1202.75 142.922 1202.75 143.427L1202.74 143.749C1202.68 144.484 1202.39 145.119 1201.99 145.846C1201.54 146.643 1200.79 147.786 1199.69 149.527L1199.66 149.575C1196.92 153.598 1194.77 157.543 1193.88 159.994C1193.67 161.228 1193.37 162.601 1193.37 163.689C1193.37 164.572 1193.54 164.936 1193.61 165.041C1193.63 165.063 1193.64 165.072 1193.64 165.073C1193.64 165.074 1193.64 165.076 1193.65 165.077C1193.66 165.081 1193.71 165.103 1193.85 165.103V166.691L1193.61 166.681C1192.52 166.578 1191.87 165.747 1191.79 164.063L1191.78 163.689ZM1218.6 143.527C1217.9 144.418 1217.15 145.397 1216.36 146.439C1215.79 146.984 1215.12 147.719 1214.3 148.68C1207.92 156.559 1201.92 163.315 1197.98 165.379C1196.29 166.317 1194.79 166.691 1193.85 166.691V165.103C1194.44 165.103 1195.67 164.841 1197.2 163.991L1197.22 163.981L1197.24 163.973C1198.96 163.073 1201.29 161.04 1204.07 158.115C1206.82 155.229 1209.88 151.61 1213.06 147.681L1213.08 147.663L1213.09 147.647C1214.23 146.326 1215.14 145.345 1215.94 144.689C1216.71 144.049 1217.58 143.53 1218.6 143.527ZM1222.73 146.78C1222.95 147.694 1222.87 148.663 1222.52 149.591C1221.82 150.093 1221.14 150.605 1220.5 151.118C1219.95 151.45 1219.53 151.715 1219.27 151.839C1220.06 150.785 1220.62 149.944 1220.86 149.431C1220.93 149.291 1220.99 149.15 1221.04 149.011C1221.58 148.291 1222.16 147.517 1222.73 146.78ZM1204.97 129.91C1206.68 128.773 1209.03 128.968 1210.35 130.295L1210.4 130.339L1210.44 130.385C1211.19 131.267 1211.7 132.335 1211.48 133.649C1211.29 134.786 1210.58 135.853 1209.72 136.91L1209.72 136.912C1208.94 137.888 1208.13 138.722 1207.13 139.143C1206.16 139.554 1205.23 139.491 1204.35 139.223L1203.98 139.097L1203.97 139.091L1203.95 139.083C1203 138.701 1202.37 137.909 1202.02 137.142C1201.66 136.362 1201.51 135.433 1201.66 134.535L1201.67 134.484C1201.77 133.979 1202.03 133.487 1202.24 133.117C1202.48 132.712 1202.77 132.294 1203.07 131.907C1203.63 131.171 1204.35 130.374 1204.9 129.96L1204.94 129.934L1204.97 129.91ZM1209.23 131.418C1208.48 130.668 1206.98 130.48 1205.85 131.23C1205.1 131.793 1203.42 133.857 1203.23 134.795C1203.04 135.921 1203.6 137.234 1204.54 137.609C1205.86 138.101 1206.74 137.877 1207.94 136.557L1208.48 135.922C1210.17 133.858 1210.36 132.731 1209.23 131.418Z" fill="#E9243E"/>
<path d="M1167.3 164.065C1167.3 162.441 1167.43 160.89 1167.7 159.377C1164.63 162.884 1161.8 165.779 1159.34 167.933C1156.71 170.236 1154.3 171.883 1152.39 172.359L1152.2 172.407H1150.69C1148.32 172.407 1146.43 171.243 1145.09 169.236L1144.83 168.822L1144.8 168.77L1144.77 168.714C1144.52 168.209 1144.36 167.595 1144.25 166.981C1144.72 166.58 1145.2 166.137 1145.69 165.673C1145.77 166.672 1145.94 167.505 1146.19 168.005C1147.24 169.764 1148.63 170.698 1150.35 170.807L1150.69 170.819H1152.01L1152.29 170.738C1155.36 169.762 1160.85 164.944 1167.39 157.31C1169.43 155.085 1171.1 153.227 1171.14 153.184C1171.14 153.215 1170.95 153.949 1170.77 154.684C1169.45 157.686 1168.89 160.688 1168.89 164.065L1168.9 165.029C1168.95 167.076 1169.15 167.795 1169.64 168.944C1170.39 171.007 1171.52 172.32 1173.21 173.07C1174.9 173.821 1176.4 173.821 1178.27 173.258C1180.57 172.383 1183.31 170.23 1186.46 166.657C1186.63 167.256 1186.85 167.809 1187.1 168.317C1186.83 168.619 1186.56 168.914 1186.29 169.196C1183.62 171.988 1181.13 173.87 1178.84 174.742L1178.78 174.762L1178.73 174.78C1176.7 175.387 1174.9 175.451 1172.95 174.686L1172.56 174.522C1170.43 173.573 1169.05 171.905 1168.18 169.569C1167.88 168.857 1167.64 168.209 1167.49 167.328C1167.35 166.489 1167.3 165.489 1167.3 164.065ZM1168.52 143.989C1169.45 143.989 1169.83 144.365 1169.83 145.115L1169.82 145.231C1169.7 145.855 1168.66 147.263 1165.14 151.306C1159.14 158.248 1156.32 161.062 1153.7 163.126C1152.57 164.064 1151.44 164.816 1151.44 164.816L1151.37 164.806C1151.21 164.764 1151.07 164.58 1151.07 164.253C1151.07 163.103 1151.79 160.661 1152.59 158.686L1152.94 157.873C1153.09 157.573 1153.24 157.273 1153.39 156.975C1155.95 153.827 1158.75 150.24 1159.18 149.243C1159.2 149.204 1159.22 149.16 1159.24 149.119C1162.02 146.387 1165.02 144.473 1167.39 144.176C1167.77 143.989 1168.14 143.989 1168.52 143.989ZM1198.39 148.608C1199.02 147.613 1199.52 146.839 1199.9 146.221C1200.14 146.863 1200.12 147.453 1200.12 147.741L1200.1 148.151C1200 149.111 1199.57 150.109 1198.93 151.304C1198.17 152.716 1196.97 154.688 1195.2 157.578L1195.19 157.598L1195.17 157.616C1194.04 159.343 1192.94 160.933 1191.88 162.395C1192 161.389 1192.22 160.341 1192.35 159.563C1192.5 159.119 1192.71 158.634 1192.93 158.113C1193.23 157.667 1193.54 157.213 1193.85 156.747C1196.71 152.076 1198 149.946 1198.39 148.608ZM1167.59 145.752C1165.85 145.969 1163.35 147.413 1160.77 149.856C1158.25 152.24 1155.89 155.356 1154.39 158.528C1154 159.373 1153.62 160.406 1153.3 161.398C1155.65 159.462 1158.41 156.661 1163.94 150.268L1163.94 150.266C1165.82 148.108 1166.96 146.739 1167.62 145.852C1167.65 145.813 1167.67 145.772 1167.7 145.736L1167.59 145.752ZM1194.97 144.176C1193.75 145.835 1192.64 147.437 1191.66 148.976L1190.44 148.215C1190.93 147.427 1191.47 146.644 1191.93 146.008C1192.37 145.406 1192.81 144.842 1193.1 144.556L1193.14 144.512L1193.19 144.472C1193.87 143.887 1194.69 143.559 1195.52 143.473C1195.34 143.692 1195.16 143.926 1194.97 144.176ZM1175.44 143.284C1175.37 143.332 1175.06 142.982 1174.9 142.489C1173.96 140.05 1171.33 138.736 1168.14 138.736C1167.2 138.736 1166.26 138.736 1165.14 139.111L1164.44 139.301C1160.99 140.315 1157.96 142.348 1154.44 145.866C1151.94 148.496 1149.77 151.545 1148.21 154.62C1147.17 155.872 1146.11 157.085 1145 158.267C1146.46 153.613 1149.53 148.72 1153.3 144.771L1153.31 144.758L1153.32 144.744C1157.18 140.884 1160.61 138.616 1164.72 137.579C1166.08 137.142 1167.22 137.148 1168.14 137.148C1171.01 137.148 1173.79 138.116 1175.42 140.22C1175.84 139.455 1176.35 138.535 1176.89 137.573C1181.23 129.278 1185.57 122.108 1192.15 112.157L1192.15 112.145C1195.46 107.234 1199.42 101.811 1202.77 97.4949C1204.44 95.3373 1205.98 93.4418 1207.2 92.0205C1207.81 91.3118 1208.36 90.7058 1208.82 90.239C1209.23 89.8214 1209.71 89.3717 1210.15 89.1285L1210.21 89.0966C1210.68 88.8634 1211.62 88.4883 1212.69 88.755C1213.28 88.7878 1213.91 88.9282 1214.48 89.2723C1215.12 89.6576 1215.6 90.2305 1215.9 90.932L1216.04 91.2276C1216.34 91.9251 1216.49 92.6839 1216.29 93.5424C1216.09 94.4077 1215.58 95.1992 1215 95.973L1214.95 96.0429L1214.89 96.1049C1212.19 98.9903 1204.57 109.566 1197.23 120.661L1197.23 120.659C1186.75 136.568 1178.83 151.923 1176.82 159.907L1176.54 161.151C1176.29 162.321 1176.11 163.29 1176.11 164.253C1176.11 164.99 1176.19 165.583 1176.31 165.996C1176.62 165.816 1177.01 165.546 1177.48 165.163C1178.51 164.317 1179.78 163.045 1181.2 161.406C1184.04 158.137 1187.36 153.53 1190.41 148.261L1190.42 148.237L1190.44 148.215L1191.66 148.976C1190.6 150.628 1189.68 152.207 1188.9 153.713C1183.48 162.005 1177.9 167.817 1175.83 167.818L1175.69 167.8C1175.01 167.626 1174.52 166.186 1174.52 164.253C1174.52 162.752 1174.9 161.251 1175.27 159.563C1177.33 151.308 1185.4 135.734 1195.91 119.786C1202.77 109.408 1209.96 99.3604 1213.15 95.6715L1213.73 95.0204C1214.86 93.5196 1215.05 92.7684 1214.48 91.643C1214.11 90.7049 1213.36 90.3288 1212.42 90.3288C1211.86 90.1417 1211.29 90.3291 1210.92 90.5166C1209.23 91.4547 1200.04 103.275 1193.47 113.031C1186.9 122.975 1182.59 130.105 1178.27 138.36C1176.77 140.986 1175.65 143.238 1175.46 143.24L1175.44 143.284Z" fill="#E9243E"/>
<path d="M1121.19 159.375C1121.19 157.098 1121.3 154.517 1121.7 152.165C1121.32 152.346 1120.91 152.557 1120.47 152.796C1119.13 153.519 1117.62 154.429 1116.34 155.256C1112.71 157.797 1109.97 160.168 1104.02 166.125L1104 166.143L1103.98 166.161C1100.95 168.998 1098.18 171.589 1097.82 171.941L1097.7 172.069L1097.54 172.165C1096.31 172.936 1094.81 172.962 1093.57 172.528C1092.36 172.102 1091.21 171.158 1090.72 169.72C1090.46 169.052 1090.34 168.419 1090.47 167.659C1090.49 167.533 1090.52 167.402 1090.56 167.27C1091.34 166.727 1092.14 166.152 1092.95 165.548C1092.81 165.819 1092.69 166.075 1092.57 166.315C1092.01 167.816 1091.82 168.193 1092.2 169.131C1092.76 171.007 1095.2 171.757 1096.7 170.819C1096.89 170.631 1097.69 169.88 1098.81 168.826L1102.89 165.003C1108.15 159.75 1110.96 157.225 1114.09 154.917L1115.46 153.932C1118.09 152.244 1121.65 150.182 1122.97 149.994C1123.72 149.806 1123.72 149.805 1123.72 150.367C1122.97 152.994 1122.78 156.373 1122.78 159.375L1122.79 160.711C1122.8 161.977 1122.87 163.032 1123.16 163.876C1124.09 168.004 1126.35 170.82 1129.72 171.945C1130.54 172.109 1131.22 172.272 1132.01 172.311L1132.35 172.321C1134.99 172.321 1138.12 171.165 1141.28 169.165L1141.92 168.756C1142.95 168.118 1144.29 166.999 1145.69 165.673C1145.75 166.41 1145.86 167.056 1146.01 167.545C1144.84 168.605 1143.71 169.518 1142.75 170.108L1142.75 170.106C1139.26 172.422 1135.59 173.907 1132.35 173.907C1131.21 173.906 1130.27 173.672 1129.41 173.501L1129.31 173.481L1129.22 173.451C1125.2 172.111 1122.64 168.767 1121.61 164.242C1121.18 162.837 1121.19 161.091 1121.19 159.375ZM1157.02 143.485C1156.19 144.189 1155.33 144.981 1154.44 145.866C1151.94 148.496 1149.77 151.545 1148.21 154.62C1145.75 157.575 1143.17 160.315 1140.23 162.938L1139.7 163.349C1137.04 165.349 1134.28 166.503 1132.35 166.503C1131.97 166.503 1131.6 166.503 1131.41 166.315C1129.48 165.787 1128.53 163.447 1128.42 159.91L1128.41 159.187C1128.41 157.686 1128.6 155.996 1128.79 153.932C1129.11 152.127 1129.3 150.752 1129.34 149.556L1129.35 149.055C1129.35 147.367 1128.97 146.428 1128.03 145.49C1127.21 144.505 1126.25 144.095 1125.01 144.008L1124.47 143.988C1123.72 143.988 1122.97 143.988 1122.22 144.176L1121.66 144.312C1118.71 145.138 1113.53 148.128 1109.83 151.118C1108.95 151.647 1108.4 152.01 1108.34 151.897L1108.33 151.869C1108.9 150.931 1112.27 146.427 1113.96 144.363C1116.03 141.737 1116.21 140.799 1115.46 139.486C1114.9 138.736 1113.4 138.36 1112.27 138.735C1111.47 139.135 1109.16 141.88 1106.36 145.556C1105.52 146.09 1104.47 147.163 1102.81 149.055C1101.66 150.345 1100.38 151.658 1099.04 152.96C1099.85 151.792 1100.67 150.624 1101.49 149.488C1103.62 146.518 1105.73 143.714 1107.46 141.573C1108.32 140.505 1109.1 139.585 1109.75 138.887C1110.07 138.539 1110.37 138.23 1110.65 137.98C1110.9 137.756 1111.22 137.488 1111.56 137.315L1111.67 137.265L1111.77 137.229C1112.66 136.932 1113.63 136.948 1114.45 137.145C1115.14 137.312 1115.93 137.654 1116.5 138.258L1116.73 138.534L1116.79 138.611L1116.84 138.697L1117.03 139.043C1117.43 139.862 1117.61 140.774 1117.29 141.875C1116.99 142.929 1116.24 144.035 1115.21 145.344L1115.2 145.358L1115.19 145.37C1115.1 145.478 1115.01 145.593 1114.91 145.714C1115.17 145.565 1115.42 145.419 1115.67 145.278C1117.91 144.016 1120.17 142.985 1121.83 142.636L1122.19 142.556C1123.04 142.395 1123.84 142.402 1124.47 142.402C1126.27 142.402 1127.88 142.875 1129.19 144.399C1129.76 144.981 1130.23 145.626 1130.53 146.433C1130.83 147.236 1130.93 148.1 1130.93 149.055L1130.92 149.608C1130.88 150.906 1130.68 152.349 1130.36 154.148C1130.17 156.233 1130 157.796 1130 159.187L1130.01 159.866C1130.06 161.405 1130.27 162.59 1130.61 163.423C1130.94 164.231 1131.31 164.582 1131.68 164.731L1131.83 164.785L1132.24 164.895L1132.25 164.913C1132.28 164.913 1132.31 164.915 1132.35 164.915C1133.88 164.915 1136.53 163.86 1139.22 161.711C1144.33 157.141 1148.37 152.19 1152.64 146.251L1152.66 146.219L1152.69 146.187C1153.48 145.19 1154.25 144.431 1155.09 143.976C1155.75 143.618 1156.4 143.481 1157.02 143.485ZM1161.11 147.435C1161.2 148.284 1161.06 149.187 1160.57 150.004C1160.33 150.513 1159.86 151.203 1159.37 151.889C1158.78 152.696 1158.04 153.672 1157.24 154.699C1155.63 156.756 1153.75 159.068 1152.33 160.765C1152.08 161.087 1151.81 161.414 1151.54 161.745C1151.9 160.467 1152.42 159.024 1152.94 157.873C1153.09 157.573 1153.24 157.273 1153.39 156.975C1155.95 153.827 1158.75 150.24 1159.18 149.243C1159.2 149.204 1159.22 149.16 1159.24 149.119C1159.86 148.515 1160.48 147.951 1161.11 147.435Z" fill="#E9243E"/>
<path d="M1070.83 164.252C1070.83 163.778 1070.84 163.302 1070.87 162.84C1066.8 166.489 1063.21 169.311 1060.14 170.753C1059.2 171.222 1058.48 171.539 1057.66 171.698C1056.87 171.85 1056.04 171.844 1054.97 171.844C1054.02 171.844 1053.24 171.854 1052.6 171.712C1051.81 171.535 1051.28 171.146 1050.78 170.745C1049.81 169.984 1049.05 169.139 1048.57 168.075C1048.09 167.019 1047.94 165.878 1047.94 164.628C1047.94 164.006 1048 163.365 1048.12 162.709C1048.7 162.451 1049.3 162.165 1049.93 161.862C1049.66 162.834 1049.52 163.764 1049.52 164.628L1049.55 165.431C1049.68 167.208 1050.3 168.356 1051.78 169.505C1052.48 170.068 1052.76 170.209 1053.73 170.244L1054.97 170.256C1057.22 170.256 1057.59 170.255 1059.47 169.317C1062.66 167.816 1066.6 164.627 1071.29 160.312L1073.35 158.249L1072.79 159.936C1072.6 160.874 1072.41 162.564 1072.41 164.252C1072.41 166.691 1072.41 167.255 1072.98 168.381C1073.73 170.069 1074.67 171.195 1076.17 171.758C1076.66 172.086 1077.44 172.27 1078.38 172.311L1078.79 172.321C1080.29 172.321 1082.17 171.945 1083.48 171.383C1086.11 170.267 1089.45 168.166 1092.95 165.548C1092.81 165.819 1092.69 166.075 1092.57 166.315C1092.23 167.235 1092.03 167.734 1092.01 168.197C1089.13 170.224 1086.4 171.872 1084.1 172.845L1084.1 172.843C1082.58 173.493 1080.49 173.907 1078.79 173.907C1077.65 173.907 1076.42 173.736 1075.48 173.19C1073.52 172.408 1072.36 170.895 1071.53 169.026C1071.2 168.359 1071 167.773 1070.91 166.999C1070.82 166.295 1070.83 165.427 1070.83 164.252ZM1107.69 143.527C1107.73 143.527 1107.82 143.526 1107.93 143.531C1107.43 144.165 1106.91 144.842 1106.36 145.556C1105.52 146.09 1104.47 147.163 1102.81 149.055L1101.61 150.364C1095.42 156.937 1086.53 163.831 1081.61 165.942C1078.79 166.997 1078.12 166.897 1078.05 164.562L1078.04 164.065C1078.04 161.626 1078.79 159.375 1080.48 155.81C1082.17 152.433 1085.74 147.367 1087.05 146.429C1088.18 145.679 1088.55 145.302 1088.55 144.176C1088.55 142.863 1087.99 142.113 1086.86 141.738C1086.11 141.55 1085.73 141.55 1084.8 141.925C1084.05 142.301 1083.3 142.864 1082.92 143.239C1082.17 144.177 1081.98 143.989 1081.79 143.052C1081.61 141.738 1079.92 140.613 1078.42 140.05C1077.85 140.05 1077.29 140.05 1076.73 139.862H1076.54V138.274H1076.99L1077.23 138.356C1077.51 138.45 1077.82 138.462 1078.42 138.462H1078.71L1078.98 138.562C1079.85 138.89 1080.81 139.391 1081.6 140.038C1082.01 140.37 1082.43 140.796 1082.77 141.308C1083.17 141.018 1083.63 140.734 1084.09 140.505L1084.15 140.475L1084.21 140.451C1084.73 140.243 1085.23 140.08 1085.78 140.038C1086.2 140.006 1086.57 140.052 1086.92 140.122L1087.25 140.198L1087.3 140.212L1087.36 140.232C1088.15 140.495 1088.9 140.944 1089.42 141.69C1089.95 142.43 1090.14 143.296 1090.14 144.176C1090.14 144.928 1090.01 145.672 1089.51 146.365C1089.1 146.95 1088.49 147.371 1087.96 147.725C1087.82 147.833 1087.47 148.177 1086.93 148.826C1086.42 149.444 1085.82 150.237 1085.21 151.117C1083.97 152.883 1082.7 154.923 1081.9 156.519C1080.25 160.02 1079.63 162 1079.63 164.065C1079.63 164.431 1079.64 164.708 1079.66 164.915C1079.98 164.833 1080.42 164.687 1081.02 164.462C1083.45 163.413 1087.05 161.045 1090.87 158.013C1094.68 154.986 1098.6 151.392 1101.62 148.003C1102.93 146.507 1103.95 145.431 1104.81 144.727C1105.7 144.006 1106.61 143.527 1107.69 143.527ZM1076.47 145.329C1077.09 145.451 1077.01 146.005 1076.35 146.99C1074.85 148.867 1064.91 158.436 1062.47 160.312C1061.16 161.437 1059.47 162.75 1058.53 163.126C1056.66 164.439 1055.53 164.815 1055.15 164.44C1054.97 164.065 1056.09 161.437 1057.03 159.749C1057.85 158.409 1058.82 157.082 1059.89 155.804C1060.5 155.247 1060.97 154.716 1061.31 154.21C1064.66 150.628 1068.7 147.629 1072.23 146.241C1074.1 145.679 1075.42 145.303 1076.17 145.303L1076.47 145.329ZM1072.76 147.737C1067.9 149.667 1061.8 155.007 1058.39 160.56C1058.2 160.908 1058 161.301 1057.81 161.704L1057.94 161.652C1058.2 161.546 1058.72 161.234 1059.42 160.721C1060.08 160.236 1060.8 159.653 1061.44 159.108L1061.47 159.08L1061.5 159.054C1062.64 158.179 1065.67 155.386 1068.66 152.507C1070.66 150.589 1072.54 148.718 1073.79 147.434C1073.47 147.525 1073.13 147.627 1072.76 147.737ZM1076.54 138.274V139.862L1076.04 139.872C1073.52 139.981 1070.51 140.906 1067.35 142.489C1063.05 144.683 1058.87 148.191 1055.64 151.995C1055.53 152.076 1055.43 152.159 1055.32 152.245C1054.47 152.851 1053.22 153.607 1051.83 154.394C1052.42 153.511 1053.07 152.638 1053.75 151.788C1057.18 147.54 1061.8 143.537 1066.63 141.074L1066.64 141.068C1070.13 139.322 1073.57 138.274 1076.54 138.274ZM1108.33 151.869C1108.72 151.23 1110.41 148.935 1111.98 146.884C1112.05 147.221 1112.09 147.57 1112.09 147.929C1112.09 148.586 1111.93 149.167 1111.64 149.742C1111.01 150.196 1110.4 150.657 1109.83 151.118C1108.9 151.681 1108.33 152.056 1108.33 151.869Z" fill="#E9243E"/>
<path d="M1027.93 156.747C1029.38 161.473 1033.83 164.791 1039.05 164.993L1039.56 165.003C1042.2 165.003 1045.5 164.002 1049.93 161.862C1049.75 162.529 1049.63 163.177 1049.57 163.797C1045.56 165.643 1042.32 166.591 1039.56 166.591C1033.76 166.591 1028.66 163.165 1026.69 158.027L1026 158.664L1025.98 158.682L1025.96 158.698C1023.23 161.067 1020.48 163.813 1016.21 169.012L1016.17 169.06C1015.42 169.9 1014.65 170.758 1014.03 171.43C1013.72 171.765 1013.43 172.07 1013.18 172.309C1013.06 172.428 1012.94 172.544 1012.82 172.645C1012.76 172.689 1012.68 172.756 1012.57 172.828C1012.03 173.309 1011.35 173.564 1010.78 173.685C1010.22 173.803 1009.6 173.829 1009.02 173.725L1008.78 173.673C1007.98 173.475 1007.26 172.903 1006.8 172.435C1006.39 172.025 1005.9 171.423 1005.65 170.747L1005.56 170.454L1005.51 170.264V170.068C1005.51 169.749 1005.5 168.728 1005.78 167.877C1005.89 167.517 1006.11 167.116 1006.3 166.785C1006.34 166.728 1006.37 166.671 1006.41 166.611C1007.29 166.282 1008.15 165.928 1008.99 165.54C1008.03 166.964 1007.4 167.985 1007.29 168.38C1007.1 168.943 1007.1 169.693 1007.1 170.068C1007.29 170.818 1008.41 171.945 1009.16 172.133C1009.82 172.297 1010.76 172.174 1011.37 171.764L1011.6 171.57C1011.98 171.381 1013.48 169.693 1014.98 168.005C1019.29 162.752 1022.11 159.937 1024.92 157.498L1027.36 155.247L1027.93 156.747ZM1061.31 154.21C1061.99 153.48 1062.7 152.774 1063.43 152.101C1063.46 152.27 1063.47 152.443 1063.47 152.62L1063.45 153.01C1063.35 153.912 1062.9 154.741 1062.38 155.448C1061.75 156.28 1060.89 157.11 1059.87 157.921C1059.02 158.593 1058.03 159.273 1056.92 159.96C1056.95 159.889 1056.99 159.817 1057.03 159.749C1057.85 158.409 1058.82 157.082 1059.89 155.804C1060.5 155.247 1060.97 154.716 1061.31 154.21ZM1028.06 138.997C1029.55 137.805 1031.54 137.829 1033.13 138.963L1033.44 139.205L1033.5 139.251L1033.55 139.301C1033.85 139.597 1034.37 140.083 1034.64 140.769C1034.9 141.448 1034.85 142.145 1034.76 142.784C1034.75 143.887 1034.6 144.939 1034.14 145.824C1033.76 146.553 1033.21 147.096 1032.52 147.453C1032.56 147.486 1032.59 147.518 1032.63 147.551C1033.2 148.092 1033.79 148.839 1034.09 149.59L1034.11 149.634L1034.12 149.678C1034.37 150.421 1034.57 151.678 1034.58 152.902C1034.67 153.961 1034.79 154.54 1034.97 154.949C1035.08 155.224 1035.25 155.478 1035.55 155.782L1035.9 156.105L1035.99 156.183L1036.07 156.277C1036.85 157.181 1037.87 157.599 1039.18 157.599V159.187L1038.56 159.159C1037.12 159.034 1035.85 158.459 1034.87 157.31C1033.55 156.184 1033.18 155.246 1032.99 152.996C1032.99 151.87 1032.8 150.743 1032.61 150.18C1032.26 149.3 1031.09 148.092 1030.32 147.945L1030.18 147.929C1029.36 147.929 1029.83 147.211 1030.84 146.529L1031.3 146.241C1032.45 145.913 1033.02 145.009 1033.15 143.405L1033.18 142.676C1033.37 141.363 1033.18 141.175 1032.43 140.425C1031.3 139.487 1029.99 139.487 1029.05 140.237C1028.67 140.614 1026.8 142.677 1024.92 144.927C1024.37 145.641 1023.76 146.417 1023.13 147.198C1022.33 147.949 1021.4 148.847 1020.44 149.806C1018.13 152.114 1016.27 153.876 1014.49 155.353C1015.61 153.908 1016.75 152.452 1017.87 151.06L1017.89 151.036L1017.91 151.011C1019.2 149.537 1021.81 146.373 1023.66 143.958L1023.7 143.91C1025.59 141.647 1027.5 139.539 1027.93 139.113L1027.99 139.051L1028.06 138.997ZM1058.99 148.476C1057.8 149.597 1056.67 150.781 1055.64 151.995C1055.53 152.076 1055.43 152.159 1055.32 152.245C1052.69 154.121 1046.31 157.498 1043.12 158.436C1041.62 158.999 1040.31 159.187 1039.18 159.187V157.599C1040.12 157.599 1041.25 157.444 1042.56 156.95L1042.62 156.928L1042.67 156.912C1044.12 156.488 1046.4 155.468 1048.7 154.28C1051 153.099 1053.17 151.826 1054.39 150.953C1055.68 149.948 1056.69 149.231 1057.59 148.842C1058.08 148.63 1058.54 148.511 1058.99 148.476Z" fill="#E9243E"/>
<path d="M1002.43 161.814L1002.4 161.804C1002.37 161.776 1002.38 161.685 1002.43 161.544V161.814ZM1025.19 143.559L1025.36 144.404C1025.22 144.577 1025.07 144.751 1024.92 144.927C1024.37 145.641 1023.76 146.417 1023.13 147.198C1022.33 147.949 1021.4 148.847 1020.44 149.806L1018.83 151.4C1015.22 154.914 1012.65 157.03 1009.37 159C1007.31 160.125 1003 161.812 1002.43 161.814V161.544C1002.54 161.244 1002.82 160.722 1003.18 160.124C1005.99 156.079 1007.65 151.704 1007.85 148.081L1007.87 147.366C1007.87 145.678 1007.49 144.365 1006.93 143.239C1006.4 142.008 1004.89 140.446 1003.46 139.792L1003.18 139.674C1002.36 139.346 1001.39 139.16 1000.41 139.119L999.99 139.111C996.05 139.111 990.984 141.175 985.356 145.303C984.053 146.233 982.935 146.796 982.917 146.805L982.925 146.747C983.189 146.014 987.937 138.56 993.339 130.233L999.053 121.474C1012 102.337 1015.75 96.1445 1015.75 92.7674C1015.75 92.2048 1015.56 91.6423 1015.37 91.0797C1015 90.3293 1013.69 89.5778 1012.94 89.5778C1012.19 89.5781 1010.68 90.5172 1010.31 91.4552C1010.12 91.8305 1009.93 92.7678 1009.93 93.3306C1009.93 95.0192 1008.62 96.8953 996.425 115.282C983.666 134.607 980.29 139.675 968.282 159.563C966.03 163.315 963.78 167.255 963.217 168.193C962.279 169.506 962.278 169.881 962.278 170.819C962.653 172.696 964.53 173.821 966.406 173.07C966.782 172.882 967.72 171.757 968.657 170.444C973.383 163.537 982.686 153.989 989.063 149.647L989.672 149.243C992.299 147.438 995.068 146.061 997.228 145.369L998.114 145.115C998.865 144.927 999.427 144.927 999.99 144.927C1001.49 144.927 1002.05 145.678 1002.05 147.366L1002.04 147.791C1001.86 152.186 998.911 157.082 994.549 161.626L992.298 164.065L986.668 164.252C980.477 164.44 979.163 164.815 977.287 166.128C975.599 167.441 975.036 168.38 975.036 170.256C975.224 172.695 976.538 174.197 979.54 174.948C979.962 175.088 980.384 175.123 980.884 175.131L981.416 175.135C984.605 175.135 988.734 173.634 992.674 170.819C994.151 169.835 994.766 169.568 996.279 169.265L996.988 169.132C1001.76 168.199 1005.49 167.146 1008.99 165.54C1008.3 166.555 1007.79 167.366 1007.51 167.891C1004.49 169.064 1001.22 169.921 997.294 170.689L997.272 170.693C996.237 170.882 995.715 171 995.26 171.175C994.827 171.342 994.388 171.582 993.595 172.11C989.486 175.045 985.041 176.723 981.416 176.723C980.753 176.723 979.965 176.733 979.155 176.487C977.48 176.069 976.084 175.395 975.076 174.322C974.175 173.363 973.697 172.204 973.514 170.931L973.455 170.378L973.449 170.318V170.256C973.449 169.153 973.616 168.156 974.142 167.21C974.649 166.298 975.411 165.577 976.313 164.876L976.345 164.852L976.378 164.828C977.45 164.078 978.443 163.551 980.033 163.216C981.524 162.902 983.53 162.76 986.616 162.667L991.581 162.501L993.383 160.55L993.393 160.538L993.405 160.526C997.832 155.914 1000.47 151.234 1000.47 147.366C1000.47 147.024 1000.44 146.798 1000.4 146.655C1000.39 146.608 1000.38 146.575 1000.37 146.553C1000.31 146.537 1000.19 146.515 999.99 146.515C999.442 146.515 999.047 146.518 998.5 146.655C996.484 147.159 993.468 148.56 990.571 150.551L990.553 150.563L990.533 150.575C984.363 154.568 974.751 164.349 969.967 171.341L969.959 171.355L969.949 171.367C969.463 172.048 968.965 172.696 968.529 173.208C968.313 173.463 968.098 173.701 967.896 173.899C967.733 174.059 967.451 174.322 967.115 174.49L967.057 174.52L966.995 174.544C964.327 175.612 961.638 174.136 960.852 171.642L960.722 171.131L960.69 170.977V170.819L960.692 170.47C960.698 170.096 960.729 169.656 960.88 169.174C961.067 168.574 961.404 168.007 961.869 167.35C962.152 166.876 962.837 165.692 963.744 164.135C964.66 162.561 965.79 160.631 966.922 158.746L966.924 158.742C978.947 138.828 982.337 133.74 995.101 114.407L995.103 114.405C1001.21 105.196 1004.57 100.16 1006.4 97.2072C1008.31 94.148 1008.35 93.6437 1008.35 93.3306C1008.35 92.9075 1008.41 92.4201 1008.49 92.0104C1008.57 91.6289 1008.7 91.1286 1008.89 90.7442C1009.27 89.9077 1009.99 89.2586 1010.59 88.8528C1010.93 88.6214 1011.3 88.4194 1011.66 88.2696C1012.01 88.1296 1012.46 87.992 1012.94 87.992C1013.73 87.992 1014.54 88.3416 1015.11 88.687C1015.69 89.0338 1016.41 89.6016 1016.79 90.3687L1016.85 90.4705L1016.88 90.5784C1017.05 91.0878 1017.34 91.9013 1017.34 92.7674C1017.34 93.8998 1017.02 95.1373 1016.43 96.5881C1015.84 98.0437 1014.92 99.8072 1013.62 102.015C1011.04 106.429 1006.83 112.802 1000.37 122.362C996.618 128.076 992.548 134.349 989.436 139.215C988.872 140.098 988.341 140.935 987.849 141.712C992.298 138.984 996.451 137.524 999.99 137.523C1001.26 137.523 1002.58 137.732 1003.73 138.186C1004.75 138.569 1005.73 139.282 1006.51 140.032C1007.26 140.756 1007.95 141.644 1008.35 142.528C1009.02 143.865 1009.46 145.42 1009.46 147.366L1009.44 148.159C1009.26 151.499 1007.96 155.291 1005.84 158.902C1006.87 158.465 1007.87 158.004 1008.57 157.624C1012.15 155.475 1014.86 153.146 1019.32 148.684C1020.55 147.451 1021.74 146.309 1022.67 145.448C1023.14 145.019 1023.55 144.654 1023.87 144.378C1024.03 144.241 1024.18 144.115 1024.31 144.014C1024.41 143.94 1024.59 143.796 1024.8 143.695L1024.99 143.599L1025.19 143.559ZM1030.26 146.978C1030.32 147.302 1030.35 147.629 1030.36 147.953C1030.29 147.939 1030.23 147.929 1030.18 147.929C1029.54 147.929 1029.68 147.495 1030.26 146.978ZM1025.19 143.559C1025.51 143.496 1025.82 143.481 1026.13 143.499C1025.88 143.792 1025.62 144.095 1025.36 144.404L1025.19 143.559Z" fill="#E9243E"/>
<path d="M1118.81 49.1977C1118.81 47.8849 1117.31 46.7595 1116 46.759C1115.62 46.759 1115.06 46.947 1114.87 47.3223C1107.37 55.39 1099.3 62.708 1089.92 67.5862C1089.92 67.5862 1090.48 66.2711 1091.23 64.7701C1096.68 54.5683 1099.17 48.8193 1099.46 45.9761L1099.49 45.4469V44.5082C1098.74 42.4443 1096.67 41.505 1094.8 42.6308C1094.23 42.8193 1089.73 47.1343 1084.66 52.1995C1074.91 61.7682 1072.47 63.8322 1068.9 65.1456C1066.77 65.9663 1066.36 65.9258 1066.67 64.143L1066.84 63.2702C1067.59 59.5177 1071.16 52.5749 1075.47 46.0081C1077.16 43.7573 1077.35 43.1947 1076.79 42.0695C1076.46 41.0844 1075.84 40.6727 1074.94 40.5856L1074.53 40.5676C1073.22 40.5676 1072.47 41.3189 1069.84 45.0714C1069.28 45.9288 1068.75 46.731 1068.27 47.488C1067.54 47.8789 1066.55 48.5131 1065.13 49.5032C1066.08 47.9571 1067.19 46.2228 1068.52 44.1986L1068.53 44.1786L1068.54 44.1606C1069.84 42.3131 1070.77 41.0527 1071.58 40.27C1072.01 39.8583 1072.46 39.5155 1072.98 39.2874C1073.52 39.0524 1074.04 38.9798 1074.53 38.9798C1075.25 38.9799 1076.06 39.0967 1076.78 39.549C1077.5 39.9977 1077.96 40.6672 1078.24 41.4404C1078.4 41.773 1078.56 42.1671 1078.63 42.6188C1078.7 43.1363 1078.64 43.6316 1078.48 44.1187C1078.2 44.9515 1077.58 45.8388 1076.79 46.8889C1074.66 50.1263 1072.73 53.4487 1071.24 56.4097C1069.73 59.4071 1068.73 61.924 1068.4 63.5818L1068.39 63.6017C1068.39 63.6156 1068.39 63.63 1068.38 63.6437C1071.54 62.4744 1073.73 60.6957 1083.54 51.0771C1086.08 48.5389 1088.48 46.183 1090.33 44.4343C1091.25 43.5615 1092.04 42.831 1092.64 42.3012C1092.94 42.0383 1093.21 41.8115 1093.43 41.6381C1093.54 41.5521 1093.66 41.4651 1093.77 41.3905C1093.82 41.3542 1093.94 41.2814 1094.08 41.2127C1095.41 40.454 1096.88 40.3674 1098.18 40.9071C1099.32 41.3825 1100.22 42.2989 1100.77 43.4556L1100.98 43.9649L1101.08 44.2285V45.4469L1101.07 45.7684C1100.98 47.4196 1100.25 49.6971 1099 52.6349C1097.8 55.459 1096.03 59.0664 1093.63 63.6137C1100.9 59.0402 1107.42 52.9906 1113.61 46.3456C1113.94 45.8683 1114.39 45.5953 1114.72 45.4489C1115.13 45.2684 1115.58 45.1712 1116 45.1712C1117.08 45.1715 1118.13 45.6175 1118.91 46.2617C1119.68 46.9021 1120.4 47.9224 1120.4 49.1977L1120.4 49.4413C1120.39 49.5537 1120.38 49.6915 1120.36 49.8348C1120.32 50.0301 1120.24 50.3987 1120 50.7635C1119.03 52.8917 1117.03 55.323 1114.59 57.7798C1112.02 60.3526 1108.83 63.099 1105.44 65.7607C1098.68 71.0794 1091.06 76.1511 1085.99 78.9225L1085.93 78.9545L1085.87 78.9804C1085.13 79.3102 1084.84 79.5286 1084.6 79.7913C1084.3 80.1183 1084.02 80.5978 1083.43 81.6667L1083.41 81.7007L1083.39 81.7346C1079.22 88.5555 1073.73 96.1308 1069.17 101.453L1069.17 101.459C1065.44 105.761 1061.18 109.733 1057.05 112.83C1052.96 115.901 1048.86 118.209 1045.45 119.035L1045.42 119.043L1045.39 119.049C1044.4 119.248 1042.97 119.456 1041.7 119.456C1040.24 119.456 1038.99 119.248 1038.13 119.033L1038.04 119.011L1037.95 118.979C1036.11 118.289 1034.16 116.565 1033.21 114.745C1032.41 113.407 1032.23 111.706 1032.23 109.8C1032.23 104.529 1034.79 99.8375 1039.81 94.9963C1043.55 91.0651 1047.11 88.7169 1053.75 85.4874C1062.86 80.9814 1068.48 78.2174 1071.97 76.4819C1075.4 74.7824 1076.67 74.1192 1077.16 73.8016C1077.62 73.4173 1077.92 73.1351 1078.38 72.5014C1078.9 71.7688 1079.61 70.581 1080.83 68.3312L1080.84 68.3072L1080.86 68.2832C1081.66 66.9079 1082.53 65.3717 1083.37 63.8474C1081.01 65.9876 1078.64 67.9423 1076.93 69.0821C1073.23 71.6161 1069.72 72.9248 1066.84 72.9248C1065.27 72.9248 1063.71 72.7402 1062.36 71.6905C1060.29 70.3462 1059.25 67.6922 1059.25 64.9578C1059.25 63.2194 1059.68 61.3512 1060.25 59.4375L1060.26 59.4035L1060.27 59.3756C1060.98 59.0279 1061.68 58.6437 1062.39 58.2292C1062.18 58.7744 1061.97 59.3258 1061.78 59.8929C1061.21 61.7688 1060.84 63.4571 1060.84 64.9578L1060.85 65.4112C1060.96 67.6512 1061.87 69.5208 1063.28 70.4003C1064.1 71.057 1065.06 71.2829 1066.3 71.329L1066.84 71.337C1069.13 71.337 1072.07 70.3489 1075.37 68.2153L1076.03 67.7739C1078.85 65.8977 1083.73 61.5823 1087.11 58.0175C1088.23 56.7041 1089.36 55.7646 1089.36 55.7646C1089.54 55.7675 1085.41 63.6461 1082.23 69.0861C1079.79 73.5891 1079.22 74.1517 1078.1 75.0898C1076.97 75.8406 1072.66 77.9067 1054.46 86.9115C1047.89 90.101 1044.51 92.3523 1040.95 96.1047C1036.07 100.795 1033.82 105.11 1033.82 109.8C1033.82 111.676 1034.01 112.99 1034.57 113.928C1035.32 115.429 1037.01 116.93 1038.51 117.493C1039.17 117.657 1040.11 117.822 1041.22 117.861L1041.7 117.869C1042.54 117.869 1043.49 117.763 1044.31 117.631L1045.08 117.493C1050.88 116.086 1059.49 109.732 1066.57 101.987L1067.97 100.419C1072.47 95.1654 1077.91 87.6599 1082.04 80.9058C1083.16 78.8423 1083.54 78.2789 1085.23 77.5284C1095.17 72.0874 1115.44 57.4535 1118.63 49.9486C1118.77 49.8076 1118.8 49.5609 1118.81 49.3674L1118.81 49.1977ZM1072.84 84.4708C1072.84 84.6585 1068.53 90.6639 1066.47 93.2906C1059.15 102.296 1050.14 109.989 1044.33 111.677C1041.89 112.428 1040.95 112.428 1040.01 111.677C1039.68 111.185 1039.5 110.692 1039.46 110.073L1039.45 109.8C1039.45 108.487 1039.88 106.886 1040.87 105.124L1041.32 104.359C1042.64 102.108 1046.77 97.981 1049.77 95.917C1052.21 94.416 1057.09 91.977 1068.16 86.536C1070.59 85.4108 1072.66 84.4716 1072.84 84.4708ZM1041.03 109.8C1041.03 110.118 1041.09 110.343 1041.2 110.565C1041.31 110.627 1041.43 110.653 1041.61 110.653C1042 110.653 1042.65 110.532 1043.86 110.159L1043.88 110.151C1046.47 109.401 1049.97 107.231 1053.81 104.01C1057.62 100.822 1061.63 96.721 1065.23 92.288C1066.03 91.2783 1067.16 89.753 1068.25 88.2576C1057.62 93.4825 1052.96 95.8214 1050.64 97.2472C1049.25 98.2073 1047.55 99.6731 1046.04 101.19C1044.49 102.739 1043.25 104.217 1042.7 105.16L1042.66 105.212C1041.47 107.097 1041.04 108.68 1041.03 109.8Z" fill="#E9243E"/>
<path d="M1062.39 58.2292C1062.18 58.7744 1061.97 59.3258 1061.78 59.8929C1061.72 60.0868 1061.67 60.2801 1061.61 60.47C1055.45 63.6722 1049.56 64.4824 1045.13 64.4824C1043 64.4824 1041.19 64.3361 1039.88 64.1629C1039.23 64.0766 1038.68 63.9812 1038.27 63.8893C1038.06 63.844 1037.87 63.7958 1037.7 63.7415C1037.62 63.7148 1037.52 63.6772 1037.41 63.6296C1037.39 63.6205 1037.35 63.5974 1037.29 63.5657L1036.54 63.2302L1033.91 65.2733L1033.89 65.2913C1029.34 68.7017 1025.36 71.247 1021.94 72.9467C1018.54 74.6343 1015.56 75.5511 1013.05 75.5511C1012.6 75.5511 1012.08 75.5547 1011.58 75.4932C1011.13 75.4362 1010.61 75.3146 1010.1 75.0258C1006.97 73.9477 1005.45 70.9988 1005.45 67.7739C1005.45 67.7576 1005.45 67.7403 1005.45 67.724C1006.01 67.3162 1006.57 66.8969 1007.13 66.4637C1007.07 66.9001 1007.04 67.3374 1007.04 67.7739L1007.06 68.2932C1007.21 70.8625 1008.51 72.8862 1010.79 73.5898C1011.22 73.8712 1011.75 73.9418 1012.38 73.9593L1013.05 73.9653C1017.36 73.9653 1023.93 70.7753 1032.93 64.0211L1036.31 61.3947L1038 62.1437C1038.19 62.3313 1041 62.8946 1045.13 62.8946C1049.73 62.8946 1055.96 61.9848 1062.39 58.2292ZM1046.07 40.4817V42.0695H1045.32C1043.25 42.4449 1040.81 44.1329 1037.81 46.9467C1034.44 50.3236 1033.31 52.3874 1033.12 55.2013L1032.93 56.8909L1028.81 59.8928C1022.24 64.7708 1016.61 67.9597 1013.8 68.1474L1012.86 68.3351V67.2107C1012.99 64.9439 1016.16 59.6468 1020.41 54.2786C1021.86 52.7158 1022.67 51.7746 1023.09 51.049C1023.63 50.4285 1024.18 49.8127 1024.73 49.2116L1025.99 47.8854C1028.62 45.0711 1029.18 44.3198 1029.18 43.3816C1029.18 41.5056 1027.68 40.5678 1025.99 40.943C1025.43 41.131 1024.3 42.0699 1021.68 44.6958L1020.33 46.0639C1019.67 46.748 1019.03 47.4316 1018.42 48.1091C1017.73 48.7254 1016.89 49.621 1015.78 50.8873C1013.88 53.0195 1011.64 55.22 1009.29 57.3144C1011.94 53.0462 1015.82 48.3137 1020.56 43.5734C1021.88 42.2537 1022.85 41.3272 1023.57 40.7014C1024.24 40.1278 1024.88 39.6423 1025.49 39.4371L1025.57 39.4111L1025.65 39.3932C1026.86 39.1251 1028.13 39.2997 1029.15 40.0303C1030.19 40.7825 1030.77 41.99 1030.77 43.3816C1030.77 44.291 1030.45 45.032 1029.86 45.8522C1029.32 46.6094 1028.45 47.5789 1027.15 48.9679L1027.14 48.9799L1027.13 48.9919C1023.82 52.3937 1020.64 56.3545 1018.28 59.8449C1017.09 61.5905 1016.13 63.1958 1015.46 64.5344C1015.08 65.2865 1014.82 65.9011 1014.66 66.3778C1015.73 66.0841 1017.23 65.4421 1019.13 64.3906C1021.62 63.0047 1024.61 61.0309 1027.86 58.6186L1027.87 58.6086L1031.43 56.0182L1031.54 55.0275C1031.78 51.692 1033.22 49.2936 1036.69 45.8243L1036.71 45.8063L1036.73 45.7883C1039.73 42.9767 1042.47 40.9745 1045.03 40.5076L1045.17 40.4817H1046.07ZM1068.27 47.488C1067.31 47.9982 1065.92 48.9259 1063.7 50.5118L1062.6 51.2368C1057.04 54.7924 1050.69 57.2662 1044 57.2664H1042.5L1041.38 57.0787L1044.38 54.0768C1048.07 50.383 1049.62 48.1729 1049.8 46.0559L1049.82 45.6325C1049.82 43.6979 1048.34 42.2576 1046.45 42.0854L1046.07 42.0695V40.4817C1048.9 40.4817 1051.41 42.5875 1051.41 45.6325L1051.38 46.1997C1051.27 47.5111 1050.77 48.7659 1049.91 50.0864C1048.95 51.5675 1047.49 53.2111 1045.5 55.1993L1045.05 55.6527C1051.37 55.3955 1057.44 52.8334 1062.79 49.2116C1064.75 47.8115 1066.12 46.8798 1067.13 46.2976C1068.03 45.781 1068.83 45.4317 1069.65 45.3709C1069.16 46.1164 1068.7 46.8199 1068.27 47.488ZM1074.01 48.2928C1074.04 48.3823 1074.07 48.4725 1074.09 48.5645C1074.44 49.9913 1074.02 51.5017 1072.96 52.6928L1072.89 52.7607C1072.46 53.1952 1071.45 53.9697 1070.26 54.8358C1071.35 52.7505 1072.62 50.5238 1074.01 48.2928Z" fill="#E9243E"/>
<path d="M983.794 66.0843C983.794 65.609 983.81 65.1329 983.834 64.6702C979.771 68.3199 976.177 71.1426 973.111 72.5853C972.171 73.0544 971.451 73.371 970.624 73.53C969.833 73.682 969.004 73.6758 967.934 73.6758C966.993 73.6758 966.208 73.6854 965.571 73.544C964.774 73.3665 964.253 72.9779 963.752 72.5773C963.121 72.0842 962.584 71.5546 962.152 70.9555C962.342 70.835 962.534 70.7146 962.723 70.5881C962.959 70.4431 963.208 70.2696 963.472 70.0788C963.797 70.5178 964.217 70.9266 964.745 71.337C965.448 71.8997 965.729 72.0408 966.696 72.076L967.934 72.088C970.185 72.088 970.56 72.0873 972.436 71.1493C975.625 69.6483 979.565 66.4589 984.256 62.1437L986.321 60.0806L985.757 61.7683C985.57 62.7064 985.382 64.3957 985.382 66.0843C985.382 68.5234 985.382 69.0868 985.945 70.2126C986.696 71.9009 987.634 73.0271 989.135 73.5899C989.627 73.918 990.407 74.1021 991.348 74.1431L991.761 74.1531C993.262 74.1531 995.139 73.7773 996.453 73.2144C999.382 71.9716 1003.19 69.5064 1007.13 66.4637C1007.07 66.9001 1007.04 67.3374 1007.04 67.7739C1007.04 68.0215 1007.06 68.2646 1007.08 68.5029C1003.45 71.228 999.917 73.4695 997.072 74.6764L997.07 74.6744C995.55 75.3245 993.464 75.7389 991.761 75.7389C990.619 75.7389 989.386 75.568 988.446 75.0219C986.484 74.2397 985.326 72.7264 984.495 70.8577C984.168 70.1912 983.969 69.6053 983.876 68.8305C983.792 68.1265 983.794 67.2594 983.794 66.0843ZM1020.66 45.359C1020.71 45.359 1020.84 45.3603 1021.01 45.373C1020.11 46.2899 1019.24 47.2031 1018.42 48.1091C1017.73 48.7254 1016.89 49.621 1015.78 50.8873L1014.58 52.1955C1008.38 58.7689 999.5 65.6632 994.575 67.7739C991.574 68.8994 991.01 68.7107 991.01 65.8965C991.01 63.7626 991.585 61.7721 992.86 58.9202L993.451 57.642C995.139 54.2656 998.702 49.2009 1000.02 48.261C1001.14 47.5105 1001.52 47.1338 1001.52 46.0081C1001.52 44.6954 1000.96 43.9447 999.83 43.5695C999.08 43.3818 998.703 43.3819 997.765 43.7572C997.014 44.1324 996.265 44.6962 995.889 45.0714C995.139 46.009 994.951 45.8212 994.763 44.8836C994.575 43.5703 992.887 42.4447 991.386 41.8818C990.823 41.8818 990.261 41.8814 989.698 41.694H989.51V40.1062H989.956L990.199 40.1881C990.48 40.2817 990.787 40.294 991.386 40.294H991.673L991.943 40.3938C992.818 40.7219 993.775 41.2227 994.569 41.8698C994.977 42.2017 995.401 42.6276 995.738 43.14C996.142 42.8497 996.599 42.5657 997.056 42.3372L997.114 42.3072L997.176 42.2832C997.696 42.075 998.201 41.9117 998.746 41.8698C999.167 41.8374 999.542 41.8834 999.884 41.9537L1000.21 42.0296L1000.27 42.0436L1000.33 42.0635C1001.12 42.3272 1001.87 42.7759 1002.39 43.5215C1002.92 44.2621 1003.11 45.1281 1003.11 46.0081L1003.08 46.5713C1003.02 47.1299 1002.85 47.6771 1002.48 48.197C1002.06 48.7788 1001.47 49.1956 1000.94 49.5492L1000.94 49.5512C1000.8 49.6529 1000.44 49.9984 999.898 50.6576C999.387 51.2762 998.791 52.0691 998.174 52.9485C996.936 54.7145 995.669 56.7552 994.871 58.351C993.214 61.8523 992.598 63.8318 992.598 65.8965C992.598 66.2631 992.61 66.5398 992.628 66.7474C992.952 66.6645 993.389 66.5188 993.99 66.294C996.417 65.2445 1000.02 62.8767 1003.84 59.8449C1007.65 56.8202 1011.56 53.2275 1014.58 49.8408C1015.89 48.3418 1016.91 47.2636 1017.78 46.5593C1018.67 45.8375 1019.58 45.359 1020.66 45.359ZM989.442 47.1605C990.061 47.2834 989.979 47.8374 989.323 48.8222C987.822 50.6984 977.877 60.2674 975.438 62.1437C974.124 63.2695 972.435 64.5826 971.497 64.9578C969.621 66.2711 968.495 66.6473 968.12 66.272C968.087 66.205 968.103 66.068 968.144 65.8766C969.439 64.5407 970.707 63.1107 971.755 61.7822C971.623 61.9851 971.49 62.1859 971.365 62.3894C971.173 62.7386 970.97 63.1319 970.774 63.5358L970.908 63.4839C971.173 63.3779 971.689 63.0658 972.388 62.5532C973.05 62.068 973.769 61.4851 974.405 60.9394L974.437 60.9114L974.471 60.8855C975.608 60.011 978.634 57.2179 981.631 54.3385C983.627 52.421 985.512 50.55 986.754 49.2656C986.439 49.3571 986.097 49.4584 985.728 49.5691C982.691 50.7742 979.174 53.3092 976.131 56.3957C978.013 54.0173 979.666 51.8211 979.985 51.0751C980.009 51.0373 980.026 50.9959 980.047 50.9572C981.793 49.7151 983.549 48.7197 985.194 48.0732C987.071 47.5104 988.384 47.1345 989.135 47.1345L989.442 47.1605ZM989.51 40.1062V41.694L989.011 41.704C986.484 41.8132 983.483 42.7374 980.317 44.3204C972.671 48.2213 965.415 56.2747 963.189 62.7609C962.494 63.4338 961.783 64.0995 961.048 64.7561C961.613 61.2088 963.822 57.2163 966.72 53.6195C970.143 49.3714 974.767 45.3694 979.594 42.9064L979.606 42.9004C983.1 41.1535 986.543 40.1062 989.51 40.1062ZM1023.09 51.049C1023.71 50.3335 1024.35 49.6267 1024.99 48.938C1025.03 49.2057 1025.06 49.4803 1025.06 49.7609C1025.06 50.7852 1024.67 51.6255 1024 52.547C1023.37 53.4163 1022.36 54.5205 1020.88 56.0901L1020.88 56.0921C1019.14 57.9716 1017.21 59.8813 1015.19 61.7343C1016.52 59.4947 1018.33 56.896 1020.4 54.2806C1021.86 52.716 1022.67 51.7751 1023.09 51.049Z" fill="#E9243E"/>
<path d="M965.437 58.1529C964.463 59.725 963.696 61.2837 963.189 62.7609C962.49 63.438 961.775 64.1091 961.036 64.7697C958.221 67.0212 955.218 68.3348 953.154 68.3348C952.779 68.3348 952.403 68.3346 952.216 68.147C950.282 67.6188 949.337 65.2781 949.226 61.7419L949.214 61.0189C949.214 59.5179 949.402 57.828 949.589 55.7642C949.918 53.9583 950.104 52.5836 950.145 51.3882L950.153 50.8869C950.153 49.1986 949.778 48.2598 948.84 47.3219C948.02 46.3369 947.054 45.9272 945.821 45.8399L945.275 45.8199C944.525 45.8199 943.773 45.8201 943.023 46.0077C940.208 46.5709 934.579 49.7607 930.64 52.9501C929.759 53.4783 929.21 53.8416 929.146 53.729L929.14 53.701C929.703 52.7626 933.079 48.2592 934.768 46.1954C936.831 43.569 937.018 42.6315 936.268 41.3182C935.705 40.5678 934.204 40.192 933.078 40.5672C930.824 41.6969 916.57 61.3925 913.38 68.147C912.817 69.648 912.629 70.025 913.004 70.9631C913.567 72.8384 916.005 73.5882 917.506 72.6508C917.693 72.4632 918.491 71.7128 919.617 70.6576L923.697 66.8348C929.701 60.8311 932.516 58.3908 936.268 55.7642C938.894 54.0757 942.46 52.0136 943.773 51.8256C944.524 51.6381 944.524 51.637 944.524 52.1991C943.774 54.8258 943.586 58.2047 943.586 61.2066L943.592 62.5428C943.609 63.809 943.68 64.8642 943.961 65.7084C944.899 69.8361 947.151 72.6515 950.528 73.7772C951.349 73.9414 952.026 74.1042 952.811 74.1427L953.154 74.1527C955.969 74.1527 959.346 72.8393 962.723 70.5881C962.959 70.4431 963.208 70.2696 963.472 70.0788C963.767 70.4769 964.141 70.8484 964.601 71.2208C964.235 71.4927 963.884 71.7349 963.554 71.9378C960.066 74.2543 956.398 75.7385 953.154 75.7385C952.018 75.7385 951.072 75.5042 950.217 75.3331L950.121 75.3131L950.027 75.2831C946.002 73.9416 943.443 70.5915 942.413 66.0599C941.987 64.6578 941.998 62.917 941.998 61.2066C941.998 58.9295 942.101 56.3485 942.499 53.9966C942.125 54.1781 941.71 54.3893 941.271 54.6277C939.937 55.3511 938.43 56.2611 937.143 57.0883C933.518 59.6287 930.777 62 924.82 67.9573L924.784 67.9932C921.757 70.8308 918.979 73.4221 918.628 73.7732L918.5 73.9011L918.349 73.9969C917.115 74.7678 915.61 74.794 914.376 74.3604C913.126 73.9209 911.936 72.9326 911.482 71.4185C911.252 70.7988 911.151 70.2004 911.276 69.4912C911.38 68.9064 911.646 68.2449 911.892 67.5898L911.916 67.5299L911.944 67.47C913.609 63.9435 918.054 57.219 922.291 51.3203C924.425 48.3501 926.537 45.5463 928.265 43.4053C929.127 42.3367 929.907 41.4165 930.554 40.719C930.876 40.3713 931.179 40.0619 931.455 39.8122C931.702 39.5874 932.024 39.32 932.369 39.1472L932.471 39.0972L932.577 39.0613C933.47 38.7638 934.434 38.7803 935.255 38.9774C935.948 39.1435 936.731 39.4858 937.306 40.0899L937.538 40.3655L937.598 40.4434L937.648 40.5293L937.83 40.8748C938.229 41.6937 938.419 42.6057 938.099 43.7069C937.793 44.7611 937.044 45.8674 936.016 47.1761L936.006 47.19L935.996 47.202C935.908 47.3102 935.815 47.4253 935.719 47.5455C935.972 47.3969 936.225 47.2512 936.476 47.1101C938.719 45.8483 940.979 44.8166 942.639 44.4678L943.001 44.3879C943.841 44.2269 944.645 44.2341 945.275 44.2341C947.075 44.2342 948.684 44.7072 949.993 46.2314C950.568 46.8134 951.033 47.4581 951.335 48.2645C951.636 49.0675 951.74 49.9319 951.74 50.8869L951.73 51.4402C951.686 52.732 951.488 54.1678 951.165 55.9559C950.974 58.0526 950.802 59.6223 950.802 61.0189L950.814 61.698C950.862 63.2365 951.078 64.4219 951.415 65.255C951.741 66.0635 952.121 66.4142 952.481 66.5632L952.635 66.6171L953.041 66.727L953.059 66.745C953.087 66.7451 953.119 66.747 953.154 66.747C954.686 66.747 957.326 65.6956 960.013 63.5534C961.952 61.8194 963.736 60.0294 965.437 58.1529ZM981.937 49.7165C981.94 50.4402 981.771 51.1831 981.357 51.8656C981.107 52.3713 980.654 53.0495 980.171 53.721C979.59 54.5284 978.849 55.5036 978.046 56.5311C976.441 58.5847 974.558 60.8926 973.145 62.5887C972.411 63.5304 971.566 64.5197 970.68 65.4967C969.29 66.366 968.437 66.5893 968.12 66.272C968.087 66.205 968.103 66.068 968.144 65.8766C969.506 64.4723 970.839 62.9649 971.917 61.5801C974.731 58.2031 979.422 52.3889 979.985 51.0751C980.009 51.0373 980.026 50.9959 980.047 50.9572C980.677 50.5091 981.31 50.0958 981.937 49.7165ZM975.899 45.8079C976.779 45.3316 977.624 45.2475 978.441 45.3646C975.97 46.8522 973.581 48.733 971.437 50.809C972.102 49.9222 972.772 49.0161 973.442 48.0828L973.466 48.0508L973.492 48.0189C974.29 47.0219 975.058 46.2633 975.899 45.8079Z" fill="#E9243E"/>
<path d="M791.515 130.891V89.4803H794.769V106.932C796.78 102.081 800.625 99.478 805.476 99.478C812.812 99.478 818.136 105.216 818.136 115.451C818.136 125.626 812.753 131.423 805.476 131.423C800.625 131.423 796.721 128.761 794.709 123.91L794.769 130.891H791.515ZM804.885 128.761C810.741 128.761 814.823 123.969 814.823 115.51C814.823 106.932 810.741 102.199 804.885 102.199C798.969 102.199 794.769 106.991 794.769 115.451C794.769 123.91 798.969 128.761 804.885 128.761Z" fill="#E9243E"/>
<path d="M774.895 131.424C768.329 131.424 764.188 127.282 764.188 120.953V100.011H767.441V120.42C767.441 125.626 770.636 128.761 775.723 128.761C779.746 128.761 783 126.573 784.775 123.496V100.011H788.028V130.891H784.775V126.218C782.645 129.412 779.036 131.424 774.895 131.424Z" fill="#E9243E"/>
<path d="M757.432 130.891V89.4803H760.626V130.891H757.432Z" fill="#E9243E"/>
<path d="M741.947 131.541C734.256 131.541 728.932 125.744 728.932 115.51C728.932 105.216 734.315 99.3596 742.006 99.3596C748.691 99.3596 753.778 103.796 754.725 112.138H751.53C750.702 105.571 746.916 102.081 742.006 102.081C736.268 102.081 732.186 106.873 732.186 115.451C732.186 124.088 736.208 128.879 742.006 128.879C747.034 128.879 750.761 125.152 751.53 118.527H754.725C753.778 126.927 748.75 131.541 741.947 131.541Z" fill="#E9243E"/>
<path d="M699.652 141.717V136.038H703.852C706.041 136.038 707.224 135.21 708.171 133.198L708.526 132.193L695.393 98.7685H703.498L712.253 121.781L720.476 98.7685H728.166L714.323 135.446C712.549 139.824 709.591 141.717 705.213 141.717H699.652Z" fill="#E9243E"/>
<path d="M674.243 130.891L662.174 98.7685H670.161L674.42 111.132L678.62 123.437L682.88 111.132L687.198 98.7685H694.829L682.761 130.891H674.243Z" fill="#E9243E"/>
<path d="M645.007 131.423C638.382 131.423 634.241 127.992 634.241 122.727C634.241 116.397 640.866 114.268 647.669 112.197C652.698 110.659 655.123 109.476 655.123 107.11C655.123 104.862 653.112 103.383 649.444 103.383C645.303 103.383 642.582 105.749 641.872 109.713H634.891C635.838 102.791 641.517 98.0584 649.622 98.0584C657.785 98.0584 662.577 101.904 662.577 109.062V130.891H655.123V127.282C652.698 129.944 649.089 131.423 645.007 131.423ZM641.635 122.491C641.635 124.975 643.706 126.336 646.959 126.336C650.036 126.336 653.23 125.094 655.123 122.964V114.09C653.763 115.214 651.633 115.924 649.207 116.752C644.889 118.172 641.635 119.296 641.635 122.491Z" fill="#E9243E"/>
<path d="M603.179 130.891V98.7681H610.751V102.495C612.999 99.7738 616.312 98.1174 620.335 98.1174C627.197 98.1174 631.693 102.436 631.693 109.002V130.891H624.18V110.186C624.18 105.985 621.577 103.737 617.673 103.737C614.774 103.737 612.23 105.098 610.751 107.168V130.891H603.179Z" fill="#E9243E"/>
<path d="M791.515 89.4803V130.891H794.769L794.709 123.91C796.658 128.609 800.383 131.255 805.024 131.416L805.476 131.423C812.753 131.423 818.136 125.626 818.136 115.451C818.136 105.536 813.139 99.8408 806.158 99.4944L805.476 99.478C800.625 99.478 796.78 102.081 794.769 106.932V89.4803H791.515ZM794.769 115.451C794.769 106.991 798.969 102.199 804.885 102.199C810.741 102.199 814.823 106.932 814.823 115.51L814.812 116.293C814.567 124.265 810.558 128.761 804.885 128.761L804.884 128.261C807.662 128.261 809.999 127.131 811.654 125.001C813.319 122.859 814.323 119.665 814.323 115.51C814.323 111.294 813.319 108.087 811.654 105.946C810.001 103.817 807.664 102.7 804.884 102.7C802.074 102.7 799.692 103.833 798.001 105.963C796.301 108.106 795.269 111.298 795.269 115.45C795.269 119.603 796.3 122.811 798.001 124.969C799.693 127.116 802.076 128.26 804.884 128.261L804.885 128.761L804.335 128.748C798.71 128.455 794.769 123.646 794.769 115.451ZM795.269 104.807C797.511 101.017 801.104 98.9772 805.477 98.9772C809.285 98.9774 812.594 100.472 814.942 103.307C817.283 106.134 818.637 110.251 818.637 115.45L818.621 116.409C818.462 121.133 817.121 124.916 814.92 127.572C812.566 130.412 809.258 131.923 805.477 131.924C801.112 131.924 797.482 129.847 795.227 126.06L795.273 131.392H791.015V88.979H795.269V104.807Z" fill="#E9243E"/>
<path d="M767.441 120.42V100.011H764.188V120.953L764.2 121.54C764.441 127.344 768.274 131.171 774.286 131.412L774.895 131.424C779.036 131.424 782.645 129.412 784.775 126.218V130.891H788.028V100.011H784.775V123.496C783 126.573 779.746 128.761 775.723 128.761L775.724 128.261C779.505 128.26 782.568 126.23 784.274 123.351V99.5104H788.528V131.392H784.274V127.699C782.006 130.325 778.658 131.924 774.895 131.924C771.506 131.924 768.695 130.852 766.729 128.918C764.762 126.982 763.687 124.229 763.687 120.953V99.5104H767.943V120.419L767.951 120.883C768.04 123.161 768.789 124.95 770.028 126.189C771.35 127.511 773.284 128.261 775.724 128.261L775.723 128.761L775.253 128.752C770.595 128.569 767.638 125.661 767.452 120.903L767.441 120.42Z" fill="#E9243E"/>
<path d="M757.432 89.4803V130.891H760.626V89.4803H757.432ZM761.126 131.392H756.93V88.979H761.126V131.392Z" fill="#E9243E"/>
<path d="M732.186 115.451C732.186 106.873 736.268 102.081 742.006 102.081L742.462 102.091C746.998 102.295 750.496 105.556 751.444 111.532L751.53 112.138H754.725C753.808 104.057 749.005 99.6408 742.628 99.3726L742.006 99.3596C734.315 99.3596 728.932 105.216 728.932 115.51L728.947 116.457C729.256 125.79 734.164 131.185 741.232 131.524L741.947 131.541C748.75 131.541 753.778 126.927 754.725 118.527H751.53C750.761 125.152 747.034 128.879 742.006 128.879L742.007 128.378C744.388 128.378 746.442 127.5 748.001 125.844C749.565 124.181 750.657 121.704 751.032 118.47L751.084 118.027H755.285L755.223 118.584C754.739 122.87 753.209 126.239 750.885 128.54C748.556 130.845 745.467 132.041 741.947 132.041C737.967 132.041 734.568 130.537 732.172 127.685C729.784 124.843 728.432 120.71 728.432 115.51C728.432 110.28 729.8 106.117 732.202 103.253C734.612 100.381 738.026 98.8593 742.007 98.8593C745.464 98.8595 748.536 100.009 750.865 102.261C753.046 104.369 754.542 107.412 755.119 111.294L755.223 112.081L755.285 112.638H751.088L751.034 112.201C750.631 108.999 749.512 106.596 747.943 104.999C746.379 103.407 744.336 102.582 742.007 102.582C739.292 102.582 736.984 103.709 735.342 105.854C733.691 108.011 732.686 111.235 732.686 115.45C732.686 119.698 733.676 122.937 735.32 125.101C736.954 127.251 739.261 128.378 742.007 128.378L742.006 128.879L741.468 128.866C736.139 128.586 732.432 124.12 732.198 116.249L732.186 115.451Z" fill="#E9243E"/>
<path d="M703.842 98.2681L703.966 98.5897L712.238 120.332L720.005 98.5997L720.123 98.2681H728.891L714.793 135.622L714.787 135.634C713.872 137.89 712.634 139.548 711.024 140.638C709.413 141.727 707.475 142.217 705.214 142.217H699.152V135.537H703.852L703.852 136.038H699.652V141.717H705.213L706.017 141.694C709.955 141.47 712.659 139.55 714.323 135.446L728.166 98.7685H720.476L712.253 121.781L703.498 98.7685H695.393L708.526 132.193L708.171 133.198C707.284 135.084 706.188 135.93 704.251 136.028L703.852 136.038L703.852 135.537C704.883 135.537 705.62 135.342 706.2 134.955C706.78 134.569 707.257 133.953 707.706 133.004L707.99 132.201L694.658 98.2681H703.842Z" fill="#E9243E"/>
<path d="M670.518 98.2681L670.634 98.6057L674.894 110.969L678.623 121.897L682.407 110.967L686.725 98.6037L686.843 98.2681H695.553L695.298 98.9452L683.23 131.067L683.108 131.392H673.895L673.773 131.067L661.452 98.2681H670.518ZM662.174 98.7685L674.243 130.891H682.761L694.829 98.7685H687.198L682.88 111.132L678.62 123.437L674.42 111.132L670.161 98.7685H662.174Z" fill="#E9243E"/>
<path d="M654.604 106.76C654.513 105.966 654.104 105.308 653.38 104.817C652.53 104.242 651.221 103.882 649.445 103.882C647.472 103.882 645.877 104.446 644.696 105.444C643.513 106.443 642.703 107.912 642.365 109.8L642.291 110.214H634.318L634.396 109.644C635.381 102.44 641.305 97.5571 649.623 97.5571C653.775 97.5573 657.144 98.5344 659.483 100.491C661.835 102.459 663.078 105.363 663.078 109.061V131.392H654.624V128.476C652.138 130.709 648.753 131.924 645.007 131.924C641.613 131.924 638.8 131.046 636.824 129.439C634.838 127.823 633.741 125.502 633.741 122.726C633.741 119.339 635.534 117.086 638.137 115.442C640.711 113.817 644.138 112.748 647.524 111.718L649.279 111.158C650.903 110.612 652.136 110.098 653.014 109.541C654.157 108.815 654.624 108.067 654.624 107.11L654.604 106.76ZM641.635 122.491C641.635 119.296 644.889 118.172 649.207 116.752C651.633 115.924 653.763 115.214 655.123 114.09V122.964C653.23 125.094 650.036 126.336 646.959 126.336L646.96 125.836C649.854 125.836 652.828 124.685 654.624 122.762V115.057C654.062 115.405 653.432 115.711 652.758 115.994C651.734 116.423 650.576 116.814 649.369 117.226L649.363 117.228C647.186 117.944 645.36 118.562 644.07 119.379C642.814 120.175 642.135 121.115 642.135 122.491L642.157 122.884C642.252 123.771 642.676 124.45 643.365 124.935C644.176 125.506 645.394 125.836 646.96 125.836L646.959 126.336L646.363 126.319C643.649 126.171 641.884 124.994 641.66 122.944L641.635 122.491ZM655.095 107.539C654.811 109.625 652.384 110.755 647.669 112.197C640.866 114.268 634.241 116.397 634.241 122.727C634.241 127.828 638.127 131.208 644.394 131.414L645.007 131.423C649.089 131.423 652.698 129.944 655.123 127.282V130.891H662.577V109.062C662.577 102.128 658.08 98.3029 650.378 98.0704L649.622 98.0584C641.517 98.0584 635.838 102.791 634.891 109.713H641.872C642.582 105.749 645.303 103.383 649.444 103.383L650.112 103.399C653.356 103.57 655.123 105.002 655.123 107.11L655.095 107.539Z" fill="#E9243E"/>
<path d="M631.693 109.002C631.693 102.641 627.474 98.3895 620.97 98.1303L620.335 98.1174C616.312 98.1174 612.999 99.7738 610.751 102.495V98.7681H603.179V130.891H610.751V107.168C612.23 105.098 614.774 103.737 617.673 103.737L618.39 103.765C621.893 104.027 624.18 106.248 624.18 110.186V130.891H631.693V109.002ZM611.252 101.21C613.545 98.9529 616.663 97.617 620.335 97.617C623.872 97.6171 626.843 98.732 628.933 100.737C631.026 102.743 632.193 105.602 632.193 109.003V131.392H623.681V110.186C623.681 108.192 623.064 106.721 622.045 105.748C621.022 104.771 619.531 104.238 617.673 104.238C614.99 104.238 612.646 105.471 611.252 107.336V131.392H602.678V98.2681H611.252V101.21Z" fill="#E9243E"/>
<path d="M321.809 73.6261V41.5034H329.382V45.2304C331.63 42.5091 334.943 40.8527 338.965 40.8527C345.828 40.8527 350.324 45.1712 350.324 51.7377V73.6261H342.811V52.9209C342.811 48.7207 340.208 46.4727 336.303 46.4727C333.404 46.4727 330.861 47.8333 329.382 49.9038V73.6261H321.809Z" fill="#E9243E"/>
<path d="M350.324 51.7377C350.324 45.3765 346.104 41.1251 339.602 40.8654L338.965 40.8527C334.943 40.8527 331.63 42.5091 329.382 45.2304V41.5034H321.809V73.6261H329.382V49.9038C330.861 47.8333 333.404 46.4727 336.303 46.4727C340.208 46.4727 342.811 48.7207 342.811 52.9209V73.6261H350.324V51.7377ZM329.881 43.9452C332.174 41.6879 335.292 40.3523 338.965 40.3521C342.502 40.3521 345.474 41.467 347.565 43.4718C349.657 45.4785 350.824 48.3372 350.824 51.7384V74.1274H342.31V52.9208C342.31 50.9266 341.694 49.4561 340.674 48.4829C339.651 47.5067 338.16 46.973 336.302 46.973C333.619 46.9732 331.276 48.2069 329.881 50.0727V74.1274H321.309V41.0033H329.881V43.9452Z" fill="#E9243E"/>
<path d="M329.734 175.885L317.666 143.762H325.653L329.912 156.126L334.112 168.431L338.372 156.126L342.69 143.762H350.321L338.253 175.885H329.734Z" fill="#E9243E"/>
<path d="M326.009 143.262L326.127 143.599L330.385 155.962L330.387 155.964L334.115 166.889L337.898 155.96L342.218 143.597L342.334 143.262H351.044L338.721 176.06L338.599 176.386H329.388L329.266 176.06L316.943 143.262H326.009ZM317.666 143.762L329.734 175.885H338.253L350.321 143.762H342.69L338.372 156.126L334.112 168.431L329.912 156.126L325.653 143.762H317.666Z" fill="#E9243E"/>
<path d="M434.498 74.1585C427.872 74.1585 423.731 70.7274 423.731 65.4623C423.731 59.1324 430.356 57.0028 437.16 54.9322C442.188 53.3941 444.614 52.211 444.614 49.8447C444.614 47.5967 442.602 46.1177 438.934 46.1177C434.793 46.1177 432.072 48.484 431.362 52.4476H424.382C425.328 45.5261 431.007 40.7935 439.112 40.7935C447.276 40.7935 452.067 44.6388 452.067 51.7969V73.6261H444.614V70.0175C442.188 72.6796 438.579 74.1585 434.498 74.1585ZM431.126 65.2257C431.126 67.7103 433.196 69.0709 436.45 69.0709C439.526 69.0709 442.72 67.8286 444.614 65.699V56.8253C443.253 57.9493 441.123 58.6592 438.698 59.4874C434.379 60.9072 431.126 62.0312 431.126 65.2257Z" fill="#E9243E"/>
<path d="M444.093 49.4955C444.002 48.7011 443.594 48.0429 442.869 47.5522C442.02 46.9774 440.71 46.6175 438.934 46.6175C436.961 46.6175 435.367 47.181 434.185 48.1793C433.003 49.1781 432.192 50.6473 431.854 52.5353L431.78 52.9487H423.807L423.885 52.3795C424.871 45.1751 430.794 40.2922 439.112 40.2922C443.264 40.2923 446.634 41.2696 448.972 43.2262C451.325 45.1944 452.567 48.0983 452.568 51.7963V74.1274H444.113V71.2114C441.628 73.444 438.244 74.6585 434.499 74.6587C431.104 74.6587 428.289 73.781 426.314 72.1741C424.328 70.5584 423.23 68.2368 423.23 65.4614C423.23 62.0748 425.024 59.8206 427.626 58.1775C430.2 56.5523 433.627 55.4831 437.013 54.4526C439.531 53.6824 441.333 53.0186 442.503 52.2756C443.646 51.5503 444.113 50.8024 444.113 49.845L444.093 49.4955ZM431.126 65.2257C431.126 62.4304 433.617 61.2209 437.133 60.0109L438.698 59.4874C441.123 58.6592 443.253 57.9493 444.614 56.8253V65.699C442.72 67.8286 439.526 69.0709 436.45 69.0709L436.45 68.5711C439.344 68.5711 442.317 67.4203 444.113 65.4973V57.792C443.551 58.1403 442.921 58.4464 442.248 58.7287C441.223 59.1581 440.067 59.5491 438.86 59.961L438.854 59.963C436.677 60.6789 434.85 61.2965 433.56 62.114C432.303 62.9106 431.626 63.8503 431.626 65.2257L431.646 65.6192C431.742 66.5061 432.165 67.1847 432.855 67.6703C433.665 68.2409 434.883 68.5711 436.45 68.5711L436.45 69.0709L435.855 69.0544C433.14 68.9066 431.373 67.7292 431.149 65.6791L431.126 65.2257ZM444.585 50.2744C444.3 52.3601 441.874 53.4902 437.16 54.9322C430.356 57.0028 423.731 59.1324 423.731 65.4623L423.743 65.9507C423.985 70.7776 427.819 73.9497 433.883 74.1494L434.498 74.1585C438.579 74.1585 442.188 72.6796 444.614 70.0175V73.6261H452.067V51.7969C452.067 44.8628 447.57 41.0378 439.867 40.8055L439.112 40.7935C431.007 40.7935 425.328 45.5261 424.382 52.4476H431.362L431.519 51.7224C432.418 48.1971 435.052 46.1177 438.934 46.1177L439.603 46.1341C442.846 46.3051 444.614 47.7373 444.614 49.8447L444.585 50.2744Z" fill="#E9243E"/>
<path d="M426.172 184.665V178.986H430.372C432.561 178.986 433.744 178.158 434.69 176.147L435.045 175.141L421.912 141.717H430.017L438.772 164.729L446.995 141.717H454.686L440.843 178.395C439.068 182.772 436.11 184.665 431.732 184.665H426.172Z" fill="#E9243E"/>
<path d="M430.362 141.217L430.484 141.538L438.757 163.282L446.524 141.548L446.642 141.217H455.41L441.311 178.571L441.307 178.583C440.393 180.838 439.155 182.496 437.544 183.586C435.933 184.676 433.994 185.166 431.732 185.166H425.671V178.485H430.372L430.372 178.986H426.172V184.665H431.732C436.11 184.665 439.068 182.772 440.843 178.395L454.686 141.717H446.995L438.772 164.729L430.017 141.717H421.912L435.045 175.141L434.69 176.147C433.803 178.032 432.707 178.878 430.77 178.976L430.372 178.986L430.372 178.485C431.403 178.485 432.139 178.29 432.719 177.904C433.301 177.516 433.78 176.896 434.231 175.94L434.508 175.15L421.447 141.9L421.177 141.217H430.362Z" fill="#E9243E"/>
<path d="M383.078 54.197C383.078 27.6534 361.56 6.13551 335.016 6.13551C308.473 6.13551 286.955 27.6534 286.955 54.197C286.955 80.7406 308.473 102.258 335.016 102.258V108.394C305.084 108.394 280.819 84.1292 280.819 54.197C280.819 24.2648 305.084 0 335.016 0C364.948 0 389.213 24.2648 389.213 54.197C389.213 84.1292 364.948 108.394 335.016 108.394V102.258C361.56 102.258 383.078 80.7406 383.078 54.197Z" fill="#E9243E"/>
<path d="M383.078 158.501C383.078 131.957 361.56 110.439 335.016 110.439C308.473 110.439 286.955 131.957 286.955 158.501C286.955 185.044 308.473 206.562 335.016 206.562V212.698C305.084 212.698 280.819 188.433 280.819 158.501C280.819 128.568 305.084 104.304 335.016 104.304C364.948 104.304 389.213 128.568 389.213 158.501C389.213 188.433 364.948 212.698 335.016 212.698V206.562C361.56 206.562 383.078 185.044 383.078 158.501Z" fill="#E9243E"/>
<path d="M487.381 54.197C487.381 27.6534 465.863 6.13551 439.32 6.13551C412.776 6.13551 391.258 27.6534 391.258 54.197C391.258 80.7406 412.776 102.258 439.32 102.258V108.394C409.388 108.394 385.123 84.1292 385.123 54.197C385.123 24.2648 409.388 0 439.32 0C469.252 0 493.517 24.2648 493.517 54.197C493.517 84.1292 469.252 108.394 439.32 108.394V102.258C465.863 102.258 487.381 80.7406 487.381 54.197Z" fill="#E9243E"/>
<path d="M487.381 158.501C487.381 131.957 465.863 110.439 439.32 110.439C412.776 110.439 391.258 131.957 391.258 158.501C391.258 185.044 412.776 206.562 439.32 206.562V212.698C409.388 212.698 385.123 188.433 385.123 158.501C385.123 128.568 409.388 104.304 439.32 104.304C469.252 104.304 493.517 128.568 493.517 158.501C493.517 188.433 469.252 212.698 439.32 212.698V206.562C465.863 206.562 487.381 185.044 487.381 158.501Z" fill="#E9243E"/>
</svg>
