<svg width="186" height="24" viewBox="0 0 186 24" fill="none" xmlns="http://www.w3.org/2000/svg">
<path d="M-0.000247993 22.855V0.3409H2.72607V20.4365H13.1916V22.855H-0.000247993ZM39.2474 11.5979C39.2474 13.9725 38.8186 16.0245 37.9612 17.7541C37.1037 19.4837 35.9274 20.8176 34.4323 21.7557C32.9373 22.6937 31.2296 23.1628 29.3095 23.1628C27.3894 23.1628 25.6817 22.6937 24.1867 21.7557C22.6916 20.8176 21.5153 19.4837 20.6578 17.7541C19.8004 16.0245 19.3716 13.9725 19.3716 11.5979C19.3716 9.22341 19.8004 7.17134 20.6578 5.44175C21.5153 3.71215 22.6916 2.37831 24.1867 1.44022C25.6817 0.502134 27.3894 0.0330902 29.3095 0.0330902C31.2296 0.0330902 32.9373 0.502134 34.4323 1.44022C35.9274 2.37831 37.1037 3.71215 37.9612 5.44175C38.8186 7.17134 39.2474 9.22341 39.2474 11.5979ZM36.609 11.5979C36.609 9.64848 36.2829 8.00316 35.6306 6.66199C34.9857 5.32082 34.1099 4.30578 33.0032 3.61687C31.9039 2.92797 30.6727 2.58351 29.3095 2.58351C27.9463 2.58351 26.7114 2.92797 25.6048 3.61687C24.5055 4.30578 23.6297 5.32082 22.9774 6.66199C22.3325 8.00316 22.01 9.64848 22.01 11.5979C22.01 13.5474 22.3325 15.1927 22.9774 16.5339C23.6297 17.8751 24.5055 18.8901 25.6048 19.579C26.7114 20.2679 27.9463 20.6124 29.3095 20.6124C30.6727 20.6124 31.9039 20.2679 33.0032 19.579C34.1099 18.8901 34.9857 17.8751 35.6306 16.5339C36.2829 15.1927 36.609 13.5474 36.609 11.5979ZM47.4117 0.3409L54.0955 19.2932H54.3594L61.0433 0.3409H63.9015L55.6346 22.855H52.8203L44.5534 0.3409H47.4117ZM71.1231 22.855V0.3409H84.7107V2.7594H73.8494V10.3667H84.0072V12.7852H73.8494V20.4365H84.8866V22.855H71.1231ZM106.289 0.3409H107.784L116.457 20.8762H116.611L125.285 0.3409H126.78V22.855H125.461V3.60588H125.329L117.183 22.855H115.886L107.74 3.60588H107.608V22.855H106.289V0.3409ZM138.374 0.3409V22.855H137V0.3409H138.374ZM160.742 5.96942C160.624 4.56962 160.053 3.43732 159.027 2.57252C158.008 1.70772 156.689 1.27532 155.069 1.27532C153.977 1.27532 153.006 1.47687 152.156 1.87995C151.306 2.28303 150.639 2.83269 150.155 3.52893C149.672 4.22516 149.43 5.024 149.43 5.92545C149.43 6.50442 149.54 7.02843 149.76 7.49748C149.987 7.95919 150.305 8.37327 150.716 8.73971C151.126 9.09882 151.614 9.41396 152.178 9.68512C152.742 9.95629 153.365 10.1945 154.047 10.3997L156.509 11.1252C157.352 11.3817 158.129 11.6786 158.84 12.0157C159.558 12.3528 160.181 12.7559 160.709 13.2249C161.244 13.6866 161.658 14.229 161.951 14.8519C162.251 15.4749 162.402 16.1931 162.402 17.0066C162.402 18.1939 162.094 19.2565 161.478 20.1946C160.87 21.1327 160.002 21.8729 158.873 22.4153C157.752 22.9503 156.429 23.2178 154.904 23.2178C153.453 23.2178 152.189 22.9722 151.112 22.4812C150.042 21.9902 149.195 21.3086 148.572 20.4365C147.949 19.557 147.598 18.5456 147.517 17.4024H148.924C148.997 18.3331 149.294 19.1393 149.814 19.8209C150.342 20.4951 151.042 21.0155 151.914 21.3819C152.786 21.7483 153.783 21.9316 154.904 21.9316C156.114 21.9316 157.18 21.7263 158.103 21.3159C159.027 20.8982 159.749 20.3192 160.269 19.579C160.789 18.8388 161.05 17.9777 161.05 16.9956C161.05 16.2041 160.863 15.5262 160.489 14.9619C160.115 14.3975 159.562 13.9102 158.829 13.4998C158.103 13.0894 157.202 12.7229 156.125 12.4004L153.497 11.6089C151.738 11.0739 150.393 10.3447 149.463 9.42129C148.539 8.49786 148.078 7.34724 148.078 5.96942C148.078 4.81147 148.385 3.78544 149.001 2.89132C149.617 1.98988 150.452 1.28265 151.507 0.769635C152.57 0.256619 153.768 0.000111476 155.102 0.000111476C156.443 0.000111476 157.627 0.260284 158.653 0.780629C159.679 1.29364 160.493 2.00087 161.093 2.90232C161.694 3.79643 162.028 4.8188 162.094 5.96942H160.742ZM183.684 5.96942C183.566 4.56962 182.995 3.43732 181.969 2.57252C180.95 1.70772 179.631 1.27532 178.011 1.27532C176.919 1.27532 175.948 1.47687 175.098 1.87995C174.248 2.28303 173.581 2.83269 173.097 3.52893C172.613 4.22516 172.372 5.024 172.372 5.92545C172.372 6.50442 172.482 7.02843 172.701 7.49748C172.929 7.95919 173.247 8.37327 173.658 8.73971C174.068 9.09882 174.556 9.41396 175.12 9.68512C175.684 9.95629 176.307 10.1945 176.989 10.3997L179.451 11.1252C180.294 11.3817 181.071 11.6786 181.782 12.0157C182.5 12.3528 183.123 12.7559 183.651 13.2249C184.186 13.6866 184.6 14.229 184.893 14.8519C185.193 15.4749 185.344 16.1931 185.344 17.0066C185.344 18.1939 185.036 19.2565 184.42 20.1946C183.812 21.1327 182.943 21.8729 181.815 22.4153C180.693 22.9503 179.371 23.2178 177.846 23.2178C176.395 23.2178 175.131 22.9722 174.054 22.4812C172.984 21.9902 172.137 21.3086 171.514 20.4365C170.891 19.557 170.539 18.5456 170.459 17.4024H171.866C171.939 18.3331 172.236 19.1393 172.756 19.8209C173.284 20.4951 173.984 21.0155 174.856 21.3819C175.728 21.7483 176.725 21.9316 177.846 21.9316C179.055 21.9316 180.122 21.7263 181.045 21.3159C181.969 20.8982 182.691 20.3192 183.211 19.579C183.731 18.8388 183.991 17.9777 183.991 16.9956C183.991 16.2041 183.805 15.5262 183.431 14.9619C183.057 14.3975 182.504 13.9102 181.771 13.4998C181.045 13.0894 180.144 12.7229 179.066 12.4004L176.439 11.6089C174.68 11.0739 173.335 10.3447 172.405 9.42129C171.481 8.49786 171.019 7.34724 171.019 5.96942C171.019 4.81147 171.327 3.78544 171.943 2.89132C172.559 1.98988 173.394 1.28265 174.449 0.769635C175.512 0.256619 176.71 0.000111476 178.044 0.000111476C179.385 0.000111476 180.569 0.260284 181.595 0.780629C182.621 1.29364 183.434 2.00087 184.035 2.90232C184.636 3.79643 184.97 4.8188 185.036 5.96942H183.684Z" fill="white"/>
</svg>
