<svg width="931" height="327" viewBox="0 0 931 327" fill="none" xmlns="http://www.w3.org/2000/svg">
<path d="M160.009 25.7772C165.659 16.8129 172.231 7.33975 174.605 4.73659L178.921 0.0195548H228.064C255.078 0.0195548 277.247 0.66547 277.286 1.48752C277.325 2.29 272.342 6.90914 266.202 11.7631C260.061 16.5976 248.781 27.2647 241.11 35.446C233.44 43.6274 222.748 57.7001 217.353 66.7035C211.958 75.7069 205.209 89.7014 202.345 97.8241C199.481 105.927 195.616 120.489 193.772 130.178C191.222 143.546 190.653 153.665 191.477 172.259C192.144 187.76 194.066 202.44 196.695 212.383C198.971 220.995 204.837 236.398 209.721 246.635C214.626 256.852 222.866 270.944 228.064 277.951C233.263 284.938 243.17 295.958 250.076 302.417C257.001 308.876 265.908 316.352 269.91 319.053C273.912 321.735 277.168 324.593 277.188 325.415C277.188 326.217 254.686 326.883 177.136 326.883L171.505 319.543C168.425 315.491 162.108 306.038 157.518 298.502C152.908 290.967 146.237 278.186 142.687 270.122C139.136 262.038 134.055 247.946 131.406 238.806C128.777 229.646 125.58 215.553 124.344 207.49C123.088 199.406 121.44 189.718 120.675 185.96C119.91 182.182 118.831 211.169 118.282 250.373C117.673 295.292 116.575 321.892 115.339 322.303C114.26 322.655 108.139 314.787 101.744 304.844C95.3284 294.901 87.285 280.593 83.8519 273.058C80.4187 265.522 75.3572 252.311 72.6303 243.699C69.8838 235.087 66.2152 220.544 64.4888 211.404C62.7624 202.244 61.35 194.532 61.3696 194.278C61.3892 194.004 60.5064 193.789 59.4274 193.789C58.1718 193.789 57.289 216.728 56.9751 257.713C56.6809 298.189 55.7784 321.892 54.5229 322.283C53.4439 322.616 48.4609 316.529 43.419 308.739C38.3772 300.949 31.6678 289.734 28.4896 283.823C25.3115 277.892 19.5634 264.681 15.7183 254.464C11.8731 244.227 6.77245 226.612 4.41828 215.319C1.14206 199.66 0.0826629 187.76 0.00419061 165.408C-0.0742817 144.955 0.945845 130.706 3.35887 118.434C5.26182 108.746 9.04814 93.7725 11.7751 85.1606C14.5216 76.5486 20.25 62.0061 24.5072 52.8657C28.7447 43.7057 36.8077 29.3785 42.3989 21.021C47.99 12.6635 53.6793 5.83264 55.0133 5.85221C56.9359 5.87178 57.4656 20.7078 57.4656 73.417C57.4656 110.546 58.1326 141.314 58.937 141.765C59.7609 142.215 61.1538 137.165 62.0366 130.51C62.9194 123.856 64.8812 113.149 66.3721 106.69C67.8827 100.231 70.9432 89.2121 73.1796 82.2247C75.4357 75.2177 81.0465 61.5755 85.6371 51.8871C90.2474 42.1986 98.5851 27.4408 104.176 19.1029C109.787 10.7454 115.241 4.36468 116.32 4.91271C117.575 5.53903 118.262 31.4337 118.242 76.8422C118.203 115.85 118.87 147.03 119.714 146.11C120.538 145.19 122.343 135.932 123.677 125.558C125.03 115.185 128.051 100.075 130.386 92.011C132.74 83.9275 138.037 69.4046 142.196 59.7161C146.335 50.0277 154.359 34.7414 160.009 25.7772Z" fill="#F4EAE0"/>
<path d="M664.174 11.5283C659.584 8.41622 655.837 4.56043 655.837 2.9359C655.837 0.411029 662.487 0 703.901 0C747.1 0 752.299 0.352317 755.261 3.42522C757.085 5.30419 763.442 14.3467 769.386 23.4872C775.35 32.6471 783.04 46.2893 786.493 53.8248C789.965 61.3602 794.654 73.2604 796.949 80.2478C799.264 87.2548 802.345 98.2546 803.836 104.714C805.326 111.173 807.72 125.265 809.172 136.03C811.702 154.917 811.82 152.999 812.33 81.2264C812.624 40.3196 813.507 6.12623 814.292 5.24546C815.077 4.34512 820.746 10.9607 826.887 19.9249C833.008 28.8696 841.581 43.7057 845.897 52.8461C850.232 62.0061 855.607 75.2176 857.864 82.2051C860.12 89.2121 863.69 103.304 865.809 113.521C867.928 123.758 870.557 132.996 871.655 134.073C873.009 135.403 873.656 115.107 873.637 70.9508C873.597 20.199 874.127 5.87177 876.05 5.83262C877.403 5.81305 883.073 12.6439 888.664 21.0014C894.255 29.3785 902.318 43.7057 906.575 52.8461C910.832 62.0061 916.541 76.529 919.288 85.141C922.015 93.7529 925.782 108.726 927.626 118.414C929.823 129.845 931 145.66 931 163.432C931 180.558 929.764 197.801 927.684 209.427C925.86 219.664 921.701 235.948 918.444 245.637C915.188 255.325 907.752 272.51 901.887 283.803C896.021 295.116 888.154 308.543 884.368 313.651C880.601 318.76 876.638 322.518 875.559 321.97C874.304 321.344 873.597 297.504 873.597 256.402C873.597 220.877 872.93 191.792 872.126 191.773C871.322 191.753 869.046 199.895 867.065 209.877C865.103 219.859 860.904 235.948 857.746 245.637C854.587 255.325 848.251 270.748 843.66 279.889C839.069 289.049 831.36 302.456 826.494 309.717C821.649 316.959 816.803 322.616 815.724 322.263C814.488 321.872 813.39 295.292 812.781 250.373C812.232 211.169 811.212 181.301 810.486 183.983C809.78 186.684 808.151 196.372 806.876 205.513C805.601 214.673 802.364 229.646 799.696 238.786C797.028 247.946 792.123 261.588 788.788 269.124C785.473 276.659 778.528 289.871 773.388 298.483C768.229 307.095 761.539 317.038 752.946 327L651.462 325.884L661.016 319.112C666.254 315.374 675.259 307.897 681.046 302.476C686.814 297.054 696.25 286.445 702.018 278.91C707.785 271.375 716.476 256.852 721.322 246.615C726.148 236.398 732.014 220.975 734.329 212.363C737.141 201.924 738.887 188.223 739.567 171.261C740.41 150.553 739.861 142.352 736.702 127.222C734.564 117.005 730.111 101.582 726.795 92.97C723.48 84.3581 716.182 70.2658 710.591 61.6538C704.98 53.0418 694.131 39.5172 686.461 31.5902C678.79 23.6829 668.765 14.6599 664.174 11.5283Z" fill="#F4EAE0"/>
<path d="M240.237 227V116.559H270.687L283.151 157.896L295.3 199.074L307.448 157.896L319.755 116.559H350.205V227H330.641L330.799 172.568L331.272 136.912L320.859 172.568L304.766 227H285.045L268.952 172.568L258.539 136.912L259.012 172.568L259.17 227H240.237ZM409.179 229.051C378.886 229.051 357.902 208.856 357.902 171.78C357.902 134.703 378.886 114.508 409.179 114.508C439.313 114.508 460.297 134.703 460.297 171.78C460.297 208.856 439.313 229.051 409.179 229.051ZM409.179 212.169C427.007 212.169 438.84 198.285 438.84 171.78C438.84 145.274 427.007 131.39 409.179 131.39C391.35 131.39 379.359 145.274 379.359 171.78C379.359 198.285 391.35 212.169 409.179 212.169ZM562.005 116.559L521.142 227H496.056L455.193 116.559H478.07L509.309 206.174L524.77 161.367L540.39 116.559H562.005ZM566.106 227V116.559H646.728V133.283H587.089V161.998H631.424V178.406H587.089V210.592H646.728V227H566.106Z" fill="#F4EAE0"/>
<path d="M678.132 148.557C668.216 148.557 661.347 141.947 661.347 131.772C661.347 121.532 668.216 114.922 678.132 114.922C687.983 114.922 694.852 121.532 694.852 131.772C694.852 141.947 687.983 148.557 678.132 148.557ZM678.132 145.641C686.233 145.641 691.482 140.456 691.482 131.772C691.482 123.023 686.233 117.838 678.132 117.838C670.031 117.838 664.717 123.023 664.717 131.772C664.717 140.456 670.031 145.641 678.132 145.641ZM670.679 140.78V122.375H680.335C684.094 122.375 686.362 124.319 686.362 127.494C686.362 129.439 685.39 131.124 683.446 131.966C685.002 132.485 685.65 133.586 685.714 135.401C685.779 138.253 685.909 139.549 686.427 140.78H682.28C681.826 139.808 681.696 138.512 681.632 135.595C681.632 134.04 680.983 133.457 679.558 133.457H674.762V140.78H670.679ZM679.622 125.485H674.762V130.411H679.622C681.307 130.411 682.28 129.633 682.28 127.948C682.28 126.328 681.307 125.485 679.622 125.485Z" fill="#F4EAE0"/>
</svg>
