<svg width="734" height="734" viewBox="0 0 734 734" fill="none" xmlns="http://www.w3.org/2000/svg">
<circle cx="367" cy="590.536" r="143.464" fill="url(#paint0_radial_58_3)"/>
<circle cx="367" cy="537.989" r="196.011" fill="url(#paint1_radial_58_3)"/>
<circle cx="367" cy="482.938" r="251.061" fill="url(#paint2_radial_58_3)"/>
<circle cx="367" cy="427.889" r="306.111" fill="url(#paint3_radial_58_3)"/>
<circle cx="367" cy="367" r="367" fill="url(#paint4_radial_58_3)"/>
<path d="M343.101 593.293V591.384H344.778C345.907 591.384 346.63 590.979 347.121 589.475L347.469 588.405L341.221 572.64H343.882L348.683 585.021L353.138 572.64H355.654L348.944 590.748C348.192 592.744 347.035 593.293 345.183 593.293H343.101ZM362.162 588.347C358.026 588.347 355.162 585.426 355.162 580.335C355.162 575.215 358.055 572.293 362.162 572.293C366.299 572.293 369.191 575.215 369.191 580.335C369.191 585.426 366.299 588.347 362.162 588.347ZM362.162 586.438C364.823 586.438 366.704 584.298 366.704 580.335C366.704 576.343 364.823 574.202 362.162 574.202C359.501 574.202 357.621 576.343 357.621 580.306C357.621 584.298 359.501 586.438 362.162 586.438ZM375.916 588.289C372.647 588.289 370.536 586.236 370.536 583.083V572.64H372.994V582.678C372.994 585.021 374.47 586.38 376.697 586.38C378.433 586.38 379.879 585.483 380.689 584.182V572.64H383.147V588H380.689V585.917C379.618 587.364 377.912 588.289 375.916 588.289ZM384.858 588V572.64H387.346V575.157C388.3 573.393 389.891 572.438 391.8 572.438C391.974 572.438 392.089 572.438 392.263 572.467V574.781C391.945 574.723 391.685 574.694 391.366 574.694C389.689 574.694 388.127 575.504 387.346 577.037V588H384.858ZM334.549 613V592.752H337.037L337.008 600.678C338.049 598.537 339.9 597.38 342.185 597.38C345.975 597.38 348.636 600.302 348.636 605.306C348.636 610.31 345.946 613.289 342.185 613.289C339.9 613.289 338.049 612.132 337.008 609.992V613H334.549ZM341.636 611.38C344.326 611.38 346.148 609.24 346.148 605.335C346.148 601.43 344.326 599.289 341.636 599.289C338.888 599.289 337.037 601.43 337.037 605.335C337.037 609.211 338.888 611.38 341.636 611.38ZM349.972 613V597.64H352.46V600.157C353.414 598.393 355.005 597.438 356.914 597.438C357.088 597.438 357.204 597.438 357.377 597.467V599.781C357.059 599.723 356.799 599.694 356.48 599.694C354.803 599.694 353.241 600.504 352.46 602.037V613H349.972ZM362.253 613.26C359.245 613.26 357.336 611.669 357.336 609.211C357.336 606.174 360.518 605.219 363.584 604.264C365.811 603.512 367.286 602.847 367.286 601.459C367.286 600.128 366.014 599.174 364.018 599.174C361.848 599.174 360.402 600.446 359.997 602.702H357.683C358.117 599.463 360.576 597.322 364.105 597.322C367.518 597.322 369.745 599.029 369.745 602.095V613H367.315V611.004C366.158 612.421 364.336 613.26 362.253 613.26ZM359.766 609.24C359.766 610.686 361.067 611.496 362.803 611.496C364.567 611.496 366.361 610.715 367.315 609.413V605.566L367.344 604.264C366.621 604.988 365.464 605.45 364.162 605.913C361.877 606.694 359.766 607.302 359.766 609.24ZM371.412 613V597.64H373.9V599.723C374.97 598.277 376.677 597.38 378.673 597.38C381.912 597.38 384.053 599.434 384.053 602.558V613H381.565V602.963C381.565 600.62 380.119 599.26 377.892 599.26C376.185 599.26 374.71 600.128 373.9 601.43V613H371.412ZM391.809 613.289C388.02 613.289 385.387 610.368 385.387 605.335C385.387 600.331 388.048 597.38 391.809 597.38C394.094 597.38 395.916 598.508 396.986 600.62L396.958 592.752H399.445V613H396.986V610.05C395.916 612.132 394.094 613.289 391.809 613.289ZM392.358 611.38C395.106 611.38 396.958 609.24 396.958 605.335C396.958 601.459 395.106 599.289 392.358 599.289C389.668 599.289 387.846 601.43 387.846 605.335C387.846 609.24 389.668 611.38 392.358 611.38Z" fill="#E9243E"/>
<path d="M320.818 424L317.174 408.64H319.545L320.992 415.149L322.409 421.686L323.942 415.12L325.533 408.64H328.194L329.814 415.12L331.347 421.657L334.182 408.64H336.467L332.822 424H329.843L328.252 417.694L326.835 411.388L325.388 417.694L323.826 424H320.818ZM343.472 424.347C339.394 424.347 336.588 421.397 336.588 416.335C336.588 411.36 339.423 408.293 343.501 408.293C347.377 408.293 350.27 411.157 350.27 416.161V416.537H339.018C339.075 420.355 340.84 422.467 343.472 422.467C345.584 422.467 347.117 421.05 347.695 418.446H350.067C349.373 422.207 346.943 424.347 343.472 424.347ZM343.472 410.174C341.216 410.174 339.538 411.851 339.133 414.802H347.782C347.348 411.793 345.728 410.174 343.472 410.174ZM351.624 424V403.752H354.082V424H351.624ZM355.804 424V403.752H358.263V424H355.804ZM359.956 424V408.64H362.444V410.723C363.514 409.277 365.221 408.38 367.216 408.38C370.456 408.38 372.597 410.434 372.597 413.558V424H370.109V413.963C370.109 411.62 368.663 410.26 366.435 410.26C364.729 410.26 363.254 411.128 362.444 412.43V424H359.956ZM380.816 424.347C376.737 424.347 373.931 421.397 373.931 416.335C373.931 411.36 376.766 408.293 380.844 408.293C384.721 408.293 387.613 411.157 387.613 416.161V416.537H376.361C376.419 420.355 378.183 422.467 380.816 422.467C382.927 422.467 384.46 421.05 385.039 418.446H387.411C386.716 422.207 384.287 424.347 380.816 424.347ZM380.816 410.174C378.559 410.174 376.882 411.851 376.477 414.802H385.125C384.692 411.793 383.072 410.174 380.816 410.174ZM395.302 424.318C391.57 424.318 389.054 422.467 388.533 418.649H390.847C391.31 421.281 392.814 422.525 395.273 422.525C397.471 422.525 398.773 421.541 398.773 420.037C398.773 418.331 396.835 417.81 394.637 417.26C391.889 416.537 388.765 415.814 388.765 412.574C388.765 410.174 390.934 408.322 394.434 408.322C398.079 408.322 400.509 410.202 401.058 413.645H398.744C398.281 411.244 396.748 410.145 394.463 410.145C392.38 410.145 391.166 411.041 391.166 412.401C391.166 413.963 392.872 414.541 394.897 415.091C397.732 415.872 401.145 416.566 401.145 419.777C401.145 422.351 398.889 424.318 395.302 424.318ZM408.833 424.318C405.101 424.318 402.585 422.467 402.064 418.649H404.378C404.841 421.281 406.345 422.525 408.804 422.525C411.002 422.525 412.304 421.541 412.304 420.037C412.304 418.331 410.366 417.81 408.167 417.26C405.419 416.537 402.295 415.814 402.295 412.574C402.295 410.174 404.465 408.322 407.965 408.322C411.609 408.322 414.039 410.202 414.589 413.645H412.275C411.812 411.244 410.279 410.145 407.994 410.145C405.911 410.145 404.696 411.041 404.696 412.401C404.696 413.963 406.403 414.541 408.428 415.091C411.262 415.872 414.675 416.566 414.675 419.777C414.675 422.351 412.419 424.318 408.833 424.318Z" fill="#E9243E"/>
<path d="M327.762 310V296.55H324.32V294.64H327.762V292.471C327.762 290.388 328.63 289.289 330.915 289.289H334.473V291.198H331.638C330.481 291.198 330.192 291.661 330.192 292.731V294.64H334.473V296.55H330.192V310H327.762ZM339.325 310.26C336.316 310.26 334.407 308.669 334.407 306.211C334.407 303.174 337.589 302.219 340.655 301.264C342.883 300.512 344.358 299.847 344.358 298.459C344.358 297.128 343.085 296.174 341.089 296.174C338.92 296.174 337.473 297.446 337.069 299.702H334.754C335.188 296.463 337.647 294.322 341.176 294.322C344.589 294.322 346.816 296.029 346.816 299.095V310H344.387V308.004C343.23 309.421 341.407 310.26 339.325 310.26ZM336.837 306.24C336.837 307.686 338.139 308.496 339.874 308.496C341.639 308.496 343.432 307.715 344.387 306.413V302.566L344.416 301.264C343.692 301.988 342.535 302.45 341.234 302.913C338.949 303.694 336.837 304.302 336.837 306.24ZM354.847 310.318C351.116 310.318 348.599 308.467 348.079 304.649H350.393C350.855 307.281 352.36 308.525 354.818 308.525C357.017 308.525 358.318 307.541 358.318 306.037C358.318 304.331 356.38 303.81 354.182 303.26C351.434 302.537 348.31 301.814 348.31 298.574C348.31 296.174 350.479 294.322 353.979 294.322C357.624 294.322 360.054 296.202 360.603 299.645H358.289C357.826 297.244 356.293 296.145 354.008 296.145C351.926 296.145 350.711 297.041 350.711 298.401C350.711 299.963 352.417 300.541 354.442 301.091C357.277 301.872 360.69 302.566 360.69 305.777C360.69 308.351 358.434 310.318 354.847 310.318ZM362.014 310V289.752H364.502V296.723C365.572 295.277 367.25 294.38 369.274 294.38C372.514 294.38 374.655 296.434 374.655 299.558V310H372.167V299.963C372.167 297.62 370.721 296.26 368.493 296.26C366.787 296.26 365.312 297.128 364.502 298.43V310H362.014ZM376.307 293.136V290.475H378.853V293.136H376.307ZM376.336 310V294.64H378.795V310H376.336ZM387.17 310.347C383.034 310.347 380.17 307.426 380.17 302.335C380.17 297.215 383.063 294.293 387.17 294.293C391.306 294.293 394.199 297.215 394.199 302.335C394.199 307.426 391.306 310.347 387.17 310.347ZM387.17 308.438C389.831 308.438 391.711 306.298 391.711 302.335C391.711 298.343 389.831 296.202 387.17 296.202C384.509 296.202 382.629 298.343 382.629 302.306C382.629 306.298 384.509 308.438 387.17 308.438ZM395.572 310V294.64H398.06V296.723C399.13 295.277 400.837 294.38 402.833 294.38C406.072 294.38 408.213 296.434 408.213 299.558V310H405.725V299.963C405.725 297.62 404.279 296.26 402.052 296.26C400.345 296.26 398.87 297.128 398.06 298.43V310H395.572Z" fill="#E9243E"/>
<path d="M317.6 196V175.752H320.088L320.059 183.678C321.1 181.537 322.952 180.38 325.237 180.38C329.026 180.38 331.687 183.302 331.687 188.306C331.687 193.31 328.997 196.289 325.237 196.289C322.952 196.289 321.1 195.132 320.059 192.992V196H317.6ZM324.687 194.38C327.377 194.38 329.2 192.24 329.2 188.335C329.2 184.43 327.377 182.289 324.687 182.289C321.939 182.289 320.088 184.43 320.088 188.335C320.088 192.211 321.939 194.38 324.687 194.38ZM333.024 196V180.64H335.511V183.157C336.466 181.393 338.057 180.438 339.966 180.438C340.139 180.438 340.255 180.438 340.429 180.467V182.781C340.11 182.723 339.85 182.694 339.532 182.694C337.854 182.694 336.292 183.504 335.511 185.037V196H333.024ZM345.305 196.26C342.297 196.26 340.387 194.669 340.387 192.211C340.387 189.174 343.569 188.219 346.635 187.264C348.863 186.512 350.338 185.847 350.338 184.459C350.338 183.128 349.065 182.174 347.069 182.174C344.9 182.174 343.454 183.446 343.049 185.702H340.735C341.168 182.463 343.627 180.322 347.156 180.322C350.569 180.322 352.797 182.029 352.797 185.095V196H350.367V194.004C349.21 195.421 347.387 196.26 345.305 196.26ZM342.817 192.24C342.817 193.686 344.119 194.496 345.854 194.496C347.619 194.496 349.412 193.715 350.367 192.413V188.566L350.396 187.264C349.673 187.988 348.516 188.45 347.214 188.913C344.929 189.694 342.817 190.302 342.817 192.24ZM354.464 196V180.64H356.951V182.723C358.021 181.277 359.728 180.38 361.724 180.38C364.964 180.38 367.104 182.434 367.104 185.558V196H364.616V185.963C364.616 183.62 363.17 182.26 360.943 182.26C359.236 182.26 357.761 183.128 356.951 184.43V196H354.464ZM374.86 196.289C371.071 196.289 368.439 193.368 368.439 188.335C368.439 183.331 371.1 180.38 374.86 180.38C377.145 180.38 378.968 181.508 380.038 183.62L380.009 175.752H382.497V196H380.038V193.05C378.968 195.132 377.145 196.289 374.86 196.289ZM375.41 194.38C378.158 194.38 380.009 192.24 380.009 188.335C380.009 184.459 378.158 182.289 375.41 182.289C372.72 182.289 370.897 184.43 370.897 188.335C370.897 192.24 372.72 194.38 375.41 194.38ZM384.18 179.136V176.475H386.726V179.136H384.18ZM384.209 196V180.64H386.668V196H384.209ZM388.361 196V180.64H390.848V182.723C391.919 181.277 393.625 180.38 395.621 180.38C398.861 180.38 401.001 182.434 401.001 185.558V196H398.514V185.963C398.514 183.62 397.067 182.26 394.84 182.26C393.134 182.26 391.658 183.128 390.848 184.43V196H388.361ZM408.757 196.174C404.968 196.174 402.336 193.252 402.336 188.277C402.336 183.302 404.997 180.38 408.757 180.38C411.043 180.38 412.865 181.508 413.935 183.591V180.64H416.394V195.508C416.394 199.529 413.733 201.612 409.538 201.612C405.923 201.612 403.435 200.021 402.799 197.07H405.257C405.778 198.979 407.224 199.905 409.538 199.905C412.257 199.905 413.906 198.517 413.935 195.826V192.963C412.865 195.017 411.043 196.174 408.757 196.174ZM409.336 194.264C412.055 194.264 413.906 192.124 413.906 188.248C413.906 184.401 412.055 182.289 409.336 182.289C406.617 182.289 404.795 184.372 404.795 188.277C404.795 192.153 406.617 194.264 409.336 194.264Z" fill="#E9243E"/>
<path d="M320.103 80V59.7521H322.591L322.562 67.6777C323.603 65.5372 325.454 64.3802 327.74 64.3802C331.529 64.3802 334.19 67.3017 334.19 72.3058C334.19 77.3099 331.5 80.2893 327.74 80.2893C325.454 80.2893 323.603 79.1322 322.562 76.9917V80H320.103ZM327.19 78.3802C329.88 78.3802 331.702 76.2397 331.702 72.3347C331.702 68.4298 329.88 66.2893 327.19 66.2893C324.442 66.2893 322.591 68.4298 322.591 72.3347C322.591 76.2107 324.442 78.3802 327.19 78.3802ZM340.878 80.2893C337.609 80.2893 335.498 78.2355 335.498 75.0826V64.6405H337.956V74.6777C337.956 77.0207 339.431 78.3802 341.659 78.3802C343.394 78.3802 344.841 77.4835 345.65 76.1818V64.6405H348.109V80H345.65V77.9174C344.58 79.3636 342.874 80.2893 340.878 80.2893ZM356.183 80.3182C352.452 80.3182 349.935 78.4669 349.415 74.6488H351.729C352.192 77.281 353.696 78.5248 356.154 78.5248C358.353 78.5248 359.654 77.5413 359.654 76.0372C359.654 74.3306 357.716 73.8099 355.518 73.2603C352.77 72.5372 349.646 71.814 349.646 68.5744C349.646 66.1736 351.816 64.3223 355.316 64.3223C358.96 64.3223 361.39 66.2025 361.94 69.6446H359.626C359.163 67.2438 357.63 66.1446 355.345 66.1446C353.262 66.1446 352.047 67.0413 352.047 68.4008C352.047 69.9628 353.754 70.5413 355.778 71.0909C358.613 71.8719 362.026 72.5661 362.026 75.7769C362.026 78.3512 359.77 80.3182 356.183 80.3182ZM363.35 63.1364V60.4752H365.896V63.1364H363.35ZM363.379 80V64.6405H365.838V80H363.379ZM367.531 80V64.6405H370.019V66.7231C371.089 65.2769 372.796 64.3802 374.791 64.3802C378.031 64.3802 380.172 66.4339 380.172 69.5578V80H377.684V69.9628C377.684 67.6198 376.238 66.2603 374.01 66.2603C372.304 66.2603 370.829 67.1281 370.019 68.4298V80H367.531ZM388.391 80.3471C384.312 80.3471 381.506 77.3967 381.506 72.3347C381.506 67.3595 384.341 64.2934 388.419 64.2934C392.295 64.2934 395.188 67.157 395.188 72.1612V72.5372H383.936C383.994 76.3554 385.758 78.4669 388.391 78.4669C390.502 78.4669 392.035 77.0496 392.614 74.4463H394.986C394.291 78.2066 391.862 80.3471 388.391 80.3471ZM388.391 66.1736C386.134 66.1736 384.457 67.8512 384.052 70.8017H392.7C392.267 67.7934 390.647 66.1736 388.391 66.1736ZM402.877 80.3182C399.145 80.3182 396.629 78.4669 396.108 74.6488H398.422C398.885 77.281 400.389 78.5248 402.848 78.5248C405.046 78.5248 406.348 77.5413 406.348 76.0372C406.348 74.3306 404.41 73.8099 402.212 73.2603C399.464 72.5372 396.34 71.814 396.34 68.5744C396.34 66.1736 398.509 64.3223 402.009 64.3223C405.654 64.3223 408.083 66.2025 408.633 69.6446H406.319C405.856 67.2438 404.323 66.1446 402.038 66.1446C399.955 66.1446 398.74 67.0413 398.74 68.4008C398.74 69.9628 400.447 70.5413 402.472 71.0909C405.307 71.8719 408.72 72.5661 408.72 75.7769C408.72 78.3512 406.464 80.3182 402.877 80.3182ZM416.407 80.3182C412.676 80.3182 410.16 78.4669 409.639 74.6488H411.953C412.416 77.281 413.92 78.5248 416.379 78.5248C418.577 78.5248 419.879 77.5413 419.879 76.0372C419.879 74.3306 417.941 73.8099 415.742 73.2603C412.994 72.5372 409.87 71.814 409.87 68.5744C409.87 66.1736 412.04 64.3223 415.54 64.3223C419.184 64.3223 421.614 66.2025 422.164 69.6446H419.85C419.387 67.2438 417.854 66.1446 415.569 66.1446C413.486 66.1446 412.271 67.0413 412.271 68.4008C412.271 69.9628 413.978 70.5413 416.003 71.0909C418.837 71.8719 422.25 72.5661 422.25 75.7769C422.25 78.3512 419.994 80.3182 416.407 80.3182Z" fill="#E9243E"/>
<defs>
<radialGradient id="paint0_radial_58_3" cx="0" cy="0" r="1" gradientUnits="userSpaceOnUse" gradientTransform="translate(367 590.536) rotate(-90.081) scale(143.464 136.329)">
<stop offset="0.721154" stop-color="#410C1C" stop-opacity="0.11"/>
<stop offset="1" stop-color="#E9243E"/>
</radialGradient>
<radialGradient id="paint1_radial_58_3" cx="0" cy="0" r="1" gradientUnits="userSpaceOnUse" gradientTransform="translate(367 537.989) rotate(-90.081) scale(196.012 186.264)">
<stop offset="0.721154" stop-color="#410C1C" stop-opacity="0.11"/>
<stop offset="1" stop-color="#E9243E"/>
</radialGradient>
<radialGradient id="paint2_radial_58_3" cx="0" cy="0" r="1" gradientUnits="userSpaceOnUse" gradientTransform="translate(367 482.938) rotate(-90.081) scale(251.062 238.576)">
<stop offset="0.721154" stop-color="#410C1C" stop-opacity="0.11"/>
<stop offset="1" stop-color="#E9243E"/>
</radialGradient>
<radialGradient id="paint3_radial_58_3" cx="0" cy="0" r="1" gradientUnits="userSpaceOnUse" gradientTransform="translate(367 427.889) rotate(-90.081) scale(306.112 290.888)">
<stop offset="0.721154" stop-color="#410C1C" stop-opacity="0.11"/>
<stop offset="1" stop-color="#E9243E"/>
</radialGradient>
<radialGradient id="paint4_radial_58_3" cx="0" cy="0" r="1" gradientUnits="userSpaceOnUse" gradientTransform="translate(367 367) rotate(-90.081) scale(367 348.749)">
<stop offset="0.721154" stop-color="#410C1C" stop-opacity="0.11"/>
<stop offset="1" stop-color="#E9243E"/>
</radialGradient>
</defs>
</svg>
