<svg width="152" height="56" viewBox="0 0 152 56" fill="none" xmlns="http://www.w3.org/2000/svg">
<path fill-rule="evenodd" clip-rule="evenodd" d="M12.0041 17.4204L23.872 54.8352H26.4392L42.4203 4.45294C42.5059 4.15343 42.6557 3.81113 42.8696 3.42604C43.0836 2.99817 43.3403 2.61308 43.6398 2.27078C43.9393 1.88569 44.2602 1.56479 44.6025 1.30806C44.9448 1.05134 45.3085 0.922975 45.6936 0.922975V0.281165H41.1367V0.922975C41.5218 0.922975 41.7785 1.05134 41.9069 1.30806C42.078 1.56479 42.1636 1.88569 42.1636 2.27078C42.1636 2.61308 42.0994 2.99817 41.9711 3.42604C41.8855 3.81113 41.7999 4.15343 41.7144 4.45294L26.8243 51.3694L14.4702 12.4433V17.4204H12.0041ZM98.1737 3.49022C98.2593 3.9181 98.3021 4.30318 98.3021 4.64548V50.4708C98.3021 50.7704 98.2593 51.134 98.1737 51.5619C98.1309 51.9898 98.0453 52.3963 97.917 52.7814C97.7886 53.1664 97.5961 53.5087 97.3394 53.8083C97.0826 54.065 96.7617 54.1933 96.3766 54.1933V54.8352H104.078V54.1933C103.693 54.1933 103.372 54.065 103.116 53.8083C102.859 53.5087 102.666 53.1664 102.538 52.7814C102.41 52.3963 102.303 51.9898 102.217 51.5619C102.174 51.134 102.153 50.7704 102.153 50.4708V4.64548C102.153 4.30318 102.174 3.9181 102.217 3.49022C102.303 3.06235 102.41 2.65587 102.538 2.27078C102.666 1.88569 102.859 1.56479 103.116 1.30806C103.372 1.05134 103.693 0.922975 104.078 0.922975V0.281165H96.3766V0.922975C96.7617 0.922975 97.0826 1.05134 97.3394 1.30806C97.5961 1.56479 97.7886 1.88569 97.917 2.27078C98.0453 2.65587 98.1309 3.06235 98.1737 3.49022ZM135.604 28.5851C134.534 26.9164 133.122 25.7825 131.368 25.1835C132.652 24.9267 133.935 24.4561 135.219 23.7715C136.502 23.0869 137.636 22.2311 138.62 21.2042C139.604 20.1345 140.396 18.8937 140.995 17.4817C141.637 16.0697 141.958 14.5294 141.958 12.8607C141.958 10.9352 141.551 9.20235 140.738 7.662C139.968 6.07886 138.963 4.75245 137.722 3.68276C136.481 2.57029 135.09 1.73594 133.55 1.1797C132.053 0.580677 130.576 0.281165 129.122 0.281165H109.225V0.922975C109.611 0.922975 109.931 1.05134 110.188 1.30806C110.445 1.56479 110.637 1.88569 110.766 2.27078C110.894 2.65587 110.98 3.06235 111.022 3.49022C111.108 3.9181 111.151 4.30318 111.151 4.64548V50.4708C111.151 50.7704 111.108 51.134 111.022 51.5619C110.98 51.9898 110.894 52.3963 110.766 52.7814C110.637 53.1664 110.445 53.5087 110.188 53.8083C109.931 54.065 109.611 54.1933 109.225 54.1933V54.8352H116.927V54.1933C116.542 54.1933 116.221 54.065 115.964 53.8083C115.708 53.5087 115.515 53.1664 115.387 52.7814C115.258 52.3963 115.151 51.9898 115.066 51.5619C115.023 51.134 115.002 50.7704 115.002 50.4708V25.4402H123.73C125.955 25.4402 127.795 26.082 129.25 27.3656C130.747 28.6492 132.01 30.2752 133.037 32.2434C134.064 34.1688 134.941 36.2868 135.668 38.5973C136.395 40.8651 137.144 43.0044 137.914 45.0154C138.556 46.6414 139.198 48.0747 139.84 49.3156C140.482 50.5564 141.273 51.5833 142.215 52.3963C143.199 53.2092 144.418 53.8297 145.873 54.2575C147.328 54.6426 149.146 54.8352 151.328 54.8352V54.1933C149.274 54.1933 147.584 53.5729 146.258 52.3321C144.974 51.0485 143.883 49.4439 142.985 47.5185C142.086 45.5503 141.295 43.3895 140.61 41.0362C139.968 38.6829 139.241 36.4366 138.428 34.2972C137.615 32.1578 136.674 30.2538 135.604 28.5851ZM132.972 23.7715C131.86 24.4561 130.576 24.7984 129.122 24.7984H115.002V0.922975H129.122C130.576 0.922975 131.86 1.28667 132.972 2.01406C134.085 2.69865 135.026 3.61859 135.796 4.77385C136.567 5.88632 137.144 7.14855 137.529 8.56053C137.914 9.97252 138.107 11.4059 138.107 12.8607C138.107 14.3154 137.914 15.7488 137.529 17.1608C137.144 18.5728 136.567 19.8564 135.796 21.0117C135.026 22.1242 134.085 23.0441 132.972 23.7715Z" fill="white"/>
<path fill-rule="evenodd" clip-rule="evenodd" d="M23.6662 55.1163L11.62 17.1393H14.1891V12.4433L14.7382 12.3583L26.8243 50.4399L41.4451 4.3718C41.5285 4.07976 41.6123 3.74435 41.6966 3.36505L41.6988 3.35505L41.7018 3.34525C41.8245 2.93607 41.8825 2.57884 41.8825 2.27078C41.8825 1.9274 41.8065 1.66428 41.673 1.46402L41.6632 1.44946L41.6554 1.4338C41.5911 1.30516 41.4578 1.20414 41.1367 1.20414H40.8556V0H45.9747V1.20414H45.6936C45.3761 1.20414 45.0705 1.3085 44.7712 1.53299C44.4515 1.7728 44.148 2.07533 43.8617 2.4434L43.8567 2.44981L43.8514 2.45593C43.5684 2.77929 43.3249 3.14422 43.1211 3.55178L43.1184 3.55724L43.1154 3.56258C42.908 3.93597 42.7685 4.25785 42.6907 4.53018L42.6896 4.53408L26.645 55.1163H23.6662ZM41.7144 4.45294L26.8243 51.3694L14.4702 12.4433V17.4204H12.0041L23.872 54.8352H26.4392L42.4203 4.45294C42.5059 4.15343 42.6557 3.81113 42.8696 3.42604C43.0836 2.99817 43.3403 2.61308 43.6398 2.27078C43.9393 1.88569 44.2602 1.56479 44.6025 1.30806C44.9448 1.05134 45.3085 0.922975 45.6936 0.922975V0.281165H41.1367V0.922975C41.5218 0.922975 41.7785 1.05134 41.9069 1.30806C42.078 1.56479 42.1636 1.88569 42.1636 2.27078C42.1636 2.61308 42.0994 2.99817 41.9711 3.42604C41.8855 3.81113 41.7999 4.15343 41.7144 4.45294ZM97.8953 3.53188L97.8939 3.5182C97.8531 3.10983 97.7716 2.72388 97.6503 2.35969C97.534 2.01107 97.3629 1.72925 97.1405 1.50687C96.94 1.30633 96.6922 1.20414 96.3766 1.20414H96.0955V0H104.36V1.20414H104.078C103.763 1.20414 103.515 1.30633 103.314 1.50687C103.092 1.72925 102.921 2.01107 102.805 2.35969C102.682 2.72892 102.579 3.11959 102.496 3.53193C102.454 3.94719 102.434 4.31814 102.434 4.64548V50.4708C102.434 50.7548 102.454 51.104 102.496 51.5202C102.579 51.9325 102.682 52.3232 102.805 52.6925C102.921 53.0404 103.093 53.3478 103.322 53.6168C103.521 53.8125 103.767 53.9122 104.078 53.9122H104.36V55.1163H96.0955V53.9122H96.3766C96.6883 53.9122 96.9339 53.8125 97.1331 53.6168C97.3619 53.3477 97.5343 53.0404 97.6503 52.6925C97.7716 52.3283 97.8531 51.9423 97.8939 51.5339L97.8953 51.5203L97.898 51.5068C97.9814 51.0896 98.0209 50.7456 98.0209 50.4708V4.64548C98.0209 4.32593 97.9809 3.95977 97.898 3.54536L97.8953 3.53188ZM97.3394 53.8083C97.0826 54.065 96.7617 54.1933 96.3766 54.1933V54.8352H104.078V54.1933C103.693 54.1933 103.372 54.065 103.116 53.8083C102.859 53.5087 102.666 53.1664 102.538 52.7814C102.41 52.3963 102.303 51.9898 102.217 51.5619C102.174 51.134 102.153 50.7704 102.153 50.4708V4.64548C102.153 4.30318 102.174 3.9181 102.217 3.49022C102.303 3.06235 102.41 2.65587 102.538 2.27078C102.666 1.88569 102.859 1.56479 103.116 1.30806C103.372 1.05134 103.693 0.922975 104.078 0.922975V0.281165H96.3766V0.922975C96.7617 0.922975 97.0826 1.05134 97.3394 1.30806C97.5961 1.56479 97.7886 1.88569 97.917 2.27078C98.0453 2.65587 98.1309 3.06235 98.1737 3.49022C98.2593 3.9181 98.3021 4.30318 98.3021 4.64548V50.4708C98.3021 50.7704 98.2593 51.134 98.1737 51.5619C98.1309 51.9898 98.0453 52.3963 97.917 52.7814C97.7886 53.1664 97.5961 53.5087 97.3394 53.8083ZM111.022 3.49022C110.98 3.06235 110.894 2.65587 110.766 2.27078C110.637 1.88569 110.445 1.56479 110.188 1.30806C109.931 1.05134 109.611 0.922975 109.225 0.922975V0.281165H129.122C130.576 0.281165 132.053 0.580677 133.55 1.1797C135.09 1.73594 136.481 2.57029 137.722 3.68276C138.963 4.75245 139.968 6.07886 140.738 7.662C141.551 9.20235 141.958 10.9352 141.958 12.8607C141.958 14.5294 141.637 16.0697 140.995 17.4817C140.396 18.8937 139.604 20.1345 138.62 21.2042C137.636 22.2311 136.502 23.0869 135.219 23.7715C134.104 24.3661 132.989 24.7994 131.874 25.0712C131.705 25.1123 131.537 25.1497 131.368 25.1835C131.532 25.2395 131.693 25.3003 131.851 25.3657C133.384 25.9994 134.634 27.0725 135.604 28.5851C136.674 30.2538 137.615 32.1578 138.428 34.2972C139.241 36.4366 139.968 38.6829 140.61 41.0362C141.295 43.3895 142.086 45.5503 142.985 47.5185C143.883 49.4439 144.974 51.0485 146.258 52.3321C147.584 53.5729 149.274 54.1933 151.328 54.1933V54.8352C151.234 54.8352 151.14 54.8348 151.047 54.8341C148.989 54.8181 147.265 54.626 145.873 54.2575C144.418 53.8297 143.199 53.2092 142.215 52.3963C141.273 51.5833 140.482 50.5564 139.84 49.3156C139.198 48.0747 138.556 46.6414 137.914 45.0154C137.144 43.0044 136.395 40.8651 135.668 38.5973C134.941 36.2868 134.064 34.1688 133.037 32.2434C132.01 30.2752 130.747 28.6492 129.25 27.3656C127.795 26.082 125.955 25.4402 123.73 25.4402H115.002V50.4708C115.002 50.7704 115.023 51.134 115.066 51.5619C115.151 51.9898 115.258 52.3963 115.387 52.7814C115.515 53.1664 115.708 53.5087 115.964 53.8083C116.221 54.065 116.542 54.1933 116.927 54.1933V54.8352H109.225V54.1933C109.611 54.1933 109.931 54.065 110.188 53.8083C110.445 53.5087 110.637 53.1664 110.766 52.7814C110.894 52.3963 110.98 51.9898 111.022 51.5619C111.108 51.134 111.151 50.7704 111.151 50.4708V4.64548C111.151 4.30318 111.108 3.9181 111.022 3.49022ZM109.982 53.6168C110.211 53.3477 110.383 53.0404 110.499 52.6925C110.62 52.3283 110.702 51.9423 110.743 51.5339L110.744 51.5203L110.747 51.5068C110.83 51.0896 110.87 50.7456 110.87 50.4708V4.64548C110.87 4.32593 110.83 3.95977 110.747 3.54536L110.744 3.53188L110.743 3.5182C110.702 3.10983 110.62 2.72388 110.499 2.35969C110.383 2.01107 110.212 1.72925 109.989 1.50687C109.789 1.30633 109.541 1.20414 109.225 1.20414H108.944V0H129.122C130.614 0 132.124 0.307189 133.65 0.916882C135.222 1.48529 136.642 2.3374 137.907 3.47153C139.177 4.56677 140.204 5.92262 140.989 7.5349C141.824 9.11878 142.239 10.8961 142.239 12.8607C142.239 14.5652 141.911 16.1445 141.253 17.5948C140.642 19.0334 139.834 20.3008 138.827 21.3946L138.825 21.3967L138.823 21.3988C137.818 22.4476 136.66 23.3213 135.351 24.0196C134.334 24.5618 133.315 24.9734 132.293 25.253C133.73 25.9235 134.913 26.9864 135.841 28.4333C136.922 30.1207 137.872 32.0425 138.691 34.1973C139.507 36.3451 140.237 38.5994 140.881 40.9602C141.562 43.3007 142.348 45.4473 143.24 47.4007C144.126 49.2992 145.198 50.8739 146.453 52.13C147.72 53.3135 149.338 53.9122 151.328 53.9122H151.609V55.1163H151.328C149.132 55.1163 147.287 54.9227 145.801 54.5293L145.797 54.5283L145.794 54.5273C144.309 54.0906 143.054 53.4543 142.035 52.613L142.033 52.6111L142.031 52.6091C141.059 51.77 140.246 50.7135 139.59 49.4447C138.943 48.1937 138.297 46.7513 137.653 45.1187L137.652 45.1173L137.652 45.116C136.88 43.0997 136.129 40.9554 135.4 38.6832L135.4 38.6825L135.4 38.6818C134.677 36.386 133.806 34.2843 132.789 32.3757L132.788 32.3746L132.787 32.3734C131.775 30.433 130.534 28.8366 129.067 27.5791L129.065 27.5778L129.064 27.5764C127.668 26.3448 125.898 25.7213 123.73 25.7213H115.283V50.4708C115.283 50.7548 115.303 51.104 115.344 51.5202C115.427 51.9325 115.53 52.3232 115.654 52.6925C115.77 53.0404 115.942 53.3478 116.171 53.6168C116.37 53.8125 116.616 53.9122 116.927 53.9122H117.208V55.1163H108.944V53.9122H109.225C109.537 53.9122 109.783 53.8125 109.982 53.6168ZM132.972 2.01406C131.86 1.28667 130.576 0.922975 129.122 0.922975H115.002V24.7984H129.122C130.576 24.7984 131.86 24.4561 132.972 23.7715C134.085 23.0441 135.026 22.1242 135.796 21.0117C136.567 19.8564 137.144 18.5728 137.529 17.1608C137.914 15.7488 138.107 14.3154 138.107 12.8607C138.107 11.4059 137.914 9.97252 137.529 8.56053C137.144 7.14855 136.567 5.88632 135.796 4.77385C135.026 3.61859 134.085 2.69865 132.972 2.01406ZM132.822 23.534C131.759 24.187 130.529 24.5172 129.122 24.5172H115.283V1.20414H129.122C130.527 1.20414 131.756 1.55472 132.819 2.24938L132.822 2.25149L132.825 2.25351C133.901 2.91553 134.813 3.80613 135.562 4.92981L135.564 4.93186L135.565 4.93389C136.316 6.01809 136.881 7.25077 137.258 8.63452C137.637 10.0225 137.826 11.431 137.826 12.8607C137.826 14.2903 137.637 15.6988 137.258 17.0868C136.881 18.4703 136.316 19.7252 135.564 20.8534C134.815 21.9347 133.901 22.8276 132.822 23.534Z" fill="white"/>
<path fill-rule="evenodd" clip-rule="evenodd" d="M14.6758 12.7861C14.3528 11.8748 14.0259 10.9872 13.6951 10.1233C13.0533 8.49738 12.4114 7.06401 11.7696 5.82317C11.1278 4.58234 10.3362 3.55545 9.39492 2.74249C8.4108 1.92953 7.19135 1.30911 5.73658 0.881239C4.2818 0.496153 2.46333 0.303608 0.281165 0.303608L0.281165 0.945417C2.33497 0.945417 4.02508 1.56584 5.35149 2.80667C6.63512 4.09029 7.7262 5.69481 8.62473 7.62024C9.52328 9.58846 10.3148 11.7492 10.9994 14.1025C11.4223 15.653 11.8823 17.1571 12.3795 18.6147L14.6758 12.7861Z" fill="white"/>
<path fill-rule="evenodd" clip-rule="evenodd" d="M13.906 10.1233C14.2378 10.9895 14.5665 11.882 14.8903 12.7954L14.9215 12.9129L12.3605 19.43L12.1133 18.7055C11.6145 17.2428 11.256 15.849 10.7288 14.1788C9.99496 11.8542 9.26114 9.69154 8.36944 7.73813C7.48333 5.83956 6.4112 4.26491 5.15599 3.00881C3.88908 1.82528 2.27191 1.22658 0.281165 1.22658H1.17311e-07L0 0.0224439H0.281165C2.47775 0.0224437 4.32233 0.216037 5.80851 0.609437L5.81222 0.610419L5.8159 0.611501C7.30041 1.04812 8.55556 1.68444 9.57396 2.52572L9.57634 2.52769L9.57867 2.5297C10.5502 3.36879 11.3631 4.42526 12.0193 5.69401C12.6664 6.94507 13.2615 8.49063 13.906 10.1233ZM5.35149 2.80667C6.63512 4.09029 7.7262 5.69481 8.62473 7.62024C9.52328 9.58846 10.3148 11.7492 10.9994 14.1025C11.3825 15.507 11.796 16.8734 12.24 18.2017C12.2861 18.3398 12.3327 18.4775 12.3795 18.6147L14.6758 12.7861C14.3528 11.8748 14.0259 10.9872 13.6951 10.1233C13.0533 8.49738 12.4114 7.06401 11.7696 5.82317C11.1278 4.58234 10.3362 3.55545 9.39492 2.74249C8.4108 1.92953 7.19135 1.30911 5.73658 0.881239C4.34474 0.512811 2.61998 0.320628 0.562329 0.30469C0.469288 0.303969 0.375567 0.303608 0.281165 0.303608L0.281165 0.945417C2.33497 0.945417 4.02508 1.56584 5.35149 2.80667Z" fill="white"/>
<path d="M12.84 13.9835H14.924V17.7986H12.84V13.9835Z" fill="white"/>
<path d="M45.3785 27.5575C45.3785 23.7566 45.9486 20.188 47.0889 16.8517C48.2713 13.5154 49.8973 10.6014 51.9666 8.10975C54.036 5.57584 56.4643 3.59095 59.2516 2.15507C62.0811 0.719194 65.164 0.00125438 68.5004 0.00125438C71.8367 0.00125438 74.9196 0.719194 77.7491 2.15507C80.5787 3.59095 83.007 5.57584 85.0341 8.10975C87.1034 10.6014 88.7083 13.5154 89.8485 16.8517C91.031 20.188 91.6223 23.7566 91.6223 27.5575C91.6223 31.3583 91.031 34.9269 89.8485 38.2632C88.7083 41.5995 87.1034 44.5347 85.0341 47.0686C83.007 49.5602 80.5787 51.524 77.7491 52.9599C74.9196 54.3958 71.8367 55.1137 68.5004 55.1137C65.164 55.1137 62.0811 54.3958 59.2516 52.9599C56.4643 51.524 54.036 49.5602 51.9666 47.0686C49.8973 44.5347 48.2713 41.5995 47.0889 38.2632C45.9486 34.9269 45.3785 31.3583 45.3785 27.5575ZM49.8128 27.5575C49.8128 31.2739 50.1718 34.758 50.8897 38.0098C51.6499 41.2617 52.7901 44.1123 54.3105 46.5618C55.8308 49.0112 57.7735 50.9539 60.1385 52.3898C62.5035 53.7834 65.2907 54.4802 68.5004 54.4802C71.7522 54.4802 74.5395 53.7834 76.8623 52.3898C79.2272 50.9539 81.1699 49.0112 82.6902 46.5618C84.2106 44.1123 85.3297 41.2617 86.0477 38.0098C86.8078 34.758 87.1879 31.2739 87.1879 27.5575C87.1879 23.8411 86.8078 20.357 86.0477 17.1051C85.3297 13.811 84.2106 10.9604 82.6902 8.55319C81.1699 6.10374 79.2272 4.1822 76.8623 2.78855C74.5395 1.35267 71.7522 0.634731 68.5004 0.634731C65.2907 0.634731 62.5035 1.35267 60.1385 2.78855C57.7735 4.1822 55.8308 6.10374 54.3105 8.55319C52.7901 10.9604 51.6499 13.811 50.8897 17.1051C50.1718 20.357 49.8128 23.8411 49.8128 27.5575Z" fill="white"/>
</svg>
