<svg class="absolute block size-full" fill="none" preserveAspectRatio="none" viewBox="0 0 164.911 81.4507"><g id="Vector"><path d="M146.504 62.271C145.792 62.271 145.337 62.1529 145.14 61.9147C144.963 61.6765 144.953 61.2138 145.11 60.5208L148.847 43.2585C148.965 42.725 149.223 42.2997 149.619 41.9828C150.015 41.6658 150.479 41.5083 151.013 41.5083H158.904C159.437 41.5083 159.902 41.6658 160.298 41.9828C160.693 42.2997 160.949 42.725 161.069 43.2585L164.806 60.5208C164.964 61.2138 164.944 61.6765 164.747 61.9147C164.57 62.1529 164.125 62.271 163.412 62.271H159.705C159.152 62.271 158.746 62.1726 158.488 61.9737C158.23 61.7769 158.063 61.4107 157.984 60.8752C157.866 60.3023 157.687 59.9262 157.451 59.749C157.212 59.5718 156.807 59.4832 156.234 59.4832H153.682C153.11 59.4832 152.704 59.5718 152.466 59.749C152.249 59.9262 152.08 60.3023 151.962 60.8752C151.824 61.4087 151.655 61.7749 151.458 61.9737C151.261 62.1706 150.845 62.271 150.212 62.271H146.504ZM155.076 53.8466C156.006 53.8466 156.362 53.3623 156.143 52.3937L155.342 48.716C155.283 48.4384 155.153 48.3006 154.956 48.3006C154.759 48.3006 154.631 48.4384 154.57 48.716L153.799 52.3937C153.582 53.3623 153.927 53.8466 154.836 53.8466H155.076Z" fill="var(--fill-0, #F5F2EB)"></path><path d="M141.747 56.5902C142.28 56.5902 142.705 56.7575 143.022 57.0942C143.359 57.4112 143.526 57.8364 143.526 58.37V60.447C143.526 60.9806 143.359 61.4157 143.022 61.7523C142.705 62.0693 142.282 62.2268 141.747 62.2268H131.96C131.426 62.2268 130.991 62.0693 130.654 61.7523C130.338 61.4157 130.18 60.9806 130.18 60.447V43.2438C130.18 42.7103 130.338 42.285 130.654 41.9681C130.991 41.6314 131.426 41.4641 131.96 41.4641H135.311C135.844 41.4641 136.269 41.6314 136.586 41.9681C136.923 42.285 137.09 42.7103 137.09 43.2438V54.8124C137.09 55.5251 137.209 55.9996 137.447 56.2358C137.685 56.474 138.159 56.5922 138.87 56.5922H141.747V56.5902Z" fill="var(--fill-0, #F5F2EB)"></path><path d="M128.663 60.4191C128.663 61.0905 128.525 61.5866 128.247 61.9016C127.97 62.2186 127.515 62.3958 126.883 62.4351C126.507 62.4745 126.121 62.4942 125.725 62.4942C125.349 62.5139 124.993 62.5237 124.658 62.5237C124.341 62.5434 124.066 62.5533 123.827 62.5533H123.353C121.256 62.5533 119.506 62.3643 118.102 61.9902C116.718 61.5945 115.6 60.9822 114.749 60.1514C113.919 59.3008 113.326 58.2042 112.97 56.8596C112.633 55.4952 112.466 53.8335 112.466 51.8766C112.466 49.9196 112.633 48.2678 112.97 46.9231C113.326 45.5588 113.919 44.4622 114.749 43.6313C115.6 42.7808 116.718 42.1685 118.102 41.7925C119.506 41.3968 121.256 41.1999 123.353 41.1999H123.827C124.066 41.1999 124.341 41.2097 124.658 41.2294C124.995 41.2294 125.351 41.2393 125.725 41.259C126.121 41.259 126.507 41.2787 126.883 41.318C127.515 41.3574 127.97 41.5346 128.247 41.8516C128.525 42.1685 128.663 42.6627 128.663 43.3341V45.4111C128.663 46.0431 128.525 46.4782 128.247 46.7164C127.989 46.933 127.535 47.0235 126.883 46.9842C126.212 46.9251 125.548 46.8857 124.896 46.866C124.245 46.8464 123.778 46.8365 123.503 46.8365C122.81 46.8365 122.227 46.8956 121.752 47.0137C121.278 47.1121 120.892 47.3405 120.595 47.6949C120.297 48.0512 120.081 48.5651 119.943 49.2365C119.805 49.8881 119.736 50.7682 119.736 51.8766C119.736 52.985 119.805 53.8434 119.943 54.5167C120.081 55.1684 120.299 55.6744 120.595 56.0307C120.892 56.3871 121.276 56.6233 121.752 56.7434C122.227 56.8615 122.81 56.9206 123.503 56.9206C123.78 56.9206 124.245 56.9107 124.896 56.8911C125.548 56.8714 126.212 56.832 126.883 56.7729C127.535 56.7336 127.989 56.832 128.247 57.0702C128.525 57.2868 128.663 57.712 128.663 58.346V60.423V60.4191Z" fill="var(--fill-0, #F5F2EB)"></path><path d="M94.3028 56.9396C94.3225 56.5242 94.4308 56.1993 94.6296 55.9611C94.8462 55.7229 95.1336 55.6048 95.49 55.6048C95.6671 55.6048 95.8562 55.6343 96.053 55.6934C97.1398 56.03 98.2876 56.3155 99.4945 56.5537C100.721 56.7919 101.827 56.9101 102.816 56.9101C103.448 56.9101 103.863 56.7919 104.062 56.5537C104.259 56.2958 104.359 56.0792 104.359 55.902C104.379 55.7249 104.3 55.4965 104.121 55.2208C103.944 54.9432 103.588 54.7956 103.054 54.7759C100.048 54.6775 97.7639 54.0829 96.2027 52.9961C94.6414 51.8897 93.8598 50.2182 93.8598 47.9836C93.8598 46.698 94.1079 45.6309 94.6021 44.7804C95.0962 43.9299 95.7597 43.2487 96.5885 42.7329C97.4194 42.219 98.3683 41.8528 99.4354 41.6363C100.502 41.4197 101.611 41.3095 102.757 41.3095C103.964 41.3095 105.04 41.4079 105.989 41.6067C106.938 41.8036 107.927 42.0812 108.954 42.4376C109.468 42.6148 109.874 42.9219 110.171 43.357C110.468 43.7921 110.596 44.2863 110.557 44.8395L110.498 46.9165C110.459 47.7867 110.073 48.2218 109.34 48.2218C109.163 48.2218 108.964 48.1923 108.748 48.1332C107.7 47.7966 106.602 47.521 105.456 47.3024C104.33 47.0642 103.28 46.9461 102.312 46.9461C101.699 46.9461 101.284 47.074 101.066 47.332C100.869 47.5702 100.768 47.7769 100.768 47.9541C100.768 48.1313 100.847 48.3597 101.006 48.6353C101.164 48.9129 101.52 49.0704 102.074 49.1098C105.08 49.2082 107.364 49.8028 108.925 50.8895C110.486 51.9566 111.268 53.5986 111.268 55.8134C111.268 57.1384 110.99 58.237 110.437 59.1052C109.903 59.9558 109.191 60.6369 108.301 61.1508C107.431 61.6646 106.452 62.0308 105.363 62.2494C104.277 62.4463 103.188 62.5467 102.101 62.5467C101.014 62.5467 99.9552 62.4482 98.9275 62.2494C97.8998 62.0328 96.8701 61.7552 95.8424 61.4186C95.3285 61.2414 94.923 60.9342 94.6276 60.4991C94.3304 60.064 94.2024 59.5699 94.2418 59.0166L94.3008 56.9396H94.3028Z" fill="var(--fill-0, #F5F2EB)"></path><path d="M78.7651 43.3107C78.7651 42.7771 78.9226 42.3519 79.2396 42.0349C79.5762 41.6982 80.0113 41.5309 80.5449 41.5309H91.2215C91.7551 41.5309 92.1803 41.6982 92.4973 42.0349C92.834 42.3519 93.0013 42.7771 93.0013 43.3107V45.3877C93.0013 45.9213 92.834 46.3564 92.4973 46.693C92.1803 47.01 91.757 47.1675 91.2215 47.1675H86.7721C86.4354 47.1675 86.1697 47.2659 85.9708 47.4648C85.7739 47.642 85.6735 47.8999 85.6735 48.2366V48.3251C85.6735 48.6618 85.772 48.9276 85.9708 49.1264C86.1677 49.3036 86.4354 49.3942 86.7721 49.3942H89.5304C90.0639 49.3942 90.4892 49.5615 90.8061 49.8982C91.1428 50.2152 91.3101 50.6404 91.3101 51.174V52.6565C91.3101 53.19 91.1428 53.6251 90.8061 53.9618C90.4892 54.2787 90.0659 54.4362 89.5304 54.4362H86.7721C86.4354 54.4362 86.1697 54.5347 85.9708 54.7335C85.7739 54.9107 85.6735 55.1686 85.6735 55.5053V55.5939C85.6735 55.9305 85.772 56.1983 85.9708 56.3952C86.1677 56.5724 86.4354 56.6629 86.7721 56.6629H91.2215C91.7551 56.6629 92.1803 56.8303 92.4973 57.1669C92.834 57.4839 93.0013 57.9092 93.0013 58.4427V60.5198C93.0013 61.0533 92.834 61.4884 92.4973 61.8251C92.1803 62.142 91.757 62.2995 91.2215 62.2995H80.5449C80.0113 62.2995 79.5762 62.142 79.2396 61.8251C78.9226 61.4884 78.7651 61.0533 78.7651 60.5198V43.3107Z" fill="var(--fill-0, #F5F2EB)"></path><path d="M57.2268 62.2582C56.6933 62.2582 56.2582 62.1007 55.9215 61.7837C55.6046 61.447 55.4471 61.0119 55.4471 60.4784V43.2752C55.4471 42.7417 55.6046 42.3164 55.9215 41.9994C56.2582 41.6628 56.6933 41.4954 57.2268 41.4954H63.901C64.2573 41.4954 64.5527 41.525 64.7909 41.584C65.0488 41.6234 65.2555 41.712 65.413 41.8518C65.5902 41.9699 65.7398 42.1491 65.858 42.3853C65.9761 42.6019 66.0844 42.8795 66.1848 43.2161L67.7874 48.6441C67.9449 49.0792 68.1831 49.2957 68.5001 49.2957C68.6379 49.2957 68.7678 49.2465 68.8859 49.1481C69.0238 49.0299 69.1242 48.8606 69.1832 48.6441L70.7838 43.2161C70.8823 42.8795 70.9906 42.6038 71.1107 42.3853C71.2288 42.1471 71.3686 41.9699 71.5261 41.8518C71.7033 41.714 71.9119 41.6254 72.1482 41.584C72.4061 41.525 72.7113 41.4954 73.0676 41.4954H79.7418C80.2753 41.4954 80.7006 41.6628 81.0175 41.9994C81.3542 42.3164 81.5216 42.7417 81.5216 43.2752V60.4784C81.5216 61.0119 81.3542 61.447 81.0175 61.7837C80.7006 62.1007 80.2753 62.2582 79.7418 62.2582H76.3889C75.8554 62.2582 75.4203 62.1007 75.0836 61.7837C74.7667 61.447 74.6092 61.0119 74.6092 60.4784V53.4794C74.6092 53.2412 74.5009 53.123 74.2843 53.123C74.0874 53.123 73.9772 53.2215 73.9575 53.4203L72.3254 60.5394C72.1876 61.2108 71.969 61.6656 71.6737 61.9038C71.3764 62.142 70.8724 62.2601 70.1617 62.2601H66.8089C66.0962 62.2601 65.5922 62.142 65.2969 61.9038C65.0193 61.6656 64.8027 61.2108 64.6452 60.5394L63.0131 53.4203C62.9934 53.2234 62.8851 53.123 62.6863 53.123C62.4697 53.123 62.3594 53.2412 62.3594 53.4794V60.4784C62.3594 61.0119 62.1921 61.447 61.8554 61.7837C61.5385 62.1007 61.1132 62.2582 60.5797 62.2582H57.2268Z" fill="var(--fill-0, #F5F2EB)"></path><path d="M48.8267 62.2582C48.2931 62.2582 47.858 62.1007 47.5214 61.7837C47.2044 61.447 47.0469 61.0119 47.0469 60.4784V43.2752C47.0469 42.7417 47.2044 42.3164 47.5214 41.9994C47.858 41.6628 48.2931 41.4954 48.8267 41.4954H52.1775C52.7111 41.4954 53.1363 41.6628 53.4533 41.9994C53.79 42.3164 53.9573 42.7417 53.9573 43.2752V60.4784C53.9573 61.0119 53.79 61.447 53.4533 61.7837C53.1363 62.1007 52.7111 62.2582 52.1775 62.2582H48.8267Z" fill="var(--fill-0, #F5F2EB)"></path><path d="M29.5071 62.3573C28.9736 62.3573 28.5385 62.1998 28.2018 61.8828C27.8848 61.5462 27.7273 61.1111 27.7273 60.5775V43.1656C27.7273 42.6321 27.8848 42.2069 28.2018 41.8899C28.5385 41.5532 28.9736 41.3859 29.5071 41.3859H37.3074C38.4335 41.3859 39.4927 41.5138 40.4811 41.7718C41.4891 42.01 42.3691 42.4234 43.1212 43.018C43.8733 43.6106 44.4659 44.3922 44.901 45.3608C45.3361 46.3295 45.5527 47.5363 45.5527 48.9794C45.5527 50.3044 45.3853 51.3814 45.0486 52.2122C44.712 53.043 44.3064 53.6848 43.8319 54.1396C43.2984 54.6338 43.1488 55.1378 43.387 55.6536L45.2258 59.9534C45.5231 60.6248 45.5428 61.1603 45.2849 61.556C45.027 61.9517 44.5328 62.1486 43.8024 62.1486H40.5401C40.0854 62.1486 39.6699 62.0305 39.2939 61.7922C38.9179 61.5343 38.6422 61.1996 38.4631 60.7842L36.5947 56.3939C36.4175 55.9981 36.1104 55.8013 35.6753 55.8013H35.4981C35.2205 55.8013 35.0039 55.88 34.8464 56.0395C34.7086 56.197 34.6397 56.4155 34.6397 56.6912V60.5775C34.6397 61.1111 34.4724 61.5462 34.1357 61.8828C33.8187 62.1998 33.3935 62.3573 32.8599 62.3573H29.5071ZM36.0316 51.6491C36.8625 51.6491 37.5043 51.4916 37.9591 51.1746C38.4335 50.8577 38.6718 50.2454 38.6718 49.3358C38.6718 48.4262 38.4335 47.7942 37.9591 47.497C37.5043 47.18 36.8625 47.0225 36.0316 47.0225H35.5276C35.25 47.0225 35.0335 47.1012 34.876 47.2607C34.7185 47.4182 34.6377 47.6367 34.6377 47.9124V50.7592C34.6377 51.0368 34.7165 51.2534 34.876 51.4109C35.0335 51.5684 35.252 51.6491 35.5276 51.6491H36.0316Z" fill="var(--fill-0, #F5F2EB)"></path><path d="M12.2616 43.2777C12.2616 42.7441 12.4191 42.3189 12.7361 42.0019C13.0727 41.6652 13.5078 41.4979 14.0414 41.4979H24.72C25.2536 41.4979 25.6788 41.6652 25.9958 42.0019C26.3325 42.3189 26.4998 42.7441 26.4998 43.2777V45.3547C26.4998 45.8883 26.3325 46.3234 25.9958 46.66C25.6788 46.977 25.2536 47.1345 24.72 47.1345H20.2706C19.9339 47.1345 19.6682 47.2329 19.4693 47.4318C19.2724 47.609 19.172 47.8669 19.172 48.2035V48.2921C19.172 48.6288 19.2705 48.8946 19.4693 49.0934C19.6662 49.2706 19.9339 49.3612 20.2706 49.3612H23.0289C23.5624 49.3612 23.9877 49.5285 24.3046 49.8652C24.6413 50.1822 24.8086 50.6074 24.8086 51.141V52.6235C24.8086 53.157 24.6413 53.5921 24.3046 53.9288C23.9877 54.2457 23.5624 54.4032 23.0289 54.4032H20.2706C19.9339 54.4032 19.6682 54.5017 19.4693 54.7005C19.2724 54.8777 19.172 55.1356 19.172 55.4723V55.5609C19.172 55.8975 19.2705 56.1633 19.4693 56.3622C19.6662 56.5394 19.9339 56.6299 20.2706 56.6299H24.72C25.2536 56.6299 25.6788 56.7973 25.9958 57.1339C26.3325 57.4509 26.4998 57.8762 26.4998 58.4097V60.4868C26.4998 61.0203 26.3325 61.4554 25.9958 61.7921C25.6788 62.109 25.2536 62.2665 24.72 62.2665H14.0414C13.5078 62.2665 13.0727 62.109 12.7361 61.7921C12.4191 61.4554 12.2616 61.0203 12.2616 60.4868V43.2777Z" fill="var(--fill-0, #F5F2EB)"></path><path d="M0 58.1957C0 57.6228 0.127971 57.2271 0.38588 57.0086C0.663478 56.792 1.11827 56.7015 1.75024 56.7408C1.78962 56.7408 1.81915 56.7507 1.83884 56.7704H1.95696C3.18351 56.7704 3.7958 55.9494 3.7958 54.3074V43.2744C3.7958 42.0872 4.3884 41.4946 5.57558 41.4946H8.92644C10.1136 41.4946 10.7062 42.0872 10.7062 43.2744V54.8429C10.7062 55.9907 10.5389 57.0381 10.2022 57.9871C9.86554 58.936 9.38122 59.757 8.74925 60.448C8.13696 61.1194 7.39473 61.645 6.52453 62.0211C5.65433 62.3971 4.69553 62.5842 3.64814 62.5842C2.79763 62.5842 1.94712 62.5054 1.09661 62.3459C0.364224 62.1884 0 61.714 0 60.9225V58.1938V58.1957Z" fill="var(--fill-0, #F5F2EB)"></path><path d="M79.9042 0.75256C80.0538 0.559619 80.481 0.325335 80.8669 0.217052C81.2528 0.110738 82.0442 0.00245541 82.6427 0.00245541C83.4559 -0.0192011 83.8634 0.0871129 84.9541 0.943531L84.8045 3.18991C84.7198 4.43024 84.6115 5.58591 84.5682 5.75719C84.5249 5.92848 84.3339 7.85394 84.141 10.0373C83.9697 12.2187 83.8201 15.1935 83.8201 19.3437L84.6115 19.4934C85.0604 19.578 85.5959 19.708 85.7889 19.771C86.0665 19.8556 86.2811 19.6646 86.5803 19.0642C86.7949 18.6369 87.0942 17.8868 87.2221 17.4163C87.3501 16.9458 88.0352 14.5281 88.7617 12.0671C89.4685 9.5845 90.2166 7.40309 90.4096 7.18849C90.6025 6.9739 90.9864 6.80261 91.2443 6.82427C91.5219 6.82427 92.2937 7.03887 92.9572 7.29481C93.6423 7.55075 94.3688 7.93663 94.5617 8.15123C94.8196 8.40717 94.9043 8.70839 94.8196 9.00764C94.733 9.28524 94.1995 10.3563 93.599 11.4253C93.0005 12.4943 92.0161 14.0142 91.4176 14.849C90.8191 15.6621 89.7048 17.2667 88.9566 18.379C87.736 20.2198 87.6297 20.4325 87.9939 20.6254C88.1986 20.7278 88.8109 21.1215 89.3878 21.4936L89.4705 21.5468C90.3485 22.104 90.6045 22.1886 90.7974 21.974C90.9254 21.8244 91.7602 20.775 92.6382 19.6627C93.5163 18.5503 95.2272 16.5166 96.4459 15.1699C97.6665 13.8213 99.3774 11.9392 100.275 10.9981C101.173 10.0353 102.157 8.9663 102.478 8.58042C102.821 8.19454 103.27 7.89528 103.506 7.89528C103.742 7.89528 104.191 8.02326 104.512 8.19454C104.854 8.34417 105.475 8.90133 105.924 9.41321C106.394 9.97038 106.737 10.5689 106.737 10.8898C106.715 11.189 106.609 11.5966 106.459 11.7876C106.309 11.9805 105.11 12.9432 103.827 13.9276C102.521 14.912 100.381 16.5815 99.0348 17.6289C97.6862 18.698 95.5481 20.4955 91.9531 23.7262L92.53 24.689C92.8725 25.2028 93.2151 25.6517 93.3431 25.6517C93.4494 25.6517 94.5204 25.2245 95.6977 24.7106C96.875 24.1968 99.2277 23.1277 100.941 22.3579C102.653 21.5881 104.258 20.9463 104.514 20.9463C104.792 20.9463 105.177 21.1393 105.37 21.3735C105.585 21.6098 105.969 22.4642 106.227 23.2557C106.676 24.5393 106.676 24.7323 106.398 25.1595C106.227 25.4371 106.055 25.6517 106.012 25.6517C105.99 25.6517 105.049 25.823 103.937 26.0573C102.825 26.2935 100.171 26.6341 98.0524 26.827C95.934 27.02 94.1365 27.2326 94.0518 27.3192C93.9672 27.4039 93.9868 27.9178 94.1168 28.4749C94.2881 29.3943 94.3727 29.481 94.7803 29.3943C95.0579 29.351 96.0856 29.1581 97.0916 28.9671C98.0977 28.7958 100.023 28.5182 101.372 28.3469C102.72 28.1757 105.672 27.8981 107.94 27.7484C111.94 27.4708 112.048 27.4708 112.497 27.8981C112.925 28.2839 112.968 28.4966 112.883 29.9948C112.84 31.3848 112.734 31.7273 112.391 31.9852C112.07 32.2215 111.6 32.2628 110.466 32.1782C109.631 32.1132 108.154 31.9419 107.148 31.7923C105.843 31.5994 99.9385 31.5364 85.966 31.5364C71.9936 31.5364 65.6404 31.621 63.0711 31.814C61.124 31.9636 58.5784 32.0699 57.4011 32.3062C56.9029 32.3967 56.2513 32.4833 55.6666 32.5542C54.6861 32.6704 53.5462 33.0228 52.737 32.4578C52.4791 32.2648 52.2665 31.8809 52.1169 30.8965C51.9023 29.5912 51.9239 29.3136 52.2232 28.7998C52.4378 28.4789 52.8433 28.1579 53.1642 28.0733C53.5068 28.0083 55.0681 28.0516 56.6509 28.2013C58.2338 28.3509 61.1654 28.6068 63.1774 28.7781C65.1679 28.9494 67.6485 29.0341 70.5584 28.8628L70.7946 28.0497C70.9226 27.6224 70.9876 27.2366 70.9443 27.2149C70.901 27.1716 68.9971 26.9156 66.7075 26.6164C64.4178 26.3171 61.9155 25.9746 61.1457 25.8466C60.3759 25.7186 59.5844 25.5257 59.3698 25.4194C59.1769 25.3131 58.9426 25.0138 58.8776 24.7342C58.8146 24.4783 58.8993 23.5569 59.0922 22.7025C59.3698 21.4188 59.5195 21.1196 59.9703 20.9483C60.2696 20.842 60.6771 20.7987 60.87 20.8636C61.0846 20.9483 62.0907 21.3342 63.1164 21.72C64.1638 22.1256 66.4121 23.175 68.1447 24.053C69.8988 24.9311 71.3971 25.6576 71.5251 25.6359C71.6314 25.6359 72.1019 25.1221 73.3442 23.3029L71.3538 21.7634C70.2847 20.9069 68.2726 19.2591 66.9457 18.0621C65.5971 16.8847 63.6716 15.1522 62.6656 14.2111C61.6379 13.2484 60.5038 12.264 60.1199 12.0081C59.7557 11.7521 59.3718 11.3229 59.3068 11.0453C59.2419 10.7894 59.3285 10.2755 59.4998 9.93297C59.6711 9.56875 60.2479 8.88361 60.8051 8.37173C61.3406 7.87953 61.9824 7.47397 62.2167 7.47397C62.451 7.47397 62.8152 7.55862 63.0081 7.66691C63.2227 7.75156 64.0575 8.69461 64.8706 9.742C65.7054 10.7914 67.6308 13.2287 69.1921 15.1758C70.7533 17.1229 72.7004 19.4126 74.9488 21.8519L75.9548 21.2318C76.51 20.9109 76.9609 20.525 76.9825 20.4187C76.9825 20.3124 76.7246 19.7769 76.4057 19.2414C76.1064 18.7058 75.5492 17.7431 75.1653 17.1013C74.8011 16.4595 73.925 15.0045 73.2399 13.8922C72.5547 12.7798 71.7633 11.4529 71.4857 10.939C71.2278 10.4468 70.9935 9.805 70.9935 9.50574C70.9935 9.1494 71.2219 8.79895 71.6786 8.45639C72.0645 8.17879 72.7693 7.79291 73.2399 7.59997C73.7104 7.40703 74.3089 7.2574 74.5668 7.2574C74.8661 7.2574 75.2086 7.49365 75.4232 7.83425C75.6378 8.15516 75.9804 9.05293 76.193 9.82469C76.4076 10.5945 76.8132 12.2207 77.1124 13.461C77.39 14.7014 77.8389 16.6485 78.589 19.9225L79.2309 19.7729C79.5734 19.6883 80.2369 19.5583 80.6858 19.4953C81.1996 19.389 81.4772 19.2394 81.4772 19.0248C81.4772 18.8535 81.2843 17.3553 81.0697 15.7094C80.8354 14.0615 80.5558 11.2599 80.4062 9.50378C80.2782 7.72794 80.0637 5.11734 79.914 3.70573C79.7211 1.69364 79.7211 1.03213 79.914 0.75256H79.9042Z" fill="var(--fill-0, #F5F2EB)"></path><path d="M128.601 23.195C128.601 23.3151 128.851 23.3761 129.353 23.3761C129.855 23.3761 130.176 23.3486 130.315 23.2934C130.457 23.2383 130.628 23.1281 130.831 22.9607C131.034 22.7934 131.168 22.7107 131.235 22.7107C131.402 22.7107 131.487 22.7993 131.487 22.9745C131.487 23.4824 131.371 23.89 131.14 24.1932C131.012 24.3605 130.792 24.4452 130.481 24.4452L130.306 24.4393H129.62L127.128 24.4452C126.894 24.4452 126.778 24.3841 126.778 24.2641C126.778 23.9963 126.906 23.7226 127.161 23.4411C127.256 23.3348 127.5 23.1025 127.892 22.7442C128.983 21.742 129.67 21.053 129.955 20.6809C130.406 20.0922 130.63 19.5744 130.63 19.1275C130.63 18.8499 130.55 18.6274 130.386 18.4601C130.223 18.2927 130.022 18.2101 129.782 18.2101C129.542 18.2101 129.339 18.2829 129.17 18.4306C129.144 18.4522 128.969 18.6786 128.642 19.1118C128.416 19.411 128.199 19.5626 127.994 19.5626C127.833 19.5626 127.752 19.4346 127.752 19.1787C127.752 18.9228 127.797 18.6924 127.89 18.4896C127.98 18.2868 128.166 18.0841 128.445 17.8832C128.961 17.5131 129.502 17.328 130.069 17.328C130.636 17.328 131.093 17.4678 131.442 17.7474C131.79 18.027 131.963 18.3951 131.963 18.8538V19.0232C131.963 19.539 131.727 20.0902 131.255 20.675C130.977 21.0195 130.465 21.5156 129.717 22.1634C128.971 22.8111 128.597 23.1556 128.597 23.195H128.601Z" fill="var(--fill-0, #F5F2EB)"></path><path d="M132.84 22.18V21.8728C132.84 21.3432 132.932 20.7743 133.119 20.1659C133.485 18.9728 134.098 18.144 134.958 17.6793C135.346 17.4667 135.734 17.3604 136.122 17.3604H136.336C136.614 17.3604 136.885 17.4234 137.151 17.5474C137.417 17.6715 137.639 17.8526 137.819 18.0908C138.167 18.5476 138.34 19.1185 138.34 19.8037V20.0064L138.334 20.1108C138.334 20.6522 138.244 21.2212 138.061 21.8177C137.702 22.9852 137.086 23.816 136.212 24.3102C135.836 24.5228 135.456 24.6291 135.076 24.6291C134.007 24.6291 133.316 24.1487 133.001 23.186C132.895 22.8572 132.842 22.5225 132.842 22.1819L132.84 22.18ZM136.131 18.1026H135.994C135.511 18.1026 135.068 18.5377 134.665 19.4099C134.507 19.7505 134.379 20.1836 134.277 20.7073C134.176 21.233 134.125 21.6976 134.125 22.1052L134.131 22.1701C134.131 22.6859 134.21 23.1014 134.367 23.4164C134.525 23.7314 134.747 23.8889 135.037 23.8889H135.175C135.397 23.8889 135.625 23.7806 135.856 23.562C136.086 23.3435 136.293 23.0364 136.476 22.6407C136.659 22.243 136.799 21.7823 136.895 21.2566C136.992 20.7309 137.041 20.2978 137.041 19.9533V19.6737C137.041 19.217 136.956 18.8409 136.789 18.5456C136.622 18.2503 136.401 18.1046 136.129 18.1046L136.131 18.1026Z" fill="var(--fill-0, #F5F2EB)"></path><path d="M142.169 24.0122C142.169 24.3016 141.931 24.4453 141.456 24.4453H141.336L141.216 24.4394H140.98L140.744 24.4335H140.513C139.781 24.4335 139.35 24.4197 139.218 24.3902C139.086 24.3607 139.021 24.2859 139.021 24.1658C139.021 23.9689 139.186 23.7838 139.517 23.6145C139.848 23.4452 140.039 23.3015 140.088 23.1833C140.137 23.0672 140.269 22.449 140.48 21.3327C140.693 20.2164 140.799 19.5234 140.799 19.2556C140.799 18.9879 140.754 18.8166 140.661 18.7477L140.222 18.6552C139.984 18.604 139.866 18.5488 139.866 18.4898C139.866 18.3027 140.12 18.0862 140.63 17.8361C141.366 17.4778 141.921 17.2987 142.297 17.2987C142.451 17.2987 142.527 17.3676 142.527 17.5074C142.527 17.6019 142.457 17.9306 142.317 18.4918C142.175 19.0529 142.008 19.9034 141.815 21.0413C141.62 22.1793 141.523 22.7896 141.523 22.8743C141.523 23.1459 141.632 23.3586 141.848 23.5141C142.065 23.6696 142.171 23.835 142.171 24.0102L142.169 24.0122Z" fill="var(--fill-0, #F5F2EB)"></path><path d="M146.529 18.5235C145.979 18.5235 145.546 18.5767 145.227 18.683C145.103 18.7223 144.956 18.8188 144.788 18.9704C144.619 19.122 144.456 19.1988 144.294 19.1988C144.204 19.1988 144.156 19.1082 144.156 18.9251C144.156 18.555 144.245 18.1573 144.42 17.7281C144.505 17.5273 144.652 17.4269 144.865 17.4269H148.334C148.795 17.4269 149.025 17.5017 149.025 17.6513V17.7557C149.025 17.9427 147.871 20.0434 145.562 24.0558C145.442 24.2645 145.302 24.4239 145.143 24.5342C144.983 24.6444 144.735 24.6996 144.398 24.6996C144.19 24.6996 144.085 24.6326 144.085 24.4968C144.085 24.2231 144.343 23.6837 144.859 22.8824L145.178 22.4433C145.229 22.3705 145.389 22.1205 145.657 21.6913C145.924 21.2621 146.314 20.6695 146.828 19.9075C147.342 19.1456 147.6 18.7558 147.6 18.7322C147.6 18.6003 147.421 18.5353 147.062 18.5353L146.81 18.5235H146.529Z" fill="var(--fill-0, #F5F2EB)"></path><path d="M21.9277 17.2688C21.9277 17.4086 21.7682 18.3615 21.4493 20.1275C21.1303 21.8955 20.9709 22.8523 20.9709 22.9999C20.9709 23.1476 21.0004 23.2598 21.0614 23.3366C21.1224 23.4134 21.2425 23.4784 21.4217 23.5315C21.6009 23.5847 21.6914 23.6654 21.6914 23.7756C21.6914 23.9587 21.5516 24.1202 21.274 24.258C20.9964 24.3978 20.7208 24.4667 20.4472 24.4667C20.1735 24.4667 20.0022 24.4391 19.9294 24.384C19.8565 24.3289 19.7975 24.2619 19.7541 24.1812L19.6557 23.9942C19.5671 23.878 19.5021 23.819 19.4608 23.819C19.4195 23.819 19.2088 23.9272 18.8288 24.1438C18.4508 24.3604 18.1181 24.4667 17.8326 24.4667C17.3896 24.4667 17.0294 24.3092 16.7518 23.9942C16.4742 23.6792 16.3344 23.2854 16.3344 22.8149V22.6672C16.3344 21.8797 16.612 21.1611 17.1691 20.5075C17.7243 19.8538 18.4351 19.5113 19.2994 19.4778C19.8073 19.4561 20.1046 19.4109 20.1892 19.3439C20.2739 19.277 20.3566 19.088 20.4413 18.7789C20.5259 18.4698 20.5673 18.1371 20.5673 17.7827C20.5673 17.6626 20.4688 17.511 20.2739 17.3299C20.079 17.1487 19.9806 17.0011 19.9806 16.8889C19.9806 16.8455 20.0514 16.7904 20.1952 16.7235C20.6933 16.4971 21.1067 16.3829 21.4375 16.3829C21.7682 16.3829 21.9336 16.5916 21.9336 17.009L21.9277 17.1409V17.2688ZM20.014 20.6729C20.014 20.2712 19.8053 20.0684 19.388 20.0684H19.2954L19.2462 20.0743C18.8761 20.0743 18.5158 20.2988 18.1614 20.7496C17.809 21.2005 17.6318 21.6887 17.6318 22.2144L17.62 22.3128V22.555C17.6279 22.62 17.6318 22.6712 17.6318 22.7027C17.6318 22.9409 17.7007 23.1515 17.8405 23.3366C17.9803 23.5217 18.1397 23.6142 18.3228 23.6142H18.4114C18.5433 23.6142 18.7225 23.5414 18.9529 23.3937C19.1812 23.248 19.3683 23.0511 19.5159 22.807C19.8388 22.2695 19.9983 21.7124 19.9983 21.1395L20.014 20.9977V20.6729Z" fill="var(--fill-0, #F5F2EB)"></path><path d="M27.2257 20.5513V20.6556C27.2257 21.0395 27.0978 21.3191 26.8418 21.4963C26.4658 21.7601 25.8318 21.9786 24.942 22.1558C24.5541 22.2287 24.3198 22.2818 24.2391 22.3153C24.0521 22.3921 23.9595 22.5496 23.9595 22.7898C23.9595 23.03 24.0462 23.2288 24.2174 23.3883C24.3887 23.5478 24.6073 23.6265 24.8711 23.6265C25.1349 23.6265 25.4184 23.5655 25.7236 23.4434C26.0287 23.3214 26.2571 23.2603 26.4087 23.2603C26.5603 23.2603 26.6371 23.3273 26.6371 23.4631C26.6371 23.7151 26.4048 23.9573 25.9382 24.1896C25.4716 24.4219 25.0581 24.5381 24.6959 24.5381H24.3612C24.1308 24.5381 23.8926 24.4869 23.6485 24.3825C23.4024 24.2782 23.2035 24.1423 23.05 23.973C22.7212 23.6186 22.5558 23.1599 22.5558 22.6008V22.4905C22.5558 22.0731 22.6385 21.6755 22.8019 21.2935C23.1563 20.4784 23.6977 19.8957 24.4261 19.5472C24.8002 19.372 25.2018 19.2834 25.631 19.2834C26.0602 19.2834 26.4146 19.3858 26.6922 19.5905C27.0466 19.8504 27.2238 20.1713 27.2238 20.5513H27.2257ZM26.0504 20.6674V20.6064L26.0445 20.5788C26.0445 20.4253 25.9913 20.2875 25.885 20.1674C25.7787 20.0473 25.6369 19.9862 25.4578 19.9862L25.4243 19.9921H25.3967C25.1506 19.9921 24.9164 20.0906 24.6919 20.2855C24.4675 20.4804 24.2962 20.697 24.1781 20.9313C24.0619 21.1655 24.0028 21.3093 24.0028 21.3644L24.0088 21.3919V21.4136C24.0088 21.5711 24.0658 21.6499 24.1781 21.6499H24.2115C24.6112 21.6499 25.0778 21.5022 25.6113 21.2049C25.9047 21.0435 26.0504 20.8643 26.0504 20.6674Z" fill="var(--fill-0, #F5F2EB)"></path><path d="M27.5677 23.8592C27.5677 23.6249 27.6169 23.4063 27.7154 23.1996C27.8138 22.9949 27.9142 22.8925 28.0146 22.8925C28.115 22.8925 28.3158 23.048 28.6151 23.3591C28.9143 23.6701 29.1919 23.8257 29.4439 23.8257C29.6959 23.8257 29.9007 23.7607 30.0562 23.6308C30.2118 23.5008 30.2885 23.3433 30.2885 23.1563C30.2885 22.9693 30.2118 22.8098 30.0582 22.6779C29.9854 22.6149 29.7589 22.483 29.3809 22.2802C29.0029 22.0774 28.7332 21.8982 28.5777 21.7447C28.3099 21.4848 28.178 21.1895 28.178 20.8607C28.178 20.4256 28.3631 20.0535 28.7352 19.7464C29.1073 19.4392 29.5778 19.2857 30.1488 19.2857H30.2866C30.704 19.2857 31.1036 19.3507 31.4895 19.4786C31.7533 19.5672 31.8852 19.7287 31.8852 19.9649C31.8852 20.2012 31.8045 20.4295 31.6431 20.6481C31.5623 20.7583 31.4659 20.8135 31.3517 20.8135C31.2375 20.8135 31.0544 20.6835 30.8024 20.4217C30.5504 20.1598 30.322 20.0299 30.1212 20.0299C29.9204 20.0299 29.7511 20.0811 29.6172 20.1815C29.4813 20.2819 29.4144 20.4177 29.4144 20.587C29.4144 20.7564 29.4912 20.908 29.6448 21.0399C29.6782 21.0694 29.9027 21.1993 30.3161 21.4316C30.7315 21.664 31.0091 21.849 31.1469 21.9888C31.4029 22.2448 31.5308 22.5696 31.5308 22.9634C31.5308 23.3571 31.3576 23.7016 31.0091 23.997C30.8004 24.1761 30.5543 24.3139 30.2708 24.4104C29.9873 24.5069 29.7235 24.5561 29.4774 24.5561H29.2077C28.808 24.5561 28.4064 24.4892 28.0008 24.3533C27.7114 24.2588 27.5677 24.0934 27.5677 23.8592Z" fill="var(--fill-0, #F5F2EB)"></path><path d="M38.0049 17.2688C38.0049 17.4086 37.8454 18.3615 37.5265 20.1275C37.2076 21.8955 37.0481 22.8523 37.0481 22.9999C37.0481 23.1476 37.0776 23.2598 37.1386 23.3366C37.1997 23.4134 37.3198 23.4784 37.4989 23.5315C37.6781 23.5847 37.7687 23.6654 37.7687 23.7756C37.7687 23.9587 37.6289 24.1202 37.3513 24.258C37.0737 24.3978 36.798 24.4667 36.5244 24.4667C36.2507 24.4667 36.0794 24.4391 36.0066 24.384C35.9338 24.3289 35.8747 24.2619 35.8314 24.1812L35.7329 23.9942C35.6443 23.878 35.5794 23.819 35.538 23.819C35.4967 23.819 35.286 23.9272 34.906 24.1438C34.528 24.3604 34.1953 24.4667 33.9098 24.4667C33.4669 24.4667 33.1066 24.3092 32.829 23.9942C32.5514 23.6792 32.4116 23.2854 32.4116 22.8149V22.6672C32.4116 21.8797 32.6892 21.1611 33.2464 20.5075C33.8016 19.8538 34.5123 19.5113 35.3766 19.4778C35.8845 19.4561 36.1818 19.4109 36.2665 19.3439C36.3511 19.277 36.4338 19.088 36.5185 18.7789C36.6031 18.4698 36.6445 18.1371 36.6445 17.7827C36.6445 17.6626 36.546 17.511 36.3511 17.3299C36.1562 17.1487 36.0578 17.0011 36.0578 16.8889C36.0578 16.8455 36.1287 16.7904 36.2724 16.7235C36.7705 16.4971 37.1839 16.3829 37.5147 16.3829C37.8454 16.3829 38.0108 16.5916 38.0108 17.009L38.0049 17.1409V17.2688ZM36.0893 20.6728C36.0893 20.2712 35.8806 20.0684 35.4632 20.0684H35.3707L35.3215 20.0743C34.9513 20.0743 34.591 20.2988 34.2367 20.7496C33.8843 21.2005 33.7071 21.6887 33.7071 22.2144L33.6952 22.3128V22.555C33.7031 22.62 33.7071 22.6712 33.7071 22.7027C33.7071 22.9409 33.776 23.1515 33.9158 23.3366C34.0555 23.5217 34.215 23.6142 34.3981 23.6142H34.4867C34.6186 23.6142 34.7978 23.5414 35.0281 23.3937C35.2565 23.248 35.4435 23.0511 35.5912 22.807C35.9141 22.2695 36.0735 21.7124 36.0735 21.1394L36.0893 20.9977V20.6728Z" fill="var(--fill-0, #F5F2EB)"></path><path d="M43.3013 20.5513V20.6556C43.3013 21.0395 43.1733 21.3191 42.9174 21.4963C42.5414 21.7601 41.9074 21.9786 41.0175 22.1558C40.6297 22.2287 40.3954 22.2818 40.3147 22.3153C40.1276 22.3921 40.0351 22.5496 40.0351 22.7898C40.0351 23.03 40.1217 23.2288 40.293 23.3883C40.4643 23.5478 40.6828 23.6265 40.9466 23.6265C41.2105 23.6265 41.494 23.5655 41.7991 23.4434C42.1043 23.3214 42.3327 23.2603 42.4843 23.2603C42.6359 23.2603 42.7126 23.3273 42.7126 23.4631C42.7126 23.7151 42.4803 23.9573 42.0137 24.1896C41.5471 24.4219 41.1337 24.5381 40.7714 24.5381H40.4367C40.2064 24.5381 39.9682 24.4869 39.724 24.3825C39.4779 24.2782 39.2791 24.1423 39.1255 23.973C38.7967 23.6186 38.6314 23.1599 38.6314 22.6008V22.4905C38.6314 22.0731 38.714 21.6755 38.8775 21.2935C39.2318 20.4784 39.7732 19.8957 40.5017 19.5472C40.8758 19.372 41.2774 19.2834 41.7066 19.2834C42.1358 19.2834 42.4902 19.3858 42.7678 19.5905C43.1221 19.8504 43.2993 20.1713 43.2993 20.5513H43.3013ZM42.1279 20.6674V20.6064L42.122 20.5788C42.122 20.4253 42.0688 20.2875 41.9625 20.1674C41.8562 20.0473 41.7145 19.9862 41.5353 19.9862L41.5018 19.9921H41.4743C41.2282 19.9921 40.9939 20.0906 40.7695 20.2855C40.545 20.4804 40.3737 20.697 40.2556 20.9313C40.1394 21.1655 40.0804 21.3093 40.0804 21.3644L40.0863 21.3919V21.4136C40.0863 21.5711 40.1434 21.6499 40.2556 21.6499H40.2891C40.6887 21.6499 41.1553 21.5022 41.6889 21.2049C41.9822 21.0435 42.1279 20.8643 42.1279 20.6674Z" fill="var(--fill-0, #F5F2EB)"></path><path d="M115.367 74.6787H115.266C115.12 74.6787 114.946 74.7424 114.743 74.8697C114.541 74.9932 114.369 75.1748 114.227 75.4143C113.901 75.9571 113.738 76.485 113.738 76.9978V77.2617C113.738 77.6398 113.83 77.9599 114.014 78.222C114.201 78.4803 114.412 78.6094 114.648 78.6094H114.749C114.876 78.6094 115.039 78.5551 115.238 78.4466C115.436 78.3343 115.618 78.1396 115.782 77.8626C116.108 77.3198 116.271 76.7732 116.271 76.2229V76.0657C116.271 75.6464 116.181 75.3114 116.001 75.0606C115.822 74.806 115.61 74.6787 115.367 74.6787ZM115.406 73.9375H115.67C115.902 73.9375 116.149 73.9918 116.411 74.1004C116.673 74.2052 116.896 74.3587 117.079 74.5608C117.435 74.9539 117.613 75.4705 117.613 76.1106L117.607 76.1949C117.607 76.5467 117.527 76.9248 117.366 77.3291C117.209 77.7334 116.976 78.0965 116.67 78.4185C116.366 78.7367 116.026 78.9725 115.648 79.126C115.269 79.2795 114.893 79.3562 114.519 79.3562L114.435 79.3506C113.813 79.3506 113.317 79.1485 112.947 78.7442C112.58 78.3361 112.396 77.8439 112.396 77.2674V77.1775L112.402 77.0933C112.402 76.7339 112.482 76.3502 112.643 75.9422C112.804 75.5304 113.027 75.1822 113.312 74.8977C113.6 74.6095 113.926 74.3774 114.289 74.2015C114.656 74.0255 115.028 73.9375 115.406 73.9375Z" fill="var(--fill-0, #F5F2EB)"></path><path d="M111.209 78.9014C110.744 79.1148 110.346 79.2215 110.013 79.2215C109.683 79.2215 109.518 79.0418 109.518 78.6824C109.518 78.6225 109.593 78.177 109.743 77.346C109.893 76.5187 109.968 75.9815 109.968 75.7344C109.968 75.2702 109.771 75.0363 109.378 75.0325C109.183 75.0325 108.968 75.1373 108.732 75.347C108.496 75.5566 108.317 75.7775 108.193 76.0096C108.07 76.2379 107.946 76.6254 107.823 77.1719C107.699 77.7185 107.637 78.1396 107.637 78.4353C107.637 78.7273 107.574 78.9351 107.446 79.0586C107.319 79.1822 107.126 79.2439 106.868 79.2439C106.613 79.2439 106.421 79.141 106.29 78.9351C106.162 78.7255 106.099 78.4765 106.099 78.1883C106.099 77.8963 106.215 77.5182 106.447 77.054C106.567 76.8144 106.627 76.5093 106.627 76.1387C106.627 75.7681 106.595 75.5491 106.531 75.4817C106.415 75.3582 106.357 75.1954 106.357 74.9932C106.357 74.7873 106.458 74.587 106.66 74.3924C106.866 74.194 107.149 74.0948 107.508 74.0948C107.883 74.0948 108.094 74.3269 108.143 74.7911C108.161 74.9633 108.191 75.0512 108.233 75.055C108.236 75.055 108.337 74.9633 108.536 74.7798C108.734 74.5926 108.987 74.4167 109.294 74.252C109.605 74.0873 109.889 74.0049 110.147 74.0049H110.305C110.641 74.0049 110.9 74.1247 111.079 74.3643C111.259 74.6039 111.349 74.879 111.349 75.1897C111.349 75.5004 111.285 75.9908 111.158 76.6609C111.031 77.3273 110.967 77.7334 110.967 77.8794C110.967 78.0254 111.066 78.1845 111.265 78.3567C111.317 78.4016 111.383 78.4335 111.461 78.4522C111.54 78.4709 111.579 78.4952 111.579 78.5252C111.579 78.6637 111.456 78.7891 111.209 78.9014Z" fill="var(--fill-0, #F5F2EB)"></path><path d="M103.384 75.1055C103.384 74.9932 103.337 74.8977 103.243 74.8191C103.15 74.7405 103.009 74.7012 102.822 74.7012H102.687C102.324 74.7012 101.989 74.8977 101.682 75.2908C101.51 75.5117 101.364 75.7887 101.244 76.1219C101.128 76.455 101.07 76.7264 101.07 76.9361L101.059 77.0315V77.3235C101.059 77.6342 101.123 77.8832 101.25 78.0703C101.381 78.2575 101.529 78.3511 101.694 78.3511C101.854 78.3511 102.044 78.2818 102.261 78.1433C102.714 77.8513 103.019 77.346 103.176 76.6272C103.307 76.0358 103.372 75.6352 103.372 75.4256L103.384 75.1897V75.1055ZM104.933 74.5664C104.933 74.6338 104.846 75.0924 104.67 75.9422C104.497 76.7882 104.411 77.3347 104.411 77.5818C104.411 77.8251 104.434 77.9768 104.479 78.0367C104.527 78.0928 104.651 78.1209 104.849 78.1209C105.048 78.1209 105.147 78.2163 105.147 78.4073C105.147 78.6768 105.023 78.8771 104.776 79.0081C104.451 79.1803 104.132 79.2664 103.822 79.2664C103.511 79.2664 103.283 79.1896 103.137 79.0362C103.103 78.9987 103.052 78.8864 102.985 78.6992C102.921 78.5083 102.876 78.4129 102.85 78.4129C102.828 78.4129 102.71 78.5046 102.496 78.688C102.021 79.0961 101.561 79.3001 101.115 79.3001C100.67 79.3001 100.314 79.1335 100.048 78.8003C99.7825 78.4634 99.6496 78.0479 99.6496 77.5537C99.6496 76.5842 99.9584 75.7531 100.576 75.0606C100.883 74.7199 101.246 74.4541 101.665 74.2632C102.085 74.0686 102.482 73.9712 102.856 73.9712H103.075C103.221 73.9712 103.402 73.9956 103.62 74.0442C103.84 74.0929 104.026 74.1172 104.175 74.1172L104.361 74.106L104.518 74.1116C104.795 74.1116 104.933 74.2632 104.933 74.5664Z" fill="var(--fill-0, #F5F2EB)"></path><path d="M99.2255 72.0564V72.2081C99.2255 72.4027 99.1263 72.6161 98.9279 72.8482C98.8231 72.9717 98.6659 73.0335 98.4562 73.0335H98.299C98.2428 73.0223 98.1792 73.0166 98.1081 73.0166C98.0407 73.0166 97.9527 72.9642 97.8442 72.8594C97.7394 72.7509 97.6869 72.6161 97.6869 72.4551V72.3091C97.6982 72.253 97.7038 72.2099 97.7038 72.18C97.7038 71.9703 97.818 71.7832 98.0463 71.6185C98.1773 71.5249 98.3327 71.4781 98.5124 71.4781H98.591C98.7669 71.4781 98.9167 71.5305 99.0402 71.6353C99.1637 71.7364 99.2255 71.8768 99.2255 72.0564ZM97.131 79.2945H96.8783C96.5227 79.2945 96.3449 79.1522 96.3449 78.8677C96.3449 78.6169 96.4198 78.3623 96.5695 78.104C97.0262 77.3029 97.2546 76.485 97.2546 75.6502C97.2546 75.3732 97.1816 75.1804 97.0356 75.0718C96.7324 74.8435 96.5807 74.7012 96.5807 74.6451C96.5807 74.4916 96.7473 74.3475 97.0805 74.2127C97.4174 74.0742 97.8142 74.0049 98.2709 74.0049H98.3551C98.5236 74.0049 98.634 74.0367 98.6864 74.1004C98.7426 74.1603 98.7707 74.2483 98.7707 74.3643C98.7707 74.4804 98.6771 75.0381 98.4899 76.0376C98.3027 77.0334 98.2092 77.6174 98.2092 77.7896C98.2092 78.0591 98.342 78.207 98.6078 78.2332C98.8774 78.2556 99.0121 78.3661 99.0121 78.5645C99.0121 78.7105 98.8886 78.8321 98.6415 78.9295C98.0239 79.1728 97.5204 79.2945 97.131 79.2945Z" fill="var(--fill-0, #F5F2EB)"></path><path d="M95.4211 71.5455C95.4211 71.7177 95.2545 72.6535 94.9213 74.3531C94.5919 76.0489 94.4272 77.0783 94.4272 77.4414C94.4272 77.8008 94.459 78.0292 94.5226 78.1265C94.5863 78.2201 94.7042 78.3006 94.8764 78.368C95.0486 78.4353 95.1347 78.5139 95.1347 78.6038C95.1347 78.7198 95.028 78.8172 94.8146 78.8958C94.0772 79.1691 93.5194 79.3057 93.1413 79.3057H93.029C92.8755 79.3057 92.7557 79.2608 92.6696 79.1709C92.5873 79.0773 92.5461 78.9875 92.5461 78.9014V78.8172C92.5461 78.7573 92.6453 78.4353 92.8437 77.8513C93.0458 77.2674 93.1656 76.8912 93.2031 76.7227C93.6822 74.5402 93.9218 73.0709 93.9218 72.3147C93.9218 72.1538 93.8488 72.0209 93.7028 71.9161C93.4146 71.7102 93.2705 71.596 93.2705 71.5735C93.2705 71.4537 93.4258 71.3283 93.7365 71.1973C94.051 71.0625 94.459 70.9952 94.9606 70.9952C95.1553 70.9952 95.2807 71.0326 95.3369 71.1075C95.393 71.1823 95.4211 71.2928 95.4211 71.4388V71.5455Z" fill="var(--fill-0, #F5F2EB)"></path><path d="M89.9489 75.1055C89.9489 74.9932 89.9022 74.8977 89.8086 74.8191C89.715 74.7405 89.5746 74.7012 89.3874 74.7012H89.2527C88.8895 74.7012 88.5545 74.8977 88.2475 75.2908C88.0753 75.5117 87.9293 75.7887 87.8095 76.1219C87.6935 76.455 87.6355 76.7264 87.6355 76.9361L87.6242 77.0315V77.3235C87.6242 77.6342 87.6879 77.8832 87.8152 78.0703C87.9462 78.2575 88.094 78.3511 88.2588 78.3511C88.4197 78.3511 88.6088 78.2818 88.8259 78.1433C89.2789 77.8513 89.584 77.346 89.7412 76.6272C89.8722 76.0358 89.9377 75.6352 89.9377 75.4256L89.9489 75.1897V75.1055ZM91.4987 74.5664C91.4987 74.6338 91.4108 75.0924 91.2348 75.9422C91.0626 76.7882 90.9765 77.3347 90.9765 77.5818C90.9765 77.8251 90.999 77.9768 91.0439 78.0367C91.0926 78.0928 91.2161 78.1209 91.4145 78.1209C91.6129 78.1209 91.7121 78.2163 91.7121 78.4073C91.7121 78.6768 91.5886 78.8771 91.3415 79.0081C91.0158 79.1803 90.6976 79.2664 90.3869 79.2664C90.0762 79.2664 89.8479 79.1896 89.7019 79.0362C89.6682 78.9987 89.6176 78.8864 89.5503 78.6992C89.4866 78.5083 89.4417 78.4129 89.4155 78.4129C89.393 78.4129 89.2751 78.5046 89.0617 78.688C88.5863 79.0961 88.1259 79.3001 87.6804 79.3001C87.2349 79.3001 86.8793 79.1335 86.6135 78.8003C86.3477 78.4634 86.2148 78.0479 86.2148 77.5537C86.2148 76.5842 86.5237 75.7531 87.1413 75.0606C87.4483 74.7199 87.8114 74.4541 88.2307 74.2632C88.65 74.0686 89.0468 73.9712 89.4211 73.9712H89.6401C89.7861 73.9712 89.9677 73.9956 90.1848 74.0442C90.4056 74.0929 90.591 74.1172 90.7407 74.1172L90.926 74.106L91.0832 74.1116C91.3602 74.1116 91.4987 74.2632 91.4987 74.5664Z" fill="var(--fill-0, #F5F2EB)"></path><path d="M84.1567 77.5481C84.1567 77.8139 84.1998 77.9973 84.2859 78.0984C84.372 78.1957 84.5067 78.2444 84.6902 78.2444L84.7688 78.2332L84.9316 78.1995C85.0402 78.1845 85.1712 78.177 85.3247 78.177C85.4782 78.177 85.5549 78.2482 85.5549 78.3904C85.5549 78.63 85.4145 78.819 85.1338 78.9576C84.6546 79.1971 84.1998 79.3169 83.7693 79.3169H83.6626C83.3931 79.3169 83.1816 79.2009 83.0281 78.9688C82.8783 78.7329 82.8035 78.3717 82.8035 77.885C82.8035 77.7054 82.8484 77.3703 82.9382 76.8799C83.0318 76.3858 83.0786 75.989 83.0786 75.6895L83.073 75.4986L83.0674 75.4031L83.0618 75.1167C83.0618 74.982 82.9981 74.8641 82.8708 74.763C82.7436 74.6619 82.6799 74.5739 82.6799 74.4991C82.6799 74.4242 82.8053 74.3063 83.0561 74.1453C83.307 73.9806 83.4342 73.8945 83.438 73.887C83.5016 73.8009 83.569 73.6418 83.6401 73.4097C83.8011 72.8931 84.0688 72.6348 84.4431 72.6348H84.533C84.6939 72.6348 84.8137 72.6872 84.8923 72.792C84.9223 72.8332 84.9578 72.9829 84.999 73.2412C85.0402 73.4995 85.0739 73.6474 85.1001 73.6849C85.13 73.7223 85.2854 73.8121 85.5662 73.9544C85.7346 74.0405 85.8188 74.1753 85.8188 74.3587C85.8188 74.4785 85.6841 74.5945 85.4145 74.7068C85.1488 74.8191 84.9878 74.9071 84.9316 74.9707C84.8755 75.0344 84.7594 75.2496 84.5835 75.6165C84.299 76.2042 84.1567 76.8481 84.1567 77.5481Z" fill="var(--fill-0, #F5F2EB)"></path><path d="M81.6831 72.0564V72.2081C81.6831 72.4027 81.5839 72.6161 81.3855 72.8482C81.2807 72.9717 81.1235 73.0335 80.9138 73.0335H80.7566C80.7004 73.0223 80.6368 73.0166 80.5657 73.0166C80.4983 73.0166 80.4103 72.9642 80.3018 72.8594C80.197 72.7509 80.1445 72.6161 80.1445 72.4551V72.3091C80.1558 72.253 80.1614 72.2099 80.1614 72.18C80.1614 71.9703 80.2756 71.7832 80.5039 71.6185C80.6349 71.5249 80.7903 71.4781 80.97 71.4781H81.0486C81.2245 71.4781 81.3743 71.5305 81.4978 71.6353C81.6213 71.7364 81.6831 71.8768 81.6831 72.0564ZM79.5886 79.2945H79.336C78.9803 79.2945 78.8025 79.1522 78.8025 78.8677C78.8025 78.6169 78.8774 78.3623 79.0271 78.104C79.4838 77.3029 79.7122 76.485 79.7122 75.6502C79.7122 75.3732 79.6392 75.1804 79.4932 75.0718C79.19 74.8435 79.0383 74.7012 79.0383 74.6451C79.0383 74.4916 79.2049 74.3475 79.5381 74.2127C79.875 74.0742 80.2718 74.0049 80.7285 74.0049H80.8128C80.9812 74.0049 81.0916 74.0367 81.1441 74.1004C81.2002 74.1603 81.2283 74.2483 81.2283 74.3643C81.2283 74.4804 81.1347 75.0381 80.9475 76.0376C80.7603 77.0334 80.6668 77.6174 80.6668 77.7896C80.6668 78.0591 80.7997 78.207 81.0654 78.2332C81.335 78.2556 81.4697 78.3661 81.4697 78.5645C81.4697 78.7105 81.3462 78.8321 81.0991 78.9295C80.4815 79.1728 79.978 79.2945 79.5886 79.2945Z" fill="var(--fill-0, #F5F2EB)"></path><path d="M73.0411 74.6787H72.94C72.794 74.6787 72.6199 74.7424 72.4178 74.8697C72.2156 74.9932 72.0434 75.1748 71.9012 75.4143C71.5755 75.9571 71.4127 76.485 71.4127 76.9978V77.2617C71.4127 77.6398 71.5044 77.9599 71.6878 78.222C71.875 78.4803 72.0865 78.6094 72.3223 78.6094H72.4234C72.5507 78.6094 72.7135 78.5551 72.9119 78.4466C73.1103 78.3343 73.2919 78.1396 73.4566 77.8626C73.7823 77.3198 73.9451 76.7732 73.9451 76.2229V76.0657C73.9451 75.6464 73.8553 75.3114 73.6756 75.0606C73.4959 74.806 73.2844 74.6787 73.0411 74.6787ZM73.0804 73.9375H73.3443C73.5764 73.9375 73.8235 73.9918 74.0855 74.1004C74.3475 74.2052 74.5703 74.3587 74.7537 74.5608C75.1093 74.9539 75.2872 75.4705 75.2872 76.1106L75.2815 76.1949C75.2815 76.5467 75.2011 76.9248 75.0401 77.3291C74.8829 77.7334 74.6508 78.0965 74.3438 78.4185C74.0406 78.7367 73.6999 78.9725 73.3218 79.126C72.9437 79.2795 72.5675 79.3562 72.1932 79.3562L72.1089 79.3506C71.4875 79.3506 70.9915 79.1485 70.6209 78.7442C70.254 78.3361 70.0706 77.8439 70.0706 77.2674V77.1775L70.0762 77.0933C70.0762 76.7339 70.1567 76.3502 70.3177 75.9422C70.4787 75.5304 70.7014 75.1822 70.9859 74.8977C71.2741 74.6095 71.5998 74.3774 71.9629 74.2015C72.3298 74.0255 72.7023 73.9375 73.0804 73.9375Z" fill="var(--fill-0, #F5F2EB)"></path><path d="M67.8048 77.5481C67.8048 77.8139 67.8478 77.9973 67.9339 78.0984C68.02 78.1957 68.1548 78.2444 68.3382 78.2444L68.4168 78.2332L68.5797 78.1995C68.6882 78.1845 68.8192 78.177 68.9727 78.177C69.1262 78.177 69.2029 78.2482 69.2029 78.3904C69.2029 78.63 69.0626 78.819 68.7818 78.9576C68.3026 79.1971 67.8478 79.3169 67.4173 79.3169H67.3106C67.0411 79.3169 66.8296 79.2009 66.6761 78.9688C66.5264 78.7329 66.4515 78.3717 66.4515 77.885C66.4515 77.7054 66.4964 77.3703 66.5863 76.8799C66.6798 76.3858 66.7266 75.989 66.7266 75.6895L66.721 75.4986L66.7154 75.4031L66.7098 75.1167C66.7098 74.982 66.6461 74.8641 66.5189 74.763C66.3916 74.6619 66.3279 74.5739 66.3279 74.4991C66.3279 74.4242 66.4534 74.3063 66.7042 74.1453C66.955 73.9806 67.0823 73.8945 67.086 73.887C67.1496 73.8009 67.217 73.6418 67.2882 73.4097C67.4491 72.8931 67.7168 72.6348 68.0911 72.6348H68.181C68.3419 72.6348 68.4617 72.6872 68.5403 72.792C68.5703 72.8332 68.6059 72.9829 68.647 73.2412C68.6882 73.4995 68.7219 73.6474 68.7481 73.6849C68.7781 73.7223 68.9334 73.8121 69.2142 73.9544C69.3826 74.0405 69.4669 74.1753 69.4669 74.3587C69.4669 74.4785 69.3321 74.5945 69.0626 74.7068C68.7968 74.8191 68.6358 74.9071 68.5797 74.9707C68.5235 75.0344 68.4074 75.2496 68.2315 75.6165C67.947 76.2042 67.8048 76.8481 67.8048 77.5481Z" fill="var(--fill-0, #F5F2EB)"></path><path d="M63.4276 75.1055C63.4276 74.9932 63.3808 74.8977 63.2872 74.8191C63.1936 74.7405 63.0532 74.7012 62.8661 74.7012H62.7313C62.3682 74.7012 62.0331 74.8977 61.7262 75.2908C61.554 75.5117 61.408 75.7887 61.2882 76.1219C61.1721 76.455 61.1141 76.7264 61.1141 76.9361L61.1029 77.0315V77.3235C61.1029 77.6342 61.1665 77.8832 61.2938 78.0703C61.4248 78.2575 61.5727 78.3511 61.7374 78.3511C61.8984 78.3511 62.0874 78.2818 62.3045 78.1433C62.7575 77.8513 63.0626 77.346 63.2198 76.6272C63.3508 76.0358 63.4164 75.6352 63.4164 75.4256L63.4276 75.1897V75.1055ZM64.9774 74.5664C64.9774 74.6338 64.8894 75.0924 64.7135 75.9422C64.5413 76.7882 64.4552 77.3347 64.4552 77.5818C64.4552 77.8251 64.4776 77.9768 64.5226 78.0367C64.5712 78.0928 64.6948 78.1209 64.8932 78.1209C65.0916 78.1209 65.1908 78.2163 65.1908 78.4073C65.1908 78.6768 65.0672 78.8771 64.8202 79.0081C64.4945 79.1803 64.1763 79.2664 63.8656 79.2664C63.5549 79.2664 63.3265 79.1896 63.1805 79.0362C63.1468 78.9987 63.0963 78.8864 63.0289 78.6992C62.9653 78.5083 62.9203 78.4129 62.8941 78.4129C62.8717 78.4129 62.7538 78.5046 62.5404 78.688C62.065 79.0961 61.6045 79.3001 61.159 79.3001C60.7136 79.3001 60.3579 79.1335 60.0921 78.8003C59.8264 78.4634 59.6935 78.0479 59.6935 77.5537C59.6935 76.5842 60.0023 75.7531 60.62 75.0606C60.9269 74.7199 61.2901 74.4541 61.7093 74.2632C62.1286 74.0686 62.5254 73.9712 62.8997 73.9712H63.1187C63.2647 73.9712 63.4463 73.9956 63.6634 74.0442C63.8843 74.0929 64.0696 74.1172 64.2193 74.1172L64.4046 74.106L64.5619 74.1116C64.8389 74.1116 64.9774 74.2632 64.9774 74.5664Z" fill="var(--fill-0, #F5F2EB)"></path><path d="M59.2132 71.5455C59.2132 71.7177 59.0467 72.6535 58.7135 74.3531C58.3841 76.0489 58.2193 77.0783 58.2193 77.4414C58.2193 77.8008 58.2512 78.0292 58.3148 78.1265C58.3784 78.2201 58.4964 78.3006 58.6686 78.368C58.8408 78.4353 58.9269 78.5139 58.9269 78.6038C58.9269 78.7198 58.8202 78.8172 58.6068 78.8958C57.8693 79.1691 57.3116 79.3057 56.9335 79.3057H56.8212C56.6677 79.3057 56.5479 79.2608 56.4618 79.1709C56.3794 79.0773 56.3382 78.9875 56.3382 78.9014V78.8172C56.3382 78.7573 56.4375 78.4353 56.6359 77.8513C56.838 77.2674 56.9578 76.8912 56.9952 76.7227C57.4744 74.5402 57.714 73.0709 57.714 72.3147C57.714 72.1538 57.641 72.0209 57.495 71.9161C57.2067 71.7102 57.0626 71.596 57.0626 71.5735C57.0626 71.4537 57.218 71.3283 57.5287 71.1973C57.8431 71.0625 58.2512 70.9952 58.7528 70.9952C58.9475 70.9952 59.0729 71.0326 59.129 71.1075C59.1852 71.1823 59.2132 71.2928 59.2132 71.4388V71.5455Z" fill="var(--fill-0, #F5F2EB)"></path><path d="M54.5834 75.3807V75.3189L54.5778 75.2908C54.5778 75.1336 54.5235 74.9932 54.4149 74.8697C54.3064 74.7461 54.1604 74.6844 53.9769 74.6844L53.9433 74.69H53.9152C53.6644 74.69 53.4229 74.7911 53.1908 74.9932C52.9625 75.1916 52.7884 75.4106 52.6686 75.6502C52.5488 75.8898 52.4889 76.0376 52.4889 76.0938L52.4945 76.1219V76.1443C52.4945 76.3053 52.5525 76.3858 52.6686 76.3858H52.7023C53.1103 76.3858 53.5876 76.2342 54.1342 75.9309C54.4336 75.7662 54.5834 75.5828 54.5834 75.3807ZM55.785 75.2627V75.3694C55.785 75.7625 55.654 76.0489 55.392 76.2286C55.0064 76.4981 54.3588 76.7227 53.4491 76.9024C53.0523 76.9773 52.8127 77.0315 52.7304 77.0652C52.5394 77.1438 52.444 77.3067 52.444 77.5537C52.444 77.7971 52.532 78.0011 52.7079 78.1658C52.8838 78.3268 53.1066 78.4073 53.3761 78.4073C53.6456 78.4073 53.9358 78.3455 54.2465 78.222C54.5609 78.0947 54.7949 78.031 54.9484 78.031C55.1056 78.031 55.1842 78.1003 55.1842 78.2388C55.1842 78.4971 54.9446 78.746 54.4655 78.9856C53.99 79.2215 53.567 79.3394 53.1964 79.3394H52.8539C52.6181 79.3394 52.3747 79.287 52.1239 79.1822C51.8731 79.0736 51.6691 78.9332 51.5119 78.761C51.1749 78.3979 51.0065 77.93 51.0065 77.3572V77.2449C51.0065 76.8181 51.0907 76.4101 51.2592 76.0208C51.6223 75.186 52.1763 74.5908 52.9213 74.2351C53.3031 74.0555 53.713 73.9656 54.151 73.9656C54.5927 73.9656 54.9559 74.0704 55.2404 74.2801C55.6035 74.5459 55.785 74.8734 55.785 75.2627Z" fill="var(--fill-0, #F5F2EB)"></path><path d="M48.9091 75.2234C48.9091 74.9838 48.8511 74.7836 48.735 74.6226C48.6227 74.4616 48.4917 74.3811 48.342 74.3811H48.2409C48.05 74.3811 47.859 74.5178 47.6681 74.7911C47.4772 75.0643 47.3818 75.332 47.3818 75.594C47.3668 75.6839 47.3593 75.7419 47.3593 75.7681L47.3424 76.0152V76.1275L47.3481 76.1612V76.2342C47.3555 76.2791 47.3593 76.3128 47.3593 76.3352C47.3593 76.4925 47.4154 76.6347 47.5277 76.762C47.6438 76.8893 47.7598 76.9529 47.8759 76.9529H48.005C48.2147 76.9529 48.415 76.8163 48.6059 76.543C48.7968 76.2697 48.8922 75.9703 48.8922 75.6446L48.9035 75.5772L48.9091 75.4312V75.2234ZM46.2194 79.9402V80.0132C46.2194 80.2865 46.3317 80.5111 46.5563 80.687C46.7809 80.863 47.0879 80.951 47.4772 80.951H47.6794C48.0612 80.951 48.3588 80.8667 48.5722 80.6983C48.7893 80.5298 48.8979 80.3464 48.8979 80.148V80.0581C48.8979 79.8972 48.7781 79.7568 48.5385 79.637C47.9246 79.33 47.4641 79.1765 47.1571 79.1765C47.0673 79.1616 46.9999 79.1541 46.955 79.1541L46.8202 79.1429H46.7922C46.7285 79.1429 46.6162 79.2215 46.4552 79.3787C46.298 79.5397 46.2194 79.7268 46.2194 79.9402ZM46.3149 78.8902C46.1689 78.6468 46.0959 78.4316 46.0959 78.2444C46.0959 78.0535 46.3074 77.8139 46.7304 77.5257C46.9288 77.3909 47.028 77.316 47.028 77.3011L46.7304 77.0989C46.3822 76.8069 46.2082 76.4382 46.2082 75.9927C46.2082 75.4125 46.4384 74.9239 46.8988 74.5271C47.3593 74.1266 47.8815 73.9263 48.4655 73.9263C48.5628 73.9263 48.7069 73.9394 48.8979 73.9656L49.1674 74.0049L49.2741 74.0274L49.6784 73.9656C49.7757 73.9544 49.9367 73.9488 50.1613 73.9488C50.603 73.9488 50.8258 74.0723 50.8295 74.3194C50.8295 74.4766 50.734 74.5795 50.5431 74.6282C50.195 74.7181 50.0209 74.7648 50.0209 74.7686L50.0434 74.9034L50.0658 75.055C50.0771 75.156 50.0827 75.2983 50.0827 75.4817C50.0827 75.6652 50.0209 75.8879 49.8974 76.1499C49.7738 76.4082 49.5904 76.646 49.3471 76.8631C49.1038 77.0802 48.8548 77.2243 48.6003 77.2954C48.3457 77.3666 48.108 77.419 47.8871 77.4527C47.67 77.4864 47.5034 77.535 47.3874 77.5987C47.2751 77.6586 47.2189 77.7503 47.2189 77.8738C47.2189 77.9973 47.5502 78.1508 48.2128 78.3343C48.8754 78.5177 49.3096 78.6843 49.5155 78.834C49.8188 79.0586 49.9704 79.3656 49.9704 79.7549C49.9704 79.9458 49.8992 80.1611 49.757 80.4007C49.6147 80.6402 49.4257 80.8368 49.1899 80.9903C48.7107 81.2972 48.1024 81.4507 47.3649 81.4507H47.2021C46.6518 81.4507 46.1801 81.3384 45.787 81.1138C45.394 80.8817 45.1974 80.6197 45.1974 80.3277C45.1974 79.8747 45.437 79.506 45.9162 79.2215C46.182 79.0605 46.3149 78.9501 46.3149 78.8902Z" fill="var(--fill-0, #F5F2EB)"></path></g></svg>