<svg width="529" height="529" viewBox="0 0 529 529" fill="none" xmlns="http://www.w3.org/2000/svg">
<mask id="path-1-outside-1_145_13" maskUnits="userSpaceOnUse" x="99.5615" y="101.151" width="74" height="85" fill="black">
<rect fill="white" x="99.5615" y="101.151" width="74" height="85"/>
<path d="M101.202 184.151V104.327H120.019V113.588C125.605 106.826 133.837 102.71 143.834 102.71C160.886 102.71 172.059 113.441 172.059 129.759V184.151H153.389V132.699C153.389 122.262 146.921 116.675 137.218 116.675C130.015 116.675 123.694 120.056 120.019 125.202V184.151H101.202Z"/>
</mask>
<path d="M101.202 184.151V104.327H120.019V113.588C125.605 106.826 133.837 102.71 143.834 102.71C160.886 102.71 172.059 113.441 172.059 129.759V184.151H153.389V132.699C153.389 122.262 146.921 116.675 137.218 116.675C130.015 116.675 123.694 120.056 120.019 125.202V184.151H101.202Z" fill="#E9243E"/>
<path d="M101.202 184.151H99.9582V185.395H101.202V184.151ZM101.202 104.327V103.083H99.9582V104.327H101.202ZM120.019 104.327H121.263V103.083H120.019V104.327ZM120.019 113.588H118.775V117.047L120.978 114.38L120.019 113.588ZM172.059 184.151V185.395H173.303V184.151H172.059ZM153.389 184.151H152.145V185.395H153.389V184.151ZM120.019 125.202L119.007 124.479L118.775 124.803V125.202H120.019ZM120.019 184.151V185.395H121.263V184.151H120.019ZM101.202 184.151H102.446V104.327H101.202H99.9582V184.151H101.202ZM101.202 104.327V105.571H120.019V104.327V103.083H101.202V104.327ZM120.019 104.327H118.775V113.588H120.019H121.263V104.327H120.019ZM120.019 113.588L120.978 114.38C126.325 107.908 134.204 103.954 143.834 103.954V102.71V101.466C133.471 101.466 124.885 105.744 119.06 112.796L120.019 113.588ZM143.834 102.71V103.954C152.097 103.954 158.826 106.55 163.48 111.013C168.129 115.471 170.815 121.894 170.815 129.759H172.059H173.303C173.303 121.306 170.402 114.204 165.202 109.217C160.007 104.235 152.623 101.466 143.834 101.466V102.71ZM172.059 129.759H170.815V184.151H172.059H173.303V129.759H172.059ZM172.059 184.151V182.907H153.389V184.151V185.395H172.059V184.151ZM153.389 184.151H154.633V132.699H153.389H152.145V184.151H153.389ZM153.389 132.699H154.633C154.633 127.217 152.927 122.857 149.801 119.873C146.684 116.898 142.303 115.431 137.218 115.431V116.675V117.919C141.836 117.919 145.541 119.246 148.083 121.673C150.617 124.091 152.145 127.743 152.145 132.699H153.389ZM137.218 116.675V115.431C129.626 115.431 122.922 118.997 119.007 124.479L120.019 125.202L121.031 125.925C124.466 121.116 130.404 117.919 137.218 117.919V116.675ZM120.019 125.202H118.775V184.151H120.019H121.263V125.202H120.019ZM120.019 184.151V182.907H101.202V184.151V185.395H120.019V184.151Z" fill="#E9243E" mask="url(#path-1-outside-1_145_13)"/>
<mask id="path-3-outside-2_145_13" maskUnits="userSpaceOnUse" x="88.4795" y="356.26" width="86" height="84" fill="black">
<rect fill="white" x="88.4795" y="356.26" width="86" height="84"/>
<path d="M120.896 438.26L90.9065 358.436H110.752L121.337 389.16L131.774 419.738L142.358 389.16L153.09 358.436H172.054L142.064 438.26H120.896Z"/>
</mask>
<path d="M120.896 438.26L90.9065 358.436H110.752L121.337 389.16L131.774 419.738L142.358 389.16L153.09 358.436H172.054L142.064 438.26H120.896Z" fill="#E9243E"/>
<path d="M120.896 438.26L119.731 438.698L120.034 439.504H120.896V438.26ZM90.9065 358.436V357.192H89.1104L89.7421 358.874L90.9065 358.436ZM110.752 358.436L111.928 358.031L111.639 357.192H110.752V358.436ZM121.337 389.16L122.514 388.759L122.513 388.755L121.337 389.16ZM131.774 419.738L130.597 420.139L131.766 423.564L132.95 420.144L131.774 419.738ZM142.358 389.16L141.184 388.75L141.183 388.754L142.358 389.16ZM153.09 358.436V357.192H152.207L151.916 358.026L153.09 358.436ZM172.054 358.436L173.218 358.874L173.85 357.192H172.054V358.436ZM142.064 438.26V439.504H142.926L143.229 438.698L142.064 438.26ZM120.896 438.26L122.06 437.823L92.071 357.999L90.9065 358.436L89.7421 358.874L119.731 438.698L120.896 438.26ZM90.9065 358.436V359.68H110.752V358.436V357.192H90.9065V358.436ZM110.752 358.436L109.576 358.841L120.161 389.566L121.337 389.16L122.513 388.755L111.928 358.031L110.752 358.436ZM121.337 389.16L120.159 389.562L130.597 420.139L131.774 419.738L132.951 419.336L122.514 388.759L121.337 389.16ZM131.774 419.738L132.95 420.144L143.534 389.567L142.358 389.16L141.183 388.754L130.599 419.331L131.774 419.738ZM142.358 389.16L143.533 389.571L154.264 358.846L153.09 358.436L151.916 358.026L141.184 388.75L142.358 389.16ZM153.09 358.436V359.68H172.054V358.436V357.192H153.09V358.436ZM172.054 358.436L170.889 357.999L140.9 437.823L142.064 438.26L143.229 438.698L173.218 358.874L172.054 358.436ZM142.064 438.26V437.016H120.896V438.26V439.504H142.064V438.26Z" fill="#E9243E" mask="url(#path-3-outside-2_145_13)"/>
<mask id="path-5-outside-3_145_13" maskUnits="userSpaceOnUse" x="351.671" y="101.151" width="73" height="86" fill="black">
<rect fill="white" x="351.671" y="101.151" width="73" height="86"/>
<path d="M379.729 185.474C363.265 185.474 352.974 176.948 352.974 163.864C352.974 148.135 369.439 142.842 386.344 137.697C398.84 133.875 404.867 130.935 404.867 125.055C404.867 119.468 399.869 115.793 390.755 115.793C380.464 115.793 373.702 121.674 371.938 131.523H354.591C356.943 114.323 371.056 102.563 391.196 102.563C411.482 102.563 423.39 112.118 423.39 129.906V184.151H404.867V175.184C398.84 181.799 389.873 185.474 379.729 185.474ZM371.35 163.276C371.35 169.45 376.495 172.831 384.58 172.831C392.225 172.831 400.163 169.744 404.867 164.452V142.401C401.486 145.194 396.194 146.958 390.167 149.017C379.435 152.545 371.35 155.338 371.35 163.276Z"/>
</mask>
<path d="M379.729 185.474C363.265 185.474 352.974 176.948 352.974 163.864C352.974 148.135 369.439 142.842 386.344 137.697C398.84 133.875 404.867 130.935 404.867 125.055C404.867 119.468 399.869 115.793 390.755 115.793C380.464 115.793 373.702 121.674 371.938 131.523H354.591C356.943 114.323 371.056 102.563 391.196 102.563C411.482 102.563 423.39 112.118 423.39 129.906V184.151H404.867V175.184C398.84 181.799 389.873 185.474 379.729 185.474ZM371.35 163.276C371.35 169.45 376.495 172.831 384.58 172.831C392.225 172.831 400.163 169.744 404.867 164.452V142.401C401.486 145.194 396.194 146.958 390.167 149.017C379.435 152.545 371.35 155.338 371.35 163.276Z" fill="#E9243E"/>
<path d="M386.344 137.697L386.707 138.887L386.708 138.887L386.344 137.697ZM371.938 131.523V132.767H372.979L373.162 131.742L371.938 131.523ZM354.591 131.523L353.359 131.354L353.166 132.767H354.591V131.523ZM423.39 184.151V185.395H424.634V184.151H423.39ZM404.867 184.151H403.623V185.395H404.867V184.151ZM404.867 175.184H406.111V171.971L403.948 174.346L404.867 175.184ZM404.867 164.452L405.797 165.279L406.111 164.925V164.452H404.867ZM404.867 142.401H406.111V139.76L404.075 141.442L404.867 142.401ZM390.167 149.017L390.555 150.198L390.562 150.196L390.569 150.194L390.167 149.017ZM379.729 185.474V184.23C371.7 184.23 365.314 182.151 360.962 178.61C356.637 175.091 354.218 170.051 354.218 163.864H352.974H351.73C351.73 170.761 354.457 176.525 359.392 180.54C364.302 184.534 371.294 186.718 379.729 186.718V185.474ZM352.974 163.864H354.218C354.218 156.552 357.994 151.645 363.984 147.863C370.045 144.037 378.215 141.471 386.707 138.887L386.344 137.697L385.982 136.507C377.568 139.068 369.053 141.721 362.656 145.76C356.187 149.843 351.73 155.446 351.73 163.864H352.974ZM386.344 137.697L386.708 138.887C392.946 136.978 397.73 135.247 400.958 133.198C404.255 131.105 406.111 128.555 406.111 125.055H404.867H403.623C403.623 127.434 402.465 129.295 399.625 131.097C396.716 132.944 392.238 134.594 385.981 136.508L386.344 137.697ZM404.867 125.055H406.111C406.111 121.834 404.645 119.139 401.926 117.299C399.259 115.493 395.455 114.549 390.755 114.549V115.793V117.037C395.168 117.037 398.421 117.931 400.531 119.359C402.591 120.753 403.623 122.689 403.623 125.055H404.867ZM390.755 115.793V114.549C385.367 114.549 380.804 116.093 377.346 119.014C373.89 121.935 371.637 126.146 370.713 131.304L371.938 131.523L373.162 131.742C374.003 127.05 376.013 123.397 378.952 120.915C381.888 118.434 385.852 117.037 390.755 117.037V115.793ZM371.938 131.523V130.279H354.591V131.523V132.767H371.938V131.523ZM354.591 131.523L355.824 131.691C358.08 115.195 371.585 103.807 391.196 103.807V102.563V101.319C370.526 101.319 355.807 113.451 353.359 131.354L354.591 131.523ZM391.196 102.563V103.807C401.163 103.807 408.889 106.156 414.102 110.518C419.281 114.851 422.146 121.308 422.146 129.906H423.39H424.634C424.634 120.716 421.545 113.501 415.698 108.61C409.887 103.747 401.515 101.319 391.196 101.319V102.563ZM423.39 129.906H422.146V184.151H423.39H424.634V129.906H423.39ZM423.39 184.151V182.907H404.867V184.151V185.395H423.39V184.151ZM404.867 184.151H406.111V175.184H404.867H403.623V184.151H404.867ZM404.867 175.184L403.948 174.346C398.188 180.667 389.574 184.23 379.729 184.23V185.474V186.718C390.172 186.718 399.491 182.931 405.787 176.021L404.867 175.184ZM371.35 163.276H370.106C370.106 166.76 371.583 169.532 374.217 171.386C376.797 173.203 380.389 174.075 384.58 174.075V172.831V171.588C380.687 171.588 377.663 170.77 375.649 169.352C373.69 167.972 372.594 165.966 372.594 163.276H371.35ZM384.58 172.831V174.075C392.511 174.075 400.815 170.883 405.797 165.279L404.867 164.452L403.937 163.626C399.511 168.605 391.938 171.588 384.58 171.588V172.831ZM404.867 164.452H406.111V142.401H404.867H403.623V164.452H404.867ZM404.867 142.401L404.075 141.442C402.521 142.726 400.481 143.809 398.028 144.837C395.577 145.865 392.793 146.805 389.765 147.839L390.167 149.017L390.569 150.194C393.568 149.17 396.443 148.199 398.99 147.132C401.535 146.065 403.832 144.87 405.659 143.36L404.867 142.401ZM390.167 149.017L389.778 147.835C384.458 149.584 379.589 151.21 376.068 153.442C372.465 155.726 370.106 158.756 370.106 163.276H371.35H372.594C372.594 159.858 374.277 157.523 377.4 155.543C380.605 153.512 385.144 151.977 390.555 150.198L390.167 149.017Z" fill="#E9243E" mask="url(#path-5-outside-3_145_13)"/>
<mask id="path-7-outside-4_145_13" maskUnits="userSpaceOnUse" x="347.671" y="351.178" width="86" height="111" fill="black">
<rect fill="white" x="347.671" y="351.178" width="86" height="111"/>
<path d="M360.539 460.08V445.968H370.977C376.416 445.968 379.356 443.91 381.708 438.911L382.59 436.412L349.955 353.354H370.095L391.851 410.539L412.285 353.354H431.396L396.997 444.498C392.586 455.376 385.236 460.08 374.358 460.08H360.539Z"/>
</mask>
<path d="M360.539 460.08V445.968H370.977C376.416 445.968 379.356 443.91 381.708 438.911L382.59 436.412L349.955 353.354H370.095L391.851 410.539L412.285 353.354H431.396L396.997 444.498C392.586 455.376 385.236 460.08 374.358 460.08H360.539Z" fill="#E9243E"/>
<path d="M360.539 460.08H359.295V461.324H360.539V460.08ZM360.539 445.968V444.724H359.295V445.968H360.539ZM381.708 438.911L382.834 439.441L382.86 439.384L382.881 439.325L381.708 438.911ZM382.59 436.412L383.763 436.826L383.917 436.389L383.748 435.957L382.59 436.412ZM349.955 353.354V352.11H348.13L348.797 353.809L349.955 353.354ZM370.095 353.354L371.257 352.912L370.952 352.11H370.095V353.354ZM391.851 410.539L390.689 410.982L391.888 414.134L393.023 410.958L391.851 410.539ZM412.285 353.354V352.11H411.409L411.114 352.936L412.285 353.354ZM431.396 353.354L432.56 353.793L433.195 352.11H431.396V353.354ZM396.997 444.498L398.149 444.965L398.155 444.951L398.16 444.937L396.997 444.498ZM360.539 460.08H361.783V445.968H360.539H359.295V460.08H360.539ZM360.539 445.968V447.212H370.977V445.968V444.724H360.539V445.968ZM370.977 445.968V447.212C373.853 447.212 376.214 446.666 378.19 445.349C380.157 444.037 381.604 442.053 382.834 439.441L381.708 438.911L380.583 438.382C379.46 440.768 378.261 442.312 376.81 443.279C375.369 444.24 373.539 444.724 370.977 444.724V445.968ZM381.708 438.911L382.881 439.325L383.763 436.826L382.59 436.412L381.417 435.998L380.535 438.497L381.708 438.911ZM382.59 436.412L383.748 435.957L351.113 352.899L349.955 353.354L348.797 353.809L381.432 436.867L382.59 436.412ZM349.955 353.354V354.598H370.095V353.354V352.11H349.955V353.354ZM370.095 353.354L368.932 353.797L390.689 410.982L391.851 410.539L393.014 410.097L371.257 352.912L370.095 353.354ZM391.851 410.539L393.023 410.958L413.457 353.773L412.285 353.354L411.114 352.936L390.68 410.121L391.851 410.539ZM412.285 353.354V354.598H431.396V353.354V352.11H412.285V353.354ZM431.396 353.354L430.232 352.915L395.833 444.058L396.997 444.498L398.16 444.937L432.56 353.793L431.396 353.354ZM396.997 444.498L395.844 444.03C393.706 449.303 390.901 452.974 387.406 455.338C383.912 457.701 379.615 458.836 374.358 458.836V460.08V461.324C379.979 461.324 384.796 460.107 388.8 457.399C392.802 454.691 395.877 450.57 398.149 444.965L396.997 444.498ZM374.358 460.08V458.836H360.539V460.08V461.324H374.358V460.08Z" fill="#E9243E" mask="url(#path-7-outside-4_145_13)"/>
<circle cx="134.678" cy="134.678" r="127.055" stroke="#E9243E" stroke-width="15.2466"/>
<circle cx="134.678" cy="393.87" r="127.055" stroke="#E9243E" stroke-width="15.2466"/>
<circle cx="393.87" cy="134.678" r="127.055" stroke="#E9243E" stroke-width="15.2466"/>
<circle cx="393.87" cy="393.87" r="127.055" stroke="#E9243E" stroke-width="15.2466"/>
</svg>
