<svg class="absolute block size-full" fill="none" preserveAspectRatio="none" viewBox="0 0 40.6528 39.7689"><g clip-path="url(#clip0_38_1676)" id="Group 1171275522"><g id="Vector"><path d="M19.8108 37.8184C19.7823 36.8523 19.7397 34.7354 19.6829 31.4677C19.6261 28.2001 19.5976 25.1597 19.5976 22.3467C19.5976 20.4429 19.6261 18.5534 19.6829 16.678C19.7681 14.8311 20.2796 13.1546 21.2173 11.6487C22.1834 10.1143 23.4478 8.90668 25.0106 8.02584C26.6018 7.11657 28.3209 6.66195 30.1678 6.66195C32.0716 6.66195 33.8191 7.14499 35.4103 8.11108C37.0299 9.04876 38.3085 10.3274 39.2462 11.947C40.1839 13.5382 40.6527 15.2857 40.6527 17.1895C40.6527 19.0933 40.1839 20.855 39.2462 22.4746C38.3085 24.0658 37.0299 25.3444 35.4103 26.3105C33.8191 27.2482 32.0716 27.717 30.1678 27.717C29.0597 27.717 27.9089 27.4471 26.7155 26.9072C25.5221 26.3674 24.6412 25.7138 24.0729 24.9466C24.0445 24.8898 24.0019 24.8756 23.9451 24.904C23.8882 24.904 23.8598 24.9324 23.8598 24.9893L23.7746 37.8184C23.7746 38.0457 23.6893 38.2446 23.5188 38.4151C23.3484 38.5856 23.1494 38.6708 22.9221 38.6708H20.6632C20.4359 38.6708 20.237 38.5856 20.0665 38.4151C19.896 38.2446 19.8108 38.0457 19.8108 37.8184ZM23.9024 17.1895C23.9024 18.3261 24.1866 19.3774 24.7549 20.3435C25.3232 21.2812 26.0761 22.0342 27.0138 22.6024C27.9799 23.1707 29.0312 23.4549 30.1678 23.4549C31.3044 23.4549 32.3415 23.1707 33.2792 22.6024C34.2453 22.0342 35.0125 21.2812 35.5808 20.3435C36.1491 19.3774 36.4332 18.3261 36.4332 17.1895C36.4332 16.0529 36.1491 15.0016 35.5808 14.0355C35.0125 13.0694 34.2453 12.3164 33.2792 11.7765C32.3415 11.2083 31.3044 10.9241 30.1678 10.9241C29.0312 10.9241 27.9799 11.2083 27.0138 11.7765C26.0761 12.3448 25.3232 13.112 24.7549 14.0781C24.1866 15.0158 23.9024 16.0529 23.9024 17.1895Z" fill="var(--fill-0, #F5F2EB)"></path><path d="M0.170496 7.42913C0.170496 7.20182 0.241532 7.01713 0.383605 6.87505C0.554091 6.73298 0.738785 6.66195 0.937686 6.66195H3.28188C3.50919 6.66195 3.69389 6.73298 3.83596 6.87505C3.97803 7.01713 4.04907 7.20182 4.04907 7.42913L4.21955 18.7665C4.21955 20.3293 4.68839 21.5511 5.62607 22.432C6.59216 23.3128 7.71453 23.7532 8.99318 23.7532C10.2718 23.7532 11.38 23.3128 12.3177 22.432C13.2553 21.5511 13.7242 20.3293 13.7242 18.7665L13.852 7.42913C13.852 7.20182 13.9231 7.01713 14.0652 6.87505C14.2356 6.73298 14.4203 6.66195 14.6192 6.66195H17.0061C17.2334 6.66195 17.4181 6.73298 17.5601 6.87505C17.7022 7.01713 17.7732 7.20182 17.7732 7.42913L17.9011 19.278L17.8585 26.5663C17.8585 26.7652 17.7874 26.9499 17.6454 27.1203C17.5033 27.2624 17.3186 27.3334 17.0913 27.3334H14.534C14.3351 27.3334 14.1646 27.2624 14.0225 27.1203C13.8805 26.9783 13.7952 26.8078 13.7668 26.6089V25.5433C12.7155 26.9925 11.1101 27.717 8.95056 27.717C7.01837 27.717 5.37034 27.305 4.00644 26.481C2.67097 25.6286 1.66225 24.5204 0.980308 23.1565C0.326776 21.7926 9.53674e-06 20.3293 9.53674e-06 18.7665L0.170496 7.42913Z" fill="var(--fill-0, #F5F2EB)"></path><path d="M19.8108 37.8184C19.7823 36.8523 19.7397 34.7354 19.6829 31.4677C19.6261 28.2001 19.5976 25.1597 19.5976 22.3467C19.5976 20.4429 19.6261 18.5534 19.6829 16.678C19.7681 14.8311 20.2796 13.1546 21.2173 11.6487C22.1834 10.1143 23.4478 8.90668 25.0106 8.02584C26.6018 7.11657 28.3209 6.66195 30.1678 6.66195C32.0716 6.66195 33.8191 7.14499 35.4103 8.11108C37.0299 9.04876 38.3085 10.3274 39.2462 11.947C40.1839 13.5382 40.6527 15.2857 40.6527 17.1895C40.6527 19.0933 40.1839 20.855 39.2462 22.4746C38.3085 24.0658 37.0299 25.3444 35.4103 26.3105C33.8191 27.2482 32.0716 27.717 30.1678 27.717C29.0597 27.717 27.9089 27.4471 26.7155 26.9072C25.5221 26.3674 24.6412 25.7138 24.0729 24.9466C24.0445 24.8898 24.0019 24.8756 23.9451 24.904C23.8882 24.904 23.8598 24.9324 23.8598 24.9893L23.7746 37.8184C23.7746 38.0457 23.6893 38.2446 23.5188 38.4151C23.3484 38.5856 23.1494 38.6708 22.9221 38.6708H20.6632C20.4359 38.6708 20.237 38.5856 20.0665 38.4151C19.896 38.2446 19.8108 38.0457 19.8108 37.8184ZM23.9024 17.1895C23.9024 18.3261 24.1866 19.3774 24.7549 20.3435C25.3232 21.2812 26.0761 22.0342 27.0138 22.6024C27.9799 23.1707 29.0312 23.4549 30.1678 23.4549C31.3044 23.4549 32.3415 23.1707 33.2792 22.6024C34.2453 22.0342 35.0125 21.2812 35.5808 20.3435C36.1491 19.3774 36.4332 18.3261 36.4332 17.1895C36.4332 16.0529 36.1491 15.0016 35.5808 14.0355C35.0125 13.0694 34.2453 12.3164 33.2792 11.7765C32.3415 11.2083 31.3044 10.9241 30.1678 10.9241C29.0312 10.9241 27.9799 11.2083 27.0138 11.7765C26.0761 12.3448 25.3232 13.112 24.7549 14.0781C24.1866 15.0158 23.9024 16.0529 23.9024 17.1895Z" fill="var(--fill-0, #F5F2EB)"></path><path d="M0.170496 7.42913C0.170496 7.20182 0.241532 7.01713 0.383605 6.87505C0.554091 6.73298 0.738785 6.66195 0.937686 6.66195H3.28188C3.50919 6.66195 3.69389 6.73298 3.83596 6.87505C3.97803 7.01713 4.04907 7.20182 4.04907 7.42913L4.21955 18.7665C4.21955 20.3293 4.68839 21.5511 5.62607 22.432C6.59216 23.3128 7.71453 23.7532 8.99318 23.7532C10.2718 23.7532 11.38 23.3128 12.3177 22.432C13.2553 21.5511 13.7242 20.3293 13.7242 18.7665L13.852 7.42913C13.852 7.20182 13.9231 7.01713 14.0652 6.87505C14.2356 6.73298 14.4203 6.66195 14.6192 6.66195H17.0061C17.2334 6.66195 17.4181 6.73298 17.5601 6.87505C17.7022 7.01713 17.7732 7.20182 17.7732 7.42913L17.9011 19.278L17.8585 26.5663C17.8585 26.7652 17.7874 26.9499 17.6454 27.1203C17.5033 27.2624 17.3186 27.3334 17.0913 27.3334H14.534C14.3351 27.3334 14.1646 27.2624 14.0225 27.1203C13.8805 26.9783 13.7952 26.8078 13.7668 26.6089V25.5433C12.7155 26.9925 11.1101 27.717 8.95056 27.717C7.01837 27.717 5.37034 27.305 4.00644 26.481C2.67097 25.6286 1.66225 24.5204 0.980308 23.1565C0.326776 21.7926 9.53674e-06 20.3293 9.53674e-06 18.7665L0.170496 7.42913Z" fill="var(--fill-0, #F5F2EB)"></path><path d="M13.8708 13.6613V8.0802L13.8112 1.97473C13.801 0.894798 14.6687 0.0106076 15.7487 0.000122288C16.8287 -0.0101269 17.7128 0.857636 17.7233 1.93762L17.7819 8.04211V13.6613C17.7819 14.7413 16.9069 15.6171 15.8268 15.6173C14.7467 15.6173 13.8708 14.7414 13.8708 13.6613Z" fill="var(--fill-0, #F5F2EB)"></path><path d="M15.7568 0.000122062C16.837 -0.00546361 17.718 0.866243 17.7236 1.94641L17.7549 8.0509V8.07532L17.7539 8.09973L17.5762 16.9308C17.5544 18.0106 16.6619 18.8684 15.582 18.8468C14.5022 18.8251 13.6444 17.9325 13.666 16.8527L13.8428 8.07043L13.8115 1.96594C13.8061 0.88606 14.677 0.00591088 15.7568 0.000122062Z" fill="var(--fill-0, #F5F2EB)"></path><path d="M0.178955 18.4915V7.29028C0.178955 6.2101 1.05483 5.33423 2.13501 5.33423C3.21519 5.33423 4.09106 6.2101 4.09106 7.29028V18.4915C4.09106 19.5716 3.21519 20.4475 2.13501 20.4475C1.05483 20.4475 0.178955 19.5716 0.178955 18.4915Z" fill="var(--fill-0, #F5F2EB)"></path><path d="M19.8562 37.8129V26.6117C19.8562 25.5315 20.732 24.6556 21.8122 24.6556C22.8924 24.6556 23.7683 25.5315 23.7683 26.6117V37.8129C23.7683 38.893 22.8924 39.7689 21.8122 39.7689C20.732 39.7689 19.8562 38.893 19.8562 37.8129Z" fill="var(--fill-0, #F5F2EB)"></path><path d="M13.6931 26.4337V15.2325C13.6931 14.0869 14.6216 13.1583 15.7673 13.1583C16.9129 13.1583 17.8415 14.0869 17.8415 15.2325V26.4337C17.8415 27.5794 16.9129 28.5089 15.7673 28.5089C14.6216 28.5089 13.6931 27.5794 13.6931 26.4337Z" fill="var(--fill-0, #F5F2EB)"></path></g></g><defs><clipPath id="clip0_38_1676"><rect fill="white" height="39.7689" width="40.6528"></rect></clipPath></defs></svg>