<svg class="absolute block size-full" fill="none" preserveAspectRatio="none" viewBox="0 0 145.538 96.9017"><g id="Vector"><path d="M144.095 0.0359011C144.628 -0.053538 144.772 0.0279421 145.128 0.23791C145.805 1.40276 145.443 5.8032 145.434 7.31463L145.412 78.8152C145.414 84.7436 145.535 90.9799 145.403 96.87C144.048 96.9451 141.962 96.8639 140.542 96.8578L131.272 96.8409L2.09543 96.8608L0.0873414 96.8179C-0.0739248 92.1683 0.0426252 86.8954 0.0429315 82.1907L0.0423145 21.5162C0.0413956 19.3163 -0.186641 1.10152 0.425496 0.341283C1.24607 0.035904 22.2924 0.262412 25.1569 0.262718L104.733 0.141733L129.755 0.142341C134.225 0.144485 139.689 0.282318 144.095 0.0359011ZM2.75704 94.4334C4.08592 94.1991 6.15558 94.2619 7.5572 94.2634L14.9229 94.2772L142.685 94.2573C142.824 90.5097 142.777 86.756 142.789 83.0054C142.858 59.9702 142.686 36.9262 142.87 13.8912C142.901 10.1537 142.758 6.4481 142.856 2.70376L16.8282 2.70193L8.08035 2.72383C6.42419 2.73026 4.25193 2.81005 2.65504 2.65062C2.93837 9.93914 2.68644 18.986 2.68476 26.4211L2.68628 69.8514C2.6875 77.9101 2.55871 86.413 2.75704 94.4334Z" fill="var(--fill-0, #FEFDFE)"></path><path d="M139.633 5.54517C139.956 5.56385 139.795 5.53092 140.11 5.82037C140.516 8.82317 140.313 15.4069 140.262 18.5099C140.228 23.201 140.219 27.8924 140.233 32.5837L140.239 71.386C140.241 73.5071 140.467 90.5725 139.996 91.2142C139.083 91.5205 115.452 91.2663 112.57 91.2648L44.187 91.2617C31.414 91.2617 18.4562 91.153 5.69474 91.3153L5.28338 91.1591C5.0875 90.8237 5.21017 79.6132 5.20879 78.3283L5.20849 15.2787C5.20803 12.1122 5.14172 8.82302 5.27588 5.67121C8.54561 5.54547 12.6168 5.67749 15.9749 5.67826L126.797 5.68668C130.545 5.68683 136.044 5.84212 139.633 5.54517ZM7.52946 89.1727C11.7173 88.9614 16.8152 89.0946 21.0553 89.0962L117.374 89.0977C119.552 89.0977 137.294 89.2723 137.867 89.0502C137.691 86.0102 137.868 81.3805 137.871 78.2272L137.882 56.14L137.946 26.2056C137.943 20.3576 137.769 13.5339 137.96 7.75158L47.234 7.7891L20.9789 7.72632L12.5952 7.75679C11.0902 7.76904 8.95329 7.84669 7.49439 7.74408C7.76623 11.4145 7.5506 17.2741 7.54846 21.1753L7.55152 75.2147C7.55381 79.0174 7.76455 85.5309 7.52946 89.1727Z" fill="var(--fill-0, #FEFDFE)"></path><path d="M10.7359 11.0239C20.712 11.2017 30.9752 11.0896 40.9737 11.0907L105.935 11.0927C115.626 11.092 125.722 10.9318 135.37 11.0482C135.17 17.9034 135.351 25.6662 135.352 32.5793L135.306 70.3124C135.305 74.426 135.467 81.4448 135.2 85.6993C135.188 85.8831 134.923 85.9505 134.704 86.0592C131.782 85.6947 124.243 85.8938 120.922 85.8953L41.1927 85.8907C30.8671 85.8907 20.4333 85.8187 10.1161 85.9397C9.99327 84.6717 10.0862 82.3974 10.0896 81.0328L10.0951 19.5814C10.0977 17.0828 10.0737 14.1896 10.18 11.6645C10.197 11.259 10.4608 11.1787 10.7359 11.0239ZM12.2946 84.2291C13.5505 84.0177 16.026 84.0897 17.3872 84.0912L25.8133 84.1065H123.924C126.603 84.1081 130.395 83.9901 132.955 84.1954C133.379 83.2045 133.137 19.8153 133.147 13.0007L25.0599 12.9992C21.7001 12.9997 15.3973 13.2113 12.3034 12.9649C12.4377 17.9856 12.3455 23.37 12.3427 28.4134L12.3429 74.3264C12.344 77.224 12.4793 81.4617 12.2946 84.2291Z" fill="var(--fill-0, #FEFDFE)"></path><path d="M20.3048 23.0103C24.0329 22.8565 28.2203 22.984 31.9842 22.9593C32.6595 22.9549 33.2543 23.1037 33.7502 23.5632C35.1751 24.8835 36.5654 26.4277 37.8966 27.8491L46.5155 37.225C53.5224 44.8161 60.9376 52.3771 67.7596 60.0928L67.7766 40.9182C67.7784 35.106 68.8502 28.5926 62.6956 25.3369C61.6152 24.7655 58.6236 24.3882 58.0205 23.491L58.128 23.2325C58.6812 22.9706 62.5289 22.8985 63.1988 22.9639C64.8104 23.1213 74.5519 22.5063 75.215 23.4165C75.0496 26.0126 69.7185 24.2601 69.3234 31.4693C69.0232 36.9567 69.7461 71.7612 69.0661 72.9604C68.9604 73.1457 68.7368 73.1319 68.5448 73.1794C67.5712 72.965 67.1018 72.5071 66.4278 71.7964C64.0186 69.3108 61.5322 66.4714 59.0794 63.9077C48.9386 53.3006 38.8657 42.6275 28.8612 31.8908C28.7712 38.056 28.7315 44.2219 28.7418 50.3877C28.7386 52.6436 28.5973 57.9609 28.9525 59.9963C29.2995 61.9673 30.0438 63.848 31.1401 65.5219C32.9704 68.3031 34.9045 69.268 37.869 70.3967C38.1647 70.51 38.2545 70.7657 38.3782 71.0261L38.1948 71.2895C36.3692 72.0185 31.2139 71.7137 28.9765 71.6892C26.7023 71.6632 22.2058 71.9894 20.198 71.458C19.9034 71.118 20.0121 71.3186 20.0057 70.7673C20.5445 69.539 23.4819 68.2663 24.5991 67.0029C27.4206 63.8143 27.3864 60.2781 27.3227 56.2564C27.2954 54.5365 27.3227 52.7401 27.3222 51.008C27.3389 44.0152 27.3189 37.0244 27.2617 30.0333C26.0483 28.6986 24.5515 27.3032 23.2279 26.0656C22.2466 25.1476 20.3812 24.8991 19.9795 23.7748C20.053 23.204 19.945 23.4483 20.3048 23.0103ZM67.3809 70.3078C67.2923 69.1148 67.451 64.7623 67.0675 64.2202C66.1933 62.9858 63.5892 60.4603 62.4167 59.2336L52.1408 48.4121L35.6958 31.0059C33.8577 29.0839 31.2064 26.0897 29.3582 24.3384C27.6745 24.3174 25.3103 24.2306 23.6638 24.3453C23.918 25.0495 28.9761 30.0238 29.9336 31.0401L51.07 53.3312C52.8539 55.2104 66.7644 70.0674 67.3809 70.3078ZM67.9996 29.3787C68.3541 28.1811 68.522 27.6677 69.1473 26.5571C70.2668 25.4896 70.9499 25.0377 72.3083 24.2624C70.7079 24.2876 64.9135 24.2096 63.7716 24.3713C64.1365 24.8576 64.6949 25.0893 65.2195 25.4313C66.8318 26.4822 67.2936 27.7082 67.9996 29.3787ZM23.1809 70.0322C24.9268 69.8116 26.1457 69.7978 27.9125 69.8652C29.5063 69.8315 30.5587 69.7886 32.1326 70.0031C30.6794 69.0351 28.952 68.0734 28.3598 66.3918C28.2175 65.9875 27.9642 65.1314 27.7278 64.8741C26.9317 67.6476 25.614 68.5619 23.1809 70.0322Z" fill="var(--fill-0, #FEFDFE)"></path><path d="M79.5506 22.9946C82.05 22.9557 100.105 22.6704 101.135 23.2509C101.33 23.3605 101.307 23.508 101.358 23.7074C100.656 24.5948 98.8168 24.1921 97.8504 24.7026C92.0966 27.7433 102.555 38.5488 104.422 42.2101C106.995 37.9353 112.744 32.8042 113.9 28.1532C114.599 25.3404 108.971 24.3502 108.297 23.5187L108.373 23.2352C108.776 23.083 109.237 22.989 109.675 22.9864C114.364 22.9577 119.086 22.8819 123.771 23.0357C124.191 23.0495 124.638 23.1432 124.956 23.4215C124.841 23.9371 124.454 23.9884 123.924 24.1996C118.421 26.3929 114.77 32.572 110.899 36.847C109.023 38.9179 107.114 41.2787 105.433 43.4745C106.883 46.2848 109.069 49.0752 110.805 51.7645L116.42 60.3623C118.47 63.5325 120.212 66.4239 122.754 69.2756C124.017 70.6907 126.626 71.3982 127.448 72.2681L127.348 72.5208C126.24 73.3356 122.924 73.1487 121.457 73.1457C117.334 73.063 108.542 73.3555 105.102 72.8103L104.976 72.5836C105.909 71.7061 110.136 71.4518 110.35 69.6278C110.692 66.7455 107.598 62.5002 106.157 60.2199C104.103 56.9394 101.99 53.6972 99.8214 50.4934C96.956 55.2655 89.784 62.2169 89.6493 67.6583C89.5604 71.2466 95.3633 71.8531 96.0004 72.4044L95.9468 72.6755C95.7921 72.7475 95.7431 72.7781 95.5915 72.8256C94.0554 73.3157 79.3331 73.3784 78.2856 72.7658C78.0712 72.6403 78.1355 72.6571 78.0681 72.3891C79.3147 71.337 81.88 70.5865 83.3288 69.1806C87.2004 65.4177 90.6922 60.3853 93.9665 56.0802C95.3372 54.2792 97.6283 51.2836 98.6973 49.5484L98.7999 49.38C94.4964 42.025 88.9831 34.9207 84.4621 27.6587C83.5754 26.2339 80.7345 25.0982 79.5399 23.9578C79.3515 23.3657 79.3837 23.6742 79.5506 22.9946ZM120.46 70.9909C119.164 69.4119 118.202 67.7012 117.048 66.0135L101.073 42.7242C98.3359 38.807 95.6481 34.8032 93.1564 30.7261C91.6739 28.3005 92.6418 26.027 94.6511 24.3131C90.9051 24.3009 87.1575 24.3214 83.41 24.3748C83.508 24.741 85.067 26.4511 85.4407 26.948C90.7259 33.9712 95.5669 41.2989 100.468 48.582L107.318 58.9426C109.496 62.2307 114.463 67.6552 110.799 71.3461C113.669 71.3461 117.578 71.4595 120.368 71.291L120.518 71.1118L120.46 70.9909ZM84.1068 71.3232L88.9096 71.3446C87.3827 68.7059 88.1316 68.0902 87.5741 66.6797C86.8972 67.3275 83.2109 70.7305 83.0822 71.268C83.5723 71.3446 83.6137 71.3507 84.1068 71.3232ZM115.279 28.9823C115.956 28.232 116.653 27.4345 117.343 26.7032L119.464 24.2958C117.657 24.3226 115.406 24.2666 113.66 24.354C114.959 26.1347 115.46 26.4428 115.279 28.9823Z" fill="var(--fill-0, #FEFDFE)"></path></g></svg>