<svg class="absolute block size-full" fill="none" preserveAspectRatio="none" viewBox="0 0 169.77 46.1811"><g id="Vector"><path d="M169.77 0V45.4666H163.275V0H169.77Z" fill="var(--fill-0, #F5F2EB)"></path><path d="M138.169 22.7333C138.169 13.1204 131.803 5.32608 121.411 5.32608H113.422V40.1405H121.411C131.803 40.1405 138.169 32.3462 138.169 22.7333ZM144.794 22.7333C144.794 35.2691 136.025 45.4666 121.411 45.4666H106.927V0H121.411C136.025 0 144.794 10.1975 144.794 22.7333Z" fill="var(--fill-0, #F5F2EB)"></path><path d="M60.2477 30.7874H78.5642L69.341 6.23542L60.2477 30.7874ZM80.5128 36.0485H58.2992L54.7917 45.4666H48.1017L65.5738 0H73.1083L90.6454 45.4666H84.0852L80.5128 36.0485Z" fill="var(--fill-0, #F5F2EB)"></path><path d="M6.49523 45.4666H0V3.33754e-05H18.9661C27.6697 3.33754e-05 32.671 6.69012 32.671 14.2895C32.671 21.1095 28.7738 26.5655 21.9539 27.9944C22.4735 32.9308 25.5262 40.6601 30.5925 40.6601C32.8658 40.6601 34.6845 39.8158 35.9186 38.5817L38.1919 42.9984C36.0485 45.2717 33.1256 46.1811 30.2028 46.1811C19.5506 46.1811 16.303 33.7752 15.7834 28.2543H6.49523V45.4666ZM6.49523 23.0581H17.6021C22.7982 23.0581 25.9159 19.4208 25.9159 14.2246C25.9159 8.96344 22.7982 5.32612 17.6021 5.32612H6.49523V23.0581Z" fill="var(--fill-0, #F5F2EB)"></path></g></svg>