<svg class="absolute block size-full" fill="none" preserveAspectRatio="none" viewBox="0 0 115.637 20.9756"><g id="Vector"><path d="M104 20.3421V19.856C104 19.7824 104.045 19.7382 104.118 19.7382H104.383C105.076 19.7382 105.577 19.5762 105.901 19.2374C106.225 18.9133 106.387 18.383 106.387 17.6613V11.6809L102.91 3.38785C102.572 2.5777 102.115 2.03269 101.57 1.72336C101.025 1.41403 100.288 1.252 99.3752 1.23727C99.3016 1.23727 99.2574 1.19307 99.2574 1.11942V0.633334C99.2574 0.559684 99.3016 0.515493 99.3752 0.515493C99.6404 0.515493 100.068 0.530223 100.642 0.559683C101.216 0.589143 101.629 0.603873 101.879 0.603873H104.266C104.531 0.603873 104.943 0.589143 105.518 0.559683C106.092 0.530223 106.49 0.515493 106.74 0.515493C106.814 0.515493 106.858 0.559684 106.858 0.633334V1.11942C106.858 1.19307 106.814 1.23727 106.74 1.23727C106.18 1.26673 105.798 1.31091 105.577 1.38456C105.356 1.45822 105.238 1.57606 105.238 1.72336C105.238 1.90012 105.356 2.2831 105.591 2.8723L108.316 9.6923L110.658 3.29947C110.717 3.15217 110.776 3.00487 110.85 2.8723C111.071 2.23891 111.174 1.85593 111.174 1.72336C111.174 1.57606 111.071 1.45822 110.85 1.38456C110.629 1.31091 110.231 1.26673 109.672 1.23727C109.598 1.23727 109.554 1.19307 109.554 1.11942V0.633334C109.554 0.559684 109.598 0.515493 109.672 0.515493C109.937 0.515493 110.305 0.530224 110.791 0.544954C111.262 0.559684 111.586 0.574413 111.748 0.574413H113.325C113.501 0.574413 113.84 0.559684 114.341 0.544954C114.827 0.530224 115.225 0.515493 115.519 0.515493C115.593 0.515493 115.637 0.559684 115.637 0.633334V1.11942C115.637 1.19307 115.593 1.23727 115.519 1.23727C114.577 1.23727 113.84 1.38457 113.295 1.66444C112.75 1.95904 112.323 2.53351 112.014 3.38785L109.009 11.3126V17.6613C109.009 18.383 109.171 18.9133 109.495 19.2374C109.804 19.5762 110.305 19.7382 110.997 19.7382H111.262C111.336 19.7382 111.38 19.7824 111.38 19.856V20.3421C111.38 20.4158 111.336 20.46 111.262 20.46C110.393 20.4158 109.215 20.401 107.712 20.401C106.195 20.401 105.002 20.4158 104.118 20.46C104.045 20.46 104 20.4158 104 20.3421Z" fill="var(--fill-0, #F5F2EB)"></path><path d="M87.8566 20.3127V19.8266C87.8566 19.7529 87.9007 19.7087 87.9891 19.7087H88.4016C89.0644 19.7087 89.5505 19.5909 89.8304 19.3405C90.1102 19.1048 90.2428 18.6334 90.2428 17.9264V3.32893C90.2428 2.60716 90.0808 2.07688 89.7715 1.73809C89.4474 1.3993 88.9466 1.23727 88.2543 1.23727H87.9891C87.9007 1.23727 87.8566 1.19307 87.8566 1.11942V0.633334C87.8566 0.559684 87.9007 0.515493 87.9891 0.515493C89.5652 0.559683 90.8026 0.574413 91.7011 0.574413C92.5996 0.574413 93.8075 0.559683 95.3394 0.515493C95.4278 0.515493 95.472 0.559684 95.472 0.633334V1.11942C95.472 1.19307 95.4278 1.23727 95.3394 1.23727C94.323 1.29619 93.6602 1.47295 93.3509 1.75282C93.0268 2.04742 92.8648 2.5777 92.8648 3.35839V19.532L94.706 19.5614H95.251C95.855 19.5614 96.3705 19.5172 96.8271 19.4289C97.269 19.3405 97.652 19.1932 97.9908 18.9722C98.3296 18.7513 98.6095 18.5156 98.8452 18.2357C99.0661 17.9559 99.2723 17.5876 99.4491 17.131C99.6259 16.6743 99.7732 16.2177 99.891 15.7316C99.9941 15.2603 100.112 14.6711 100.23 13.9493C100.259 13.8609 100.303 13.8167 100.377 13.8167H100.775C100.848 13.8167 100.893 13.8609 100.893 13.9493L100.686 20.3421C100.686 20.4158 100.642 20.46 100.569 20.46L94.7355 20.4894L92.8942 20.46H89.8009C89.4327 20.4452 88.8287 20.4305 87.9891 20.4305C87.9007 20.4305 87.8566 20.3863 87.8566 20.3127Z" fill="var(--fill-0, #F5F2EB)"></path><path d="M73.6565 20.3127V19.8266C73.6565 19.7529 73.7007 19.7087 73.7891 19.7087H74.2015C74.8644 19.7087 75.3504 19.5909 75.6303 19.3405C75.9102 19.1048 76.0428 18.6334 76.0428 17.9264V3.32893C76.0428 2.60716 75.8807 2.07688 75.5714 1.73809C75.2473 1.3993 74.7465 1.23727 74.0542 1.23727H73.7891C73.7007 1.23727 73.6565 1.19307 73.6565 1.11942V0.633334C73.6565 0.559684 73.7007 0.515493 73.7891 0.515493C75.3652 0.559683 76.6025 0.574413 77.501 0.574413C78.3996 0.574413 79.6074 0.559683 81.1394 0.515493C81.2277 0.515493 81.2719 0.559684 81.2719 0.633334V1.11942C81.2719 1.19307 81.2277 1.23727 81.1394 1.23727C80.123 1.29619 79.4601 1.47295 79.1508 1.75282C78.8267 2.04742 78.6647 2.5777 78.6647 3.35839V19.532L80.506 19.5614H81.051C81.6549 19.5614 82.1705 19.5172 82.6271 19.4289C83.069 19.3405 83.452 19.1932 83.7908 18.9722C84.1295 18.7513 84.4094 18.5156 84.6451 18.2357C84.8661 17.9559 85.0723 17.5876 85.249 17.131C85.4258 16.6743 85.5731 16.2177 85.6909 15.7316C85.794 15.2603 85.9119 14.6711 86.0297 13.9493C86.0592 13.8609 86.1034 13.8167 86.177 13.8167H86.5747C86.6484 13.8167 86.6926 13.8609 86.6926 13.9493L86.4864 20.3421C86.4864 20.4158 86.4422 20.46 86.3685 20.46L80.5354 20.4894L78.6942 20.46H75.6009C75.2326 20.4452 74.6287 20.4305 73.7891 20.4305C73.7007 20.4305 73.6565 20.3863 73.6565 20.3127Z" fill="var(--fill-0, #F5F2EB)"></path><path d="M65.0183 20.3421V19.8855C65.0183 19.8118 65.0625 19.7676 65.1361 19.7676H65.4013C66.0789 19.7529 66.5797 19.5762 66.9037 19.2521C67.2131 18.928 67.3751 18.3978 67.3751 17.6613V3.32893C67.3751 2.59243 67.2131 2.06215 66.9037 1.72336C66.5797 1.3993 66.0789 1.23727 65.4013 1.23727H65.1361C65.0625 1.23727 65.0183 1.19307 65.0183 1.11942V0.633334C65.0183 0.559684 65.0625 0.515493 65.1361 0.515493C66.6239 0.559683 67.8317 0.574413 68.7303 0.574413C69.5846 0.574413 70.763 0.559683 72.2507 0.515493C72.3391 0.515493 72.3833 0.559684 72.3833 0.633334V1.11942C72.3833 1.19307 72.3391 1.23727 72.2507 1.23727H72.0151C71.3227 1.23727 70.8072 1.3993 70.4979 1.72336C70.1885 2.06215 70.0265 2.59243 70.0265 3.32893V17.6613C70.0412 18.383 70.218 18.9133 70.5273 19.2521C70.8367 19.5909 71.3375 19.7676 72.0151 19.7676H72.2507C72.3391 19.7676 72.3833 19.8118 72.3833 19.8855V20.3421C72.3833 20.4158 72.3391 20.46 72.2507 20.46C71.3817 20.4158 70.218 20.401 68.7303 20.401C67.1983 20.401 66.0052 20.4158 65.1361 20.46C65.0625 20.46 65.0183 20.4158 65.0183 20.3421Z" fill="var(--fill-0, #F5F2EB)"></path><path d="M62.7203 6.5254C62.6614 6.30445 62.5877 5.89201 62.4993 5.31754C62.4404 4.97875 62.3962 4.69888 62.352 4.47793C62.3078 4.27171 62.2636 4.0213 62.19 3.71197C62.1163 3.40264 62.028 3.16696 61.9543 2.97547C61.8659 2.78398 61.7628 2.57776 61.645 2.34208C61.5124 2.12112 61.3798 1.92963 61.2178 1.78233C61.0558 1.64976 60.8643 1.50246 60.6581 1.36989C60.4519 1.23732 60.2162 1.14894 59.9363 1.07529C59.6564 1.01637 59.3618 0.986913 59.0378 0.972183C57.9036 0.986913 57.0198 1.29624 56.4158 1.9149C55.8119 2.5483 55.5026 3.29953 55.5026 4.1686C55.5026 4.47793 55.5468 4.7578 55.6204 5.03767C55.6941 5.31754 55.8414 5.58268 56.0476 5.83309C56.2538 6.09823 56.4453 6.31918 56.6073 6.49594C56.7693 6.6727 57.0345 6.89366 57.4027 7.14407C57.771 7.40921 58.0361 7.6007 58.2276 7.71854C58.4191 7.85111 58.7284 8.05733 59.1851 8.3372C59.6417 8.61707 60.01 8.83802 60.2604 9.00005C60.5108 9.16208 60.8496 9.39776 61.2767 9.70709C61.7039 10.0164 62.028 10.2963 62.2784 10.532C62.5141 10.7677 62.7792 11.077 63.0885 11.4452C63.3979 11.8135 63.6335 12.1817 63.7956 12.55C63.9576 12.9182 64.0902 13.3307 64.208 13.8168C64.3111 14.3029 64.37 14.8037 64.37 15.334C64.37 16.262 64.1786 17.1016 63.7956 17.8381C63.4126 18.5893 62.9118 19.1785 62.2931 19.6057C61.6597 20.0476 60.9821 20.3864 60.2456 20.6073C59.5091 20.843 58.7579 20.9608 57.9772 20.9756C56.9314 20.9756 55.8855 20.7841 54.8397 20.4158C53.7791 20.0476 53.0574 19.5615 52.6744 18.9576C52.6302 18.8839 52.6155 18.8102 52.6155 18.7366L53.0868 13.8904C53.0868 13.802 53.131 13.7578 53.2194 13.7578H53.6613C53.7497 13.7578 53.7939 13.802 53.7939 13.8904C53.8381 17.9264 55.2964 19.9445 58.1687 19.9445C59.2587 19.9445 60.172 19.6057 60.9085 18.9428C61.6303 18.28 61.9985 17.3962 61.9985 16.3209C61.9985 15.9674 61.9691 15.6286 61.9101 15.3045C61.8512 14.9804 61.7481 14.6711 61.6155 14.3912C61.4682 14.1114 61.3209 13.8462 61.1884 13.6106C61.0558 13.3896 60.8496 13.1539 60.5992 12.9035C60.3487 12.6531 60.1278 12.4469 59.951 12.2848C59.7595 12.1228 59.5091 11.9313 59.1703 11.7104C58.8316 11.4894 58.5811 11.3274 58.3897 11.1948C58.1982 11.077 57.9036 10.9002 57.5353 10.6793C56.9756 10.3405 56.5337 10.0753 56.2243 9.85439C55.9003 9.64817 55.5173 9.3683 55.0901 9.00005C54.6482 8.64653 54.3094 8.30774 54.0885 7.96895C53.8528 7.64489 53.6466 7.24718 53.4846 6.77582C53.3078 6.31918 53.2194 5.81836 53.2194 5.28808C53.2194 3.53521 53.7644 2.22424 54.8397 1.3257C55.915 0.441902 57.3733 0 59.2145 0C59.9068 0 60.6286 0.117841 61.4093 0.368251C62.19 0.618662 62.8676 0.957453 63.4715 1.36989C63.5304 1.39935 63.5599 1.45827 63.5599 1.54665L63.4126 6.5254C63.4126 6.59905 63.3684 6.64324 63.2948 6.64324H62.8676C62.7939 6.64324 62.7497 6.59905 62.7203 6.5254Z" fill="var(--fill-0, #F5F2EB)"></path><path d="M33.4667 0.515493H46.6501C46.7385 0.515493 46.7827 0.559684 46.7827 0.633334L46.9889 6.73157C46.9889 6.80522 46.9447 6.84941 46.8711 6.84941H46.5323C46.4586 6.84941 46.4144 6.80522 46.385 6.73157C46.2377 5.90669 46.1051 5.25856 46.002 4.7872C45.8989 4.33057 45.7516 3.87394 45.5748 3.43204C45.3833 3.00487 45.2066 2.68081 45.0151 2.48932C44.8236 2.29783 44.5437 2.10634 44.1902 1.94431C43.8219 1.78228 43.439 1.66444 43.0265 1.60552C42.6141 1.56133 42.0691 1.51714 41.4062 1.48768V17.5876C41.4062 18.3683 41.5682 18.8986 41.8923 19.1932C42.2016 19.5025 42.8645 19.6793 43.8809 19.7382C43.9545 19.7382 43.9987 19.7824 43.9987 19.856V20.3421C43.9987 20.4158 43.9545 20.46 43.8809 20.46C42.7908 20.401 41.6419 20.3716 40.4488 20.3716C39.0936 20.3716 37.7826 20.401 36.5158 20.46C36.4422 20.46 36.398 20.4158 36.398 20.3421V19.856C36.398 19.7824 36.4422 19.7382 36.5158 19.7382H36.7957C37.4733 19.7235 37.9741 19.5467 38.2834 19.2079C38.5928 18.8838 38.7548 18.3536 38.7548 17.6171V1.48768C38.092 1.51714 37.5469 1.56133 37.1345 1.62025C36.7221 1.67917 36.3391 1.78228 35.9708 1.94431C35.6026 2.10634 35.3227 2.29783 35.1312 2.50405C34.9397 2.71027 34.7482 3.0196 34.5715 3.44677C34.38 3.87394 34.2327 4.33057 34.1296 4.80193C34.0117 5.28802 33.8792 5.92142 33.7466 6.73157C33.7171 6.80522 33.6729 6.84941 33.5993 6.84941H33.231C33.1574 6.84941 33.1132 6.80522 33.1132 6.73157L33.3489 0.633334C33.3489 0.559684 33.3931 0.515493 33.4667 0.515493Z" fill="var(--fill-0, #F5F2EB)"></path><path d="M16.9345 9.0649C17.117 8.06503 17.3639 7.12185 17.6754 6.23537C17.9723 5.34624 18.3879 4.46377 18.9167 3.61694C19.4455 2.77011 20.0401 2.05507 20.7006 1.47182C21.3583 0.903058 22.1688 0.481949 23.115 0.220339C24.0611 -0.0412714 25.0835 -0.0643687 26.1703 0.133912C27.2716 0.334836 28.22 0.717482 29.0272 1.29898C29.82 1.87784 30.4296 2.55804 30.8586 3.32508C31.2705 4.10397 31.5744 4.98292 31.7701 5.96193C31.9658 6.94095 32.0429 7.91331 32.0213 8.85267C31.997 9.80652 31.895 10.7761 31.7152 11.7615C31.5354 12.7469 31.2885 13.6901 30.977 14.5765C30.6655 15.463 30.2526 16.331 29.7265 17.1634C29.1976 18.0102 28.6057 18.7107 27.9479 19.2795C27.2756 19.8456 26.4678 20.2522 25.5243 20.4993C24.5637 20.7583 23.5413 20.7814 22.44 20.5805C21.3532 20.3822 20.4048 19.9996 19.612 19.4207C18.8166 18.8563 18.2044 18.1906 17.7898 17.4262C17.3753 16.6618 17.0688 15.7974 16.8731 14.8184C16.6747 13.8538 16.5949 12.896 16.6311 11.9593C16.6527 11.0199 16.7548 10.0503 16.9345 9.0649ZM19.697 9.59883C19.5992 10.135 19.5185 10.6593 19.4549 11.1718C19.3914 11.6842 19.3436 12.2745 19.3142 12.9279C19.2849 13.5814 19.2924 14.1966 19.325 14.7566C19.3549 15.331 19.4455 15.9016 19.594 16.4827C19.7281 17.0611 19.9188 17.5751 20.1544 18.0074C20.3899 18.4396 20.7257 18.8153 21.1471 19.1318C21.554 19.4456 22.04 19.654 22.5907 19.7545C23.1558 19.8576 23.6986 19.8369 24.2046 19.6896C24.708 19.5568 25.1548 19.3239 25.5423 19.0053C25.9127 18.6986 26.27 18.2996 26.6142 17.8084C26.9438 17.3145 27.23 16.8127 27.4583 16.3003C27.6865 15.788 27.9108 15.215 28.1167 14.5788C28.32 13.957 28.4837 13.388 28.6079 12.8716C28.7149 12.3671 28.8272 11.8335 28.9277 11.2829C29.0413 10.6598 29.1287 10.0169 29.1989 9.38587C29.2691 8.75483 29.3064 8.0579 29.328 7.28322C29.3495 6.50855 29.3025 5.78126 29.1843 5.11586C29.0662 4.45045 28.8992 3.8061 28.6783 3.21177C28.4428 2.61481 28.0992 2.11791 27.6476 1.72107C27.1814 1.32158 26.6309 1.05644 25.9933 0.940111C25.4571 0.842293 24.9578 0.870976 24.4636 1.03536C23.9694 1.19975 23.5227 1.43268 23.147 1.76841C22.7713 2.10415 22.4087 2.53211 22.079 3.02598C21.7322 3.53168 21.4434 4.04797 21.2099 4.58932C20.9619 5.12802 20.7349 5.71549 20.5316 6.33722C20.3139 6.95631 20.1502 7.52537 20.026 8.04175C19.8992 8.57263 19.7895 9.09166 19.697 9.59883Z" fill="var(--fill-0, #F5F2EB)"></path><path d="M0 20.3421V19.8561C0 19.7824 0.0441908 19.7382 0.117841 19.7382H0.382982C1.06056 19.7235 1.56138 19.5467 1.88544 19.2079C2.19477 18.8839 2.35681 18.3536 2.35681 17.6171V3.2995C2.35681 2.48935 2.18004 1.92961 1.84125 1.64974C1.50246 1.36987 0.927993 1.2373 0.117841 1.2373C0.0441908 1.2373 0 1.19311 0 1.11946V0.633365C0 0.559715 0.0441908 0.515524 0.117841 0.515524C0.883802 0.559714 1.51719 0.574445 2.01801 0.574445C2.10639 0.574445 2.93128 0.544985 4.49266 0.486064C4.58104 0.486064 4.63996 0.515525 4.66942 0.574445L12.9772 15.3045V3.32896C12.9772 2.60719 12.8151 2.07691 12.4911 1.73812C12.167 1.39933 11.6662 1.2373 10.9739 1.2373H10.7087C10.6351 1.2373 10.5909 1.19311 10.5909 1.11946V0.633365C10.5909 0.559715 10.6351 0.515524 10.7087 0.515524C11.9755 0.574444 13.0066 0.603904 13.8168 0.603904C14.5975 0.603904 15.5254 0.574444 16.6155 0.515524C16.7039 0.515524 16.748 0.559715 16.748 0.633365V1.11946C16.748 1.19311 16.7039 1.2373 16.6155 1.2373C15.5991 1.29622 14.9215 1.47298 14.5975 1.75285C14.2734 2.04745 14.1114 2.57773 14.1114 3.35842V20.3421C14.1114 20.4158 14.0672 20.46 13.9935 20.46H12.9035C12.8151 20.46 12.7562 20.4305 12.7267 20.3716L3.52048 4.44844V17.5876C3.52048 18.3683 3.68251 18.9133 3.99184 19.2079C4.30117 19.5025 4.97875 19.6793 5.99512 19.7382C6.0835 19.7382 6.12769 19.7824 6.12769 19.8561V20.3421C6.12769 20.4158 6.0835 20.46 5.99512 20.46C4.93456 20.4011 4.00657 20.3716 3.22588 20.3716C2.38626 20.3716 1.35516 20.4011 0.117841 20.46C0.0441908 20.46 0 20.4158 0 20.3421Z" fill="var(--fill-0, #F5F2EB)"></path></g></svg>