<svg class="absolute block size-full" fill="none" preserveAspectRatio="none" viewBox="0 0 203.965 59"><g id="5 [Vectorized]"><path d="M89.9351 21.1731C92.6026 21.1365 95.6475 20.9719 98.2615 21.3549C101.245 21.7921 102.909 25.6385 100.676 27.8746C100.376 28.1757 99.9557 28.4199 99.5877 28.6456C102.154 30.1443 103.06 32.4867 101.567 35.1974C99.7147 37.9029 96.8 37.6121 93.9332 37.5981L89.7532 37.5727C89.7341 36.8385 89.7338 36.1006 89.7369 35.3655C89.7566 30.7653 89.6853 26.1598 89.7632 21.5611C89.7659 21.4037 89.8307 21.2861 89.9351 21.1731ZM92.8278 35.3764C94.956 35.159 95.8977 35.7269 98.0804 34.7944C99.0926 33.7213 99.0121 33.1947 98.972 31.7389C98.662 31.2407 98.4936 30.9769 98.1139 30.5343C96.0991 29.8044 94.9242 29.9796 92.8172 30.0188C92.9065 30.6963 92.87 34.5135 92.8278 35.3764ZM92.801 27.7193C94.5545 27.6811 96.4892 27.9538 98.0021 27.1743C98.6928 26.2101 98.9318 24.6853 97.8162 23.949C96.6426 23.1746 94.2771 23.5516 92.853 23.4971C92.9376 24.5188 92.8437 26.6345 92.801 27.7193Z" fill="var(--fill-0, #FEFEFE)" id="Vector"></path><path d="M111.241 21.1559C112.186 21.1434 114.005 21.0389 114.907 21.2812C115.104 21.3533 115.274 21.7996 115.337 21.9902C117.048 27.1683 119.095 32.3615 120.718 37.5564C119.685 37.644 118.564 37.5908 117.523 37.5549C116.868 36.0473 116.458 34.4275 115.853 32.8621C115.308 32.6701 114.795 32.5158 114.243 32.352C113.365 31.9395 111.559 31.5061 110.601 31.3456C110.392 32.2905 109.377 36.9575 108.34 37.5996C108.158 37.7129 106.191 37.5872 105.86 37.4436C105.945 36.362 110.773 21.6394 111.241 21.1559ZM111.314 29.1268C112.113 29.3824 113.056 29.7094 113.862 29.8802C114.348 30.0776 114.777 30.2478 115.278 30.4144C114.87 29.4927 113.137 23.7533 112.956 23.5778C112.533 25.3637 111.898 27.3727 111.314 29.1268Z" fill="var(--fill-0, #FEFEFE)" id="Vector_2"></path><path d="M140.462 21.1398C141.397 21.1372 143.467 20.888 144.278 21.3596C144.513 21.496 149.581 36.1671 149.942 37.5614C148.905 37.6508 147.768 37.5999 146.727 37.5615C146.488 36.9355 144.675 31.2145 144.571 31.1047C142.633 31.5443 141.494 31.8536 139.622 32.5014C139.288 33.9026 138.467 36.1658 137.977 37.5868C137.184 37.6461 135.824 37.5783 134.99 37.5608C135.296 36.1762 139.955 21.7941 140.462 21.1398ZM140.352 29.9095C140.804 29.7974 141.486 29.6505 141.897 29.4744C142.551 29.2141 143.309 29.1292 144.011 28.9798C143.502 27.6794 143.125 26.2663 142.679 24.9408C142.605 24.7225 142.322 23.7127 142.248 23.5828C141.723 25.3574 141.253 27.1354 140.647 28.8864C140.531 29.2212 140.432 29.5642 140.352 29.9095Z" fill="var(--fill-0, #FEFEFE)" id="Vector_3"></path><path d="M158.581 20.9532C162.245 20.6515 164.847 21.6706 165.576 25.5804C164.712 25.6683 163.311 25.6555 162.444 25.5942C162.293 25.0064 162.1 24.5414 161.824 24.0053C160.728 23.186 158.941 22.8598 157.753 23.7426C157.099 24.2285 157.057 24.8255 156.975 25.5912C157.171 26.028 157.384 26.4597 157.807 26.6944C160.758 28.3316 165.452 28.0342 165.974 32.4638C166.125 33.6336 165.791 34.8138 165.051 35.7316C163.765 37.3497 162.21 37.5759 160.325 37.7929C156.901 37.7214 153.821 36.9909 153.459 32.9462L153.561 32.8242C157.387 32.3834 155.821 33.1327 157.794 34.9735C159.531 36.1339 163.508 35.3006 162.722 32.6992C161.69 29.2881 154.683 30.7564 153.984 26.4927C153.405 22.9558 155.487 21.5835 158.581 20.9532Z" fill="var(--fill-0, #FEFEFE)" id="Vector_4"></path><path d="M60.589 21.0648C61.4751 21.0563 63.2072 20.7344 63.5339 21.7017C65.3201 26.9914 67.4792 32.241 69.1841 37.5518C68.5384 37.6654 67.574 37.5928 66.8914 37.5661C66.3377 36.0377 65.7922 34.5064 65.255 32.9721C64.5665 32.6933 63.465 32.4124 62.72 32.2018C61.7092 31.8515 60.1805 31.4344 59.1504 31.2363C58.9736 32.0321 57.4004 37.0909 57.0188 37.4856C56.4514 37.6984 55.5528 37.5945 54.9155 37.5666L59.1941 24.968C59.447 24.24 60.2695 21.5848 60.589 21.0648ZM59.8869 29.1298C60.7888 29.2553 61.9339 29.6841 62.8663 29.9267C63.444 30.1373 63.8609 30.2823 64.4627 30.439C64.3632 30.1083 61.8328 22.8152 61.8901 22.8965L59.8869 29.1298Z" fill="var(--fill-0, #FEFEFE)" id="Vector_5"></path><path d="M78.379 20.8605C81.6904 20.7595 83.8451 21.8792 84.4575 25.3303C83.68 25.3945 83.0103 25.3501 82.2333 25.3141C81.8894 24.15 81.4653 23.1905 80.1949 22.7759C77.5727 21.9201 74.7306 23.3933 76.1443 26.4358C78.6497 28.5081 84.65 28.1099 84.7924 32.6339C84.9202 36.6945 82.0451 37.6247 78.6947 37.7535C76.0794 37.5054 74.1045 37.001 73.1859 34.1873C73.0546 33.7849 72.9147 33.3181 73.1136 32.93C73.5584 32.7918 74.4853 32.8304 74.9864 32.8302C75.3145 33.6216 75.7007 34.7429 76.3738 35.2495C78.4211 36.9717 83.1409 35.9957 82.4852 32.7452C81.6408 28.5586 73.0205 30.6161 73.5276 24.9486C73.798 21.9265 75.692 21.1733 78.379 20.8605Z" fill="var(--fill-0, #FEFEFE)" id="Vector_6"></path><path d="M121.61 21.1731C125.751 21.0428 130.05 21.2557 134.233 21.1087C134.259 21.9437 134.263 22.7794 134.244 23.6148C132.841 23.6928 130.87 23.6464 129.418 23.6532L129.401 32.7639C129.42 34.3609 129.413 35.9581 129.378 37.5549C128.572 37.6695 127.091 37.5916 126.224 37.57C126.126 35.977 126.179 33.9445 126.18 32.332L126.166 23.636C124.583 23.6385 122.998 23.6315 121.415 23.6152C121.398 22.9795 121.313 21.6998 121.61 21.1731Z" fill="var(--fill-0, #FEFEFE)" id="Vector_7"></path><path d="M40.9967 21.082C41.7682 21.0575 42.2451 21.03 43.0113 21.1386C43.1021 26.0011 43.0072 30.9625 43.057 35.8469L51.3811 35.86C51.3333 36.4641 51.3011 36.9588 51.1767 37.5573C50.6898 37.6761 48.5659 37.6045 47.9567 37.6013L40.892 37.5729C40.8067 35.818 40.6867 21.9216 40.9967 21.082Z" fill="var(--fill-0, #FEFEFE)" id="Vector_8"></path></g></svg>