<svg class="absolute block size-full" fill="none" preserveAspectRatio="none" viewBox="0 0 139 40.127"><path d="M70.1734 30.0605C69.7219 29.2605 70.0071 28.2545 70.7992 27.803C71.0447 27.6604 71.3299 27.5891 71.615 27.5891C71.7655 27.5891 71.916 27.6129 72.0586 27.6525C72.4864 27.7713 72.8428 28.0485 73.0567 28.4367C77.54 36.3577 87.5918 39.146 95.5129 34.6626C95.7902 34.5042 96.0595 34.3458 96.3209 34.1715C96.4159 34.1557 96.5268 34.1398 96.6298 34.1161H96.8199V34.0844C97.7625 33.926 98.6497 33.5854 99.4497 33.0943C101.287 31.7794 101.715 30.4565 101.731 30.4011L101.984 29.5773L101.43 30.2348C100.773 30.9793 99.9725 31.5813 99.0853 32.0091C98.5388 32.2546 97.9685 32.4447 97.3823 32.5794C98.6418 29.6803 100.963 27.8901 104.282 27.2485L104.503 27.2089L104.535 27.4307C105.113 31.2883 103.141 34.1161 100.899 34.9082L100.733 34.9557L100.693 34.9953C92.598 42.3382 80.0906 41.7282 72.7477 33.6329C71.7655 32.5477 70.9021 31.3516 70.1813 30.0763L70.1734 30.0605ZM44.2952 34.3933C43.4239 34.0052 43.0358 32.9834 43.4239 32.1121L46.6478 24.8563L41.111 12.5628C40.7149 11.6915 41.111 10.6697 41.9744 10.2736C42.8377 9.87758 43.8675 10.2736 44.2635 11.137L48.533 20.6186L52.747 11.145C53.1352 10.2736 54.157 9.87758 55.0283 10.2657C55.8996 10.6538 56.2957 11.6677 55.9075 12.5391L46.5765 33.4982C46.1884 34.3696 45.1745 34.7656 44.3032 34.3775C44.3032 34.3775 44.3031 34.3775 44.2952 34.3775V34.3933ZM62.2444 28.2624C61.579 28.1911 60.7632 27.502 60.7632 26.797V11.9608H58.973C58.6958 11.9133 58.4344 11.8024 58.2046 11.644C57.6502 11.2479 57.4205 10.543 57.6185 9.89343C57.8324 9.20429 58.4581 8.72903 59.1789 8.70526C59.3215 8.69734 59.4641 8.69734 59.6146 8.69734C59.7651 8.69734 59.9948 8.69734 60.177 8.70526C60.3354 8.70526 60.4938 8.70526 60.6443 8.71318H60.8741L60.8899 8.43595C60.9533 7.2161 61.0325 5.70317 61.4602 4.6972C62.5612 1.95651 65.1752 0.118816 68.1218 0H68.8427L69.809 0.110895C70.4189 0.213869 71.1081 0.324765 71.4883 1.07727C71.7338 1.52877 71.7576 2.07532 71.5437 2.54267C71.314 3.00209 70.8863 3.32685 70.3793 3.42191C70.1021 3.47735 69.809 3.46151 69.5318 3.3823C69.4526 3.36646 69.3654 3.34269 69.2704 3.32685C68.1139 3.1209 66.9178 3.35062 65.9277 3.97638C65.0722 4.60215 64.4623 5.50515 64.2088 6.53489C64.1217 7.15273 64.0742 7.7785 64.0583 8.39634L64.0425 8.70526H67.9159C68.6129 8.72111 69.2308 9.15676 69.4684 9.81421C69.7061 10.4558 69.5239 11.1846 69.0011 11.6361C68.6922 11.8816 68.3119 12.0242 67.9238 12.0321H64.1059V26.7336C64.0425 27.296 63.7098 27.7951 63.2187 28.0644C63.0286 28.1515 62.8306 28.2149 62.6325 28.2545H62.5692C62.5296 28.2545 62.4899 28.2545 62.4503 28.2545H62.3632C62.3315 28.2545 62.2998 28.2545 62.2682 28.2545L62.2444 28.2624ZM16.6903 18.163C16.6903 13.6401 20.3577 9.97264 24.8807 9.97264C29.4036 9.97264 33.0711 13.6401 33.0711 18.163C33.0711 22.686 29.4036 26.3534 24.8807 26.3534C20.3577 26.3534 16.6903 22.686 16.6903 18.163ZM20.1518 18.1393C20.1518 20.8324 22.3934 22.9949 25.1104 22.8682C27.5342 22.7573 29.5066 20.7849 29.6175 18.3611C29.7442 15.6441 27.5738 13.4025 24.8886 13.4025C22.2746 13.4025 20.1518 15.5253 20.1518 18.1393ZM11.597 25.9098C11.1851 25.5772 10.9396 25.0781 10.9396 24.5474V16.9986C10.9554 15.2085 9.65635 13.6797 7.88203 13.4104C7.69984 13.3866 7.50974 13.3708 7.31963 13.3708C6.35326 13.3708 5.41857 13.7193 4.69775 14.3609C3.82643 15.1213 3.32741 16.2144 3.32741 17.3709V24.5474C3.35117 25.49 2.60659 26.2663 1.66398 26.2901C0.721372 26.2663 -0.0232099 25.49 0.000553337 24.5474V3.81796C-0.0152888 3.01793 0.531266 2.32087 1.30753 2.12285C1.79072 2.01195 2.29767 2.13077 2.67788 2.43969C3.0977 2.7803 3.33533 3.28725 3.32741 3.82588V11.0657L3.5888 10.9152C4.72944 10.2578 6.02057 9.90927 7.33547 9.90927C11.2406 9.90927 14.409 13.0777 14.4169 16.9907V24.5237C14.4169 25.3395 13.8704 26.0524 13.0783 26.2505C12.9515 26.2821 12.8169 26.298 12.6822 26.298C12.2861 26.298 11.898 26.1633 11.5891 25.9178L11.597 25.9098ZM36.7148 26.3534C35.9385 26.1633 35.3999 25.4583 35.4157 24.6583V3.71498C35.3999 2.91496 35.9464 2.2179 36.7148 2.01987C36.8336 1.99611 36.9524 1.98027 37.0712 1.98027C37.4435 1.98027 37.7999 2.10701 38.0851 2.33672C38.5049 2.67732 38.7426 3.18427 38.7426 3.72291V24.6504C38.7426 25.189 38.5049 25.696 38.093 26.0366C37.7049 26.3455 37.2059 26.4643 36.7227 26.3534H36.7148ZM131.902 25.5692C127.205 25.2841 125.629 22.7097 125.47 22.4166C125.003 21.6008 125.264 20.5631 126.065 20.072C126.31 19.9136 126.603 19.8265 126.896 19.8265C127.49 19.8661 128.037 20.1512 128.409 20.6106L128.449 20.6502C128.75 20.9909 129.677 22.0127 132.116 22.1236C133.487 22.1869 134.683 21.9097 135.221 21.3948C135.443 21.1968 135.562 20.9037 135.546 20.6106C135.546 19.7393 135.047 19.3908 131.902 18.8997C129.534 18.5353 125.573 17.9254 125.573 14.0599C125.558 12.8163 126.065 11.6202 126.983 10.7727C128.227 9.60827 130.223 9.03003 132.465 9.18053C134.089 9.2835 135.657 9.75877 137.059 10.5746C137.851 11.0974 138.073 12.1668 137.55 12.9668C137.035 13.7431 136.005 13.9728 135.213 13.4896C134.295 12.9906 133.273 12.6896 132.227 12.6262C130.991 12.5391 129.859 12.8084 129.336 13.2916C129.122 13.4896 129.003 13.7668 129.027 14.0599C129.027 14.6778 129.36 15.0184 132.433 15.4936C134.889 15.8738 139 16.5075 139 20.6106C139.015 21.8622 138.501 23.0583 137.59 23.9058C136.441 24.9831 134.675 25.5851 132.599 25.5851C132.37 25.5851 132.148 25.5851 131.91 25.5692H131.902ZM114.151 25.4663C110.935 24.9672 108.361 22.385 107.743 19.0343C107.26 16.5551 107.909 13.9886 109.509 12.0321C110.935 10.2816 113.066 9.26766 115.324 9.25182C116.813 9.25182 118.27 9.70332 119.498 10.5509L119.775 10.7331V2.74069C119.759 1.94066 120.306 1.23569 121.082 1.04558C121.565 0.934688 122.064 1.0535 122.453 1.36243C122.872 1.70303 123.11 2.20998 123.102 2.74861V23.7157C123.11 24.5078 122.579 25.1969 121.819 25.395C121.344 25.5059 120.837 25.395 120.456 25.0861C120.203 24.8801 120.013 24.6108 119.91 24.3098L119.831 24.088L119.641 24.2227C118.381 25.1177 116.876 25.6009 115.331 25.593C114.935 25.593 114.547 25.5613 114.159 25.4979V25.4583L114.151 25.4663ZM110.42 17.3709C110.515 19.9849 112.71 22.0285 115.324 21.9335C117.938 21.8384 119.981 19.6443 119.886 17.0303C119.791 14.4797 117.7 12.4599 115.149 12.4599C112.488 12.5153 110.373 14.7094 110.412 17.3709H110.42ZM88.9543 17.664C88.9543 13.3153 92.4792 9.78253 96.8357 9.79045C101.184 9.79045 104.717 13.3153 104.709 17.6719C104.701 22.0285 101.184 25.5534 96.8278 25.5455C92.4791 25.5455 88.9543 22.0127 88.9543 17.664ZM100.883 19.169L101.081 19.3274L101.161 19.0898C101.961 16.6976 100.677 14.1154 98.2853 13.3074C95.7902 12.4678 93.0732 13.9094 92.4079 16.5075C92.1861 17.3788 92.2415 18.2898 92.5267 19.1373L92.59 19.3195L92.7881 19.1611C95.1644 17.2759 98.5229 17.2759 100.891 19.1611L100.883 19.169ZM70.0625 17.664C70.0625 13.3153 73.5874 9.79045 77.9361 9.79045C82.2847 9.79045 85.8096 13.3153 85.8096 17.664C85.8096 22.0127 82.2847 25.5376 77.9361 25.5376C73.5874 25.5376 70.0625 22.0048 70.0625 17.664ZM81.9916 19.2007L82.1897 19.3591L82.2689 19.1215C83.0689 16.7293 81.7857 14.147 79.3935 13.3391C77.0014 12.5391 74.4191 13.8223 73.6111 16.2144C73.2943 17.1571 73.2943 18.1789 73.6111 19.1215L73.6903 19.3591L73.8884 19.2007C75.0369 18.2818 76.4707 17.7828 77.944 17.7907C79.4173 17.7907 80.8431 18.2898 81.9916 19.2007Z" fill="var(--fill-0, #F5F2EB)" id="Caminho_5794"></path></svg>