<svg class="absolute block size-full" fill="none" preserveAspectRatio="none" viewBox="0 0 174 103.457"><g id="Vector"><path d="M43.5425 96.6056H50.061V98.0406H47.5749V103.316H46.0287V98.0406H43.5425V96.6056Z" fill="var(--fill-0, #F5F2EB)"></path><path d="M37.8969 101.113V101.244C37.8969 101.527 38.1091 101.719 38.4528 101.851C38.7762 101.972 39.1905 102.012 39.4836 102.012C39.8171 102.012 40.2213 101.982 40.5548 101.861C40.8681 101.729 41.0703 101.537 41.0703 101.214C41.0703 100.941 40.858 100.79 40.5043 100.699C40.3224 100.648 40.1203 100.628 39.9384 100.618C39.7463 100.608 39.5745 100.608 39.4331 100.608C37.9677 100.608 36.4821 100.345 36.4821 98.6268C36.4821 96.9593 37.9677 96.4742 39.4836 96.4742C40.9086 96.4742 42.4952 97.1109 42.4952 98.6672V98.8188H40.949V98.6672C40.949 98.3943 40.757 98.2023 40.4639 98.0811C40.1506 97.9598 39.7767 97.9093 39.4836 97.9093C39.1703 97.9093 38.7964 97.9396 38.5033 98.0507C38.2102 98.1518 38.0283 98.3337 38.0283 98.6268C38.0283 98.8896 38.2203 99.031 38.5639 99.1018C38.7256 99.1422 38.9075 99.1624 39.0793 99.1725C39.2511 99.1826 39.4331 99.1826 39.5543 99.1826C41.05 99.1826 42.6266 99.4454 42.6266 101.214C42.6266 102.952 41.05 103.447 39.4836 103.447C38.0687 103.447 36.3608 102.851 36.3608 101.244V101.113H37.8969Z" fill="var(--fill-0, #F5F2EB)"></path><path d="M34.9881 98.0406H30.1472V99.2433H33.745V100.668H30.1472V101.891H34.9881V103.316H28.601V96.6056H34.9881V98.0406Z" fill="var(--fill-0, #F5F2EB)"></path><path d="M140.59 102.042V100.829L144.268 96.6149H145.612V100.607H146.734V102.042H145.612V103.325H144.076V102.042H140.59ZM142.631 100.607H144.076V98.9595L142.631 100.607Z" fill="var(--fill-0, #F5F2EB)"></path><path d="M134.192 96.6149H139.457V97.8176L136.921 103.325H135.243L137.648 98.05H134.192V96.6149Z" fill="var(--fill-0, #F5F2EB)"></path><path d="M128.602 101.183L128.612 101.314C128.612 101.516 128.774 101.668 129.057 101.789C129.32 101.911 129.653 101.951 129.876 101.951C130.795 101.951 131.139 101.355 131.24 100.577C130.765 100.819 130.24 100.94 129.694 100.94C128.239 100.94 127.006 100.203 127.006 98.7473C127.006 97.2011 128.309 96.4835 129.825 96.4835C132.18 96.4835 132.887 98.1814 132.887 99.9702C132.887 101.678 132.16 103.457 129.876 103.457C128.532 103.457 127.006 102.77 127.006 101.314V101.183H128.602ZM128.612 98.7473C128.612 99.3436 129.239 99.5053 129.916 99.5053C130.381 99.5053 130.816 99.3234 131.2 99.0707C131.048 98.3633 130.644 97.9792 129.825 97.9792C129.219 97.9792 128.612 98.2016 128.612 98.7473Z" fill="var(--fill-0, #F5F2EB)"></path><path d="M125.45 103.325H123.904V96.6149H125.45V103.325Z" fill="var(--fill-0, #F5F2EB)"></path><path d="M142.787 80.2329L145.528 76.9602V51.4743L142.787 48.1608H159.887C166.023 48.1608 171.014 52.4152 171.014 57.6515V58.4287C171.014 61.1696 168.928 64.2377 165.614 66.0786C167.005 66.9377 167.414 69.0649 167.864 72.7057C168.314 76.3875 170.564 79.7829 174 79.0056C173.427 79.9056 172.282 80.4374 169.255 80.4374C163.896 80.4374 161.85 77.2466 161.441 72.5012C161.114 68.7376 159.437 67.7558 157.187 67.7558H157.269H151.869V76.9602L154.61 80.2329H142.787ZM164.673 57.3651C164.673 52.6198 161.278 50.6562 157.105 50.6562H151.869V65.2604H157.105C161.278 65.2195 164.673 62.1105 164.673 57.3651Z" fill="var(--fill-0, #F5F2EB)"></path><path d="M119.061 48.8568C128.961 48.8568 136.979 56.0976 136.979 65.0156C136.979 73.9336 128.961 81.1744 119.061 81.1744C109.202 81.1744 101.184 73.9336 101.184 65.0156C101.184 56.0976 109.202 48.8568 119.061 48.8568ZM119.43 78.6381C126.752 78.6381 130.638 71.6019 130.638 65.3838C130.638 59.1248 126.098 51.3932 118.734 51.3932C111.412 51.3932 107.525 58.3885 107.525 64.6474C107.525 70.9064 112.066 78.6381 119.43 78.6381Z" fill="var(--fill-0, #F5F2EB)"></path><path d="M88.3281 48.325H97.9007L94.0144 51.6386L88.9008 63.9929V77.1245L91.6417 80.438H79.8192L82.5601 77.1245V63.952L76.2602 51.6386L72.3739 48.325H86.2827L83.2555 51.3932L87.7145 60.1884L91.3553 51.3932L88.3281 48.325Z" fill="var(--fill-0, #F5F2EB)"></path><path d="M40.2225 48.325H64.4811V56.6294L60.1858 50.8613H49.2633V60.7612H57.0358L60.6767 57.5703V66.5701L57.0358 63.3384H49.2633V77.9017H60.1858L64.4811 72.1337V80.438H40.2225L42.9225 77.1245V51.6386L40.2225 48.325Z" fill="var(--fill-0, #F5F2EB)"></path><path d="M18.8996 48.9882H30.7221L27.9813 52.3018V77.7877L30.7221 81.1012H18.8996L21.6405 77.7877V64.0016L9.08164 65.477L9.04073 77.7877L11.7816 81.1012H0L2.69995 77.7877V52.3018L0 48.9882H11.7816L9.08164 52.3018V63.0024L21.6405 61.4653V52.3018L18.8996 48.9882Z" fill="var(--fill-0, #F5F2EB)"></path><path clip-rule="evenodd" d="M103.208 1.30693C103.262 1.35916 103.27 1.45442 103.23 1.73021C103.206 1.92152 103.174 2.26452 103.164 2.4864C103.143 2.8404 103.153 2.89914 103.226 2.92012C103.274 2.93319 103.356 2.98486 103.413 3.02862C103.468 3.06962 103.542 3.15793 103.574 3.21622C103.604 3.27736 103.651 3.41111 103.673 3.5145C103.695 3.6179 103.715 3.78025 103.711 3.87574C103.71 3.96836 103.732 4.06614 103.754 4.08814C103.777 4.11013 103.833 4.22407 103.874 4.33548C103.919 4.44965 103.953 4.60892 103.952 4.69593C103.951 4.78295 103.92 4.93509 103.883 5.03686C103.843 5.1471 103.759 5.28629 103.668 5.38071C103.586 5.46655 103.448 5.57595 103.359 5.61701C103.27 5.66369 103.192 5.71575 103.184 5.74117C103.176 5.76658 103.2 5.81101 103.237 5.84675C103.271 5.87974 103.327 5.98246 103.362 6.07154C103.397 6.16063 103.424 6.33971 103.418 6.4661C103.415 6.59525 103.374 6.80372 103.329 6.92529C103.278 7.06381 103.18 7.23413 103.071 7.36541C102.945 7.51386 102.829 7.6172 102.679 7.70438C102.56 7.77131 102.354 7.85401 102.22 7.88476C102.088 7.91264 101.971 7.94866 101.96 7.96011C101.947 7.97441 102.056 8.11253 102.197 8.26967C102.383 8.47079 102.513 8.66181 102.644 8.90893C102.746 9.10052 102.864 9.38999 102.91 9.54904C102.958 9.70523 103.003 9.97934 103.014 10.1503C103.026 10.3268 103.018 10.6104 102.999 10.7904C102.977 10.9676 102.9 11.3003 102.823 11.5291C102.744 11.7777 102.596 12.1089 102.463 12.3389C102.274 12.6738 102.183 12.7907 101.845 13.1482C101.606 13.3972 101.353 13.6267 101.214 13.7249C101.084 13.8145 100.846 13.954 100.679 14.0359C100.515 14.1205 100.234 14.23 100.052 14.2813C99.8738 14.3354 99.5606 14.3866 99.3503 14.3992C99.1429 14.409 98.8142 14.3903 98.6254 14.352C98.4339 14.3166 98.1289 14.2216 97.9477 14.1411C97.7665 14.0605 97.4941 13.9088 97.3376 13.8025C97.1811 13.6962 96.9815 13.5374 96.89 13.4495C96.8013 13.3643 96.7241 13.2957 96.7214 13.2985C96.7159 13.3042 96.6729 13.4005 96.6274 13.5109C96.5711 13.6439 96.473 13.7862 96.3548 13.9092C96.2118 14.058 96.1177 14.1216 95.9617 14.1808C95.8503 14.2223 95.6629 14.2514 95.5506 14.248C95.4382 14.2446 95.2523 14.2091 95.1393 14.172C95.0206 14.1295 94.8787 14.0482 94.6755 13.853L94.4845 13.9831C94.3765 14.0554 94.193 14.1377 94.0728 14.1653C93.9528 14.1986 93.7369 14.2057 93.5907 14.1918C93.4501 14.1778 93.3036 14.1471 93.2696 14.1309C93.2355 14.1091 93.1988 14.1014 93.1879 14.1129C93.1741 14.1272 93.1445 14.1923 93.1263 14.2629C93.1052 14.3306 93.0565 14.4214 93.018 14.4615C92.9796 14.5015 92.8713 14.5626 92.6012 14.6662L92.5928 14.8067C92.586 14.8882 92.5546 15.0011 92.5221 15.0579C92.4804 15.1279 92.4077 15.1864 92.3039 15.2334C92.2177 15.2716 92.0977 15.3049 92.0359 15.3061C91.9237 15.3084 91.9237 15.3084 91.9214 15.4712C91.9232 15.5609 91.8836 15.688 91.84 15.7506C91.7964 15.8132 91.7055 15.902 91.6419 15.9454C91.5698 15.9918 91.4357 16.0225 91.3151 16.0221C91.2027 16.0187 91.0791 16.01 91.034 15.9997C90.9691 15.9813 90.6555 16.2963 87.1797 19.8568C85.0982 21.989 82.4749 24.6794 81.3475 25.8356C80.2201 26.9919 77.9075 29.3589 76.2109 31.0962C74.5141 32.8279 73.106 34.2592 73.0837 34.2653C73.0614 34.2713 72.9487 34.2511 72.8301 34.2142C72.7144 34.1801 72.5247 34.0969 72.414 34.0345C72.3005 33.9695 72.1639 33.8768 72.1153 33.8301C72.0638 33.7806 72.0183 33.7534 72.0131 33.7704C72.005 33.7902 71.9769 33.7851 71.9426 33.7577C71.9085 33.736 71.8938 33.6998 71.9075 33.6855C71.9213 33.6712 71.8835 33.6074 71.8206 33.5469C71.7576 33.4864 71.651 33.3455 71.5842 33.2318C71.5202 33.1208 71.4412 32.9568 71.4114 32.8732C71.3816 32.784 71.3539 32.6639 71.3527 32.6022C71.3505 32.4956 71.3862 32.4528 72.8348 30.9449L72.5117 30.6455C72.2403 30.4012 72.1884 30.3349 72.1984 30.273C72.2058 30.2195 72.4881 29.8855 73.0896 29.2309C73.5757 28.702 73.9708 28.2563 73.9734 28.2422C73.973 28.2254 73.8739 28.1797 73.758 28.1399C73.6393 28.0974 73.3285 27.9914 72.6025 27.7505L71.8741 28.5088C71.2088 29.2012 71.1371 29.2643 71.0722 29.246C71.0299 29.2328 70.8847 29.1319 70.7506 29.0195C70.6164 28.9072 70.0537 28.4105 69.5021 27.9136C68.7421 27.2329 68.4874 26.9882 68.4308 26.8238L69.3517 25.8653C70.1544 25.0298 70.2838 24.9066 70.3596 24.9079C70.4269 24.9065 70.5239 24.9832 70.7928 25.2416C71.0931 25.5246 71.145 25.5909 71.1467 25.675C71.1486 25.7704 71.1102 25.8161 70.2015 26.6817L70.5183 26.9476C70.6924 27.0928 70.8607 27.2326 70.8893 27.2601C70.9351 27.3041 71.0232 27.2181 73.7281 24.4027L73.4429 24.1727C73.286 24.0439 73.1293 23.9264 73.1009 23.9101C73.0556 23.8886 72.9562 23.9691 72.5706 24.336C72.1575 24.726 72.0857 24.7835 72.0208 24.7652C71.9812 24.7491 71.8046 24.618 71.6304 24.4671C71.4562 24.3163 71.2846 24.1569 71.1808 24.0187L73.3255 21.815L73.8284 22.2652C74.1084 22.5121 74.683 23.0422 75.8984 24.1768L74.8981 25.2351C74.1148 26.0562 73.9008 26.3018 73.9295 26.3293C73.9466 26.3458 74.077 26.4105 74.2157 26.4723C74.3545 26.5341 74.6062 26.6328 74.7758 26.6968C74.9454 26.7551 75.1346 26.8159 75.1938 26.8287C75.298 26.8463 75.3064 26.8433 75.4784 26.607C75.5739 26.4732 75.895 26.1103 76.1863 25.8015C76.4775 25.4926 76.7521 25.1896 76.7959 25.1326C76.8559 25.0472 76.8865 25.0326 76.9628 25.0619C77.0109 25.0806 77.2274 25.2446 77.8355 25.7628L81.3072 22.1379C83.2176 20.1437 85.7268 17.509 88.9884 14.0454L88.9497 13.9311C88.9259 13.8643 88.9202 13.7213 88.9404 13.6086C88.9598 13.4567 89.0003 13.3745 89.0882 13.283C89.1515 13.2171 89.2622 13.142 89.3291 13.1182C89.3987 13.0915 89.4827 13.0842 89.5222 13.0947C89.5759 13.1132 89.5922 13.0849 89.6305 12.8961C89.6609 12.7327 89.704 12.642 89.7947 12.5476C89.8964 12.4418 89.9521 12.4182 90.255 12.4121L90.2914 12.2655C90.3066 12.1866 90.3549 12.0734 90.3903 12.0194C90.4339 11.9568 90.5226 11.8989 90.6227 11.8576C90.7147 11.8249 90.7871 11.7953 90.7841 11.787C90.7812 11.7842 90.7541 11.6922 90.7211 11.5834C90.688 11.4746 90.6671 11.2674 90.6697 11.1214C90.6724 10.9754 90.716 10.7697 90.7616 10.665C90.8101 10.563 90.8779 10.4466 90.9164 10.4065C90.9796 10.3407 90.9737 10.324 90.8385 10.1611C90.7465 10.0507 90.6592 9.89531 90.6143 9.75309C90.5724 9.62485 90.543 9.41497 90.5516 9.28572C90.5599 9.13963 90.6043 8.97318 90.6691 8.8484C90.7341 8.72924 90.8353 8.59533 90.9292 8.52049C91.0119 8.44587 91.1617 8.35869 91.2647 8.32014C91.3678 8.2816 91.4567 8.24053 91.4705 8.22623C91.4815 8.21478 91.3839 8.10449 91.2551 7.98079C91.1235 7.85434 90.9396 7.63914 90.8443 7.50354C90.749 7.36795 90.6182 7.14327 90.5536 7.00425C90.4891 6.86523 90.3999 6.61446 90.3516 6.44145C90.3032 6.26843 90.266 5.95208 90.2644 5.73042C90.26 5.51163 90.2981 5.17412 90.3448 4.98237C90.3914 4.785 90.4948 4.48267 90.5753 4.30146C90.6587 4.123 90.7968 3.87049 90.8784 3.73977C90.9654 3.60333 91.1929 3.33219 91.4184 3.10318C91.7401 2.76842 91.8671 2.66485 92.1829 2.4621C92.436 2.30176 92.7158 2.16707 93.0223 2.05804C93.2731 1.96883 93.6415 1.87166 93.843 1.84518C94.0446 1.81869 94.3446 1.80988 94.5105 1.8262C94.6764 1.84252 94.9497 1.89598 95.1161 1.94036C95.2827 1.99034 95.5316 2.08638 95.6734 2.16211C95.818 2.23499 96.0682 2.39835 96.2335 2.52412C96.396 2.65276 96.5554 2.76743 96.581 2.78095C96.6149 2.79149 96.631 2.7575 96.6402 2.65629C96.6471 2.58039 96.6832 2.42252 96.7174 2.30678C96.7782 2.11755 96.8191 2.0578 97.0994 1.76596C97.3991 1.45408 97.4295 1.43383 97.6692 1.35046C97.8085 1.30277 98.0239 1.26759 98.1475 1.27073C98.2851 1.27639 98.4431 1.31813 98.5792 1.38837C98.6926 1.44783 98.7918 1.49916 98.7976 1.50466C98.8032 1.50455 98.8327 1.43941 98.8676 1.35734C98.8995 1.27251 99.0116 1.12154 99.127 1.00137C99.2975 0.823974 99.3612 0.786217 99.5565 0.726185C99.7072 0.683882 99.8585 0.675239 100.005 0.70598C100.126 0.728811 100.27 0.779243 100.322 0.817503C100.376 0.852902 100.545 0.888804 100.691 0.891494C100.84 0.896933 101.053 0.931935 101.169 0.966099C101.285 1.00587 101.407 1.06236 101.444 1.0981C101.478 1.13109 101.534 1.22259 101.625 1.43684L102.104 1.38516C102.364 1.3603 102.706 1.31418 102.862 1.28859C103.069 1.25078 103.156 1.25745 103.208 1.30693ZM99.5641 2.64827C99.4687 2.65018 99.3277 2.61371 99.2567 2.57304C99.1375 2.50808 99.1151 2.50853 99.0772 2.57664C99.0529 2.62483 98.9847 2.72441 98.9217 2.80144C98.8616 2.88121 98.7625 2.97861 98.7072 3.019C98.6492 3.06226 98.5124 3.10147 98.4088 3.11197C98.2817 3.11825 98.2186 3.1401 98.2193 3.1775C98.2201 3.21677 98.2912 3.26305 98.4382 3.31623C98.5626 3.36425 98.7568 3.39123 98.8998 3.38556C99.0343 3.37726 99.2272 3.34253 99.3331 3.30673C99.4595 3.26305 99.5916 3.17902 99.7294 3.05466C99.8423 2.94857 99.963 2.81146 100.004 2.7461C100.042 2.67799 100.063 2.60461 100.051 2.5824C100.039 2.55457 99.9637 2.5645 99.8857 2.59412C99.805 2.62661 99.6596 2.65197 99.567 2.65102L99.5641 2.64827ZM101.534 4.87062C101.476 4.95315 101.393 5.126 101.345 5.26165C101.297 5.3973 101.268 5.59994 101.279 5.73161C101.284 5.85778 101.321 6.03663 101.36 6.13408C101.395 6.22878 101.448 6.32875 101.476 6.35624C101.502 6.38098 101.533 6.39439 101.547 6.38008C101.561 6.37138 101.565 6.30956 101.561 6.2451C101.557 6.18064 101.58 6.05391 101.612 5.96347C101.643 5.87304 101.714 5.74815 101.772 5.68807C101.827 5.63084 101.937 5.55567 102.013 5.52329L102.152 5.46439C102.019 5.14433 101.985 4.97384 101.988 4.87835C101.992 4.78848 102.021 4.67286 102.051 4.62455C102.081 4.57625 102.088 4.52278 102.065 4.50079C102.036 4.4733 101.956 4.50579 101.831 4.58966C101.726 4.66473 101.594 4.79085 101.534 4.87062ZM99.1453 4.8595C99.0862 4.84666 98.9728 4.7928 98.8903 4.73552C98.7792 4.65076 98.6861 4.62737 98.4755 4.62316C98.3296 4.62047 98.0985 4.57459 97.9629 4.52679C97.8272 4.479 97.6515 4.39271 97.569 4.33544C97.4865 4.27816 97.3985 4.2266 97.3786 4.21858C97.3561 4.21342 97.3389 4.33443 97.3393 4.49438C97.3424 4.65146 97.335 4.84243 97.3198 4.92131C97.3101 5.00007 97.2494 5.1893 97.1851 5.34212C97.0944 5.57966 97.0371 5.66218 96.8282 5.87964C96.6166 6.09995 96.5474 6.14904 96.3524 6.22029C96.227 6.26489 96.0005 6.30591 95.8546 6.30883C95.706 6.31461 95.4894 6.28808 95.3681 6.25403C95.2156 6.20657 95.0907 6.13611 94.928 5.99625C94.7881 5.87839 94.6676 5.7461 94.6209 5.65724C94.5772 5.57673 94.5263 5.4178 94.5101 5.30868C94.491 5.19682 94.4929 5.01157 94.5187 4.89881C94.5494 4.74666 94.6006 4.64181 94.7129 4.50767C94.8308 4.3678 94.911 4.30727 95.0613 4.24814C95.195 4.19495 95.2986 4.18446 95.4283 4.21553C95.5242 4.24168 95.6112 4.24274 95.6221 4.22568C95.6301 4.20588 95.6092 4.14176 95.5717 4.08919C95.5369 4.03376 95.4364 3.92072 95.3533 3.83539C95.2702 3.75007 95.1051 3.6299 94.9944 3.56757C94.8808 3.5025 94.694 3.42205 94.5754 3.38514C94.4597 3.35098 94.2514 3.32147 94.1112 3.32428C93.9709 3.32709 93.7501 3.36799 93.6191 3.4127C93.4853 3.46028 93.2879 3.55122 93.1797 3.61232C93.0715 3.67342 92.8807 3.81474 92.7594 3.9238C92.6242 4.04156 92.4679 4.22148 92.3642 4.36948C92.2715 4.50603 92.1499 4.73577 92.0938 4.88C92.0378 5.02424 91.9694 5.25572 91.9413 5.39378C91.9132 5.53185 91.8985 5.77628 91.9101 5.936C91.9217 6.09572 91.9682 6.31648 92.0125 6.42503C92.0596 6.53634 92.1413 6.69185 92.2019 6.77201C92.2624 6.85218 92.3768 6.96214 92.4594 7.01942C92.5533 7.08769 92.6183 7.11164 92.6458 7.08303C92.6715 7.05633 92.6538 7.01365 92.5928 6.95501C92.5413 6.90553 92.4719 6.80589 92.4453 6.73627C92.413 6.66676 92.3849 6.52421 92.3856 6.42037C92.3835 6.31378 92.4003 6.17033 92.4214 6.10255C92.4423 6.02917 92.532 5.88426 92.6224 5.77301C92.7622 5.60465 92.823 5.55853 93.0124 5.48739C93.1404 5.43432 93.3306 5.40245 93.4654 5.41098C93.589 5.41411 93.7664 5.44704 93.8569 5.47891C93.9473 5.51077 94.1088 5.58892 94.2139 5.65135C94.3247 5.71929 94.4703 5.84265 94.5622 5.94745C94.6483 6.04675 94.7553 6.20456 94.8049 6.29617C94.8517 6.39064 94.9084 6.56069 94.9332 6.67805C94.958 6.79541 94.9645 6.98329 94.9556 7.09572C94.9439 7.21101 94.8916 7.40288 94.8434 7.5217C94.7924 7.63777 94.6728 7.83099 94.5742 7.95082C94.4591 8.08783 94.3186 8.21692 94.1745 8.3096C94.0498 8.38786 93.8722 8.48683 93.772 8.52812C93.6718 8.56941 93.4876 8.618 93.3589 8.63741C93.2274 8.65969 93.1102 8.6901 93.0964 8.7044C93.0827 8.71871 93.092 8.76623 93.1237 8.80768C93.1526 8.84639 93.2365 8.97099 93.3144 9.07887C93.3896 9.18962 93.4973 9.3867 93.5505 9.52033C93.6037 9.65396 93.6667 9.85755 93.6915 9.97491C93.7163 10.0923 93.738 10.3332 93.7444 10.5154C93.7453 10.6978 93.7381 10.9 93.7199 10.9705C93.7044 11.0382 93.7057 11.1055 93.72 11.1193C93.7343 11.133 93.8634 11.1304 94.006 11.1079C94.1459 11.0883 94.4124 11.0801 94.5951 11.0961C94.7806 11.1093 95.0792 11.1706 95.2656 11.2286C95.4492 11.2895 95.6984 11.4024 95.8179 11.4842C95.9374 11.566 96.0683 11.6531 96.1137 11.6803C96.1848 11.7266 96.1903 11.7208 96.2269 11.4479C96.2463 11.296 96.29 11.0959 96.3247 11.0082C96.3566 10.9178 96.4374 10.7478 96.5052 10.6314C96.5702 10.5122 96.6931 10.3442 96.7756 10.2583C96.858 10.1725 97.0126 10.0459 97.118 9.98209C97.2234 9.91824 97.3873 9.83919 97.485 9.81198C97.5798 9.78202 97.728 9.7538 97.8093 9.74936C97.8933 9.74207 98.0479 9.75301 98.152 9.77057C98.259 9.78526 98.4199 9.83536 98.519 9.87547C98.6152 9.91844 98.7802 10.0274 98.8859 10.1235C98.9944 10.2167 99.1263 10.3544 99.1812 10.4347C99.236 10.5093 99.3178 10.6705 99.3623 10.7902C99.4067 10.9044 99.4497 11.0944 99.4549 11.2093C99.4599 11.3187 99.43 11.5101 99.3931 11.6287C99.34 11.7813 99.2722 11.8977 99.1677 12.0064C99.0743 12.1037 98.9469 12.1904 98.8439 12.229C98.7464 12.2674 98.5731 12.2989 98.4581 12.304C98.3123 12.307 98.1826 12.2759 98.0521 12.2055C97.9471 12.1487 97.8539 12.1197 97.8459 12.1395C97.8351 12.1622 97.93 12.2753 98.0586 12.3934C98.2503 12.5776 98.3242 12.621 98.5331 12.6842C98.6715 12.7291 98.8967 12.7639 99.0369 12.7611C99.1772 12.7583 99.4067 12.7312 99.5464 12.7004C99.6833 12.6668 99.9229 12.5834 100.073 12.5186C100.223 12.4483 100.453 12.3118 100.583 12.211C100.757 12.0756 100.876 11.9526 101.023 11.7532C101.135 11.6022 101.268 11.3835 101.322 11.2701C101.379 11.154 101.45 10.9421 101.484 10.7983C101.518 10.6545 101.533 10.4325 101.516 10.3065C101.5 10.1806 101.439 9.97415 101.381 9.84624C101.319 9.72119 101.206 9.52983 101.128 9.42195C101.047 9.31693 100.916 9.18487 100.836 9.12473C100.753 9.06745 100.665 9.01029 100.643 8.99952C100.617 8.986 100.578 8.99239 100.561 9.00956C100.545 9.03234 100.544 9.11374 100.562 9.19195C100.581 9.27015 100.589 9.39907 100.579 9.47223C100.567 9.5763 100.516 9.66432 100.373 9.82432C100.205 10.0101 100.156 10.0447 99.9659 10.1047C99.8488 10.1407 99.6527 10.1558 99.5289 10.1415C99.4079 10.1243 99.2187 10.0635 99.1081 10.0068C98.9663 9.93105 98.8692 9.84881 98.7713 9.7273C98.6965 9.63339 98.5915 9.43344 98.538 9.28298C98.4815 9.12416 98.4464 8.9144 98.4522 8.78239C98.4581 8.656 98.4961 8.45599 98.5332 8.34301C98.5729 8.22716 98.6621 8.05419 98.736 7.96011C98.807 7.86328 98.9557 7.71999 99.0635 7.64207C99.1714 7.56414 99.3797 7.45614 99.5273 7.39987C99.6916 7.33765 99.9293 7.29641 100.145 7.28928C100.426 7.27806 100.49 7.26274 100.475 7.20972C100.466 7.17343 100.411 7.08754 100.359 7.01562C100.304 6.94656 100.213 6.76036 100.154 6.59879C100.095 6.43722 100.048 6.20524 100.045 6.08182C100.045 5.94992 100.015 5.83267 99.9779 5.79694C99.9407 5.7612 99.8857 5.67531 99.8563 5.60855C99.824 5.53904 99.8072 5.40188 99.8194 5.30903C99.8287 5.21343 99.884 5.02992 99.9402 4.89691C99.9993 4.76103 100.03 4.63693 100.016 4.62319C99.9991 4.61231 99.8205 4.66078 99.62 4.73776C99.4138 4.81484 99.2017 4.8696 99.1453 4.8595ZM91.9424 10.0717C91.9348 10.1139 91.9523 10.1472 91.9947 10.1604C92.0484 10.179 92.0622 10.1703 92.0666 10.1085C92.0713 10.0635 92.0562 10.0105 92.0363 9.99683C92.0163 9.97758 91.9909 9.96967 91.9799 9.98112C91.9661 9.99542 91.9501 10.035 91.9424 10.0717ZM94.7606 12.7737C94.7555 12.8019 94.7704 12.8437 94.7933 12.8657C94.8162 12.8877 94.8609 12.8812 94.8912 12.8497C94.9214 12.8182 94.9376 12.7842 94.9233 12.7705C94.9118 12.7595 94.8722 12.7434 94.8356 12.7357C94.7989 12.7281 94.7628 12.7428 94.7577 12.771L94.7606 12.7737ZM92.0676 12.6845C92.071 12.7097 92.1056 12.7595 92.1457 12.798C92.1857 12.8365 92.2369 12.8691 92.2592 12.8631C92.2817 12.8626 92.2976 12.8174 92.2994 12.7641C92.2982 12.708 92.2887 12.6548 92.2774 12.6495C92.2688 12.6412 92.2182 12.6366 92.1649 12.6349C92.1116 12.6387 92.0699 12.6592 92.0676 12.6845Z" fill="var(--fill-0, #F5F2EB)" fill-rule="evenodd"></path><path d="M92.5005 13.1104C92.3714 13.2447 92.1323 13.2243 91.9664 13.0649C91.8004 12.9055 91.7706 12.6674 91.8996 12.5331C92.0286 12.3988 92.2678 12.4191 92.4337 12.5785C92.5996 12.7379 92.6295 12.976 92.5005 13.1104Z" fill="var(--fill-0, #F5F2EB)"></path><path d="M92.4734 10.4445C92.3444 10.5788 92.1052 10.5585 91.9393 10.399C91.7734 10.2396 91.7435 10.0015 91.8726 9.8672C92.0016 9.73289 92.2407 9.75323 92.4066 9.91264C92.5726 10.072 92.6024 10.3102 92.4734 10.4445Z" fill="var(--fill-0, #F5F2EB)"></path><path d="M95.2211 13.0838C95.0921 13.2181 94.8529 13.1977 94.687 13.0383C94.5211 12.8789 94.4912 12.6408 94.6202 12.5065C94.7493 12.3722 94.9884 12.3925 95.1543 12.5519C95.3202 12.7113 95.3501 12.9494 95.2211 13.0838Z" fill="var(--fill-0, #F5F2EB)"></path><path clip-rule="evenodd" d="M67.6338 0.440248C67.5767 0.489518 67.5642 0.584245 67.5889 0.86174C67.6029 1.05406 67.6171 1.3983 67.6149 1.62038C67.617 1.97499 67.6043 2.03314 67.5299 2.05019C67.4814 2.0607 67.3963 2.10792 67.3371 2.14859C67.2808 2.18667 67.2015 2.27088 67.1664 2.32739C67.134 2.3869 67.0793 2.51793 67.0522 2.62003C67.025 2.72212 66.9963 2.88318 66.995 2.97873C66.991 3.07127 66.9642 3.16777 66.9402 3.18852C66.9162 3.20926 66.8546 3.32009 66.8073 3.42915C66.7569 3.5408 66.7144 3.69804 66.7109 3.78498C66.7073 3.87193 66.7298 4.02549 66.7616 4.12909C66.7956 4.24129 66.8723 4.38475 66.9579 4.48385C67.0357 4.57395 67.1678 4.69052 67.2544 4.73625C67.3407 4.78758 67.4154 4.84369 67.4219 4.86948C67.4285 4.89528 67.4028 4.93841 67.3638 4.97212C67.3277 5.00324 67.267 5.10288 67.2268 5.18996C67.1867 5.27704 67.1512 5.45448 67.1504 5.58101C67.1466 5.71013 67.1762 5.92047 67.2149 6.04428C67.258 6.18528 67.3465 6.36055 67.449 6.49746C67.567 6.65239 67.6772 6.76173 67.8221 6.85674C67.9377 6.92991 68.139 7.02342 68.2713 7.06124C68.401 7.09605 68.516 7.13824 68.5264 7.15025C68.5394 7.16526 68.4228 7.29738 68.274 7.44683C68.0772 7.63778 67.9371 7.82163 67.793 8.06144C67.6809 8.24733 67.5476 8.53014 67.494 8.68656C67.4377 8.83998 67.3785 9.11132 67.3576 9.28139C67.3363 9.45706 67.3296 9.7407 67.3389 9.92142C67.3511 10.0995 67.4109 10.4359 67.4754 10.6685C67.5413 10.9208 67.6713 11.2595 67.7918 11.4962C67.9635 11.8407 68.0474 11.9622 68.3659 12.3372C68.5916 12.5984 68.8326 12.8411 68.9655 12.9465C69.0907 13.0429 69.3215 13.1948 69.4836 13.2855C69.6428 13.3787 69.9178 13.5029 70.0962 13.5638C70.2716 13.6273 70.5817 13.695 70.7909 13.7188C70.9976 13.7396 71.3268 13.7384 71.5174 13.7101C71.7105 13.6849 72.0201 13.6063 72.2053 13.5355C72.3905 13.4646 72.6706 13.3276 72.8325 13.2297C72.9944 13.1319 73.2022 12.9839 73.2983 12.901C73.3914 12.8206 73.472 12.7562 73.4746 12.7592C73.4798 12.7652 73.5176 12.8636 73.5572 12.9762C73.6063 13.112 73.6968 13.2593 73.8083 13.3884C73.9432 13.5446 74.0338 13.6131 74.1864 13.6805C74.2954 13.7279 74.4811 13.7668 74.5934 13.7694C74.7057 13.772 74.8933 13.7464 75.0081 13.7154C75.1289 13.6792 75.2749 13.6055 75.4882 13.4214L75.672 13.5615C75.776 13.6394 75.955 13.7313 76.0734 13.7653C76.1915 13.8049 76.4067 13.8235 76.5535 13.8173C76.6946 13.8108 76.8426 13.7879 76.8774 13.7736C76.9126 13.7536 76.9496 13.7479 76.96 13.7599C76.9729 13.7749 76.999 13.8415 77.0135 13.9129C77.0309 13.9817 77.0747 14.0749 77.111 14.117C77.1473 14.159 77.2522 14.2258 77.5164 14.3436L77.5173 14.4843C77.5198 14.5661 77.5452 14.6805 77.5747 14.7389C77.6125 14.811 77.682 14.8733 77.7832 14.9258C77.8673 14.9685 77.9853 15.0081 78.0469 15.0126C78.1588 15.0208 78.1588 15.0208 78.1525 15.1835C78.146 15.273 78.1787 15.402 78.219 15.4669C78.2593 15.5317 78.3452 15.6252 78.4065 15.6719C78.476 15.722 78.6083 15.7598 78.7288 15.7658C78.8411 15.7684 78.9651 15.7662 79.0106 15.7583C79.0764 15.7435 79.3729 16.0746 82.6548 19.8145C84.6203 22.0543 87.097 24.88 88.1615 26.0945C89.2259 27.3089 91.4097 29.7953 93.0117 31.6203C94.6142 33.4396 95.9443 34.9436 95.9663 34.9508C95.9883 34.958 96.1018 34.9438 96.2222 34.9133C96.3396 34.8853 96.5335 34.8123 96.6473 34.7559C96.7641 34.697 96.9054 34.6117 96.9565 34.5676C97.0105 34.5209 97.0573 34.4962 97.0617 34.5134C97.0687 34.5336 97.0971 34.5301 97.1327 34.5045C97.1679 34.4846 97.1846 34.4493 97.1716 34.4342C97.1586 34.4192 97.1997 34.3575 97.2658 34.3005C97.3319 34.2434 97.4458 34.1083 97.5186 33.9983C97.5883 33.8909 97.676 33.7313 97.7101 33.6494C97.7447 33.5619 97.7787 33.4435 97.7832 33.3819C97.791 33.2756 97.7576 33.2309 96.391 31.6483L96.7296 31.3665C97.0136 31.1369 97.0689 31.0735 97.0622 31.0111C97.0577 30.9573 96.7935 30.6088 96.2276 29.9232C95.7703 29.3692 95.3993 28.9032 95.3976 28.889C95.3988 28.8722 95.5002 28.8318 95.618 28.7983C95.7388 28.7621 96.0548 28.6727 96.7926 28.4708L97.4798 29.2666C98.1073 29.9933 98.1755 30.0602 98.2413 30.0453C98.2843 30.0344 98.4346 29.9413 98.5745 29.8362C98.7145 29.7312 99.3028 29.2651 99.8799 28.7982C100.675 28.1587 100.942 27.9279 101.008 27.7667L100.139 26.7607C99.3816 25.8838 99.2589 25.7539 99.1832 25.7511C99.116 25.7462 99.0151 25.8176 98.7329 26.0614C98.4179 26.328 98.3627 26.3915 98.3565 26.4755C98.3495 26.5706 98.3854 26.6182 99.2469 27.5309L98.9165 27.7796C98.7349 27.9154 98.5594 28.046 98.5293 28.0719C98.4813 28.1134 98.3979 28.0229 95.8462 25.0679L96.1432 24.8533C96.3068 24.7331 96.4695 24.6241 96.4987 24.6093C96.5451 24.5902 96.6401 24.6759 97.0056 25.0628C97.3974 25.4741 97.4661 25.5354 97.5319 25.5205C97.5723 25.5066 97.7556 25.385 97.9376 25.2436C98.1195 25.1022 98.2993 24.9522 98.4103 24.8196L96.3855 22.5052L95.8595 22.9281C95.5668 23.1598 94.9648 23.6587 93.691 24.7272L94.6337 25.8371C95.3723 26.6986 95.5729 26.9552 95.5429 26.9811C95.5249 26.9967 95.3913 27.0544 95.2494 27.1087C95.1076 27.163 94.851 27.2483 94.6782 27.3032C94.5058 27.3524 94.3136 27.4031 94.2538 27.4128C94.1489 27.4248 94.1407 27.4213 93.9814 27.1762C93.8931 27.0375 93.5917 26.6582 93.3173 26.3342C93.0428 26.0103 92.7847 25.6932 92.744 25.634C92.6886 25.5455 92.6589 25.5293 92.5811 25.5545C92.5321 25.5706 92.3071 25.723 91.6724 26.2081L88.398 22.4041C86.5962 20.3114 84.2302 17.5472 81.157 13.9154L81.2018 13.8033C81.2291 13.7378 81.2423 13.5953 81.2282 13.4818C81.2168 13.329 81.1808 13.2448 81.0978 13.1487C81.0382 13.0796 80.9316 12.9987 80.8661 12.9714C80.798 12.9411 80.7144 12.9293 80.6744 12.9376C80.6198 12.9533 80.6051 12.9241 80.5769 12.7336C80.5552 12.5688 80.517 12.476 80.4314 12.3769C80.3354 12.2658 80.2811 12.2393 79.9789 12.2172L79.9504 12.0688C79.9393 11.9892 79.8972 11.8736 79.8647 11.8178C79.8244 11.753 79.739 11.6904 79.6411 11.6439C79.551 11.6063 79.4803 11.573 79.4838 11.5648C79.4868 11.5622 79.5187 11.4718 79.5575 11.3649C79.5962 11.258 79.6282 11.0522 79.6333 10.9063C79.6383 10.7603 79.6057 10.5526 79.5657 10.4456C79.5227 10.3412 79.4612 10.2213 79.4249 10.1793C79.3652 10.1102 79.3721 10.0938 79.5157 9.93837C79.6134 9.833 79.7088 9.68246 79.7613 9.54283C79.8099 9.41698 79.8504 9.20897 79.8486 9.07943C79.8481 8.93311 79.8126 8.76454 79.7545 8.6365C79.6959 8.51406 79.602 8.37497 79.5122 8.29525C79.4336 8.21635 79.2887 8.12134 79.1878 8.07738C79.0869 8.03342 79.0003 7.98769 78.9873 7.97267C78.9769 7.96066 79.0803 7.85571 79.2154 7.73901C79.3535 7.61973 79.5486 7.41459 79.651 7.28424C79.7534 7.1539 79.8959 6.93647 79.9677 6.80107C80.0395 6.66568 80.1419 6.41999 80.1994 6.24979C80.2568 6.07958 80.3108 5.76565 80.3242 5.54439C80.3402 5.32614 80.32 4.98708 80.2835 4.79312C80.2475 4.59356 80.1603 4.28617 80.0895 4.10094C80.0157 3.91831 79.8912 3.65883 79.8167 3.52396C79.737 3.3831 79.5242 3.10026 79.3111 2.85961C79.0077 2.50825 78.8864 2.39809 78.5818 2.17886C78.3375 2.00531 78.0653 1.85597 77.765 1.73083C77.5193 1.62844 77.1565 1.51185 76.9567 1.47471C76.7569 1.43757 76.4577 1.41284 76.2912 1.42034C76.1246 1.42783 75.8489 1.46671 75.6804 1.50219C75.5114 1.54326 75.2578 1.62596 75.1121 1.69406C74.9639 1.75916 74.7053 1.90901 74.5336 2.02584C74.3645 2.14567 74.1992 2.25172 74.173 2.26386C74.1386 2.2726 74.1243 2.23779 74.1204 2.13624C74.1176 2.06007 74.0899 1.90051 74.0619 1.78312C74.0113 1.59093 73.9736 1.5291 73.7091 1.22278C73.4265 0.895451 73.3971 0.87361 73.1622 0.777638C73.0256 0.722621 72.8124 0.676061 72.6889 0.67264C72.5511 0.670993 72.3912 0.704287 72.2515 0.767201C72.1351 0.820562 72.0333 0.866554 72.0273 0.87174C72.0217 0.87133 71.9956 0.804719 71.9652 0.720909C71.9377 0.634506 71.8339 0.477803 71.725 0.351674C71.5642 0.165485 71.5025 0.124395 71.3107 0.0540873C71.1625 0.00384698 71.0118 -0.0128158 70.8638 0.010105C70.7417 0.0264758 70.5951 0.0691884 70.5418 0.104673C70.486 0.137155 70.3153 0.164033 70.1693 0.158972C70.0204 0.156505 69.8049 0.180104 69.6875 0.208077C69.5697 0.241646 69.4451 0.291595 69.406 0.325306C69.37 0.356424 69.3101 0.444869 69.2076 0.653971L68.7322 0.576955C68.4734 0.538309 68.1349 0.474133 67.9798 0.440272C67.7752 0.391529 67.6879 0.39357 67.6338 0.440248ZM71.2011 1.97306C71.2962 1.98003 71.439 1.9511 71.512 1.91425C71.6345 1.8557 71.6569 1.85734 71.6911 1.92737C71.7128 1.97678 71.7756 2.07984 71.8344 2.1601C71.8902 2.24296 71.984 2.34547 72.0371 2.38874C72.0928 2.43502 72.2272 2.48144 72.3302 2.49741C72.4567 2.51043 72.5187 2.5356 72.5159 2.57291C72.5131 2.61208 72.4396 2.65452 72.29 2.69983C72.1632 2.74118 71.9679 2.75782 71.8254 2.74457C71.6915 2.72914 71.5007 2.68422 71.3968 2.64285C71.273 2.59252 71.1455 2.50161 71.0145 2.37011C70.9074 2.25817 70.7941 2.11485 70.7568 2.04742C70.7226 1.97739 70.7055 1.903 70.7183 1.88144C70.7316 1.85427 70.8065 1.8682 70.8828 1.90192C70.9617 1.93864 71.1056 1.97169 71.1981 1.97565L71.2011 1.97306ZM69.1164 4.08776C69.1692 4.17321 69.2435 4.35025 69.284 4.48825C69.3245 4.62625 69.3434 4.83017 69.3253 4.96107C69.3133 5.08678 69.2666 5.2634 69.2231 5.35867C69.1825 5.45135 69.1248 5.54839 69.0947 5.57432C69.0677 5.59766 69.0359 5.6094 69.0229 5.59438C69.0096 5.58496 69.0085 5.52299 69.016 5.45884C69.0235 5.39469 69.0075 5.26693 68.9805 5.17493C68.9535 5.08293 68.8898 4.95449 68.8353 4.89142C68.7835 4.83136 68.6769 4.75041 68.6036 4.7141L68.4678 4.64789C68.6172 4.33533 68.6605 4.1669 68.6619 4.07135C68.6629 3.9814 68.6405 3.86442 68.6132 3.8146C68.5859 3.76478 68.5814 3.711 68.6054 3.69025C68.6354 3.66432 68.7143 3.70104 68.8343 3.79141C68.9353 3.87195 69.0606 4.0049 69.1164 4.08776ZM71.5019 4.2034C71.5617 4.19371 71.6777 4.14595 71.7632 4.09313C71.8787 4.01438 71.9728 3.99596 72.1833 4.00294C72.3292 4.008 72.5624 3.97444 72.7004 3.93391C72.8384 3.89338 73.0184 3.81654 73.1039 3.76373C73.1893 3.71091 73.2799 3.6641 73.3001 3.65714C73.3229 3.65318 73.3337 3.77494 73.3248 3.93463C73.3134 4.09133 73.3106 4.28242 73.3217 4.362C73.3271 4.44116 73.3777 4.63335 73.4338 4.78937C73.5118 5.03138 73.5646 5.11683 73.7617 5.34506C73.9613 5.5763 74.0278 5.62899 74.2188 5.71049C74.3416 5.76168 74.5656 5.81466 74.7111 5.82532C74.8592 5.83898 75.0769 5.82398 75.1999 5.79641C75.3546 5.75711 75.4831 5.69338 75.653 5.56236C75.799 5.45208 75.9263 5.32638 75.9777 5.24012C76.0256 5.16204 76.0848 5.00604 76.1068 4.89793C76.1318 4.78724 76.1397 4.60215 76.1199 4.48818C76.0974 4.33462 76.0518 4.22719 75.9467 4.08728C75.8365 3.94136 75.7596 3.87666 75.6126 3.80963C75.482 3.74942 75.3791 3.73345 75.2479 3.7576C75.1507 3.77861 75.0638 3.77506 75.0538 3.75745C75.0469 3.73725 75.0712 3.67432 75.1114 3.62382C75.1491 3.57032 75.2554 3.46277 75.3429 3.38197C75.4304 3.30117 75.6018 3.18994 75.7156 3.13358C75.8324 3.07462 76.0233 3.0042 76.1436 2.97363C76.261 2.94566 76.4706 2.92725 76.6105 2.9375C76.7504 2.94774 76.9688 3.00031 77.0972 3.05191C77.2282 3.10652 77.4205 3.20781 77.5254 3.27456C77.6302 3.34132 77.8132 3.49257 77.9285 3.60791C78.0572 3.73268 78.2038 3.92064 78.2995 4.07393C78.3848 4.21521 78.4941 4.45108 78.5424 4.59809C78.5907 4.7451 78.6467 4.97987 78.6674 5.11923C78.6882 5.2586 78.6899 5.50347 78.6698 5.66234C78.6498 5.82122 78.5916 6.0392 78.5416 6.14525C78.4887 6.2539 78.3988 6.40486 78.3341 6.4817C78.2694 6.55854 78.1493 6.66227 78.0639 6.71509C77.9664 6.77828 77.9002 6.79875 77.8743 6.76871C77.8501 6.74069 77.87 6.69901 77.9341 6.64369C77.9881 6.59701 78.0627 6.5012 78.093 6.43309C78.1289 6.36539 78.1645 6.22453 78.1693 6.1208C78.1771 6.01447 78.1679 5.87033 78.1505 5.80153C78.1334 5.72714 78.0515 5.57768 77.9672 5.46179C77.8366 5.28624 77.7783 5.23696 77.5929 5.15587C77.4679 5.09608 77.2797 5.05416 77.1446 5.05552C77.021 5.0521 76.8421 5.07556 76.7501 5.10258C76.6581 5.1296 76.4926 5.19907 76.3844 5.25584C76.2701 5.3178 76.1182 5.43327 76.0209 5.53304C75.9296 5.62762 75.8144 5.77953 75.76 5.86839C75.7083 5.96024 75.6426 6.12703 75.6116 6.24292C75.5806 6.3588 75.5641 6.54607 75.5671 6.65881C75.5727 6.77456 75.6147 6.96893 75.6565 7.09014C75.7012 7.20876 75.8104 7.40805 75.9026 7.53295C76.0102 7.67586 76.1437 7.81223 76.2827 7.91243C76.4031 7.9972 76.5752 8.10545 76.673 8.152C76.7709 8.19855 76.9523 8.25685 77.0798 8.28307C77.2098 8.31229 77.3253 8.34887 77.3383 8.36389C77.3513 8.37891 77.3394 8.42586 77.3055 8.46558C77.2747 8.5027 77.1843 8.62267 77.1008 8.72627C77.0198 8.83286 76.9017 9.02395 76.8415 9.15457C76.7813 9.28519 76.7076 9.48515 76.6766 9.60103C76.6456 9.71691 76.6112 9.95632 76.5951 10.138C76.5846 10.3201 76.581 10.5224 76.5955 10.5938C76.6073 10.6621 76.6024 10.7293 76.5874 10.7423C76.5724 10.7552 76.4437 10.7458 76.3024 10.7158C76.1637 10.6887 75.8981 10.6665 75.7148 10.6727C75.5289 10.676 75.2274 10.7214 75.0382 10.7694C74.8516 10.8205 74.5968 10.92 74.4731 10.9953C74.3494 11.0706 74.2141 11.1508 74.1673 11.1755C74.0939 11.2179 74.0887 11.2119 74.0666 10.9374C74.0553 10.7847 74.0223 10.5825 73.9922 10.4931C73.9652 10.4011 73.8936 10.2271 73.832 10.1072C73.7735 9.98479 73.6597 9.81048 73.5819 9.72038C73.5041 9.63029 73.3564 9.4957 73.2546 9.42635C73.1527 9.35701 72.9932 9.26937 72.8971 9.23701C72.804 9.20206 72.6576 9.16602 72.5766 9.15727C72.4931 9.14553 72.3382 9.14825 72.2332 9.16025C72.1256 9.16925 71.9623 9.21074 71.8612 9.24554C71.7628 9.28334 71.5923 9.38338 71.4816 9.47373C71.3683 9.56108 71.2294 9.69156 71.1703 9.76881C71.1116 9.84046 71.0213 9.99702 70.9706 10.1143C70.9202 10.2259 70.8671 10.4133 70.8559 10.5278C70.8451 10.6368 70.8647 10.8295 70.8953 10.9499C70.9402 11.1051 71.0017 11.2249 71.1003 11.339C71.1884 11.4411 71.311 11.5345 71.4119 11.5785C71.5071 11.622 71.6786 11.6627 71.7931 11.6739C71.9386 11.6846 72.0698 11.6604 72.2038 11.5971C72.3116 11.5459 72.4062 11.5219 72.4132 11.5421C72.4227 11.5653 72.322 11.6733 72.1873 11.7844C71.9861 11.9581 71.91 11.9975 71.6981 12.0495C71.5575 12.0871 71.3308 12.1098 71.1908 12.0996C71.0509 12.0893 70.8231 12.0502 70.6853 12.0119C70.5504 11.9711 70.3155 11.8751 70.1689 11.8025C70.0228 11.7243 69.8001 11.5758 69.6758 11.4682C69.5092 11.3238 69.3976 11.1946 69.2609 10.9877C69.157 10.831 69.0357 10.6055 68.9879 10.4895C68.9376 10.3705 68.8774 10.1551 68.8515 10.0097C68.8256 9.86433 68.8222 9.64184 68.8454 9.51695C68.8686 9.39206 68.9397 9.1891 69.0051 9.06448C69.0731 8.94287 69.1964 8.75779 69.2799 8.6542C69.366 8.55361 69.5046 8.42873 69.5874 8.3729C69.6729 8.32009 69.7639 8.26768 69.7871 8.25813C69.8133 8.24598 69.8521 8.25445 69.8677 8.27246C69.8828 8.29608 69.8797 8.37743 69.8571 8.45455C69.8346 8.53167 69.8196 8.65997 69.8255 8.73354C69.8319 8.83809 69.8787 8.92873 70.0127 9.09608C70.1701 9.29046 70.218 9.32773 70.4041 9.39763C70.5192 9.43981 70.7143 9.46535 70.8386 9.45758C70.9604 9.4468 71.1526 9.39618 71.266 9.34541C71.4116 9.27731 71.5129 9.20033 71.6171 9.08418C71.6968 8.99438 71.8123 8.80029 71.8737 8.65288C71.9385 8.49728 71.9847 8.28967 71.9859 8.15755C71.9868 8.03102 71.9593 7.82928 71.9284 7.71448C71.8948 7.59668 71.815 7.41924 71.7462 7.32136C71.6804 7.2209 71.5395 7.06993 71.4359 6.98638C71.3323 6.90284 71.1301 6.78394 70.9857 6.71992C70.8249 6.64906 70.5897 6.59527 70.3745 6.57669C70.095 6.5506 70.0317 6.5319 70.0496 6.47976C70.0607 6.444 70.1202 6.36115 70.1759 6.29209C70.2342 6.22603 70.3346 6.0449 70.4025 5.88671C70.4703 5.72852 70.5293 5.49935 70.5383 5.37623C70.5452 5.24451 70.5817 5.12904 70.6208 5.09533C70.6598 5.06162 70.7194 4.97877 70.7523 4.91367C70.7882 4.84597 70.8122 4.70988 70.805 4.61652C70.8007 4.52057 70.7553 4.33438 70.7062 4.19857C70.6544 4.05975 70.6299 3.93417 70.6449 3.92121C70.6625 3.91124 70.8383 3.96913 71.0344 4.05664C71.2362 4.14455 71.4451 4.21049 71.5019 4.2034ZM78.4181 9.79047C78.4234 9.83306 78.4042 9.86541 78.3612 9.87632C78.3066 9.89201 78.2932 9.8826 78.2921 9.82063C78.2898 9.77545 78.3077 9.72331 78.3283 9.71075C78.3493 9.6926 78.3751 9.68605 78.3855 9.69806C78.3985 9.71308 78.4124 9.75348 78.4181 9.79047ZM75.4605 12.3392C75.4641 12.3676 75.447 12.4085 75.423 12.4292C75.399 12.45 75.3546 12.4411 75.3261 12.4081C75.2975 12.3751 75.2832 12.3402 75.2982 12.3273C75.3102 12.3169 75.3507 12.303 75.3876 12.2973C75.4246 12.2915 75.46 12.3082 75.4635 12.3366L75.4605 12.3392ZM78.1544 12.393C78.1497 12.418 78.1125 12.4659 78.0704 12.5022C78.0284 12.5385 77.9756 12.5684 77.9536 12.5611C77.9312 12.5595 77.9177 12.5135 77.9188 12.4601C77.9229 12.4042 77.9352 12.3516 77.9468 12.3468C77.9558 12.3391 78.0066 12.3372 78.0599 12.3383C78.1129 12.3449 78.1534 12.3676 78.1544 12.393Z" fill="var(--fill-0, #F5F2EB)" fill-rule="evenodd"></path><path d="M77.6986 12.7951C77.8204 12.9361 78.0602 12.9285 78.2344 12.7781C78.4085 12.6277 78.451 12.3915 78.3293 12.2506C78.2075 12.1096 77.9677 12.1172 77.7935 12.2676C77.6194 12.418 77.5769 12.6542 77.6986 12.7951Z" fill="var(--fill-0, #F5F2EB)"></path><path d="M77.867 10.1354C77.9887 10.2764 78.2286 10.2688 78.4027 10.1184C78.5769 9.968 78.6194 9.73181 78.4976 9.59084C78.3759 9.44986 78.136 9.45748 77.9619 9.60786C77.7878 9.75824 77.7453 9.99443 77.867 10.1354Z" fill="var(--fill-0, #F5F2EB)"></path><path d="M74.9827 12.6246C75.1044 12.7656 75.3443 12.7579 75.5184 12.6076C75.6926 12.4572 75.7351 12.221 75.6133 12.08C75.4916 11.939 75.2518 11.9467 75.0776 12.097C74.9035 12.2474 74.861 12.4836 74.9827 12.6246Z" fill="var(--fill-0, #F5F2EB)"></path></g></svg>