<svg class="absolute block size-full" fill="none" preserveAspectRatio="none" viewBox="0 0 50.4118 50.3505"><g id="Vector"><path d="M16.8304 1.41623C17.7519 1.07921 19.4153 0.607394 20.5391 0.382719C22.1575 0.0232384 23.1915 -0.0441642 25.8214 0.0232384C28.3838 0.090641 29.5302 0.225446 31.216 0.674797C32.3848 0.966875 34.1156 1.52856 35.0371 1.93298C35.9587 2.31493 37.5322 3.12376 38.5212 3.73038C39.5102 4.33701 40.9487 5.37051 41.713 6.04454C42.4772 6.6961 43.6685 7.88688 44.3653 8.69571C45.0621 9.50454 46.141 10.9649 46.7479 11.9535C47.3548 12.9421 48.164 14.5148 48.5461 15.436C48.9507 16.3571 49.5127 18.0871 49.8274 19.2554C50.3443 21.1652 50.4118 21.7943 50.4118 25.2093C50.3893 28.5795 50.3219 29.276 49.8274 31.1632C49.5127 32.3316 48.9507 34.0616 48.5461 34.9827C48.164 35.9039 47.3548 37.4766 46.7479 38.4652C46.141 39.4538 45.0621 40.9142 44.3653 41.723C43.6685 42.5318 42.4772 43.7226 41.713 44.3742C40.9487 45.0482 39.5102 46.0817 38.5212 46.6883C37.5322 47.2949 35.9587 48.1038 35.0371 48.4857C34.1156 48.8901 32.3848 49.4518 31.216 49.7664C29.3279 50.2606 28.6311 50.328 25.2594 50.3505C21.8428 50.3505 21.2135 50.2831 19.3029 49.7664C18.1341 49.4518 16.4033 48.8901 15.4817 48.4857C14.5601 48.1038 12.9867 47.2949 11.9977 46.6883C11.0087 46.0817 9.57012 45.0482 8.80588 44.3742C8.04165 43.7226 6.85034 42.5318 6.15354 41.723C5.45673 40.9142 4.37781 39.4538 3.77092 38.4652C3.16403 37.4766 2.35484 35.9039 1.97272 34.9827C1.56812 34.0616 1.00618 32.3316 0.713977 31.1632C0.376814 29.8377 0.107084 28.0627 0.0396514 26.4451C-0.0502587 24.8499 0.0171739 23.1199 0.196994 21.9516C0.331859 20.8956 0.713977 19.188 1.02866 18.1321C1.32087 17.0761 1.92776 15.4584 2.35484 14.5373C2.80439 13.6161 3.68101 12.0434 4.33286 11.0548C5.00718 10.0662 6.37831 8.40363 7.41228 7.37012C8.44624 6.33662 10.1096 4.9661 11.0986 4.31454C12.0876 3.66298 13.3913 2.87662 14.0207 2.56207C14.6276 2.26999 15.9088 1.73077 16.8304 1.41623Z" fill="var(--fill-0, #F5F2EB)"></path><path clip-rule="evenodd" d="M21.8873 2.06754C22.2694 2.13494 23.3483 2.17987 26.0456 2.17987V12.9643C26.0456 18.8957 26.1131 23.7487 26.2255 23.7487C26.3154 23.7712 26.5851 23.5465 26.8324 23.2994C27.0796 23.0522 27.3493 22.8275 27.4617 22.85C27.5516 22.85 27.6191 22.9623 27.6191 23.0747C27.6191 23.187 27.237 23.7038 26.7649 24.2205C26.2479 24.7822 25.6186 25.2091 25.0791 25.3439C24.5621 25.4787 23.8878 25.4562 23.2809 25.3214C22.7639 25.2091 21.9547 24.8496 21.4827 24.5351C20.9657 24.1756 20.4712 23.5914 20.179 22.8949C19.8194 22.131 19.7519 21.6368 19.8643 21.0526C19.9542 20.6257 20.6061 18.4913 21.3254 16.3344C22.0671 14.1775 22.8089 11.751 22.9887 10.9422C23.191 10.1334 23.3483 8.53818 23.3483 7.39234C23.3483 5.72974 23.2584 5.10065 22.8314 4.17948C22.5616 3.55039 22.1121 2.89883 21.8199 2.71909C21.5501 2.53935 21.1006 2.40455 20.8084 2.38208C20.3364 2.38208 20.3363 2.35961 20.7634 2.17987C21.0107 2.06754 21.5052 2.0226 21.8873 2.06754ZM38.4532 5.81961C38.5207 6.22403 38.7679 7.93156 38.9477 9.59416C39.15 11.2568 39.3074 12.7621 39.3074 12.9194C39.3074 13.0766 39.6221 13.189 40.7684 13.2339L40.0267 13.4361C39.5097 13.5934 39.3299 13.7507 39.3973 14.0203C39.4647 14.2449 39.667 16.2895 39.8918 18.5812C40.1166 20.8729 40.3638 22.8275 40.4762 22.9623C40.6111 23.0971 40.8134 23.0297 41.0157 22.7377C41.218 22.4905 41.4427 22.131 41.5551 21.9513C41.6675 21.7716 41.8024 21.6817 41.8698 21.7716C41.9372 21.8839 41.8698 22.2209 41.69 22.5579C41.5327 22.9174 41.0831 23.4566 40.6785 23.7936C40.139 24.2879 39.7569 24.4227 38.9028 24.4227C38.3184 24.4227 37.4867 24.243 37.0596 24.0183C36.6325 23.8161 36.0481 23.2769 35.7559 22.85C35.2839 22.1535 35.2389 21.8614 35.3064 20.4909C35.3963 19.1204 35.5536 18.6486 36.5651 16.7164C37.217 15.5256 37.7115 14.3573 37.6665 14.1551C37.6216 13.8405 37.4193 13.7731 35.3738 13.8855L36.2729 13.3687C36.8124 13.0542 37.3968 12.4251 37.734 11.8409C38.2509 10.8973 38.2959 10.6052 38.2959 7.95403C38.2959 6.35883 38.3633 5.39273 38.4532 5.81961ZM9.1875 8.02143C9.99669 8.02143 10.6485 8.15624 11.0981 8.42585C11.4577 8.65052 12.177 9.32455 12.6715 9.9087C13.5481 10.9647 13.5931 10.9871 14.5821 10.8523C15.144 10.7849 15.8408 10.6501 16.1331 10.5603C16.5601 10.4255 16.6725 10.4479 16.5826 10.6726C16.5377 10.8523 16.1331 11.0995 15.706 11.2343C15.2564 11.3916 14.5596 11.7735 14.1326 12.0881C13.7055 12.4026 13.0761 13.2114 12.7165 13.8855C12.2894 14.7617 12.1096 15.4357 12.1096 16.267C12.1096 16.9186 12.2669 18.1768 12.4467 19.0305C12.694 20.1988 12.7165 20.8279 12.5591 21.5019C12.4243 21.9962 12.0646 22.7152 11.705 23.1196C11.3678 23.5016 10.6935 24.0183 10.199 24.2205C9.63705 24.4901 8.76043 24.6474 7.83885 24.6249C6.84984 24.6249 5.99569 24.4677 5.16403 24.1307C4.42227 23.8386 3.70299 23.3218 3.32087 22.85C2.98371 22.4231 2.55663 21.6143 2.42177 21.0526C2.19699 20.2662 2.19699 19.8394 2.39929 19.0755C2.55663 18.5587 2.93875 17.8397 3.27591 17.4803C3.63555 17.1208 4.10758 16.7613 4.35484 16.6939C4.60209 16.6265 4.96173 16.649 5.14155 16.7613C5.41128 16.941 5.34385 17.0758 4.71448 17.6151C4.2874 17.9521 3.81537 18.5812 3.63555 18.9631C3.3883 19.5922 3.3883 19.8169 3.68051 20.4909C3.92776 21.0751 4.30988 21.4345 5.1865 21.8614C6.24295 22.3557 6.4902 22.4007 7.20948 22.1984C7.74894 22.0412 8.33336 21.6368 8.73795 21.0975C9.12007 20.6482 9.5921 19.7045 9.77192 19.0305C9.97422 18.3565 10.0866 17.6825 10.0192 17.5701C9.97422 17.4578 9.32237 17.2107 8.60309 17.0309C7.88381 16.8736 7.02966 16.604 6.71497 16.4468C6.40029 16.2895 5.88331 15.8626 5.52367 15.4582C5.16403 15.0313 4.87182 14.4022 4.78191 13.7956C4.71448 13.2788 4.78191 12.3352 4.91677 11.7286C5.05164 11.0995 5.43376 10.2232 5.74844 9.7739C6.06313 9.30208 6.6925 8.74039 7.14205 8.49325C7.65903 8.20117 8.40079 8.0439 9.1875 8.02143ZM17.9987 11.6387C18.6056 11.6162 19.3698 11.7735 19.7519 11.9532C20.1116 12.133 20.5836 12.5823 20.7634 12.9643C20.9432 13.3238 21.1006 13.9753 21.1006 14.3573C21.1006 14.7617 20.8983 15.5031 20.6735 15.9974C20.4487 16.4917 20.0217 17.1882 19.707 17.5701C19.3923 17.9521 18.8528 18.379 18.4932 18.5362C18.1336 18.716 17.5716 18.7834 17.212 18.716C16.8748 18.6486 16.2904 18.334 15.2564 17.4578L15.144 17.9521C15.0766 18.2442 15.0317 18.9182 15.0317 19.4799C15.0317 20.0865 15.234 20.8953 15.5262 21.5019C15.9308 22.2883 16.178 22.5355 16.65 22.5579C17.0322 22.6029 17.4368 22.4681 17.6615 22.1984C17.8863 21.9513 18.2459 21.2548 18.4482 20.6257C18.673 19.9966 18.9427 19.5248 19.0776 19.5922C19.19 19.6596 19.3024 20.0416 19.3024 20.4235C19.3024 20.8279 19.19 21.5469 19.0776 21.9962C18.9427 22.4681 18.5606 23.0971 18.1785 23.4117C17.7964 23.7262 17.2794 23.9734 16.9872 23.9734C16.7175 23.9734 16.0431 23.6813 15.4812 23.3218C14.8069 22.8949 14.2449 22.2658 13.8179 21.457C13.3458 20.6032 13.1211 19.8394 13.0536 18.8058C12.9862 17.9521 13.0536 16.8736 13.2335 16.2221C13.3908 15.593 13.7055 14.7392 13.9303 14.3123C14.1326 13.8855 14.6495 13.2114 15.0766 12.807C15.4812 12.4026 16.0656 11.9982 16.3803 11.8634C16.695 11.751 17.4143 11.6387 17.9987 11.6387ZM43.1735 11.6162C43.4657 11.6162 43.9827 11.8409 44.3648 12.0881C44.7245 12.3352 45.4213 13.0766 45.9158 13.7057C46.3878 14.3573 47.0846 15.4807 47.4218 16.2221C47.7814 16.9635 48.141 17.9296 48.2085 18.3565C48.2984 18.8732 48.231 19.39 47.9837 19.8618C47.7589 20.3112 47.2419 20.783 46.6575 21.0751C46.1181 21.3671 45.0841 21.6143 44.2524 21.6817C43.1286 21.7716 42.6565 21.7266 42.162 21.4345C41.8249 21.2323 41.3304 20.5808 41.0831 19.9742C40.656 19.053 40.6111 18.6486 40.7235 16.7838C40.7909 15.6155 40.9707 14.2449 41.1281 13.7507C41.2629 13.2564 41.6675 12.5823 42.0272 12.2229C42.3643 11.8858 42.8813 11.6162 43.1735 11.6162ZM29.9118 12.0656C30.3838 12.0656 31.1256 12.2453 31.5751 12.4475C32.0696 12.6947 32.6091 13.2114 32.9238 13.7507C33.3733 14.537 33.5082 15.3234 33.9128 19.7045C34.16 22.4905 34.4747 24.8496 34.6096 24.9844C34.7594 25.1342 34.9467 25.0593 35.1715 24.7597C35.3513 24.5126 35.4862 24.1307 35.4862 23.906C35.4862 23.7038 35.5761 23.524 35.711 23.524C35.8458 23.524 35.8908 23.7936 35.8234 24.1307C35.7559 24.4901 35.4412 24.9844 35.149 25.254C34.8344 25.5461 34.3623 25.7708 34.0701 25.7708C33.8004 25.7932 33.3059 25.591 32.3393 24.8721L31.7549 25.3664C31.3503 25.7483 30.9008 25.8831 30.159 25.8831C29.3274 25.8831 29.0576 25.7708 28.5406 25.2091C28.0237 24.6474 27.8888 24.243 27.7764 22.85C27.6865 21.9288 27.5516 20.6257 27.5067 19.9742C27.3943 18.8283 27.3943 18.8058 28.0012 18.8058C28.3608 18.8058 29.1251 18.6486 29.7544 18.4688C30.3613 18.2891 31.148 17.8622 31.5077 17.5027C31.8448 17.1657 32.227 16.604 32.3618 16.2221C32.5192 15.7503 32.5192 15.256 32.3618 14.582C32.227 14.0652 31.8673 13.3912 31.5526 13.0766C31.1256 12.6497 30.7659 12.5149 29.0801 12.5149L29.7994 12.9643C30.204 13.2114 30.6311 13.6158 30.7659 13.863C30.8783 14.1101 30.9907 14.5145 30.9907 14.7617C30.9907 15.0088 30.8558 15.4807 30.676 15.8177C30.5187 16.1771 30.1141 16.5816 29.7769 16.7164C29.4622 16.8736 28.9452 17.0084 28.6306 17.0084C28.3159 17.0084 27.7764 16.7164 27.3943 16.3344C26.8998 15.8401 26.72 15.4582 26.72 14.874C26.72 14.4471 26.9223 13.7731 27.192 13.3912C27.4617 13.0092 27.9787 12.5599 28.3833 12.3801C28.7654 12.2229 29.4622 12.0881 29.9118 12.0656ZM11.3229 25.5461C11.6825 25.5461 12.4018 25.6584 12.8963 25.7932C13.5032 25.9505 14.1775 26.4448 16.1555 28.4669L17.212 28.2647C17.8189 28.1523 18.3583 28.0849 18.4482 28.1523C18.5606 28.1973 18.6281 28.3545 18.6281 28.4669C18.6281 28.6017 18.4482 28.6916 18.2235 28.6916C18.0212 28.6916 17.3244 28.9387 16.7175 29.2083C15.8408 29.6127 15.4812 29.9497 15.0766 30.7361C14.7844 31.3203 14.5147 32.3538 14.4472 33.2974C14.3349 34.4208 14.4023 35.3869 14.6945 36.6675C14.8968 37.6561 15.0092 38.757 14.9417 39.139C14.8518 39.5209 14.5147 40.1725 14.1775 40.5769C13.8403 41.0038 13.1211 41.5655 12.5591 41.7901C11.9522 42.0597 11.0082 42.217 10.199 42.2395C9.14255 42.2395 8.51318 42.0822 7.32187 41.543C6.17551 41.0038 5.65853 40.5994 5.1865 39.8804C4.71448 39.1614 4.57961 38.6896 4.60209 37.8134C4.60209 37.1169 4.80439 36.3081 5.09659 35.7014C5.3888 35.1622 5.88331 34.6005 6.26542 34.4208C6.62506 34.241 7.14205 34.1287 7.3893 34.1961C7.7939 34.3084 7.74894 34.3983 6.98471 35.1397C6.51268 35.6116 6.06313 36.2631 5.97322 36.6001C5.86083 37.027 5.95074 37.5213 6.19799 38.0605C6.44524 38.5323 6.91727 39.0491 7.3893 39.2962C7.81637 39.5209 8.55813 39.7007 9.00768 39.7007C9.61457 39.7007 10.0641 39.5209 10.5586 39.0716C10.9632 38.7345 11.4577 38.083 11.6825 37.6112C11.9298 37.1618 12.177 36.353 12.3793 34.8701L10.7385 34.4432C9.47971 34.1062 8.87282 33.8142 8.26592 33.2075C7.68151 32.6234 7.36682 32.0842 7.20948 31.2753C7.07462 30.6462 7.05214 29.8149 7.14205 29.3656C7.23196 28.9387 7.47921 28.2871 7.65903 27.9052C7.86133 27.5232 8.26592 27.0065 8.55813 26.7369C8.82786 26.4673 9.43475 26.0853 9.86183 25.9056C10.2889 25.7258 10.9407 25.5686 11.3229 25.5461ZM46.9273 26.2201C47.0621 26.2201 47.2644 26.4223 47.3993 26.6695C47.5117 26.9166 47.6241 27.2986 47.6241 27.5008C47.6241 27.7255 47.4442 28.0849 47.2195 28.3096C47.0172 28.5343 46.6126 28.714 46.3204 28.6916C46.0506 28.6916 45.6236 28.4893 45.3763 28.2422C45.1291 27.9951 44.9268 27.6131 44.9492 27.3884C44.9492 27.1638 45.0391 27.2536 45.174 27.6131C45.3089 28.04 45.5786 28.2871 45.9832 28.377C46.3428 28.4669 46.7699 28.4219 46.9497 28.3096C47.1296 28.1748 47.3319 27.8378 47.3543 27.5457C47.3993 27.2536 47.2644 26.8268 47.0396 26.6021C46.8373 26.3999 46.7699 26.2201 46.9273 26.2201ZM24.5621 26.4448C24.6296 26.4448 24.8993 26.5347 25.1465 26.6695C25.3938 26.7818 25.5961 27.0514 25.5961 27.2312C25.5961 27.4109 25.3713 27.7704 24.5846 28.4444L25.2589 29.0061C25.7984 29.433 26.0007 29.5004 26.2479 29.2982C26.5177 29.0735 26.5401 29.096 26.3828 29.3656C26.2479 29.6127 26.3828 29.8374 26.8548 30.1969C27.3044 30.5339 27.4392 30.781 27.2819 30.9383C27.1246 31.0956 26.8773 31.0282 26.4952 30.7361C26.0007 30.3317 25.8883 30.3092 25.4837 30.6013C25.2365 30.781 24.697 30.9383 24.2924 30.9383C23.7529 30.9383 23.4832 30.8035 23.236 30.3766C23.0112 30.0171 22.9662 29.6801 23.1011 29.4105C23.191 29.2083 23.4832 28.9612 23.708 28.8488C24.0451 28.714 24.0901 28.6242 23.8428 28.3995C23.6855 28.2647 23.5731 27.9052 23.5731 27.6581C23.5731 27.3884 23.7529 27.0514 23.9328 26.9166C24.225 26.7144 24.2699 26.7369 24.1575 27.1638C24.0676 27.4558 24.1126 27.8378 24.2474 28.0175C24.4497 28.3096 24.5172 28.2871 24.8094 27.9052C25.0117 27.6581 25.1465 27.3884 25.1241 27.2986C25.1016 27.2087 24.9218 26.984 24.7419 26.8043C24.5621 26.6021 24.4722 26.4448 24.5621 26.4448ZM46.3428 26.6695C46.7699 26.6695 46.8598 26.8043 46.8373 27.3435C46.8373 27.703 46.7699 28.0175 46.6575 28.0175C46.5676 28.0175 46.4552 27.8827 46.4103 27.7255C46.3428 27.5232 46.2529 27.5457 46.0956 27.7929C45.9158 28.0625 45.8483 28.0175 45.7584 27.5682C45.691 27.2536 45.6685 26.9391 45.736 26.8268C45.8034 26.7369 46.0731 26.6695 46.3428 26.6695ZM41.4203 27.7929C41.8024 27.7929 42.5666 28.04 43.1061 28.3096C43.6455 28.5792 44.702 29.3656 45.4437 30.0396C46.1855 30.7136 47.0846 31.7247 47.4442 32.2864C47.8039 32.8481 48.0736 33.5445 48.0736 33.8591C48.0736 34.1736 47.8488 34.7803 47.5791 35.2071C47.2869 35.634 46.6126 36.2631 46.0506 36.6001C45.4887 36.9596 44.6795 37.3191 44.2524 37.409C43.8254 37.5213 43.1286 37.5213 42.724 37.409C42.3418 37.3191 41.7799 36.9596 41.4877 36.6001C41.1955 36.2631 40.7459 35.4094 40.4762 34.6904C40.2065 33.9939 39.8693 32.7582 39.7569 31.9494C39.5996 30.9832 39.5996 30.1744 39.7569 29.5229C39.8693 29.0061 40.139 28.3995 40.3413 28.1748C40.5661 27.9726 41.0381 27.7929 41.4203 27.7929ZM26.72 28.2422C27.0796 28.2422 27.1021 28.3096 26.8773 28.5792C26.72 28.7814 26.5851 28.9387 26.5401 28.9162C26.5177 28.9162 26.4502 28.759 26.3828 28.5792C26.3378 28.3545 26.4502 28.2422 26.72 28.2422ZM36.6101 29.1409C36.9248 29.1184 37.4193 29.3207 37.734 29.5453C38.2285 29.9273 38.4308 30.5788 39.5322 35.8812C40.6111 41.0487 40.8358 41.8126 41.2629 42.0373C41.645 42.2395 41.8698 42.1945 42.3194 41.88C42.634 41.6778 43.0611 41.1386 43.2409 40.7117C43.4208 40.2848 43.5781 39.5658 43.5781 39.139C43.5781 38.7121 43.668 38.3526 43.8029 38.3526C43.9153 38.3526 44.0277 38.6896 44.0277 39.0716C44.0277 39.476 43.8029 40.2623 43.5331 40.8016C43.2409 41.3632 42.724 42.0148 42.3868 42.2619C41.9148 42.599 41.3304 42.7562 40.2514 42.8012C39.0376 42.8461 38.6106 42.7787 38.0037 42.4192C37.6216 42.1496 37.0821 41.543 36.8348 41.0487C36.5876 40.5544 36.3179 39.5658 36.2504 38.8469C36.1605 37.9931 36.2729 36.8023 36.5876 35.2071C36.8573 33.904 37.0596 32.4436 37.0596 31.9494C37.0596 31.4551 36.9023 30.826 36.7225 30.5339C36.5426 30.2643 36.1605 30.0396 35.8683 30.0396C35.5986 30.0396 35.2614 30.1295 35.1041 30.2194C34.9692 30.3092 34.677 30.7586 34.4972 31.2079C34.2949 31.6797 34.1375 32.4436 34.1375 32.893C34.1375 33.3648 34.5871 35.9261 35.149 38.5773C35.711 41.2284 36.138 43.4078 36.1156 43.4303C36.0706 43.4527 35.5986 43.5651 35.0366 43.6999C34.4747 43.8347 33.9802 43.8796 33.9128 43.8122C33.8453 43.7448 33.2834 41.206 32.654 38.1504C32.0247 35.1173 31.3953 32.4212 31.2604 32.174C31.148 31.9269 30.8558 31.5449 30.6311 31.3427C30.3838 31.1405 29.7994 30.9383 29.3049 30.8934C28.5406 30.826 28.7429 30.7586 30.8109 30.2643C32.137 29.9497 33.2834 29.7475 33.3508 29.8149C33.4183 29.8823 33.5531 30.2868 33.8229 31.5L34.205 30.7586C34.4073 30.3766 34.9243 29.8374 35.3064 29.5903C35.711 29.3431 36.2954 29.1409 36.6101 29.1409ZM20.4263 32.2864V34.3084L21.1455 33.4996C21.5501 33.0727 22.1795 32.6009 22.5616 32.4886C22.9887 32.3538 23.4607 32.3538 23.7979 32.4886C24.1126 32.6009 24.5621 32.9155 24.8094 33.1851C25.0791 33.4771 25.2589 33.9714 25.2365 34.3983C25.214 34.8477 25.0117 35.2745 24.6071 35.5891C24.2924 35.8812 23.8428 36.1058 23.6181 36.1058C23.4158 36.1283 22.9662 35.9261 22.6066 35.6565C22.1795 35.3419 21.9997 35.0049 21.9997 34.5331C21.9997 34.1512 22.0896 33.6569 22.2245 33.4097C22.4268 33.0278 22.4043 32.9829 22.0446 33.1626C21.8423 33.2749 21.4827 33.5445 21.2804 33.7692C21.0781 34.0164 20.7409 34.6455 20.5386 35.2071C20.3139 35.8587 20.224 36.5327 20.3139 37.1169C20.4038 37.6112 20.7185 39.0042 21.0107 40.1949C21.3029 41.4082 21.5501 42.891 21.5501 43.5201C21.5501 44.1268 21.4153 44.8907 21.2579 45.2052C21.1231 45.5197 20.651 45.9242 20.2464 46.1039C19.8643 46.2836 19.145 46.4184 17.8413 46.3286V39.9927C17.8413 33.949 17.8189 33.6344 17.3918 33.1851C17.1445 32.9379 16.5826 32.6234 16.1555 32.5335C15.5711 32.3762 15.9982 32.3313 20.4263 32.2864ZM27.7315 34.5331C28.5406 34.5331 29.0801 34.6679 29.6196 35.0274C30.0466 35.3195 30.6086 35.9036 30.8558 36.3305C31.2155 36.9371 31.4178 38.1729 31.8224 41.9474C32.1146 44.5986 32.4068 46.9127 32.4517 47.0475C32.5192 47.2048 32.7215 47.3396 32.9013 47.3396C33.1036 47.3396 33.3284 46.9801 33.4857 46.4858C33.6206 46.0365 33.7779 45.6995 33.8453 45.7669C33.8903 45.8343 33.8903 46.1488 33.8229 46.4858C33.7554 46.8453 33.4857 47.3171 33.2384 47.5643C32.9687 47.8339 32.4742 48.0136 32.0471 48.0136C31.6425 48.0136 31.1031 47.8339 30.3164 47.1149L29.9118 47.5643C29.7095 47.8339 29.1925 48.126 28.7879 48.2383C28.2484 48.4181 27.8663 48.3731 27.2819 48.126C26.8548 47.9462 26.3603 47.5194 26.1805 47.1599C26.0232 46.8229 25.7759 45.5197 25.6186 44.2391C25.4837 42.9809 25.3713 41.8126 25.3713 41.6553C25.3713 41.4981 25.7759 41.3408 26.3154 41.2509C26.8548 41.1835 27.7764 40.8914 28.3833 40.5769C28.9902 40.2848 29.6645 39.7456 29.8893 39.3636C30.1141 38.9817 30.3164 38.3526 30.3164 37.9482C30.3164 37.5662 30.159 36.8473 29.9792 36.3755C29.7769 35.8587 29.3723 35.3869 28.9003 35.1173C28.3608 34.8027 27.9787 34.7353 27.5067 34.8701C26.8998 35.0049 26.8773 35.0499 27.2819 35.2071C27.5292 35.297 27.9562 35.6565 28.2484 36.016C28.5182 36.3755 28.7654 36.9596 28.7654 37.3416C28.7654 37.701 28.5631 38.2852 28.2934 38.6222C28.0237 39.0042 27.5516 39.2962 27.1021 39.3861C26.6975 39.4535 26.1131 39.3861 25.731 39.2064C25.3713 39.0491 24.9442 38.6447 24.7869 38.2852C24.6071 37.9482 24.4722 37.4539 24.4722 37.1618C24.4722 36.8922 24.697 36.3755 24.9667 36.016C25.214 35.679 25.7085 35.1847 26.0232 34.96C26.4053 34.6904 26.9897 34.5331 27.7315 34.5331Z" fill="#61331B" fill-rule="evenodd"></path><path d="M7.4125 12.1558C7.30011 11.5491 7.39002 11.3245 8.08682 10.628C8.62628 10.1112 9.14327 9.81914 9.50291 9.81914C9.81759 9.81914 10.2671 9.99888 10.4919 10.2011C10.7167 10.4258 10.9864 11.0998 11.0763 11.7289C11.1662 12.3355 11.1662 13.3915 11.0539 14.0655C10.9639 14.7395 10.7392 15.3012 10.5818 15.3462C10.447 15.3911 9.88503 15.1439 9.34556 14.7845C8.82858 14.4475 8.22169 13.8633 7.97444 13.5038C7.74966 13.1443 7.47993 12.5377 7.4125 12.1558Z" fill="var(--fill-0, #F5F2EB)"></path><path d="M16.5608 14.7395C16.898 14.3351 17.6847 13.7285 18.2916 13.3915C18.921 13.032 19.4829 12.7399 19.5728 12.7399C19.6403 12.7399 19.6627 13.0769 19.5953 13.4589C19.5504 13.8633 19.393 14.5598 19.3031 14.9867C19.1907 15.4136 18.8536 16.1325 18.5838 16.5594C18.2017 17.1211 17.8645 17.3682 17.3925 17.4132C16.9654 17.4581 16.5608 17.3233 16.3136 17.0762C16.0888 16.8515 15.909 16.4021 15.9315 16.0426C15.9315 15.7056 16.2012 15.1215 16.5608 14.7395Z" fill="var(--fill-0, #F5F2EB)"></path><path d="M43.1293 18.0647C43.1293 17.6828 43.1967 16.5594 43.2866 15.6158C43.399 14.6497 43.5339 13.9532 43.6013 14.043C43.6912 14.1329 44.2307 15.0091 44.8151 15.9977C45.5568 17.2559 45.8266 17.9524 45.7367 18.2894C45.6468 18.6039 45.3321 18.896 44.9275 19.0308C44.4779 19.1806 44.0658 19.1806 43.6912 19.0308C43.2641 18.8511 43.1293 18.6489 43.1293 18.0647Z" fill="var(--fill-0, #F5F2EB)"></path><path d="M29.1932 24.131C29.1932 23.9962 29.7102 22.5582 30.362 20.9406C31.0139 19.3229 31.5758 18.1771 31.5983 18.3568C31.6208 18.5365 31.7556 19.9969 31.868 21.6146C32.0928 24.2658 32.0703 24.5803 31.7107 24.9398C31.5084 25.1645 31.0588 25.3442 30.6992 25.3217C30.362 25.3217 29.89 25.1195 29.6428 24.8724C29.3955 24.6252 29.1932 24.2882 29.1932 24.131Z" fill="var(--fill-0, #F5F2EB)"></path><path d="M9.92998 29.1637C9.97494 28.602 10.1997 28.265 10.7616 27.883C11.1662 27.591 11.7507 27.3438 12.0429 27.3438C12.3351 27.3438 12.7621 27.591 13.0319 27.9504C13.459 28.5121 13.5039 28.8267 13.4365 30.6465C13.3915 31.7699 13.2791 32.781 13.1892 32.8933C13.0768 32.9832 12.5374 32.7585 11.953 32.399C11.3461 32.0171 10.6493 31.2981 10.3571 30.8263C10.0424 30.2421 9.88503 29.658 9.92998 29.1637Z" fill="var(--fill-0, #F5F2EB)"></path><path d="M23.6188 29.7478C23.5963 29.5456 23.6862 29.2086 23.8436 29.0289C24.0908 28.7143 24.2032 28.7593 24.8551 29.4108C25.5294 30.0849 25.5743 30.1972 25.2596 30.4893C24.945 30.7813 24.8326 30.7813 24.2931 30.4893C23.956 30.2871 23.6637 29.9725 23.6188 29.7478Z" fill="var(--fill-0, #F5F2EB)"></path><path d="M42.3426 32.1743C42.1178 31.1858 41.893 30.2197 41.8256 30.0399C41.7581 29.8602 42.0504 29.995 42.4774 30.3769C42.9045 30.7364 43.7137 31.5003 44.3206 32.062C44.905 32.6237 45.377 33.2528 45.377 33.455C45.377 33.6797 45.1523 34.0616 44.86 34.3087C44.5903 34.5559 44.0958 34.7581 43.7362 34.7581C43.3765 34.7581 43.0394 34.6008 42.927 34.3762C42.8371 34.1515 42.5673 33.1629 42.3426 32.1743Z" fill="var(--fill-0, #F5F2EB)"></path><path d="M27.5074 47.0703C27.1927 46.5985 27.2377 46.3513 28.2042 43.7002C28.7886 42.105 29.3281 40.8243 29.4405 40.8243C29.5304 40.8243 29.6652 41.7006 29.7551 42.8015C29.8226 43.8799 29.9574 45.2729 30.0249 45.8795C30.1597 46.8906 30.1148 47.0478 29.6203 47.4073C29.2606 47.6919 28.8785 47.7893 28.4739 47.6994C28.1143 47.632 27.6872 47.3399 27.5074 47.0703Z" fill="var(--fill-0, #F5F2EB)"></path></g></svg>