<svg class="absolute block size-full" fill="none" preserveAspectRatio="none" viewBox="0 0 195.651 24.5088"><g clip-path="url(#clip0_40_1973)" id="LOVE MISS"><path d="M193.899 6.30125C193.775 4.8236 193.172 3.62833 192.089 2.71544C191.013 1.80255 189.621 1.3461 187.911 1.3461C186.758 1.3461 185.733 1.55885 184.836 1.98435C183.938 2.40985 183.234 2.99008 182.724 3.72504C182.213 4.45999 181.958 5.30326 181.958 6.25483C181.958 6.86601 182.074 7.41916 182.306 7.91429C182.546 8.40168 182.882 8.83878 183.316 9.2256C183.749 9.60468 184.263 9.93735 184.859 10.2236C185.455 10.5098 186.112 10.7613 186.832 10.9779L189.431 11.7438C190.321 12.0146 191.141 12.3279 191.891 12.6838C192.65 13.0396 193.307 13.4651 193.864 13.9603C194.429 14.4477 194.866 15.0201 195.175 15.6777C195.493 16.3353 195.651 17.0935 195.651 17.9522C195.651 19.2055 195.326 20.3273 194.676 21.3176C194.034 22.3078 193.118 23.0892 191.926 23.6617C190.743 24.2264 189.346 24.5088 187.737 24.5088C186.205 24.5088 184.871 24.2496 183.733 23.7313C182.604 23.213 181.71 22.4935 181.053 21.5729C180.395 20.6445 180.024 19.5769 179.939 18.37H181.424C181.501 19.3525 181.815 20.2035 182.364 20.923C182.921 21.6347 183.66 22.184 184.581 22.5708C185.501 22.9577 186.553 23.1511 187.737 23.1511C189.013 23.1511 190.139 22.9345 191.114 22.5012C192.089 22.0602 192.851 21.4491 193.4 20.6677C193.949 19.8863 194.224 18.9773 194.224 17.9406C194.224 17.1051 194.027 16.3895 193.632 15.7938C193.238 15.1981 192.653 14.6836 191.88 14.2504C191.114 13.8171 190.162 13.4303 189.025 13.0899L186.252 12.2544C184.395 11.6896 182.975 10.9199 181.993 9.94508C181.018 8.9703 180.531 7.75569 180.531 6.30125C180.531 5.0789 180.855 3.99581 181.505 3.05197C182.155 2.1004 183.037 1.35384 184.151 0.812292C185.273 0.270746 186.538 -2.67194e-05 187.946 -2.67194e-05C189.362 -2.67194e-05 190.611 0.274615 191.694 0.823897C192.777 1.36544 193.636 2.112 194.27 3.06358C194.905 4.00742 195.257 5.08664 195.326 6.30125H193.899Z" fill="var(--fill-0, #F5F2EB)" id="Vector"></path><path d="M169.681 6.30125C169.557 4.8236 168.954 3.62833 167.871 2.71544C166.796 1.80255 165.403 1.3461 163.693 1.3461C162.541 1.3461 161.515 1.55885 160.618 1.98435C159.721 2.40985 159.017 2.99008 158.506 3.72504C157.995 4.45999 157.74 5.30326 157.74 6.25483C157.74 6.86601 157.856 7.41916 158.088 7.91429C158.328 8.40168 158.665 8.83878 159.098 9.2256C159.531 9.60468 160.046 9.93735 160.641 10.2236C161.237 10.5098 161.895 10.7613 162.614 10.9779L165.213 11.7438C166.103 12.0146 166.923 12.3279 167.674 12.6838C168.432 13.0396 169.089 13.4651 169.646 13.9603C170.211 14.4477 170.648 15.0201 170.958 15.6777C171.275 16.3353 171.434 17.0935 171.434 17.9522C171.434 19.2055 171.109 20.3273 170.459 21.3176C169.817 22.3078 168.9 23.0892 167.708 23.6617C166.525 24.2264 165.128 24.5088 163.519 24.5088C161.987 24.5088 160.653 24.2496 159.516 23.7313C158.386 23.213 157.493 22.4935 156.835 21.5729C156.177 20.6445 155.806 19.5769 155.721 18.37H157.206C157.284 19.3525 157.597 20.2035 158.146 20.923C158.703 21.6347 159.442 22.184 160.363 22.5708C161.283 22.9577 162.336 23.1511 163.519 23.1511C164.796 23.1511 165.921 22.9345 166.896 22.5012C167.871 22.0602 168.633 21.4491 169.182 20.6677C169.732 19.8863 170.006 18.9773 170.006 17.9406C170.006 17.1051 169.809 16.3895 169.414 15.7938C169.02 15.1981 168.436 14.6836 167.662 14.2504C166.896 13.8171 165.945 13.4303 164.807 13.0899L162.034 12.2544C160.177 11.6896 158.757 10.9199 157.775 9.94508C156.8 8.9703 156.313 7.75569 156.313 6.30125C156.313 5.0789 156.638 3.99581 157.288 3.05197C157.937 2.1004 158.819 1.35384 159.933 0.812292C161.055 0.270746 162.32 -2.67194e-05 163.728 -2.67194e-05C165.144 -2.67194e-05 166.393 0.274615 167.476 0.823897C168.559 1.36544 169.418 2.112 170.053 3.06358C170.687 4.00742 171.039 5.08664 171.109 6.30125H169.681Z" fill="var(--fill-0, #F5F2EB)" id="Vector_2"></path><path d="M146.07 0.359693V24.1258H144.619V0.359693H146.07Z" fill="var(--fill-0, #F5F2EB)" id="Vector_3"></path><path d="M112.2 0.359693H113.778L122.934 22.037H123.097L132.253 0.359693H133.831V24.1258H132.438V3.80625H132.299L123.7 24.1258H122.331L113.732 3.80625H113.592V24.1258H112.2V0.359693Z" fill="var(--fill-0, #F5F2EB)" id="Vector_4"></path><path d="M75.0787 24.1258V0.359693H89.422V2.9127H77.9567V10.9431H88.6793V13.4961H77.9567V21.5728H89.6076V24.1258H75.0787Z" fill="var(--fill-0, #F5F2EB)" id="Vector_5"></path><path d="M50.0486 0.359693L57.1042 20.366H57.3827L64.4383 0.359693H67.4555L58.7288 24.1258H55.7581L47.0314 0.359693H50.0486Z" fill="var(--fill-0, #F5F2EB)" id="Vector_6"></path><path d="M41.4302 12.2429C41.4302 14.7495 40.9776 16.9156 40.0725 18.7414C39.1673 20.5672 37.9256 21.9752 36.3474 22.9655C34.7692 23.9558 32.9666 24.4509 30.9397 24.4509C28.9128 24.4509 27.1102 23.9558 25.532 22.9655C23.9538 21.9752 22.7121 20.5672 21.8069 18.7414C20.9018 16.9156 20.4492 14.7495 20.4492 12.2429C20.4492 9.73629 20.9018 7.57011 21.8069 5.74432C22.7121 3.91854 23.9538 2.51052 25.532 1.52026C27.1102 0.530006 28.9128 0.0348773 30.9397 0.0348773C32.9666 0.0348773 34.7692 0.530006 36.3474 1.52026C37.9256 2.51052 39.1673 3.91854 40.0725 5.74432C40.9776 7.57011 41.4302 9.73629 41.4302 12.2429ZM38.6451 12.2429C38.6451 10.185 38.3009 8.44819 37.6123 7.03243C36.9315 5.61667 36.007 4.54519 34.8388 3.81797C33.6784 3.09075 32.3787 2.72714 30.9397 2.72714C29.5007 2.72714 28.1972 3.09075 27.029 3.81797C25.8685 4.54519 24.944 5.61667 24.2555 7.03243C23.5747 8.44819 23.2343 10.185 23.2343 12.2429C23.2343 14.3008 23.5747 16.0376 24.2555 17.4533C24.944 18.8691 25.8685 19.9406 27.029 20.6678C28.1972 21.395 29.5007 21.7586 30.9397 21.7586C32.3787 21.7586 33.6784 21.395 34.8388 20.6678C36.007 19.9406 36.9315 18.8691 37.6123 17.4533C38.3009 16.0376 38.6451 14.3008 38.6451 12.2429Z" fill="var(--fill-0, #F5F2EB)" id="Vector_7"></path><path d="M0 24.1258V0.359693H2.87793V21.5728H13.9255V24.1258H0Z" fill="var(--fill-0, #F5F2EB)" id="Vector_8"></path></g><defs><clipPath id="clip0_40_1973"><rect fill="white" height="24.5088" width="195.651"></rect></clipPath></defs></svg>